<?xml version="1.0" encoding="utf-8"?>
<!-- Generator: Adobe Illustrator 16.0.3, SVG Export Plug-In . SVG Version: 6.00 Build 0)  -->
<!DOCTYPE svg PUBLIC "-//W3C//DTD SVG 1.1//EN" "http://www.w3.org/Graphics/SVG/1.1/DTD/svg11.dtd">
<svg version="1.1" id="Capa_1" xmlns="http://www.w3.org/2000/svg" xmlns:xlink="http://www.w3.org/1999/xlink" x="0px" y="0px"
	 width="114.085px" height="126.387px" viewBox="0 0 114.085 126.387" enable-background="new 0 0 114.085 126.387"
	 xml:space="preserve">
<g>
	<g>
		<g>
			<path d="M54.986,92.896c0,0,0.321,0.962,0.403,2.85c0.078,1.89-0.075,4.719-1.151,8.367c-0.808,2.674-1.93,5.728-3.493,8.696
				c-0.811,1.472-1.675,2.938-2.794,4.263l-0.198,0.245l-0.069,0.08l-0.021,0.03l-0.052,0.05l-0.102,0.104l-0.416,0.427
				c-0.259,0.27-0.539,0.547-0.886,0.836c-0.641,0.578-1.3,1.036-1.943,1.458c-2.663,1.651-5.343,2.23-7.206,2.348
				c-1.88,0.137-2.993-0.092-2.993-0.092s1.143-0.025,2.885-0.512c1.751-0.461,4.09-1.502,6.137-3.317
				c0.496-0.471,1-0.956,1.421-1.483c0.216-0.235,0.44-0.538,0.67-0.862l0.341-0.475l0.086-0.126l0.041-0.06l0.028-0.026
				l0.006-0.011c-0.015,0.023,0.039-0.056-0.036,0.05l0.002-0.02l0.143-0.239c0.758-1.225,1.367-2.644,1.938-4.055
				c1.121-2.873,1.969-5.859,2.741-8.435c1.035-3.5,2.122-6.023,2.999-7.667C54.337,93.672,54.986,92.896,54.986,92.896z"/>
		</g>
		<g>
			<path d="M52.237,95.056c0,0,0.323,0.697,0.351,2.021c0.015,1.302-0.215,3.293-1.611,5.555c-1.043,1.643-2.524,3.484-4.627,4.766
				c-0.526,0.313-1.057,0.623-1.646,0.825l-0.427,0.172l-0.209,0.088h-0.013l-0.109,0.043h-0.011l-0.022,0.004l-0.047,0.02
				l-0.1,0.01l-0.763,0.168l-0.759,0.16l-0.375,0.08l-0.436,0.037c-0.556,0.029-1.11,0.072-1.651,0.111
				c-2.063-0.052-3.771-0.475-4.944-0.881c-1.166-0.43-1.805-0.808-1.805-0.808s0.733,0.149,1.928,0.205
				c1.196,0.035,2.851-0.056,4.593-0.475c0.83-0.284,1.617-0.47,2.6-0.979l0.714-0.327l0.093-0.043l0.043-0.018l0.018-0.014h0.011
				c-0.048,0.014,0.107-0.043-0.104,0.037l0.013-0.006l0.136-0.1l0.272-0.178c0.375-0.224,0.714-0.53,1.052-0.814
				c1.333-1.182,2.353-2.772,3.228-4.15c1.168-1.887,2.24-3.284,3.118-4.188C51.611,95.48,52.237,95.056,52.237,95.056z"/>
		</g>
	</g>
	<g>
		<g>
			<path d="M58.047,103c0,0,0.326,0.764,0.449,2.273c0.112,1.487,0.047,3.717-0.879,6.524c-0.33,1.035-0.734,2.14-1.236,3.271
				c-0.245,0.561-0.48,1.14-0.761,1.718c-0.299,0.554-0.606,1.134-0.916,1.713l-0.468,0.861c-0.175,0.283-0.379,0.555-0.563,0.833
				l-1.186,1.673c-0.752,0.876-1.868,1.908-2.861,2.543c-2.079,1.336-4.181,1.798-5.63,1.928c-1.47,0.129-2.337-0.031-2.337-0.031
				s0.878-0.09,2.195-0.573c1.323-0.453,3.075-1.371,4.545-2.861c0.757-0.789,1.281-1.509,1.951-2.643
				c-0.068,0.105-0.02,0.025-0.03,0.051l0.005-0.008l0.004-0.018l0.002-0.025l0.028-0.045l0.048-0.096l0.088-0.197l0.175-0.396
				l0.365-0.786c0.123-0.266,0.252-0.518,0.369-0.783l0.302-0.854c0.209-0.557,0.418-1.117,0.617-1.665
				c0.179-0.564,0.362-1.126,0.542-1.673c0.373-1.091,0.696-2.156,1.015-3.152c0.882-2.674,1.878-4.576,2.717-5.803
				C57.414,103.56,58.047,103,58.047,103z"/>
		</g>
		<g>
			<path d="M54.986,101.917c0,0,0.394,0.578,0.617,1.717c0.215,1.134,0.261,2.85-0.606,4.943c-0.651,1.521-1.658,3.263-3.237,4.725
				c-0.375,0.369-0.833,0.689-1.293,0.992c-0.215,0.159-0.487,0.276-0.739,0.392l-0.382,0.18l-0.19,0.08l-0.138,0.068l-0.048,0.004
				l-0.08,0.02c-0.432,0.111-0.863,0.209-1.288,0.313c-0.418,0.1-0.972,0.13-1.423,0.173c-1.835,0.125-3.312-0.177-4.347-0.509
				c-1.021-0.34-1.576-0.646-1.576-0.646s0.64,0.073,1.663,0.036c1.009-0.036,2.458-0.265,3.825-0.787
				c0.338-0.161,0.636-0.229,1.016-0.439c0.384-0.216,0.772-0.431,1.158-0.638l0.076-0.053l0.034-0.004
				c-0.036,0.004,0.099-0.057-0.088,0.03v-0.007l0.008-0.006l0.009-0.014l0.099-0.076l0.194-0.17
				c0.13-0.109,0.272-0.195,0.382-0.344c0.239-0.271,0.474-0.522,0.684-0.851c0.875-1.212,1.509-2.703,2.05-4.008
				c0.749-1.766,1.606-3.047,2.329-3.885C54.41,102.319,54.986,101.917,54.986,101.917z"/>
		</g>
	</g>
	<g>
		<g>
			<path d="M95.635,81.317c1.839,4.282,2.646,13.942-0.843,15.437c-3.479,1.508-9.94-5.733-11.782-10.011
				c-1.839-4.284-0.51-8.973,2.978-10.471C89.478,74.773,93.796,77.031,95.635,81.317z"/>
			<path d="M93.769,99.115c-5.035,0-11.06-7.612-12.739-11.519c-1.238-2.868-1.337-6.029-0.281-8.674
				c0.852-2.14,2.41-3.784,4.389-4.635c0.986-0.427,2.031-0.641,3.125-0.641c3.847,0,7.609,2.736,9.36,6.812
				c1.068,2.492,1.749,6.271,1.749,9.626c-0.005,4.623-1.298,7.611-3.724,8.659C95.066,98.99,94.434,99.115,93.769,99.115z
				 M88.262,77.966c-0.503,0-0.979,0.1-1.419,0.293c-1.178,0.503-1.782,1.506-2.082,2.262c-0.635,1.588-0.549,3.548,0.24,5.365
				c1.643,3.831,6.644,8.909,8.768,8.909c0.05,0,0.119-0.002,0.175-0.027c0.36-0.156,1.103-1.501,1.107-4.688
				c0.006-2.729-0.574-5.983-1.405-7.915C92.59,79.693,90.369,77.966,88.262,77.966z"/>
		</g>
		<g>
			<path fill="#FFFFFF" d="M85.641,83.551c0.437,1.825,1.341,5.479,0.628,5.691c-0.714,0.217-2.789-3.014-3.238-4.799
				c-0.446-1.79,0.033-3.463,0.763-3.727C84.523,80.455,85.217,81.723,85.641,83.551z"/>
		</g>
	</g>
	<path fill="#FFCD00" d="M42.853,62.485c0,0,9.757-14.159,23.139-14.419c18.645-0.366,25.141,7.083,25.903,8.151
		c2.346,3.299,1.021,16.167,1.021,16.167s-17.011-12.056-28.182-8.545c-21.67,6.813-23.406,24.257-23.406,24.257
		s-4.366-6.149-2.969-14.377C39.752,65.486,42.853,62.485,42.853,62.485z"/>
	<path fill="#FFCD00" d="M91.398,84.106c6.896,11.153,6.244,28.179-2.403,34.164c-9.413,6.527-32.168-4.704-35.666-12.296
		c-3.495-7.598,1.736-22.024,11.989-27.019C76.56,73.477,85.924,75.265,91.398,84.106z"/>
	<g>
		<path stroke="#000000" stroke-miterlimit="10" d="M68.693,95.367c3.486,3.102,8.307,11.506,5.791,14.339
			c-2.521,2.834-11.432-0.974-14.919-4.071c-3.482-3.096-4.271-7.908-1.753-10.741C60.337,92.051,65.208,92.275,68.693,95.367z"/>
		<g>
			<path fill="#FFFFFF" d="M60.599,101.625c1.153,1.471,3.526,4.401,2.971,4.901c-0.554,0.498-3.803-1.557-4.958-2.986
				c-1.157-1.433-1.448-3.144-0.895-3.698C58.268,99.289,59.447,100.157,60.599,101.625z"/>
		</g>
	</g>
	<g>
		<path d="M52.752,105.32c0,0,1.757,1.281,4.36,3.186c1.446,1.046,3.262,2.352,5.485,3.798c2.229,1.431,4.878,3.047,8.059,4.415
			c1.179,0.493,2.415,0.919,3.703,1.276c1.304,0.325,2.649,0.541,4.022,0.62c1.372,0.082,2.771-0.047,4.15-0.318l0.521-0.116
			l0.259-0.063l0.065-0.014l0.035-0.006h0.019c0.019-0.005-0.142,0.043-0.062,0.02l0.142-0.05l1.125-0.362
			c0.818-0.225,1.344-0.531,2.021-0.776c2.592-1.225,4.878-3.172,6.286-5.68c0.72-1.241,1.284-2.578,1.646-3.972
			c0.386-1.378,0.628-2.781,0.747-4.179c0.256-2.785,0.084-5.468-0.218-7.872c-0.306-2.411-0.751-4.539-1.189-6.307
			c-0.884-3.528-1.691-5.598-1.691-5.598s1.031,1.958,2.282,5.425c0.619,1.725,1.287,3.838,1.82,6.272
			c0.542,2.421,0.975,5.173,0.958,8.169c0,1.493-0.123,3.05-0.433,4.626c-0.287,1.572-0.8,3.171-1.544,4.691
			c-1.448,3.099-4.104,5.733-7.177,7.385c-0.789,0.375-1.661,0.851-2.368,1.083l-1.107,0.414l-0.144,0.047l-0.233,0.074
			l-0.314,0.086l-0.627,0.182c-1.68,0.418-3.399,0.638-5.081,0.601c-1.673-0.029-3.299-0.258-4.833-0.61
			c-1.536-0.379-2.976-0.873-4.314-1.427c-3.625-1.565-6.369-3.547-8.526-5.383c-2.143-1.854-3.695-3.583-4.847-5.031
			c-1.151-1.454-1.893-2.609-2.353-3.393C52.939,105.738,52.752,105.32,52.752,105.32z"/>
	</g>
	<path d="M93.289,67.932c0.185-1.384,0.074-2.965,0.086-4.72c-0.203-3.502-0.886-7.705-2.523-12.132
		c-0.837-2.199-1.856-4.478-3.173-6.701c-1.318-2.248-2.786-4.453-4.732-6.576l-0.168-0.183l-0.267-0.079
		c-2.444-0.708-4.852-0.998-7.382-1.034c-0.634-0.029-1.257-0.013-1.893,0.034c-0.634,0.042-1.273,0.042-1.9,0.123
		c-1.264,0.188-2.551,0.301-3.8,0.635c-5.051,1.12-9.91,3.493-14.011,6.696c-0.511,0.396-1.048,0.769-1.542,1.189l-1.413,1.324
		c-0.934,0.901-1.919,1.725-2.73,2.741c-0.842,0.988-1.686,1.962-2.514,2.936c-0.733,0.99-1.401,1.975-2.091,2.949
		c-0.341,0.491-0.684,0.976-1.024,1.464l-0.127,0.176l-0.114,0.174l-0.052,0.1l-0.24,0.393l-0.461,0.788
		c-0.653,1.038-1.165,2.14-1.712,3.206c-0.986,2.183-1.841,4.372-2.372,6.58c-0.819,3.212-1.102,6.334-0.972,9.207
		c0.123,2.869,0.627,5.496,1.317,7.816c1.391,4.657,3.454,8.092,5.25,10.627c1.814,2.543,3.446,4.182,4.554,5.223
		c1.123,1.031,1.749,1.45,1.749,1.45s-0.457-0.596-1.276-1.847c-0.048-0.075-0.11-0.168-0.159-0.254
		c1.877,1.772,3.45,2.678,3.45,2.678s0.16-1.785,0.923-4.473c0.114,0.88,0.276,1.562,0.427,2.025c0.183,0.589,0.33,0.852,0.33,0.852
		s0.496-1.453,1.119-3.307c0.397-1.079,0.843-2.396,1.522-3.905c0.679-1.499,1.454-3.239,2.645-5.057
		c1.642-2.742,4.284-5.442,7.542-7.521l1.224-0.771c0.08-0.048,0.253-0.155,0.263-0.168l0.334-0.177l0.691-0.352l1.359-0.696
		c0.451-0.232,0.882-0.387,1.32-0.586c0.435-0.182,0.859-0.383,1.305-0.553c0.448-0.155,0.897-0.304,1.337-0.455
		c0.879-0.347,1.777-0.5,2.648-0.739c3.484-0.755,6.734-0.501,8.924,0.22c1.093,0.349,1.936,0.757,2.493,1.085
		c0.554,0.325,0.831,0.554,0.831,0.554s-0.229-0.268-0.73-0.69c-0.502-0.426-1.292-0.975-2.364-1.518
		c-0.342-0.181-0.772-0.337-1.187-0.491c4.638,0.914,7.826,2.596,7.826,2.596l1.087-6.401c0,0-0.058-0.057-0.175-0.156
		c0.05-0.252,0.093-0.489,0.146-0.78C93.115,70.5,93.153,69.312,93.289,67.932z M92.698,71.42c-0.032,0.265-0.057,0.465-0.08,0.694
		c-0.949-0.854-4.308-3.719-9.292-6.192c0.019,0.008,0.043,0.015,0.062,0.018c1.169,0.39,1.802,0.668,1.802,0.668
		s-0.498-0.486-1.531-1.217c-1.029-0.729-2.601-1.701-4.708-2.591c-2.108-0.895-4.764-1.705-7.82-2.046
		c-0.39-0.042-0.777-0.085-1.165-0.128c-0.403-0.015-0.798-0.032-1.197-0.044c-0.406-0.014-0.818-0.023-1.227-0.026
		c-0.424,0.017-0.851,0.038-1.283,0.062c-0.427,0.026-0.884,0.041-1.295,0.086c-0.401,0.059-0.807,0.112-1.214,0.167l-0.614,0.089
		l-0.307,0.048l-0.224,0.035l-0.16,0.041c-0.431,0.097-0.868,0.204-1.306,0.309c-3.497,0.857-6.62,2.435-9.107,4.25
		c-2.499,1.815-4.397,3.843-5.775,5.662c-1.386,1.824-2.276,3.442-2.82,4.576c-0.543,1.143-0.752,1.806-0.752,1.806
		s0.424-0.551,1.264-1.464c0.442-0.48,1.009-1.062,1.677-1.709c-2.973,5.181-3.914,10.475-4.188,12.601
		c-0.267-0.923-0.524-1.885-0.742-2.901c-0.912-4.3-1.216-9.519,0.252-15.226c0.47-1.962,1.231-3.927,2.089-5.905
		c0.451-0.884,0.874-1.794,1.385-2.676c1.921-2.309,5.67-6.082,11.469-8.979c-0.444,0.329-0.867,0.654-1.249,0.976
		c-2.656,2.184-3.916,3.892-3.916,3.892s1.768-1.159,4.72-2.659c2.947-1.484,7.128-3.324,11.856-4.071
		c2.362-0.397,4.607-0.335,6.67,0c1.095,0.179,2.137,0.333,3.114,0.468c0.968,0.158,1.813,0.375,2.625,0.529
		c1.626,0.286,2.944,0.652,3.867,0.845c0.886,0.219,1.429,0.351,1.429,0.351s-0.431-0.3-1.257-0.774
		c-0.83-0.454-2.009-1.167-3.608-1.829c-0.388-0.168-0.802-0.356-1.232-0.541c6.063,1.688,10.233,5,12.008,6.64
		c0.925,2.866,1.48,5.599,1.766,8.01c0.09,1.721,0.299,3.281,0.196,4.649C92.834,69.286,92.858,70.473,92.698,71.42z"/>
	<g>
		<g>
			<path opacity="0.6" fill="#FFFFFF" d="M59.95,72.619c-9.943-11.378-18.264-23.919-25.414-37.223
				C29.695,26.391,22.203,3.671,10.865,5.718c-22.643,4.093,3.103,53.676,13.985,60.79c8.73,5.706,19.527,10.294,31.11,8.466"/>
			<g>
				<path d="M55.96,74.974c0,0-0.722,0.332-2.37,0.655c-1.649,0.313-4.232,0.646-8.167,0.271c-1.988-0.237-4.286-0.58-7.051-1.419
					c-2.777-0.833-5.874-1.945-9.533-3.958c-0.936-0.475-1.772-1.001-2.628-1.538c-0.436-0.268-0.869-0.53-1.307-0.808
					c-0.067-0.039-0.097-0.065-0.166-0.104c-0.03-0.021-0.045-0.03-0.08-0.05c-0.071-0.054-0.104-0.071-0.185-0.118
					c-0.147-0.108-0.224-0.164-0.375-0.266c-0.253-0.179-0.498-0.357-0.742-0.543c-1.941-1.482-3.696-3.138-5.395-4.898
					c-3.37-3.532-6.447-7.528-9.123-11.888c-3.931-6.429-6.928-13.538-8.211-20.771c-0.625-3.626-0.836-7.269-0.388-10.871
					c0.231-1.806,0.613-3.591,1.279-5.368c0.664-1.776,1.548-3.542,3.14-5.295c0.821-0.872,1.818-1.776,3.394-2.554
					C8.426,5.26,8.871,5.099,9.3,4.937c0.451-0.147,1.208-0.344,1.378-0.362c0.088-0.016,0.131-0.025,0.224-0.043
					c0.043-0.009,0.063-0.009,0.105-0.019c0.343-0.055,0.134-0.017,0.231-0.036c0.026-0.004,0.045-0.004,0.069-0.005
					c0.229-0.024,0.34-0.032,0.572-0.054c0.39-0.053,0.75-0.059,1.102-0.053c2.863,0.024,4.578,0.877,5.951,1.755
					c2.678,1.836,4.181,4.162,5.66,6.591c2.842,4.924,5.141,10.478,7.788,16.08c4.927,10.701,10.667,21.049,17.433,30.703
					c5.69,8.135,10.137,13.125,10.137,13.125s-4.57-4.865-10.568-12.789c-7.142-9.428-13.379-19.528-18.951-29.959
					c-2.988-5.46-5.692-10.917-8.864-15.653c-1.615-2.334-3.333-4.549-5.785-6.083c-1.216-0.744-2.699-1.297-4.258-1.237
					c-0.19,0-0.384,0.006-0.578,0.043c-0.11,0.014-0.172,0.021-0.287,0.036c-0.015,0-0.021,0.003-0.039,0.003
					c0.067-0.008-0.179,0.033,0.125-0.026c-0.039,0.009-0.059,0.018-0.108,0.026c-0.088,0.017-0.129,0.029-0.216,0.043
					c-0.086,0.024-0.136,0.029-0.222,0.053c-0.074,0.015-0.039,0.022-0.065,0.027c-0.03,0.02-0.032,0.02-0.086,0.03
					C9.917,7.204,9.785,7.25,9.64,7.337C9.054,7.634,8.396,8.2,7.845,8.825c-1.124,1.285-1.937,2.845-2.517,4.433
					c-0.58,1.589-0.942,3.253-1.162,4.941C3.737,21.575,3.9,25.057,4.463,28.521c1.134,6.936,3.875,13.829,7.439,20.052
					c2.433,4.217,5.201,8.104,8.116,11.442c1.458,1.656,2.965,3.202,4.412,4.418c0.184,0.151,0.365,0.298,0.537,0.429
					c0.104,0.08,0.16,0.125,0.265,0.205c0.002,0.006,0.007,0.008,0.018,0.012c-0.179-0.124-0.043-0.023-0.08-0.049
					c0.02,0.015,0.028,0.02,0.05,0.027c0.03,0.021,0.043,0.033,0.077,0.055c0.065,0.045,0.095,0.068,0.151,0.112
					c0.424,0.287,0.85,0.58,1.261,0.865c0.418,0.293,0.833,0.571,1.242,0.854c0.414,0.301,0.765,0.461,1.147,0.702
					c0.749,0.427,1.473,0.897,2.214,1.288c0.748,0.377,1.481,0.749,2.201,1.114c0.718,0.354,1.419,0.625,2.107,0.937
					c0.688,0.313,1.354,0.569,2.001,0.795c2.613,1.013,4.901,1.587,6.908,2.056c3.996,0.865,6.835,1.06,8.692,1.142
					C55.079,75.042,55.96,74.974,55.96,74.974z"/>
			</g>
		</g>
	</g>
	<g>
		<path d="M86.966,86.917c-0.39,0.145-1.711,0.796-2.373-0.184c-0.649-0.954,0.722-2.014,1.189-2.194c0,0,0.113-0.05,0.326-0.143
			c0.215-0.101,0.524-0.233,0.937-0.37c0.814-0.303,2.008-0.667,3.464-0.901c1.454-0.229,3.17-0.311,4.966-0.164
			c1.805,0.15,3.681,0.539,5.493,1.091c3.609,1.121,6.929,2.906,9.258,4.429c2.351,1.514,3.738,2.734,3.738,2.734
			s-1.499-1.096-3.945-2.376c-2.436-1.294-5.855-2.747-9.393-3.503c-3.539-0.788-7.158-0.681-9.675-0.016
			c-1.259,0.329-2.259,0.73-2.94,1.058c-0.344,0.145-0.601,0.287-0.774,0.391C87.063,86.863,86.966,86.917,86.966,86.917z"/>
	</g>
	<g>
		<path d="M80.488,88.083c-0.378,0.4-1.825,1.686-2.724,0.944c-0.901-0.737,0.419-2.371,0.833-2.808c0,0,0.108-0.107,0.312-0.311
			c0.213-0.188,0.474-0.518,0.91-0.828c0.414-0.327,0.921-0.718,1.505-1.177c0.585-0.449,1.225-0.978,2.021-1.419
			c2.993-2.035,7.442-4.011,12.075-5.002c4.63-1.048,9.36-1.247,12.862-1.097c3.515,0.169,5.803,0.617,5.803,0.617
			s-2.319-0.284-5.803-0.202c-3.481,0.095-8.13,0.634-12.519,1.966c-4.423,1.276-8.49,3.459-11.138,5.553
			c-0.71,0.459-1.271,0.999-1.778,1.458c-0.504,0.454-0.951,0.856-1.313,1.179c-0.382,0.313-0.6,0.639-0.784,0.829
			C80.578,87.98,80.488,88.083,80.488,88.083z"/>
	</g>
	<g>
		<g>
			<path opacity="0.6" fill="#FFFFFF" d="M71.923,68.778c2.737-13.147,3.46-26.39,3.149-39.79c-0.2-8.5-2.714-24.682,5.187-27.444
				c16.362-5.72,19.073,37.958,14.231,48.809c-6.627,14.831-18.77,18.479-18.77,18.479"/>
			<g>
				<path d="M75.721,68.833c0,0,0.646-0.025,1.95-0.418c1.31-0.401,3.284-1.147,5.956-2.954c1.331-0.947,2.84-2.101,4.489-3.799
					c1.662-1.698,3.446-3.717,5.283-6.661c0.488-0.718,0.882-1.421,1.28-2.143c0.2-0.368,0.407-0.726,0.608-1.098
					c0.022-0.056,0.045-0.086,0.072-0.137c0.017-0.028,0.024-0.043,0.039-0.07c0.034-0.069,0.057-0.103,0.092-0.178
					c0.069-0.136,0.101-0.204,0.175-0.341c0.11-0.241,0.215-0.469,0.313-0.705c0.813-1.871,1.412-3.76,1.936-5.707
					c1.005-3.889,1.604-7.968,1.784-12.154c0.246-6.164-0.439-12.429-2.41-18.123c-0.983-2.835-2.288-5.538-4.043-7.938
					c-0.88-1.198-1.87-2.33-3.056-3.344C89,2.051,87.66,1.126,85.782,0.49c-0.955-0.298-2.068-0.558-3.588-0.474
					c-0.371,0.013-0.771,0.078-1.171,0.136c-0.412,0.081-1.107,0.27-1.214,0.321c-0.068,0.021-0.104,0.034-0.171,0.062
					c-0.032,0.006-0.051,0.014-0.09,0.029c-0.319,0.117-0.123,0.048-0.209,0.079c-0.015,0.01-0.031,0.014-0.052,0.024
					c-0.18,0.079-0.272,0.124-0.448,0.198c-0.313,0.133-0.583,0.274-0.841,0.425c-2.131,1.226-3.015,2.555-3.652,3.745
					c-1.181,2.421-1.31,4.688-1.39,7.019c-0.043,4.654,0.547,9.533,0.916,14.572c0.806,9.569,0.867,19.221-0.032,28.787
					c-0.77,8.042-1.918,13.366-1.918,13.366s1.318-5.269,2.448-13.289c1.344-9.558,1.836-19.228,1.713-28.871
					c-0.011-5.097-0.207-10.072,0.211-14.725c0.244-2.309,0.604-4.587,1.736-6.63c0.566-1.005,1.407-1.957,2.437-2.471
					c0.123-0.072,0.252-0.133,0.392-0.182c0.075-0.036,0.112-0.046,0.192-0.079c0.015-0.004,0.017-0.01,0.021-0.01
					c-0.049,0.018,0.173-0.063-0.121,0.038c0.041-0.011,0.052-0.011,0.091-0.024c0.06-0.022,0.101-0.029,0.17-0.051
					c0.069-0.026,0.097-0.032,0.168-0.049c0.062-0.022,0.024,0.003,0.033,0c0.01,0.006-0.009,0.006,0.019,0.003
					c0.088,0,0.176-0.017,0.293-0.017c0.435-0.012,1.082,0.119,1.693,0.341c1.251,0.456,2.426,1.228,3.447,2.119
					c1.035,0.896,1.938,1.925,2.756,3.033c1.63,2.213,2.889,4.749,3.865,7.421c1.939,5.36,2.743,11.32,2.717,17.131
					c-0.041,3.936-0.433,7.779-1.146,11.277c-0.356,1.741-0.798,3.417-1.313,4.817c-0.129,0.329-0.276,0.72-0.381,0.928
					c-0.181,0.375-0.361,0.746-0.542,1.122c-0.358,0.746-0.709,1.494-1.058,2.042c-0.351,0.599-0.66,1.212-1.029,1.777
					c-0.371,0.568-0.74,1.125-1.098,1.668c-0.362,0.543-0.748,1.015-1.104,1.507c-0.359,0.498-0.727,0.95-1.087,1.368
					c-1.436,1.767-2.817,3.11-4.056,4.272c-2.483,2.258-4.425,3.59-5.719,4.426C76.381,68.5,75.721,68.833,75.721,68.833z"/>
			</g>
		</g>
	</g>
</g>
</svg>
