<?xml version="1.0" encoding="utf-8"?>
<!-- Generator: Adobe Illustrator 19.0.0, SVG Export Plug-In . SVG Version: 6.00 Build 0)  -->
<svg version="1.1" id="Capa_1" xmlns="http://www.w3.org/2000/svg" xmlns:xlink="http://www.w3.org/1999/xlink" x="0px" y="0px"
	 viewBox="0 0 50 60.7" style="enable-background:new 0 0 50 60.7;" xml:space="preserve">
<style type="text/css">
	.st0{fill-rule:evenodd;clip-rule:evenodd;fill:#4D4D4D;}
</style>
<g id="XMLID_44_">
	<g id="XMLID_45_">
		<path id="XMLID_47_" class="st0" d="M50,44c0,9.2-7.1,16.7-15.8,16.7c-8.7,0-15.8-7.5-15.8-16.7c0-7.2,4.2-10.9,8.3-16
			c3.9-5,7-10.6,7.5-21.1c0.9,9.8,3.2,15.3,7.2,20.8C45.4,33.1,50,36.4,50,44z"/>
		<path id="XMLID_46_" class="st0" d="M20,23.6c0,5.8-4.5,10.6-10,10.6c-5.5,0-10-4.7-10-10.6c0-4.6,2.7-6.9,5.2-10.2
			C7.7,10.2,9.7,6.7,10,0c0.6,6.2,2,9.7,4.6,13.2C17.1,16.6,20,18.7,20,23.6z"/>
	</g>
</g>
</svg>
