<?xml version="1.0" encoding="utf-8"?>
<!-- Generator: Adobe Illustrator 16.0.3, SVG Export Plug-In . SVG Version: 6.00 Build 0)  -->
<!DOCTYPE svg PUBLIC "-//W3C//DTD SVG 1.1//EN" "http://www.w3.org/Graphics/SVG/1.1/DTD/svg11.dtd">
<svg version="1.1" id="Capa_1" xmlns="http://www.w3.org/2000/svg" xmlns:xlink="http://www.w3.org/1999/xlink" x="0px" y="0px"
	 width="101.609px" height="101.212px" viewBox="0 0 101.609 101.212" enable-background="new 0 0 101.609 101.212"
	 xml:space="preserve">
<g>
	<g opacity="0.8">
		<path fill="#F2C1B6" d="M88.491,30.777c15.084,21.497,7.375,50.595-16.551,62.441c-22.012,15.033-51.538,7.729-63.363-15.682
			C-6.507,56.041,1.205,26.941,25.128,15.095C47.141,0.063,76.667,7.368,88.491,30.777z"/>
		<path fill="#ED6E59" d="M86.792,32.259c14.518,20.971,7.279,49.229-15.535,60.639c-20.973,14.518-49.232,7.279-60.642-15.537
			c-14.518-20.973-7.278-49.23,15.538-60.639C47.125,2.203,75.382,9.441,86.792,32.259z"/>
		<path fill="#E03323" d="M88.937,43.163c8.336,22.651-4.982,46.825-28.586,51.877c-22.65,8.338-46.826-4.982-51.878-28.584
			c-8.337-22.65,4.982-46.825,28.586-51.877C59.708,6.24,83.882,19.561,88.937,43.163z"/>
	</g>
	<g>
		<g>
			<g>
				<path fill="#A6CFE0" d="M54.838,70.156c-3.062-10-1.898-21.083-1.499-30.871c9.752,4.996,22.103,13.026,26.681,24.755
					c3.86,9.887,3.783,27.752-6.361,29.023C64.649,94.191,57.441,78.664,54.838,70.156z"/>
			</g>
			<g>
				<path fill="#9FC3CE" d="M70.708,56.263c-0.518,2.004-1.387,4.543-2.167,6.668c-0.131,0.357-0.619,0.869-0.758,1.229
					c-0.422,1.102-0.93,1.992-1.408,3.104c-0.93,2.156-2.233,4.791-3.337,6.932c-1.082,2.1-1.938,3.729-3.136,5.736
					c-0.007,0.049-0.017,0.068-0.608,1.006c0.331,0.59,1.379,2.453,1.731,3.023c0.016-0.029,2.277-4.193,3.359-6.293
					c1.104-2.141,2.133-4.307,3.063-6.463c0.479-1.111,0.936-2.221,1.357-3.322c0.139-0.359,0.271-0.719,0.402-1.078
					c0.78-2.123,1.441-4.207,1.959-6.211c1.956,0.086,4.472,0.078,7.146-0.014c-0.643-1.158-1.981-3.238-2.761-4.316
					C73.688,56.296,72.133,56.326,70.708,56.263z"/>
			</g>
			<g>
				<path fill="#A6CFE0" d="M35.864,69.832c4.571-9.406,5.137-20.535,6.257-30.266c-10.408,3.427-23.853,9.45-30.188,20.329
					c-5.344,9.172-8.031,26.834,1.795,29.658C22.452,92.06,31.976,77.833,35.864,69.832z"/>
			</g>
			<g>
				<path fill="#370F17" d="M31.078,90.468c2.635,6.428,5.952,10.75,9.779,10.744c2.703-0.004,6.409-2.801,10.33-7.193
					c-2.176,0.773-4.489,1.191-6.888,1.191C39.384,95.21,34.829,93.455,31.078,90.468z"/>
				<path fill="#F0B43D" d="M28.24,81.814c0.828,3.129,1.775,6.064,2.838,8.654c3.751,2.986,8.306,4.742,13.222,4.742
					c2.398,0,4.712-0.418,6.888-1.191c2.138-2.395,4.336-5.262,6.476-8.424c-3.643,2.494-7.942,3.941-12.554,3.941
					C38.511,89.537,32.543,86.582,28.24,81.814z"/>
				<path fill="#370F17" d="M60.979,80.373c-3.836,1.762-8.362,2.855-12.936,2.855c-8.571,0-16.259-3.484-21.513-9.004
					c0.491,2.605,1.063,5.156,1.709,7.59c4.303,4.768,10.271,7.723,16.869,7.723c4.611,0,8.911-1.447,12.554-3.941
					C58.703,84.056,60.964,80.482,60.979,80.373z"/>
				<path fill="#F0B43D" d="M61.127,75.375c-3.601,1.104-7.502,1.713-11.579,1.713c-9.449,0-17.958-3.246-23.938-8.434
					c0.267,1.867,0.573,3.73,0.921,5.57c5.254,5.52,12.941,9.004,21.513,9.004c4.573,0,8.892-0.994,12.728-2.758
					c0.07-0.031,0.139-0.066,0.208-0.098c1.198-2.008,2.349-4.078,3.431-6.178C63.348,74.634,62.253,75.031,61.127,75.375z"/>
				<path fill="#370F17" d="M68.85,63.558c-0.536,0.316-1.087,0.619-1.647,0.91c-2.189,1.139-4.556,2.07-7.06,2.764
					c-3.324,0.92-6.886,1.428-10.595,1.428c-9.179,0-17.471-3.063-23.419-7.992c-0.519-0.43-1.018-0.875-1.5-1.332
					c0.088,1.295,0.197,2.609,0.33,3.938c0.178,1.781,0.395,3.58,0.651,5.381c5.979,5.188,14.488,8.434,23.938,8.434
					c4.077,0,7.979-0.609,11.579-1.713c1.126-0.344,2.221-0.74,3.283-1.18c1.104-2.141,2.132-4.307,3.062-6.463
					c0.479-1.111,0.937-2.221,1.358-3.322c0.139-0.359,0.271-0.719,0.402-1.078C69.106,63.408,68.978,63.482,68.85,63.558z"/>
				<path fill="#F0B43D" d="M72.563,42.901c-0.406-5.183-1.869-9.976-4.114-14.045c-4.328-7.848-11.566-12.994-19.769-12.994
					c-8.762,0-16.425,5.872-20.614,14.637c-1.494,3.126-2.543,6.621-3.045,10.349c-0.221,1.632-0.341,3.305-0.341,5.015
					c-0.15,1.51-0.236,3.152-0.273,4.879c-0.028,1.359-0.023,2.774,0.016,4.235c0.038,1.418,0.106,2.875,0.206,4.359
					c0.482,0.457,0.981,0.902,1.5,1.332c5.948,4.93,14.24,7.992,23.419,7.992c3.709,0,7.271-0.508,10.595-1.428
					c2.504-0.693,4.87-1.625,7.06-2.764c0.561-0.291,1.111-0.594,1.647-0.91c0.128-0.076,0.257-0.15,0.383-0.227
					c1.594-4.336,2.699-8.51,3.067-12.167c0.245-1.722,0.381-3.491,0.381-5.302C72.681,44.863,72.64,43.876,72.563,42.901z"/>
			</g>
			<g>
				<path fill="#E5A533" d="M48.231,94.816c1.008-0.197,1.997-0.455,2.956-0.797c2.138-2.395,4.336-5.262,6.476-8.424
					c-1.503,1.029-3.123,1.869-4.825,2.512C51.318,90.556,49.77,92.814,48.231,94.816z"/>
				<path fill="#E5A533" d="M59.395,75.857c-0.877,1.906-1.796,3.795-2.764,5.629c-0.002,0.025-0.117,0.248-0.3,0.584
					c1.626-0.453,3.188-1.027,4.648-1.697c1.198-2.008,2.349-4.078,3.431-6.178c-1.063,0.439-2.157,0.836-3.283,1.18
					C60.558,75.55,59.979,75.707,59.395,75.857z"/>
				<path fill="#FFD733" d="M56.313,82.103c1.545-0.432,3.035-0.979,4.459-1.633c0.07-0.031,0.139-0.066,0.208-0.098
					c-1.461,0.67-3.022,1.244-4.648,1.697C56.324,82.082,56.319,82.091,56.313,82.103z"/>
				<path fill="#E5A533" d="M72.563,42.901c-0.406-5.183-1.869-9.976-4.114-14.045c-4.328-7.848-11.566-12.994-19.769-12.994
					c-1.938,0-3.819,0.303-5.625,0.846c7.49,0.342,14.235,5.048,18.591,12.233c2.436,4.018,4.125,8.806,4.775,14.038
					c0.123,0.983,0.211,1.981,0.258,2.994c0.086,1.834,0.035,3.633-0.128,5.39c-0.194,3.724-1.101,8.003-2.486,12.472
					c-0.114,0.369-0.229,0.738-0.351,1.109c-0.135,0.416-0.296,0.84-0.44,1.258c1.36-0.51,2.676-1.084,3.928-1.734
					c0.561-0.291,1.111-0.594,1.647-0.91c0.128-0.076,0.257-0.15,0.383-0.227c1.594-4.336,2.699-8.51,3.067-12.167
					c0.245-1.722,0.381-3.491,0.381-5.302C72.681,44.863,72.64,43.876,72.563,42.901z"/>
			</g>
			<path fill="#E5A533" d="M95.863,54.412c2.58-3.216,6.262-11.266,5.686-16.042c-0.574-4.775-6.186-20.413-11.625-20.75
				c-3.162-0.196-7.545,0.43-7.545,0.43s-2.15,3.753-1.847,6.033c0.305,2.277,4.474,2.72,4.897,1.449
				c0.428-1.27,1.033,0.317,3.266-0.219c2.234-0.535,1.541,7.424,1.541,7.424s-3.994,4.526-1.691,10.246
				c0.805,1.995-4.879-6.33-13.17-6.33c-2.911,0-6.081,1.16-6.081,1.16s-2.588,18.376-1.895,18.783
				C69.615,57.9,93.814,56.968,95.863,54.412z"/>
			<g>
				<path fill="#F0B43D" d="M3.499,49.96c-1.832-2.817-4.17-9.646-3.318-13.474c0.852-3.829,6.662-16.063,11.104-15.898
					c2.582,0.097,6.649,1.51,6.649,1.51s0.879,2.665,0.448,4.489c-0.431,1.825-3.848,1.848-4.09,0.783
					c-0.244-1.064-0.863,0.174-2.631-0.442c-1.768-0.614-1.85,5.901-1.85,5.901s2.877,3.994,0.549,8.448
					c-0.813,1.554,4.77-4.573,12.758-3.585c4.493,0.554,6.414,2.566,6.414,2.566S27.01,53.75,26.416,54.025
					C24.513,54.904,4.956,52.198,3.499,49.96z"/>
				<g>
					<path fill="#E5A533" d="M24.53,50.746c0.037-1.727,0.123-3.369,0.273-4.879c0-1.71,0.12-3.383,0.341-5.015
						c0.122-0.908,0.279-1.802,0.466-2.681c-0.693-0.196-1.479-0.365-2.369-0.475c-0.117-0.015-0.228-0.014-0.343-0.024
						c-0.236,1.04,0.849,16.506,1.636,16.522C24.512,53.015,24.507,51.857,24.53,50.746z"/>
				</g>
			</g>
			<g>
				<path fill="#E5A533" d="M45.758,22.327c-1.748-1.638-3.713-3.175-5.858-4.342c-0.436,0.215-0.864,0.446-1.287,0.691
					c2.305,1.147,4.417,2.795,6.187,4.45C45.378,23.671,46.347,22.877,45.758,22.327z"/>
				<path fill="#E5A533" d="M51.113,22.381c-0.52-1.024-2.117-3.622-4.011-6.426c-0.424,0.035-0.841,0.094-1.259,0.156
					c1.499,2.162,2.986,4.53,4.131,6.785C50.338,23.614,51.479,23.102,51.113,22.381z"/>
			</g>
			<g>
				<g>
					<g>
						<path fill="#E5A533" d="M54.813,50.137c-2.542,1.082-5.76,1.825-9.746,1.68c-4.471-0.162-7.368-1.329-9.248-2.794
							c-2.47-1.928-3.176-4.367-3.376-5.72c-0.085-0.113-0.112-0.178-0.112-0.178s-0.195,4.792,3.392,8.204
							c1.867,1.772,4.755,3.17,9.227,3.329c3.986,0.139,7.212-0.797,9.765-2.144c5.511-2.905,7.865-7.719,7.865-7.719
							s-0.322,0.15-0.922,0.373C60.515,46.52,58.31,48.648,54.813,50.137z"/>
					</g>
					<g>
						<path fill="#E94E1B" d="M62.892,44.571c0,0-2.616,0.991-7.123,1.535l-1.27,2.522c0,0-0.188,0.055-0.563,0.126
							c0.366,0.102,0.546,0.167,0.546,0.167l0.606,1.907C60.575,48.493,62.892,44.571,62.892,44.571z"/>
						<path fill="#E94E1B" d="M37.528,47.856c-0.366-0.102-0.545-0.166-0.545-0.166l-0.936-2.943
							c-2.947-0.894-3.406-1.771-3.406-1.771s-0.16,3.92,3.453,6.739l0.872-1.732C36.967,47.982,37.153,47.929,37.528,47.856z"/>
						<path fill="#EDEDED" d="M53.936,48.755c-1.108,0.215-3.867,0.598-8.398,0.278c-4.466-0.313-6.985-0.893-8.009-1.177
							c-0.343-0.101-0.545-0.166-0.545-0.166l-0.889,2.024c1.879,1.464,4.776,2.631,9.248,2.793
							c3.986,0.146,7.204-0.597,9.745-1.679l-0.589-2.2C54.499,48.629,54.499,48.629,53.936,48.755z"/>
						<path fill="#DADADA" d="M46.14,46.323c-4.938-0.353-8.09-0.968-10.092-1.576l0.928,3.095c0,0,0.178,0.063,0.545,0.165
							c1.021,0.284,3.503,0.835,7.969,1.149c4.532,0.318,7.329-0.036,8.437-0.249c0.376-0.073,0.563-0.127,0.563-0.127l1.279-2.674
							C53.15,46.424,49.897,46.592,46.14,46.323z"/>
					</g>
				</g>
				<g>
					<g>
						<g>
							<path fill="#E5A533" d="M38.409,40.193c-2.564-0.134-4.658-1.778-5.357-3.954l-0.068-0.005
								c-0.156,3.036,2.174,5.625,5.211,5.784c2.881,0.15,5.357-1.946,5.736-4.757C42.901,39.106,40.788,40.317,38.409,40.193z"/>
						</g>
						<path fill="#370F17" d="M38.698,38.516c-2.866,0-5.242-2.034-5.726-4.709c-0.059,0.325-0.095,0.658-0.095,1
							c0,3.152,2.605,5.709,5.82,5.709s5.82-2.557,5.82-5.709c0-0.342-0.035-0.675-0.095-1
							C43.94,36.481,41.564,38.516,38.698,38.516z"/>
					</g>
					<g>
						<g>
							<path fill="#E5A533" d="M56.231,41.194c-2.563-0.134-4.658-1.778-5.357-3.954l-0.066-0.005
								c-0.158,3.036,2.174,5.625,5.209,5.784c2.883,0.15,5.359-1.946,5.736-4.757C60.726,40.107,58.612,41.318,56.231,41.194z"/>
						</g>
						<path fill="#370F17" d="M56.521,39.517c-2.866,0-5.243-2.034-5.726-4.709c-0.059,0.325-0.095,0.658-0.095,1
							c0,3.152,2.606,5.709,5.82,5.709s5.821-2.557,5.821-5.709c0-0.342-0.037-0.675-0.096-1
							C61.765,37.482,59.388,39.517,56.521,39.517z"/>
					</g>
				</g>
			</g>
			<g>
				<g>
					<g>
						<path fill="#370F17" d="M46.463,21.32c0.072,0.229,0.194,0.765,0.142,1.267c-0.051,0.504-0.267,0.941-0.704,0.973
							c-0.447,0.034-0.732-0.298-0.944-0.659c-0.212-0.365-0.367-0.782-0.427-0.977c0,0-0.098-0.395-0.354-1.077
							c-0.254-0.682-0.694-1.649-1.368-2.75c-1.325-2.206-3.615-4.938-6.423-7.033c-1.402-1.028-2.939-1.936-4.504-2.302
							c-0.389-0.084-0.779-0.146-1.155-0.134c-0.388-0.008-0.697,0.056-1.085,0.186c-0.646,0.236-1.233,0.717-1.305,1.326
							c-0.11,0.604,0.217,1.177,0.588,1.527c0.379,0.364,0.832,0.534,1.211,0.57c0.778,0.011,1.136-0.385,1.14-0.347
							c-0.011-0.039-0.32,0.383-1.143,0.434c-0.399-0.009-0.894-0.152-1.333-0.517c-0.424-0.352-0.851-0.95-0.778-1.707
							c0.013-0.377,0.218-0.731,0.467-1.037c0.284-0.287,0.599-0.503,0.995-0.692c0.327-0.143,0.795-0.282,1.215-0.296
							c0.43-0.043,0.866-0.005,1.3,0.057c1.742,0.282,3.414,1.127,4.959,2.097c3.087,1.981,5.672,4.647,7.276,6.927
							C45.871,19.424,46.463,21.32,46.463,21.32z"/>
					</g>
				</g>
			</g>
			<g>
				<g>
					<g>
						<path fill="#370F17" d="M51.074,21.499c-0.02,0.214-0.075,0.694-0.268,1.1c-0.2,0.407-0.501,0.724-0.938,0.644
							c-0.859-0.17-0.824-1.46-0.817-1.838c0,0,0.031-0.38,0.053-1.053c0.017-0.673-0.009-1.646-0.143-2.816
							c-0.256-2.341-1.05-5.46-2.318-8.407c-1.259-2.944-2.985-5.721-4.729-7.392c-0.868-0.833-1.744-1.364-2.418-1.567
							c-0.335-0.096-0.611-0.148-0.803-0.138c-0.191-0.002-0.292-0.003-0.292-0.003s0.102-0.007,0.292-0.02
							c0.188-0.024,0.474,0.004,0.826,0.077c0.705,0.152,1.649,0.628,2.605,1.414c1.921,1.575,3.903,4.271,5.433,7.193
							c1.538,2.924,2.62,6.094,3.092,8.576c0.24,1.24,0.353,2.299,0.393,3.048C51.077,21.065,51.074,21.498,51.074,21.499z"/>
					</g>
				</g>
			</g>
		</g>
	</g>
</g>
</svg>
