<?xml version="1.0" encoding="utf-8"?>
<!-- Generator: Adobe Illustrator 16.0.3, SVG Export Plug-In . SVG Version: 6.00 Build 0)  -->
<!DOCTYPE svg PUBLIC "-//W3C//DTD SVG 1.1//EN" "http://www.w3.org/Graphics/SVG/1.1/DTD/svg11.dtd">
<svg version="1.1" id="Layer_1" xmlns="http://www.w3.org/2000/svg" xmlns:xlink="http://www.w3.org/1999/xlink" x="0px" y="0px"
	 width="164.483px" height="159.496px" viewBox="0 0 164.483 159.496" enable-background="new 0 0 164.483 159.496"
	 xml:space="preserve">
<g>
	<path fill-rule="evenodd" clip-rule="evenodd" fill="#8F787D" d="M64.814,159.496c0.025-0.118,0.011-0.231-0.042-0.341
		c0.951-0.78,1.893-0.806,2.824,0.035c0.026,0.112,0.004,0.214-0.065,0.306C66.625,159.496,65.72,159.496,64.814,159.496z"/>
	<path fill-rule="evenodd" clip-rule="evenodd" fill="#FBF2DD" d="M0.32,58.987L0.16,58.99L0,58.975c0-0.776,0-1.553,0-2.329
		c0.106-0.017,0.212-0.021,0.319-0.012C1.045,57.418,1.044,58.202,0.32,58.987z"/>
	<path fill-rule="evenodd" clip-rule="evenodd" fill="#E6A632" d="M131.566,28.698c0.927-3.724,3.681-4.407,6.999-4.319
		c1.674,0.044,3.354-0.162,5.03-0.266c2.986-0.186,5.38,0.961,7.401,3.122c2.229,2.383,3.953,5.099,5.478,7.955
		c2.928,5.484,5.025,11.294,6.898,17.211c1.778,5.614,1.296,11.051-0.557,16.519c-1.752,5.168-4.165,9.991-7.164,14.535
		c-0.567,1.162-1.57,1.752-2.759,2.1c-1.61,0.486-3.226,0.941-4.898,1.166c-4.681,0.848-9.4,1.31-14.145,1.559
		c-3.265,0.172-6.52,0.585-9.796,0.354c-1.928,0.002-3.862,0.072-5.785-0.033c-1.695-0.095-2.519,0.504-2.981,2.203
		c-0.723,2.652-1.395,5.352-2.787,7.776c-2.515,1.659-5.251,2.895-7.999,4.101c-0.561,0.246-1.183,0.566-1.8,0.067
		c-0.406-0.785-0.039-1.517,0.18-2.245c1.934-6.437,3.629-12.922,4.329-19.633c1.629-15.621-1.397-30.055-10.995-42.762
		c-3.374-4.467-7.461-8.203-12.48-10.818c-0.457-0.238-0.922-0.468-1.267-0.875c-0.734-1.574-1.119-3.205-0.793-4.949
		c0.504-0.641,1.182-0.375,1.794-0.301c7.123,0.861,13.133,4.1,18.408,8.794c7.003,6.231,11.427,14.092,14.103,22.982
		c0.454,1.507,1.009,2.056,2.701,1.824c6.729-0.924,12.782,0.926,18.235,4.884c1.819,1.32,3.629,2.657,5.512,4.56
		c-0.474-2.258-0.538-4.152-0.507-6.052c0.035-2.064,0.647-3.98,1.497-5.834c0.566-1.352,1.43-2.535,2.156-3.795
		c0.387-3.06,0.434-6.112-0.19-9.148c-0.296-1.443-1.077-2.365-2.677-2.04c-1.334,0.271-2.749-1.102-4.003,0.24
		c-1.121,1.168-2.571,0.958-3.973,0.958c-3.637-0.694-4.955-2.316-4.764-5.846C130.388,31.316,130.366,29.762,131.566,28.698z"/>
	<path fill-rule="evenodd" clip-rule="evenodd" fill="#A7CFDF" d="M130.747,136.973c-1.602,2.603-2.929,5.408-5.689,7.103
		c-2.649,1.627-5.489,2.409-8.593,2.236c-0.436,0.331-0.91,0.216-1.385,0.128c-1.317-0.266-2.554-0.751-3.743-1.37
		c-5.146-3.009-8.904-7.388-12.11-12.308c-0.358-0.55-0.66-1.12-0.452-1.816c1.143-2.536,2.541-4.941,3.857-7.383
		c4.769-8.845,8.782-17.993,11.593-27.654c0.657-2.261,0.96-2.529,3.232-2.504c3.217,0.036,6.433-0.163,9.651-0.032
		c1.122,0.791,1.574,2.027,2.077,3.209c4.331,10.156,5.812,20.707,4.348,31.661c-0.447,2.137-0.655,4.33-1.47,6.383
		C131.749,135.476,131.536,136.387,130.747,136.973z"/>
	<path fill-rule="evenodd" clip-rule="evenodd" fill="#35151A" d="M67.596,159.19c-0.941-0.012-1.883-0.023-2.824-0.035
		c-1.746-0.152-3.078-1.246-4.556-2.008c-0.92-0.398-1.619-1.086-2.314-1.778c-1.767-1.756-3.145-3.793-4.326-5.976
		c-1.125-1.662-1.888-3.504-2.633-5.351c-0.225-0.559-0.677-1.171,0.04-1.729c1.038,0.053,1.746,0.771,2.55,1.28
		c5.681,3.593,11.866,5.551,18.595,5.656c2.058,0.032,4.095-0.369,6.124-0.71c1.313-0.029,2.517-0.865,3.88-0.544
		c0.846,0.803,0.14,1.395-0.336,1.923c-1.117,1.238-2.321,2.396-3.522,3.555c-2.183,1.628-4.212,3.475-6.654,4.744
		c-0.51,0.455-1.245,0.106-1.774,0.498C69.097,158.874,68.346,159.032,67.596,159.19z"/>
	<path fill-rule="evenodd" clip-rule="evenodd" fill="#F5CDC5" d="M131.566,28.698c-0.381,1.31-0.763,2.621-1.145,3.931
		c-1.094,0.151-1.61-0.719-2.197-1.341c-7.137-7.568-15.668-12.974-25.449-16.423c-5.747-2.027-11.652-3.275-17.768-3.543
		c-2.31-0.101-4.606-0.449-6.923-0.14c-1.187-0.844-2.178-1.8-1.92-3.451c3.011-0.028,6.01-0.167,9.034-0.055
		c10.922,0.404,20.993,3.521,30.521,8.757C121.664,19.7,126.762,23.993,131.566,28.698z"/>
	<path fill-rule="evenodd" clip-rule="evenodd" fill="#F5CDC5" d="M130.747,136.973c0.286-0.78,0.571-1.561,0.857-2.341
		c2.559-3.479,5.777-6.399,8.283-9.937c7.226-10.199,11.344-21.47,12.189-33.96c0.129-1.893-0.003-3.871,0.817-5.684
		c1.052-0.305,1.929-0.91,2.758-1.598c0.638,16.061-4.651,30.182-14.153,42.879c-2.824,3.773-6.358,6.919-9.713,10.213
		C131.497,136.83,131.159,136.992,130.747,136.973z"/>
	<path fill-rule="evenodd" clip-rule="evenodd" fill="#37161B" d="M76.164,7.73c0.569,1.045,1.139,2.091,1.708,3.136
		c1.439,0.968,1.499,2.688,2.211,4.051c0.71,2.122,1.943,4.103,1.767,6.467c0.292,1.665,0.583,3.329,0.874,4.994
		c0.828,1.742,1.122,3.536,0.445,5.393c-0.388,1.063-0.924,2.102-2.289,1.909c-1.312-0.186-1.642-1.287-1.813-2.412
		c-0.086-0.571-0.085-1.151-0.075-1.728c0.081-1.116-0.023-2.235,0.011-3.352c0.019-0.426,0.029-0.853,0.018-1.279
		c-0.079-1.123-0.434-2.212-0.426-3.347c-0.518-2.11-0.968-4.238-1.662-6.301c-0.393-1.466-0.994-2.858-1.56-4.261
		c-0.455-1.194-1.249-2.274-1.231-3.628C73.275,5.297,72,3.47,70.727,1.635c-0.34-0.491-1.016-0.86-0.82-1.635
		c1.323,0.193,1.736,1.417,2.404,2.269C73.684,4.019,74.889,5.902,76.164,7.73z"/>
	<path fill-rule="evenodd" clip-rule="evenodd" fill="#F5CDC5" d="M69.847,158.716c0.54-0.267,1.079-0.534,1.619-0.801
		c1.287-0.526,2.641-0.553,3.996-0.5c10.189,0.399,19.865-1.716,29.143-5.863c2.779-1.242,5.414-2.73,7.969-4.366
		c0.826-0.529,1.671-0.964,2.622-1.19c0.423,0.105,0.846,0.211,1.27,0.316c-4.254,3.428-9.145,5.711-14.161,7.724
		c-6.531,2.621-13.299,4.223-20.351,4.763C77.895,159.109,73.879,159.299,69.847,158.716z"/>
	<path fill-rule="evenodd" clip-rule="evenodd" fill="#F0B43D" d="M0.32,58.987c0-0.784-0.001-1.568-0.001-2.353
		c0.83-5.864,3.631-10.953,6.417-16.021C8.661,37.11,10.9,33.81,13.923,31.1c2.102-1.883,4.444-2.43,7.157-1.796
		c1.622,0.378,3.272,0.631,4.91,0.94c1.388-0.119,2.629,0.237,3.7,1.147c0.657,1.004,0.646,2.206,0.977,3.308
		c0.1,0.445,0.127,0.896,0.138,1.349c0.106,4.394-2.248,6.292-6.544,5.283c-1.039-0.686-1.95-1.716-3.414-1.284
		c-2.634-0.228-2.869-0.073-3.508,2.55c-0.212,0.87-0.425,1.746-0.491,2.647c-0.084,1.901-0.156,3.796,0.969,5.481
		c1.343,3.47,1.836,6.974,0.168,10.98c2.098-1.377,3.967-2.273,5.83-3.183c3.725-1.819,7.646-2.693,11.802-2.388
		c0.699,0.051,1.443-0.002,1.914,0.695c0.631,2.063,0.406,4.216,0.553,6.314c0.439,6.281,0.865,12.557,1.832,18.784
		c0.061,0.392,0.004,0.77-0.202,1.117c-0.689,0.656-1.574,0.463-2.394,0.557c-3.243,0.182-6.423-0.406-9.617-0.803
		c-5.858-0.891-11.686-1.934-17.4-3.53c-1.877-0.705-3.85-1.256-5.076-3.048c-1.014-1.94-2.152-3.831-2.454-6.061
		C1.768,66.478,0.549,62.841,0.32,58.987z"/>
	<path fill-rule="evenodd" clip-rule="evenodd" fill="#F5CDC5" d="M29.441,31.45c-1.15-0.402-2.3-0.804-3.451-1.206
		c3.174-3.439,7.194-5.717,11.147-8.074c3.357-2,6.756-3.931,10.159-5.852c0.584-0.329,0.706-0.656,0.412-1.207
		c2.872-1.032,5.575-2.483,8.488-3.419c1.479,0.177,2.607,0.897,3.362,2.19c-0.12,0.978-0.971,1.12-1.661,1.397
		c-9.687,3.898-18.416,9.464-26.917,15.427C30.508,31.04,30.063,31.429,29.441,31.45z"/>
	<path fill-rule="evenodd" clip-rule="evenodd" fill="#36161B" d="M59.44,13.978c-0.918-0.814-1.886-1.552-3.043-2.004
		c-0.952-0.18-1.848-0.535-2.721-0.933c-1.878-0.857-3.841-0.892-5.839-0.689c-0.305-0.106-0.55-0.259-0.483-0.644
		c2.213-1.503,4.559-0.959,6.832-0.295c1.516,0.443,2.937,1.216,4.4,1.841c1.262,0.236,2.31,0.896,3.301,1.667
		c1.576,1.289,3.26,2.449,4.701,3.901c1.586,1.685,3.372,3.187,4.7,5.111c0.346,0.448,0.654,0.922,1.025,1.353
		c1.316,1.77,2.369,3.689,3.246,5.706c0.416,0.956,0.675,1.953,0.575,3.01c-0.177,1.869-1.003,2.354-2.863,1.696
		c-1.595-1.357-1.532-3.515-2.497-5.178c-0.726-1.768-1.736-3.375-2.813-4.945c-1.295-2.001-2.796-3.834-4.515-5.486
		C62.317,16.518,60.371,15.742,59.44,13.978z"/>
	<path fill-rule="evenodd" clip-rule="evenodd" fill="#F5CDC5" d="M61.708,13.269c-1.041-0.672-2.081-1.344-3.121-2.017
		c4.592-1.438,9.219-2.72,14.039-3.145c0.588-0.052,1.128-0.25,1.518-0.736c0.685,1.073,1.253,2.199,1.544,3.448
		c-0.874,0.81-2.026,0.738-3.074,0.882c-2.797,0.384-5.559,0.926-8.284,1.648C63.427,13.59,62.571,13.657,61.708,13.269z"/>
	<path fill-rule="evenodd" clip-rule="evenodd" fill="#FDFCFC" d="M47.774,10.091c3.233-1.014,5.992,0.141,8.623,1.883
		c-2.152,0.942-4.321,1.85-6.448,2.846c-0.749,0.351-1.49,0.236-2.24,0.292c-0.622-0.215-1.059-0.668-1.479-1.144
		c-0.435-0.876-0.436-1.757-0.029-2.642C46.487,10.611,47.044,10.241,47.774,10.091z"/>
	<path fill-rule="evenodd" clip-rule="evenodd" fill="#5E474A" d="M46.492,11.215c-0.507,0.878-0.167,1.836-0.262,2.753
		c-0.912-1.039-0.863-2.102-0.081-3.184C46.395,10.825,46.422,11.037,46.492,11.215z"/>
	<path fill-rule="evenodd" clip-rule="evenodd" fill="#48282E" d="M46.492,11.215c-0.114-0.144-0.228-0.287-0.342-0.43
		c0.257-0.521,0.62-0.923,1.205-1.078c0.14,0.128,0.28,0.256,0.419,0.384C47.347,10.466,46.919,10.841,46.492,11.215z"/>
	<path fill-rule="evenodd" clip-rule="evenodd" fill="#A7CFDF" d="M27.528,82.27c3.211,0.171,6.369,0.985,9.609,0.805
		c3.112,0.427,3.348,0.692,3.411,3.989c0.027,1.421,0.018,2.842,0.006,4.262c-0.077,0.789-0.047,1.57,0.212,2.332
		c0.481,4.455,0.855,8.923,1.594,13.348c0.251,3.063,1.085,6.044,1.327,9.108c0.762,3.888,2.016,7.669,2.53,11.61
		c-0.752,1.98-2.29,3.385-3.714,4.836c-2.21,2.25-4.648,4.247-7.315,5.95c-1.069,0.542-2.136,1.091-3.209,1.627
		c-1.02,0.476-2.073,0.8-3.218,0.682c-3.736,0.327-7.313-0.002-10.44-2.384c-3.549-2.702-4.992-6.553-5.899-10.698
		c-0.737-3.366-0.292-6.788-0.438-10.183c-0.741-1.844-0.05-3.639,0.181-5.449c0.45-2.756,1.082-5.469,1.999-8.108
		c2.041-6.744,5.161-12.923,9.684-18.358C24.917,84.353,25.998,83.061,27.528,82.27z"/>
	<path fill-rule="evenodd" clip-rule="evenodd" fill="#F5CDC5" d="M12.719,112.117c-0.245,1.813-0.489,3.625-0.734,5.438
		c-4.314-6.685-7.109-13.977-8.9-21.711c-1.04-4.491-1.388-9.07-1.387-13.599c0.001-4.01,0.01-8.122,1.075-12.083
		c0.925,1.962,1.849,3.925,2.774,5.887c0.786,1.999,0.457,4.091,0.408,6.131C5.74,91.173,7.728,99.715,11.051,108
		C11.603,109.375,12.312,110.684,12.719,112.117z"/>
	<path fill-rule="evenodd" clip-rule="evenodd" fill="#F5CDC5" d="M28.762,140.819c1.007-0.364,2.014-0.729,3.021-1.093
		c1.382,0.738,2.396,1.931,3.586,2.906c6.126,5.03,12.911,8.874,20.451,11.354c0.867,0.284,1.661,0.685,2.375,1.248
		c0.674,0.638,1.348,1.275,2.021,1.913c-4.11-0.591-7.945-2.082-11.723-3.7c-6.789-2.907-13.006-6.737-18.442-11.781
		C29.679,141.321,29.194,141.098,28.762,140.819z"/>
	<path fill-rule="evenodd" clip-rule="evenodd" fill="#F0B43D" d="M40.123,91.692c-0.075-1.741-0.276-3.489-0.192-5.223
		c0.102-2.081-0.398-3.463-2.793-3.395c0.819-0.017,1.638-0.033,2.458-0.05c0.328-1.727-0.258-3.419-0.192-5.137
		c0.255-6.677,0.414-13.362,1.549-19.967c2.049-10.416,6.57-19.563,14.225-27.002c2.199-2.138,4.473-4.318,7.554-5.259
		c3.639,1.424,6.647,3.771,9.37,6.509c0.402,0.404,0.753,0.862,1.216,1.208c1.734,0.625,2.293,0.31,2.355-1.406
		c0.077-2.107-1.054-3.815-1.97-5.575c-0.563-1.08-1.258-2.092-1.894-3.134c1.038-1.149,3.325-0.838,4.612,0.756
		c1.324,1.641,2.395,3.456,3.098,5.463c0.04,0.708,0.002,1.432,0.139,2.121c0.164,0.826,0.432,1.725,1.514,1.711
		c0.94-0.012,1.235-0.797,1.494-1.549c0.615-1.789-0.042-3.591,0.059-5.385c2.895,0.907,5.239,2.743,7.48,4.658
		c9.237,7.889,14.311,18.19,16.804,29.859c0.91,4.258,1.43,8.631,1.244,13.003c-0.344,8.102-1.582,16.07-4.012,23.834
		c-0.518,1.65-0.93,3.333-1.39,5.001c-0.366,0.813-1.165,0.993-1.89,1.212c-20.827,6.304-40.32,4.098-58.077-9.135
		c-0.728-0.543-1.4-1.145-2.011-1.814C40.502,92.632,40.326,92.154,40.123,91.692z"/>
	<path fill-rule="evenodd" clip-rule="evenodd" fill="#E55D4F" d="M81.851,21.384c-0.714-2.087-1.429-4.174-2.144-6.262
		c1.085-0.865,2.373-0.541,3.548-0.468c5.089,0.315,10.172,0.744,15.113,2.13c20.72,5.811,35.168,18.648,43.266,38.61
		c0.371,0.913,0.409,1.888,0.71,2.806c-0.021,2.299,0.197,4.574,0.731,6.912c-2.056-1.447-3.81-3.122-5.757-4.56
		c-5.864-4.331-12.246-6.517-19.576-5.083c-1.248,0.244-1.716-0.32-2.004-1.415c-1.776-6.756-4.761-12.932-9.163-18.367
		c-6.084-7.513-13.529-12.814-23.404-14.036C82.727,21.595,82.291,21.474,81.851,21.384z"/>
	<path fill-rule="evenodd" clip-rule="evenodd" fill="#35151A" d="M40.692,92.277c18.7,15.488,39.59,17.96,62.159,10.456
		c3.257-1.017,6.159-2.802,9.216-4.251c0.504,0.543,0.185,1.109-0.009,1.624c-1.883,5.021-4.242,9.833-6.508,14.685
		c-0.22,0.469-0.521,0.893-0.953,1.204c-2.833,1.41-5.907,2.138-8.89,3.13c-12.43,2.881-24.691,2.337-36.763-1.845
		c-5.216-1.807-10.034-4.391-14.495-7.633c-0.984-0.716-1.994-1.438-2.551-2.59c-0.93-4.455-1.302-8.976-1.587-13.507
		C40.193,93.052,39.914,92.506,40.692,92.277z"/>
	<path fill-rule="evenodd" clip-rule="evenodd" fill="#E55D4F" d="M133.111,128.45c0.663-6.636,0.561-13.241-0.768-19.8
		c-1.077-5.316-2.547-10.491-5.497-15.127c-1.342-1.607-2.733-3.186-3.109-5.354c8.202-0.185,16.372-0.766,24.49-1.98
		c0.688,0.675,0.572,1.556,0.539,2.375c-0.426,10.668-2.854,20.797-8.15,30.152c-1.688,2.981-3.491,5.883-5.713,8.501
		C134.432,127.772,134.096,128.609,133.111,128.45z"/>
	<path fill-rule="evenodd" clip-rule="evenodd" fill="#F18C7B" d="M142.343,58.2c-0.777-1.763-1.533-3.536-2.335-5.289
		C130.79,32.746,115.238,20.6,93.538,16.269c-4.562-0.91-9.193-1.084-13.831-1.146c-0.611-1.418-1.222-2.837-1.834-4.256
		c7.161-0.76,14.137,0.349,20.999,2.252c11.66,3.234,21.663,9.272,29.996,18.061c0.486,0.513,1.035,0.967,1.554,1.449
		c0.001,3.569,0.83,4.617,4.345,5.489c1.893,1.267,2.798,3.306,3.833,5.178c1.702,3.076,3.664,5.997,5.278,9.12
		C143.057,54.261,142.49,56.175,142.343,58.2z"/>
	<path fill-rule="evenodd" clip-rule="evenodd" fill="#F18C7B" d="M133.111,128.45c4.059-4.319,7.024-9.361,9.453-14.707
		c3.971-8.739,5.73-17.968,5.663-27.554c1.556-0.379,3.112-0.759,4.668-1.138c-0.119,15.696-4.626,29.906-14.401,42.307
		c-2.071,2.627-4.251,5.175-6.89,7.274C132.106,132.572,132.609,130.51,133.111,128.45z"/>
	<path fill-rule="evenodd" clip-rule="evenodd" fill="#A0C3CE" d="M123.737,88.169c0.953,1.834,2.459,3.346,3.109,5.354
		c-3.25,0.71-6.544,0.317-9.817,0.348c-1.338,0.013-1.864,0.444-2.213,1.771c-1.671,6.357-4.201,12.402-6.872,18.4
		c-2.439,5.479-5.355,10.702-8.204,15.965c-0.241,0.445-0.375,0.978-0.915,1.195c-1.375-0.402-1.545-1.59-1.787-2.733
		c0.045-1.012,0.77-1.719,1.157-2.577c2.368-3.205,3.739-7.015,6.168-10.184c3.026-5.537,5.592-11.28,7.704-17.227
		c1.381-2.904,2.201-6.004,3.053-9.08c0.282-1.021,0.654-1.349,1.675-1.311C119.106,88.175,121.422,88.15,123.737,88.169z"/>
	<path fill-rule="evenodd" clip-rule="evenodd" fill="#F5CDC5" d="M143.877,52.415c-1.56-1.398-2.517-3.251-3.472-5.036
		c-1.711-3.198-3.635-6.251-5.64-9.262c1.298-0.084,2.694,0.219,3.72-0.942c1.295,0.647,1.827,1.958,2.466,3.088
		c1.633,2.887,3.544,5.616,4.953,8.629C145.229,50.066,144.553,51.24,143.877,52.415z"/>
	<path fill-rule="evenodd" clip-rule="evenodd" fill="#FFFEFE" d="M145.905,48.892c-1.289-1.208-2.044-2.783-2.933-4.267
		c-1.49-2.487-2.99-4.968-4.486-7.451c0.138-1.014,0.74-1.035,1.534-0.754c1.165,0.412,2.353,0.577,3.587,0.289
		c1.029-0.24,1.636,0.42,1.885,1.242C146.584,41.552,146.675,45.21,145.905,48.892z"/>
	<path fill-rule="evenodd" clip-rule="evenodd" fill="#E55D4F" d="M97.192,128.592c0.545,0.87,1.089,1.74,1.633,2.61
		c3.247,5.396,7.157,10.173,12.617,13.501c0.035,0.954-0.764,1.137-1.385,1.365c-9.451,3.478-19.004,6.596-29.083,7.687
		c-1.049,0.113-2.201,0.369-3.121-0.516c1.455-1.841,3.594-3.075,4.662-5.259c0.247-1.097,1.261-1.577,1.906-2.353
		c3.085-3.715,5.975-7.573,8.682-11.569C94.442,132.22,95.179,129.928,97.192,128.592z"/>
	<path fill-rule="evenodd" clip-rule="evenodd" fill="#F18C7B" d="M77.853,153.24c5.068,0.123,10.005-0.769,14.815-2.229
		c5.783-1.758,11.744-2.964,17.298-5.454c0.525-0.235,1.113-0.343,1.477-0.853c1.251,0.431,2.502,0.861,3.753,1.292
		c-8.134,5.928-17.28,9.393-27.126,11.175c-5.506,0.997-11.055,0.83-16.604,0.745C73.594,156.357,75.723,154.798,77.853,153.24z"/>
	<path fill-rule="evenodd" clip-rule="evenodd" fill="#F0B43D" d="M78.401,148.961c-8.155,1.845-15.771,0.268-22.994-3.674
		c-1.566-0.854-3.038-1.883-4.553-2.831c-0.692,0.064-0.869-0.501-1.044-0.951c-1.41-3.609-2.659-7.276-3.643-11.027
		c-0.141-0.535-0.351-1.169,0.413-1.49c0.982-0.162,1.543,0.523,2.151,1.088c7.587,7.053,16.548,10.383,26.897,9.854
		c2.454-0.125,4.871-0.606,7.236-1.309c0.734-0.218,1.46-0.568,2.264-0.332c0.652,0.37,0.4,0.918,0.145,1.32
		c-1.92,3.019-3.764,6.093-6.058,8.856C79.014,148.709,78.685,148.813,78.401,148.961z"/>
	<path fill-rule="evenodd" clip-rule="evenodd" fill="#E55D4F" d="M46.596,129.167c-0.414,0.852,0.149,1.573,0.372,2.307
		c1.13,3.718,2.132,7.484,3.887,10.982c0.678,2.49,2.167,4.617,3.126,6.981c-0.686,0.558-1.355,0.189-1.994-0.078
		c-5.731-2.394-11.143-5.343-15.948-9.32c-0.573-0.474-1.286-0.929-1.12-1.873c4.199-2.788,7.818-6.203,10.963-10.133
		C46.581,128.122,46.707,128.571,46.596,129.167z"/>
	<path fill-rule="evenodd" clip-rule="evenodd" fill="#F18C7B" d="M34.919,138.167c2.738,3.074,6.214,5.179,9.752,7.125
		c2.972,1.635,5.926,3.396,9.31,4.146c1.405,1.933,2.809,3.865,4.213,5.797c-9.848-2.789-18.406-7.863-25.976-14.68
		c-0.218-0.195-0.293-0.549-0.435-0.829C32.828,139.206,33.874,138.686,34.919,138.167z"/>
	<path fill-rule="evenodd" clip-rule="evenodd" fill="#E6A532" d="M78.401,148.961c2.421-3.427,4.918-6.804,6.962-10.481
		c-0.016-0.133-0.031-0.306,0.056-0.361c2.442-1.576,5.099-2.743,7.705-4.007c0.087-0.042,0.226,0.077,0.323,0.166
		c-2.82,4.343-5.939,8.46-9.352,12.354c-0.46,0.524-0.909,1.077-1.584,1.352C81.166,148.402,79.855,148.982,78.401,148.961z"/>
	<path fill-rule="evenodd" clip-rule="evenodd" fill="#F18C7B" d="M61.708,13.269c3.851-0.629,7.582-1.894,11.499-2.179
		c0.83-0.06,1.654-0.179,2.481-0.271c0.809,1.326,1.267,2.785,1.631,4.281c-0.039,0.777-0.686,0.884-1.215,0.973
		c-2.696,0.455-5.404,0.839-8.085,1.386c-0.589,0.12-1.129-0.094-1.65-0.35C64.814,15.829,63.261,14.549,61.708,13.269z"/>
	<path fill-rule="evenodd" clip-rule="evenodd" fill="#E55D4F" d="M66.368,17.109c3.661-0.611,7.357-1.03,10.95-2.01
		c0.833,1.998,1.327,4.083,1.618,6.22c-2.573,0.78-5.174,1.306-7.882,0.888C69.492,20.508,67.93,18.809,66.368,17.109z"/>
	<path fill-rule="evenodd" clip-rule="evenodd" fill="#E5A533" d="M71.054,22.208c2.623-0.34,5.2-1.085,7.882-0.888
		c0.183,1.162,0.365,2.324,0.548,3.486c-0.453,0.405-0.179,0.787,0.038,1.171c0.141,1.168,0.174,2.335-0.003,3.503
		c-1.375-1.365-1.991-3.226-3.107-4.762c-1.1-1.513-2.727-2.048-4.603-1.458C71.557,22.91,71.306,22.559,71.054,22.208z"/>
	<path fill-rule="evenodd" clip-rule="evenodd" fill="#E3A837" d="M79.522,25.978c-0.526-0.283-0.961-0.731-0.807-1.306
		c0.093-0.348,0.502,0.065,0.769,0.135C79.497,25.197,79.51,25.587,79.522,25.978z"/>
	<path fill-rule="evenodd" clip-rule="evenodd" fill="#E55D4F" d="M62.798,25.932c-6.825,3.669-11.61,9.319-15.434,15.901
		c-2.814,4.843-4.62,10.068-5.867,15.505c-1.511,0.415-2.886-0.055-4.243-0.648c-7.406-0.875-13.739,1.965-19.963,5.817
		c1.912-3.955,1.418-7.813,0.156-11.67c0.693-2.927,2.811-5.028,4.364-7.452c0.615-0.958,1.212-2.001,2.301-2.564
		c4.169,1.043,6.212-0.528,6.137-4.721c-0.009-0.513-0.025-1.026-0.038-1.54c0.21-0.884,0.902-1.396,1.54-1.93
		c7.234-6.057,15.432-10.303,24.5-12.839c2.478-0.693,4.938-1.471,7.467-1.982c1.789,1.584,3.274,3.421,4.531,5.448
		c-0.7,0.923-1.778,1.199-2.769,1.626C64.555,25.153,63.765,25.771,62.798,25.932z"/>
	<path fill-rule="evenodd" clip-rule="evenodd" fill="#E55D4F" d="M27.528,82.27c-6.095,6.167-10.372,13.412-12.875,21.71
		c-0.975,0.409-1.075-0.433-1.271-0.967c-2.662-7.248-4.166-14.701-3.842-22.461c0.027-0.637-0.001-1.299,0.521-1.796
		C15.835,80.169,21.659,81.33,27.528,82.27z"/>
	<path fill-rule="evenodd" clip-rule="evenodd" fill="#F18C7B" d="M10.062,78.755c-0.375,8.414,1.059,16.538,3.89,24.444
		c0.144,0.4,0.245,0.716,0.701,0.78c-0.767,2.683-1.585,5.354-1.934,8.136c-1.609-1.68-2.179-3.896-2.989-5.964
		c-3.795-9.693-4.909-19.775-4.184-30.104C6.67,77.587,8.49,77.964,10.062,78.755z"/>
	<path fill-rule="evenodd" clip-rule="evenodd" fill="#F18C7B" d="M63.717,17.809c-0.913,0.935-2.186,1.146-3.337,1.402
		c-11.382,2.528-21.434,7.633-30.168,15.349c-0.257-1.037-0.514-2.073-0.771-3.11c3.616-3.338,7.927-5.637,12.074-8.207
		c5.744-3.559,11.677-6.705,17.924-9.266C61.033,15.068,62.468,16.334,63.717,17.809z"/>
	<path fill-rule="evenodd" clip-rule="evenodd" fill="#E6A632" d="M37.255,56.69c1.479-0.21,2.85,0.293,4.243,0.648
		c0.035,2.626-0.648,5.174-0.821,7.792c-0.35,5.297-0.72,10.585-0.713,15.896c0,0.673,0.266,1.428-0.368,1.998
		C38.058,74.314,37.485,65.518,37.255,56.69z"/>
	<path fill-rule="evenodd" clip-rule="evenodd" fill="#F18C7B" d="M24.113,40.821c-2.222,3.338-4.443,6.677-6.665,10.016
		c-1.622-1.711-1.106-3.823-1.096-5.84c1.018-1.239,1.886-2.588,2.862-3.859c0.477-0.622,0.959-1.201,1.697-1.513
		C22.281,39.212,23.375,39.54,24.113,40.821z"/>
	<path fill-rule="evenodd" clip-rule="evenodd" fill="#F5CCC2" d="M20.911,39.625c-1.168,1.567-2.343,3.13-3.501,4.706
		c-0.273,0.372-0.541,0.704-1.059,0.666c0.166-0.862,0.294-1.733,0.502-2.585C17.609,39.313,17.775,39.208,20.911,39.625z"/>
	<path fill-rule="evenodd" clip-rule="evenodd" fill="#E5A533" d="M62.798,25.932c0.637-0.753,1.536-1.051,2.414-1.383
		c2.094,1.002,3.782,2.652,5.865,3.672c1.069,1.578,1.119,3.599,2.24,5.154c-2.083-1.008-3.448-2.929-5.363-4.19
		C66.254,28.067,64.542,26.976,62.798,25.932z"/>
	<path fill-rule="evenodd" clip-rule="evenodd" fill="#EFB33D" d="M71.077,28.221c-0.139,0.119-0.372,0.364-0.404,0.34
		c-1.816-1.344-4.002-2.188-5.46-4.013c1.012-0.43,2.024-0.861,3.036-1.292C69.436,24.772,70.456,26.383,71.077,28.221z"/>
	<path fill-rule="evenodd" clip-rule="evenodd" fill="#35151A" d="M93.448,134.278c-2.695,1.4-5.39,2.802-8.084,4.202
		c-3.899,1.131-7.817,2.039-11.93,2.023c-9.672-0.035-17.931-3.507-25.019-9.978c-0.557-0.508-0.963-1.239-1.818-1.357
		c-0.238-0.378-0.477-0.756-0.714-1.135c-0.884-3.906-1.768-7.813-2.652-11.72c1.628-0.06,2.491,1.233,3.517,2.119
		c3.658,3.159,7.69,5.703,12.148,7.536c10.587,4.351,21.417,5.078,32.47,1.995c1.823-0.402,3.546-1.117,5.313-1.693
		c0.588-0.191,1.168-0.611,1.822-0.178c-0.157,0.978-0.954,1.621-1.307,2.498C95.944,130.488,94.696,132.383,93.448,134.278z"/>
	<path fill-rule="evenodd" clip-rule="evenodd" fill="#F0B43D" d="M91.588,128.388c-17.551,4.622-33.169,1.019-46.817-10.991
		c-0.471-0.414-0.804-1.042-1.541-1.083c-0.337-3.101-1.254-6.118-1.331-9.256c7.877,6.329,16.767,10.464,26.721,12.256
		c8.463,1.524,16.912,1.43,25.336-0.344c0.629-0.133,1.264-0.24,1.896-0.36c0.386,0.345,0.452,0.817,0.263,1.225
		C94.756,122.764,93.633,125.821,91.588,128.388z"/>
	<path fill-rule="evenodd" clip-rule="evenodd" fill="#756A69" d="M40.692,92.277c-0.418,0.338-0.183,0.87-0.381,1.273
		c-0.36-0.59-0.387-1.213-0.189-1.859C40.313,91.887,40.502,92.082,40.692,92.277z"/>
	<path fill-rule="evenodd" clip-rule="evenodd" fill="#DBDAD9" d="M58.649,68.289c4.167,0.705,8.293,1.608,12.521,2.009
		c6.42,0.608,12.817,0.71,19.226-0.007c0.335,2.022-0.907,3.349-2.071,4.715c-0.99,0.536-2.096,0.69-3.172,0.738
		c-8.245,0.371-16.447,0.098-24.518-1.859c-0.251-0.061-0.488-0.162-0.715-0.283C59.046,71.94,58.169,70.276,58.649,68.289z"/>
	<path fill-rule="evenodd" clip-rule="evenodd" fill="#E6A632" d="M98.563,72.124c-1.426,2.775-3.881,4.536-6.303,6.299
		c-5.721,4.166-12.206,5.969-19.212,5.743c-5.15-0.166-10.082-1.353-14.182-4.713c-3.481-2.853-5.315-6.697-6.062-11.081
		c-0.093-0.542-0.174-1.171,0.315-1.644c0.774,0.599,0.841,1.545,1.137,2.368c0.976,2.708,2.439,5.047,4.866,6.695
		c4.083,3.09,8.892,3.978,13.796,4.303c5.511,0.366,10.91-0.354,16.011-2.652c2.74-0.983,5.218-2.422,7.461-4.283
		C97.014,72.643,97.608,71.982,98.563,72.124z"/>
	<path fill-rule="evenodd" clip-rule="evenodd" fill="#37161A" d="M82.72,56.883c-0.151-1.361-0.735-2.692-0.247-4.349
		c1.608,4.526,4.682,7.046,9.277,7.031c4.416-0.015,7.421-2.443,9.139-6.954c0.521,2.459-0.357,4.223-1.129,6.007
		c-1.291,3.436-5.691,5.064-9.165,4.72C87.069,62.988,82.982,59.837,82.72,56.883z"/>
	<path fill-rule="evenodd" clip-rule="evenodd" fill="#37161A" d="M53.595,54.225c0.056-0.992-0.299-2,0.116-3.159
		c1.61,4.26,4.45,6.76,8.98,6.834c4.7,0.077,7.671-2.429,9.376-6.874c0.539,2.295-0.302,4.102-1.077,5.92
		c-1.759,3.358-5.467,5.289-9.165,4.772C57.328,61.091,54.465,58.483,53.595,54.225z"/>
	<path fill-rule="evenodd" clip-rule="evenodd" fill="#E75025" d="M98.563,72.124c-2.352,1.725-4.553,3.674-7.256,4.878
		c-0.636,0.283-1.225,0.692-1.965,0.66c-0.854-0.891-1.3-1.898-0.901-3.148c0.651-1.408,1.304-2.816,1.955-4.225
		c3.569-0.651,7.138-1.302,10.865-1.983C100.823,70.061,99.407,70.894,98.563,72.124z"/>
	<path fill-rule="evenodd" clip-rule="evenodd" fill="#E5A532" d="M53.595,54.225c1.185,3.27,3.21,5.73,6.689,6.66
		c4.466,1.193,7.929-0.474,10.707-3.938c-1.013,4.455-5.052,7.241-9.672,6.675C56.813,63.069,53.53,59.074,53.595,54.225z"/>
	<path fill-rule="evenodd" clip-rule="evenodd" fill="#E5A532" d="M82.72,56.883c2.999,5.075,7.136,7.013,11.829,5.563
		c2.187-0.675,3.81-2.096,5.211-3.829c-0.873,4.429-5.104,7.22-10.102,6.541C85.475,64.591,82.116,60.04,82.72,56.883z"/>
	<path fill-rule="evenodd" clip-rule="evenodd" fill="#E75125" d="M58.629,76.01c-3.231-2.266-4.727-5.562-5.51-9.281
		c0.186-0.316-0.227-1.399,0.691-0.779c1.514,1.022,3.321,1.369,4.838,2.339c0.328,1.705,1.229,3.268,1.245,5.05
		C60.155,74.553,59.633,75.396,58.629,76.01z"/>
	<path fill-rule="evenodd" clip-rule="evenodd" fill="#E6A633" d="M91.588,128.388c1.213-2.534,2.42-5.072,3.643-7.603
		c0.335-0.693,0.729-1.359,0.619-2.175c2.838-0.968,5.676-1.936,8.513-2.902c-1.667,3.624-3.487,7.161-5.862,10.385
		C96.178,126.801,94.028,128.03,91.588,128.388z"/>
	<path fill-rule="evenodd" clip-rule="evenodd" fill="#EDEDED" d="M58.629,76.01c0.421-0.89,0.843-1.781,1.264-2.671
		c2.958,0.46,5.903,1.06,8.877,1.354c6.555,0.647,13.127,1.267,19.67-0.178c0.3,1.049,0.601,2.098,0.901,3.147
		c-2.229,1.562-4.854,1.954-7.426,2.406c-6.181,1.086-12.3,0.86-18.272-1.245C61.814,78.179,60.086,77.33,58.629,76.01z"/>
</g>
</svg>
