<?xml version="1.0" encoding="utf-8"?>
<!-- Generator: Adobe Illustrator 19.0.0, SVG Export Plug-In . SVG Version: 6.00 Build 0)  -->
<svg version="1.1" id="Capa_1" xmlns="http://www.w3.org/2000/svg" xmlns:xlink="http://www.w3.org/1999/xlink" x="0px" y="0px"
	 viewBox="0 0 68.9 98.9" style="enable-background:new 0 0 68.9 98.9;" xml:space="preserve">
<style type="text/css">
	.st0{fill:#4D4D4D;}
</style>
<g id="XMLID_21_">
	<g id="XMLID_22_">
		<path id="XMLID_18_" class="st0" d="M26.5,57.4C26.5,57.4,26.4,57.4,26.5,57.4C26.5,57.4,26.5,57.4,26.5,57.4z"/>
		<path id="XMLID_19_" class="st0" d="M66.4,94.3c-0.8-1.3,0.1-3.2,0.2-4c0.1-0.8-1.2,1.4-1.2,1.6c0,0.2-0.5,0.3-0.9-0.2
			c-0.4-0.5,0.1-3.5-0.3-3.6s-0.3,3-0.3,3s-0.5-0.7-0.9-1.6c-0.4-0.9-5.6-9.5-5.8-10.3c-0.2-0.8-0.3-1.8,0.2-2.7
			c0.6-0.8,2.8-2.5,3.6-3.2c0.8-0.7-0.5-0.6-1.1,0.1c-0.6,0.7-2.4,1.7-2.4,1.7s0.3-1.7,0.2-2.3c-0.1-0.6-1.1,0.8-1.1,0.8
			s-0.1-3.8-0.3-4.7c-0.3-0.8-0.9,0.8-0.4,1.6c0.4,0.8-0.1,3.6-0.1,3.6s-1.4-2.6-2-2.9c-0.7-0.3,1.3,3.3,1.7,3.9s0.3,1.9,0.3,1.9
			s-1.5-2.2-2.1-2.9c-0.6-0.7-4.6-7.8-4.6-7.8L48.5,65c0,0,1.8-2,1.4-2.6s0.6-2.5,1.3-3.1c0.7-0.6,2.9-0.2,3.8,0.1
			c1,0.3,0,3.2,0.7,4.8c0.7,1.6,4.9,3.4,5.5,3.3c0.7-0.1,1,0.8,1,0.8s0.4-1.6,1.1-2.1c0.7-0.5,1-2.1,1-2.1s-0.7,0.2-1-0.4
			c-0.3-0.6,1.9-4.1,1.9-4.1s-0.7,0.4-1.4,0.3S62,58.3,61.4,58c-0.7-0.3-1.3-0.9-2.6-1.6c-1.3-0.6-3.3,1.2-3.3,1.2s-0.4-0.1-1.7-0.1
			c-1.3,0-3,0.8-3.4,1.2c-0.4,0.3-0.7-3.9-0.7-3.9s0,0-0.2,1.1c-0.2,1.1,0,4.3-0.4,4.9c-0.3,0.6-0.9,1.9-1.1,2.7
			c-0.2,0.8-1.1,0.7-1.1,0.7s-4.6-6.4-5.3-7s0-1.1-0.3-1.7s-1.2-0.3-1.2-0.3s0.7-1.4,0.9-2.1s-0.5-2.2-0.5-1.6c0,0.6-0.7,3-0.7,3
			l-4.1-6.2c0,0-0.6-0.9,0.9-1.8c1.4-0.9,1.4-3.4,1.4-3.4s2.1,2.4,3.8,1.6c1.7-0.8,1.6-2.5,1.5-3.7c-0.1-1.3-1.8-1.8-0.9-1.7
			c0.8,0.1,3.5-1.1,4.4-1.5c0.9-0.4,0.8,0.2,0.8,0.2s0.8-1.2,0.5-1.8c-0.3-0.6-0.9-2.6-0.8-3c0.1-0.4-0.5-0.1-1.3,0.4
			c-0.8,0.5-2.5-0.3-4.9-0.9c-2.4-0.7-4.9,1.7-5.6,2.1c-0.7,0.3-0.7,2-0.3,2.4c0.4,0.4,0.3,2.2-0.3,2.8c-0.6,0.7-1-2-1-2l-0.4,1.6
			c0,0-0.7-2.2-2.5-3.5s-5-0.7-5-0.7L24.7,35c0,0,0-1.7-1.4-2c-1.4-0.4-1.1-1-0.8-1.7c0.3-0.8,0.9-0.3,2.1,0.1s1.6,1.7,2.9,2
			c1.3,0.3,2,0,2,0s0.9,0.6,1.9,1c1,0.4,3.5-0.3,5.1-0.9c1.6-0.6,3.5-2.4,3-2.7c-0.5-0.3-0.2-3.4-0.2-3.4s-0.8,0.4-2.2,0
			c-1.3-0.4-3.1,0-3.7-0.2C32.6,27,33,25.4,32.7,25c-0.3-0.4-1.3,0.2-2.9,0.2c-1.6,0-4.5,3.1-4.8,3.6c-0.3,0.5-1.3,1.6-1.9,1.5
			s0.4-0.7,0.4-0.7l-2.9,1.3c0,0,0.5-1.9,1.3-3c0.8-1.1,3.5-0.6,3.5-0.6s0,0-0.2-1.5c-0.2-1.5-3.2-2.9-3.2-2.9s0.7,0,1.4-0.9
			c0.7-0.8,3.5-1.3,4-0.9c0.5,0.4,0.7-2.9,0.2-3.7c-0.5-0.8-3.6-1.5-3.3-2.1c0.3-0.7,0.8-4,0.5-4c-0.3,0-0.4,0.7-1.3,1.1
			c-0.8,0.4-4.2-0.6-3.2-0.8s1.4-1.7,1.4-1.7s0.6-1.3,0.5-2s-3.7-0.6-3.7-0.6s0.7-1.1-0.7-1.7s-4-0.5-3.6-1s-0.2-1.7-0.2-1.7
			s0.4-0.4,0.4-1.5c0-1.1-1.7-0.1-2.1-1.1C12-0.7,11,1.2,11,1.6C11,2,10.7,1.9,10,1.9C9.2,2,7.7,4.1,7.6,3.9c0-0.3-2.4-0.5-2.4-0.5
			s0-0.4-0.8-0.8C3.7,2.2,3.3,4,3.3,4S2,4.5,1.9,6.1s1.3,3.4,1.3,3.4l1.1-0.3c0,0,0.8-0.5,1.8-1.2s1-2.7,1-2.7l1.4,3.1
			c0,0-2,0.4-2,1C6.6,10.3,5.5,11,5,10.8c-0.5-0.2-1.9-0.2-2.7,0.9s0,2.3,0,2.3S1.8,14.6,0.5,16s0.4,3,1.6,4s2.3,0.6,2.3,0.6
			s0.2,1-0.9,1.4s-2.7,3.2-2.4,4.8s0.8,2.6,0,3.2s0.7,1.1,1.3,0.9c0.6-0.2,1.1,0.6,1.8,0.6c0.6,0-0.2-0.8,0.5-1.7
			c0.6-0.9,1.7-2.8,1.7-2.8s0.2,0.7,0.9,3.1s3,0.9,2.9,1.3c-0.1,0.4,1.5,3.4,2.3,3.8c0.8,0.4,1.6-1.9,1.7-2.9c0-1.1,1.7-0.9,1.7-0.9
			s0.3,2.2-0.6,2.4c-0.9,0.2-1,1.2-0.4,1.4c0.6,0.2,0.6,2.1,1.2,2.3c0.7,0.3,1.3,0.1,2.7,0.5c1.4,0.4,3.8-0.4,4-1.1
			c0.2-0.7,1.6,0,1.6,0s0,1.8,0.6,2.7c0.6,0.9,2.9,2.6,2.9,2.6s-2.4-0.9-3.7-1c-1.3-0.1-3-0.3-3.5-0.9c-0.6-0.6-0.3,1-0.7,2.2
			c-0.3,1.2-2-0.6-2-0.6s1,1.2,0.7,1.6c-0.3,0.4-1.8,0.9-2.7,1.1s0.3,1.6,0.2,1.9c-0.2,0.3-1.3,1.1-0.8,0.9c0.5-0.2,2.7,0.8,5.4,1.1
			s5.6-1.1,5.6-1.1s0.3,0.4,0,1c-0.3,0.7-1.4,0.4-3,1.5c-1.6,1-0.4,3.3-1,4.4c-0.6,1.2-1.3,4.2-1.3,4.9c0,0.7,0,1.5-0.5,1.9
			s1.4-0.2,2-0.5c0.6-0.3,0.6,1,0.9,1.6s1.1-0.9,0.9-1.2c-0.2-0.4,0.6-0.9,1.5-1.4c0.8-0.4,0.7-2.2,0.7-2.5c0,0,0,0,0,0c0,0,0,0,0,0
			c0,0.3,3.2,6.2,4.2,5.7c1.1-0.4,1.9-4.2,1.9-4.2s0,0,0.6,1.4c0.6,1.4,4.8,3.5,4.8,3.5s0.4-0.1,0.4-2.3c0-2.2-0.9-4.6-0.7-5.2
			c0.2-0.5,2.3,0.6,3,0.8c0.7,0.2,4.6,6.7,4.5,7c-0.1,0.3,1,0.8,0.3,1.2c-0.7,0.3-6.4-0.9-6.9-0.5c-0.4,0.5,3.3,0.9,3.3,0.9
			s-1.1,0.3-1.1,0.8c0,0.5,2.1,0,2.1,0s0,0-0.6,0.6c-0.6,0.6,1.5-0.2,2.6-0.7c1.1-0.4,2.1,0.2,2.9,0.8c0.8,0.6,5.8,9.6,5.8,9.6
			s-1,0.9-1.6,0.1s-1,0.3-1.7-0.1s-4-2.3-3.9-1.8c0,0.5,2.8,2.6,2.8,2.6s-0.8-0.1-0.9,0.4c-0.1,0.5,2.2,0,2,0.4
			c-0.3,0.3,1.1,0.2,1.6,0.2c0.5,0,2.9,0.4,3.1,0.8c0.2,0.4,2.2,2.8,3.2,4.3s5,8.7,5,8.7s-2.5-0.1-3.6-0.6c-1.2-0.5-1.8-2.6-2.4-2.3
			c-0.6,0.2,2.2,3.2,2.2,3.2s-2.6-1-3.2-1.5s-1.2,0-0.7,0.5c0.7,0.6,3.4,1.4,3.4,1.4s-0.3,0.3-1.6,0.4c-1.3,0.1-2.8,0.6-1.9,0.9
			c1,0.3,5.1-0.5,5.7-0.9c0.5-0.4,1.9,0,2.9,0.3s3.7,5.2,3.7,5.2l1.4-0.7C68.9,98.2,67.2,95.6,66.4,94.3z M28.4,45.2
			c0,0,0,0,0.5-0.5c0.5-0.5,0-2.1,0-2.1s0.8-0.2,1.3,0.3c0.5,0.5,0.8,3.3,0.6,2.9C30.5,45.4,28.4,45.2,28.4,45.2z M31.9,54.1
			c0,0-1.5-1.4-2.2-1.3c-0.7,0.1-1.1,0.2-1.2-0.3c-0.1-0.5,0.2-2.1,0.2-2.1c1.4,0.9,2,0.5,2,0.5s0.8,0.8,1.2,1.7
			S31.9,54.1,31.9,54.1z M38.7,55.2c-0.5,0-2.9-1-3.8-1.7c-0.9-0.7-2.3-0.6-2.3-0.6S32,51.4,31.6,51c-0.5-0.4-0.8-1.3-0.5-1.6
			s0.4-1.5,0.4-1.5s1.9,0.3,2.9,0.8c1,0.5,3.5,5.1,3.5,5.1S39.2,55.2,38.7,55.2z"/>
	</g>
</g>
</svg>
