<?xml version="1.0" encoding="utf-8"?>
<!-- Generator: Adobe Illustrator 19.0.0, SVG Export Plug-In . SVG Version: 6.00 Build 0)  -->
<svg version="1.1" id="Capa_1" xmlns="http://www.w3.org/2000/svg" xmlns:xlink="http://www.w3.org/1999/xlink" x="0px" y="0px"
	 viewBox="0 0 68.4 104.6" style="enable-background:new 0 0 68.4 104.6;" xml:space="preserve">
<style type="text/css">
	.st0{fill:#727176;}
</style>
<g id="XMLID_19_">
	<path id="XMLID_17_" class="st0" d="M13.9,8.2c0,0-3.2-1.8-5-1.3c-1.8,0.5-1,1.7,0,2.2c1,0.5,2,0.6,2,0.6s-0.7,0-0.5,0.6
		c0.3,0.6,2,1.1,2,1.1s-0.6,0.2-0.3,0.8c0.3,0.6,0.3,0.6,0.3,0.6s-1.4-0.3-1.4,0.3c0,0.5,2,2,3,2.2c1.1,0.3,1.4,0.9,1.4,0.9
		s-3.9-0.7-4.6,0c-2.1,2.2,5.5,2.2,5.5,2.2s-0.5,0.8,0.3,1.7c0.8,0.8,3.1,2.8,3.1,2.8s-3.1-1.9-4.8-1.7c-1.7,0.2-1.7,1.7-1.7,1.7
		s0.8,1.3,2.2,1.3c1.4,0,2.6,0,2.6,0s-2.9,1.5,1.3,2.6c2.9,0.8,4.3,4.9,4.3,4.9s-0.8,0.7,0,1.2c0.8,0.5,2.1,0.8,2.1,0.8l0.5,1.5
		c0,0-3.6-1.6-5.1-0.8c-1.5,0.8-2.1,0.9-1,2.7c0.2,0.3,1.2,0.6,4.1,0.5c3-0.1,3.7,0,3.7,0l8,13.9c0,0-3.6,0-4.1,0
		c-0.5,0-0.9,0-0.9,0s2.9,3.4,4.6,3.3c1.7-0.1,1.7-0.1,1.7-0.1S57.9,89,58.2,89.6c0.3,0.6-9.2-6.8-12.9-10.2
		c-3.7-3.3-6.3-3.9-6.3-3.9s5.9,6.8,10,10.4c4.1,3.7,9,4.7,12.2,9.2c3.2,4.5,5.7,9.3,5.7,9.3v-2.1c0,0-7-12.1-7.8-16.6
		c-0.8-4.5,1.8-16.1,0.5-18.6C58.3,64.7,58,65,58,65s-1.6,10.4-1.5,13.8c0.2,3.3,0.8,6.2,0.8,6.2s-17.5-29.7-18-31
		c-0.5-1.3,0-1-0.6-3.2c-0.6-2.1-1.4-4-1.4-4s-1.1,1.5-0.9,2c0.3,0.5,0.3,0.5,0.3,0.5l-6.3-12.2c0,0-0.5-0.3,0.3-0.9
		c0.9-0.6,2.6-2.7,2.3-4.2c-0.3-1.5-1.5-1.8-1.9-1.4c-0.4,0.4-1.1,0.7-1.1,0.7s1.7-2.7,0.9-3.3c-0.8-0.7-1.7-0.3-1.7-0.3
		s-0.1-2.8,0.2-4c0.3-1.2,0-2.7,0.5-3.2c0.5-0.4,1-4.1-0.1-3.8C28.8,17,28.8,17,28.8,17s-0.5-4.1-1.9-3.3c-1.4,0.9-1.3,2.4-1.3,2.4
		v1.5c0,0-1.5,0.6-1.6,1.6c-0.1,1-0.1,1-0.1,1l-0.9-0.5c0,0,0.2-2.8,0.9-4.4c0.7-1.5,2.1-3.6,0.4-4.6c-1.4-0.8-3.4,2.9-3.3,3.4
		c0.2,0.5-1,0.2-1,0.2s0.7-3.6,0.1-5C19.5,8,18.7,8,18.7,8s2.4-2.4,2.1-3.8c-0.3-1.4-1.9-0.7-1.9-0.7s0.3-2.7-0.6-2.7
		c-0.9-0.1-1.8,3-1.7,3.7c0.1,0.7-2.5-4.6-4.3-4.5c-0.7,0-1.8,2-0.9,3.5C12.3,5.1,14,7.1,13.9,8.2z"/>
	<path id="XMLID_16_" class="st0" d="M7,36.8c0,0-0.6-3,0.3-4.3c0.9-1.3,1.6-0.4,1.7,0.6c0.1,0.9,0,1.7,0,1.7s0.2-0.6,0.6-0.2
		c0.4,0.4,0.3,1.9,0.3,1.9s0.3-0.4,0.7,0c0.4,0.4,0.4,0.4,0.4,0.4s0.2-1.2,0.6-1.1c0.4,0.1,1,2.1,0.9,3c-0.1,0.9,0.3,1.3,0.3,1.3
		s0.5-3.3,1.2-3.6c2.3-1,0.3,4.9,0.3,4.9s0.8-0.1,1.2,0.7c0.4,0.8,1.3,3.2,1.3,3.2s-0.6-2.9,0-4.2c0.6-1.3,1.8-0.9,1.8-0.9
		s0.8,1,0.4,2.1c-0.4,1.1-0.7,2-0.7,2s0.6-0.5,2.1,1.2c1.6,1.7,2.3,5.3,2.3,5.3s0.8-0.5,1,0.3c0.2,0.8,0,1.9,0,1.9l1,0.8
		c0,0-0.3-3.3,0.7-4.3c1-1,1.3-1.1,1.6-1c1.4,0.9,1,2,0.2,4.3c-0.8,2.3-1,2.9-1,2.9l8.8,10c0,0,1-2.8,1.1-3.2
		c0.1-0.4,0.3-0.7,0.3-0.7s1.9,3.2,1.4,4.5c-0.5,1.3-0.5,1.3-0.5,1.3S58.6,93,59,93.4c0.4,0.4-4.9-7.8-6.6-11.6
		c-1.6-3.8-1.4-6-1.4-6s3.7,6.5,5.5,10.7c1.8,4.2,3.3,7,6,10.7c2.7,3.7,5.8,7,5.8,7l-1.6-0.6c0,0-7.6-8.8-11-10.6
		c-3.4-1.8-13.1-2.9-14.7-4.6c-1.6-1.7-1.3-1.9-1.3-1.9s8.6,1.5,11.2,2.6c2.6,1,4.6,2.3,4.6,2.3S37,69.8,36.1,69
		c-0.9-0.7-0.8-0.3-2.3-1.3c-1.5-1-2.8-2.1-2.8-2.1s1.4-0.5,1.8-0.2c0.3,0.3,0.3,0.3,0.3,0.3l-7.9-8.2c0,0-0.1-0.5-0.8,0
		c-0.7,0.5-2.8,1.3-3.9,0.7c-1.1-0.6-1-1.6-0.6-1.8c0.4-0.2,0.8-0.7,0.8-0.7s-2.5,0.6-2.9-0.2c-0.3-0.8,0.2-1.4,0.2-1.4
		s-2.2-0.8-3.2-0.9c-1-0.1-2.2-0.7-2.6-0.5c-0.5,0.3-3.5-0.3-2.9-1.1c0.6-0.8,0.6-0.8,0.6-0.8s-3.1-1.5-2.1-2.4
		c1-0.8,2.2-0.4,2.2-0.4l1.1,0.4c0,0,0.9-1.1,1.7-0.8c0.8,0.2,0.8,0.2,0.8,0.2l-0.2-0.8c0,0-2.3-0.6-3.7-0.5c-1.4,0.1-1.9-0.6-2-1
		c-0.2-0.4,1.5-1.8,1.9-1.6c0.4,0.3,0.4-0.8,0.4-0.8s-3-0.4-3.9-1.3c-0.9-0.8-0.6-1.5-0.6-1.5S3,41.7,2,41.2c-1-0.6,0-1.7,0-1.7
		s-2.2-0.4-2-1.2c0.2-0.8,2.8-0.6,3.4-0.4c0.5,0.3-2.2-4-2.4-4.6c-0.2-0.6,2-0.9,3,0.2C4.9,34.7,6.1,36.5,7,36.8z"/>
	<path id="XMLID_15_" class="st0" d="M65.5,102.7c0,0-1-6.7-1.2-7.7c-0.2-1-1.9-3.8-1.8-4.2c0.1-0.4,1.9,1.2,1.9,1.2
		s-1.8-11.1-2.1-13.8c-0.3-2.7-0.3-2.7-0.3-2.7s-1.6-0.7-2.4-2.8c-0.8-2-0.5-3.4-0.5-3.4s1,1.7,1.6,2.2c0.6,0.5,0.9-1.6,0.2-3.3
		c-0.7-1.8-1.1-3.4-1.1-3.4s-2.7-0.4-3-1.2c-0.3-0.8-0.2-1.3-0.2-1.3s-1.1-1.8-0.4-2.1c0.7-0.2,0.7-0.2,0.7-0.2s-0.4-2.9,0-2.3
		c0.5,0.6,1.7,1.6,1.7,1.6s-0.8-4.5-1.1-4.8c-0.2-0.4-1.8-0.6-2.8-1.5c-0.9-0.9-2.4-2.2-2.4-2.2l1.6-0.2c0,0-1-2.1,0.1-2.5
		c1.1-0.4,0.9,0.3,0.9,0.3s0.9-1.7,1.1-1.4c0.2,0.3,0-1.8,0-1.8s-2.7,0.5-3.6-1.3c-0.9-1.7-0.1-2.5,0.2-2.3c0.3,0.2,0.4-2.1,1-1.8
		c0.6,0.2,1,0.4,1,0.4s0.3-1.6-0.6-1.5c-0.9,0.1-4.3-1-4.4-2.3c-0.2-1.3,1-2.7,1.6-2c0.6,0.7,1,1,1,1s-1.6-3.5,0-3.3
		c1.6,0.3,2.7,3.2,2.7,3.2s1.8-2.7,2.4-1.3c0.6,1.3,1.5,3.2-0.1,3.9c-1.6,0.6-1.4,1.9-1.4,1.9s1.2-2.6,1.8-1.2
		c0.5,1.4,0.6,2.4,0.6,2.4s1-1.8,1.3-0.1c0.3,1.7-2.3,4-2.2,4.3c0,0.3,0.2,3.1,0.2,3.1s1.1-1,2.1-0.5c1.8,0.9,0.6,2.4,0.6,2.4
		s1.6-1.3,1.6,0.1c0,1.5-1.5,2.8-2,3.4c-0.6,0.5-0.8,1.2-0.8,1.2l1.2,5.1c0,0,0.6-2,1.3-1.6c0.7,0.5,0.8,1.2,0.8,1.2
		s1.7-0.5,1.5,1.1c-0.2,1.7-2.2,3.4-2.2,4.2c0,0.7,0.8,4.7,0.9,6c0.1,1.3,0.5,1.7,0.5,1.7s1.9-2.2,2.3-2.7c0.4-0.4,1.3,2.8,0,4.3
		c-1.3,1.5-1.7,1.7-1.7,1.7s2.3,15.6,2.4,16c0.1,0.4,1.2-2.1,1.7-2.4c0.5-0.3,0,1.9-0.2,3.8c-0.2,2-1,4.4-0.5,6.8
		c0.4,2.5,0.5,2.9,0.5,2.9L65.5,102.7z"/>
	<path id="XMLID_14_" class="st0" d="M68.2,103.7c0,0-2.2-4.8-2.6-5.5c-0.3-0.7,0.2-2.3-0.1-2.5c-0.2-0.2-1.3,0.6-1.3,0.6
		s-3.6-7.9-4.6-9.8c-1-1.9-1-1.9-1-1.9s0.7-1.2,0.3-2.8c-0.4-1.6-1.1-2.4-1.1-2.4s0.1,1.5-0.1,2.1c-0.2,0.6-1.2-0.6-1.6-2.1
		s-0.7-2.7-0.7-2.7s1.6-1.4,1.4-2.1c-0.1-0.6-0.4-0.9-0.4-0.9s-0.1-1.7-0.6-1.5c-0.6,0.1-0.6,0.1-0.6,0.1s-0.1-2.1-1-1.4
		c-0.5,0.4-0.4,1.8-0.4,1.8s-1.4-3.2-1.4-3.6c0-0.3,0.9-1.2,1.1-2.1c0.2-1,1.3-2.6,1.3-2.6l-1.9,0.7c0,0-0.3-1.7-1.2-1.5
		c-0.9,0.2-0.4,0.6-0.4,0.6s-1.3-0.7-1.3-0.4c0,0.3-0.7-1.1-0.7-1.1s1.9-0.8,1.8-2.3c-0.2-1.5-1-1.7-1.1-1.4
		c-0.1,0.3-1.1-1.2-1.4-0.7c-0.3,0.4-0.5,0.7-0.5,0.7s-0.9-0.9-0.3-1.2c0.6-0.3,2.3-2.5,1.9-3.4c-0.4-0.9-1.8-1.4-1.9-0.6
		c-0.1,0.8-0.2,1-0.2,1s-0.5-2.9-1.4-2.1c-0.9,0.9-0.4,3.2-0.4,3.2s-2.3-0.9-2.1,0.2c0.2,1.1,0.4,2.7,1.7,2.4
		c1.3-0.3,1.7,0.6,1.7,0.6s-1.9-1.1-1.6,0c0.3,1.1,0.7,1.8,0.7,1.8S45,60,45.6,61.2c0.6,1.2,3.2,1.6,3.3,1.8
		c0.1,0.2,1.2,2.1,1.2,2.1s-2.3-0.1-2.3,0.7c0,0.9,1.4,1.6,1.4,1.6s-1.6-0.2-1,0.8c0.6,1,2.1,1.2,2.7,1.3c0.6,0.1,1,0.5,1,0.5
		l1.4,3.8c0,0-1.3-1.1-1.5-0.4c-0.3,0.6,0,1.1,0,1.1s-1.3,0.4-0.5,1.4c0.8,1,2.9,1.3,3.2,1.7c0.3,0.5,1.5,3.3,2,4.2
		c0.5,0.9,0.4,1.3,0.4,1.3s-2.2-0.6-2.6-0.8c-0.4-0.1,0.4,2.3,1.8,2.8c1.5,0.4,1.8,0.4,1.8,0.4s5.2,11,5.3,11.3
		c0.1,0.3-1-0.4-1.5-0.4c-0.5,0,0.2,0.8,1.1,2c1,1.2,2.5,2.4,3.3,4.2c0.8,1.8,0.9,2.1,0.9,2.1L68.2,103.7z"/>
</g>
</svg>
