<?xml version="1.0" encoding="utf-8"?>
<!-- Generator: Adobe Illustrator 19.0.0, SVG Export Plug-In . SVG Version: 6.00 Build 0)  -->
<svg version="1.1" id="Capa_1" xmlns="http://www.w3.org/2000/svg" xmlns:xlink="http://www.w3.org/1999/xlink" x="0px" y="0px"
	 viewBox="0 0 54.3 98.2" style="enable-background:new 0 0 54.3 98.2;" xml:space="preserve">
<style type="text/css">
	.st0{fill:#727176;}
</style>
<g id="XMLID_53_">
	<path id="XMLID_54_" class="st0" d="M46.3,90.9c-0.1-0.5-0.3-1-0.7-1.6C43.9,86.3,51.2,78,51.2,78s-1.6-0.2-1.6-0.2
		c-0.3-4.6,6.2-15.2,3.4-17.3c-2.1-1.6,1.3-16.9,1.3-16.9s-1.7,1.9-2.8,1.4c-1.3-0.5-2.1-3.6-2.3-4.9c-0.2-0.8-1.2-8.1-1.2-8.1
		s-0.7,2.7-2.4,1.5c-1.2-0.9-2.1-2.5-2.6-4c-0.4-1-2.7-9.1-2.7-9.1s0.1,3.1-2,2.6c-1.2-0.3-2.2-2.3-2.8-3.5
		c-0.3-0.6-2.5-7.2-2.5-7.2s-0.7,5-4.3,1.5c-1-0.9-3.1-6.7-3.6-6.9c-0.8-0.3-0.8,4.8-3.7,2.7c-0.8-0.6-4.5-5.7-4.5-5.7
		s-0.2,3.2-1.2,3.9c-1.5,0.9-2.6-3.1-3.4-2.8c-1.7,0.3,0.4,3.2-3.4,1.5C6.4,5.4,0.1-0.1,0,0c-0.3,0.7,3.7,9.4,3.9,12.3
		C4.1,14.6,1,12.1,1,12.1s3.6,6,3.8,6.5c0.6,1.5,1.9,4.5,1.6,5.9c-0.3,1.2-2.9-0.3-3,0.3c0,0.1,4.1,5.8,4.5,6.6
		c0.6,1.2,1.5,2.9,1.5,4.3c0,2.1-2.7,1.4-2.7,1.4s3.9,5.9,4.2,6.4c2.5,5-1.5,4.1-1.6,5.8c0,0.3,3.9,5.3,4.1,6
		c0.4,1.3,1.2,4.1,0.7,5.8c-0.2,0.6-3.2,3.7-3.3,2.9c0.2,1,4.2,3.7,4.9,4.8c0.6,0.9,1.7,2.3,1.5,3.7c-0.1,0.5-2.1,2.1-2.1,2.1
		s3.1,0.2,4.6,1.9c2,2.2-1.4,3.6-1.4,3.6s6.4,2.6,6.8,2.9c1,0.7,2.3,1.1,2.9,2.4c0.6,1.3-1.8,2.2-1.8,2.2s7.4,0.5,7.8,0.6
		c3.3,0.9,6.1-0.6,8,0.6c1.2,2.5,2,5.9,2.9,8c1.5,3.3,3.4-0.2,2.8-3.1C47.3,92.7,46.8,91.8,46.3,90.9z"/>
</g>
</svg>
