<?xml version="1.0" encoding="utf-8"?>
<!-- Generator: Adobe Illustrator 16.0.3, SVG Export Plug-In . SVG Version: 6.00 Build 0)  -->
<!DOCTYPE svg PUBLIC "-//W3C//DTD SVG 1.1//EN" "http://www.w3.org/Graphics/SVG/1.1/DTD/svg11.dtd">
<svg version="1.1" id="Layer_1" xmlns="http://www.w3.org/2000/svg" xmlns:xlink="http://www.w3.org/1999/xlink" x="0px" y="0px"
	 width="178.574px" height="175.397px" viewBox="0 0 178.574 175.397" enable-background="new 0 0 178.574 175.397"
	 xml:space="preserve">
<g>
	<path fill-rule="evenodd" clip-rule="evenodd" fill="#D8F0F8" d="M86.571,0.441C86.576,0.294,86.58,0.147,86.583,0
		c3.589,0,7.178,0,10.767,0c0.131,0.309,0.053,0.55-0.235,0.724C93.585,1.245,90.054,1.724,86.571,0.441z"/>
	<path fill-rule="evenodd" clip-rule="evenodd" fill="#ECF8FC" d="M0,82.097c0.146-0.002,0.291-0.004,0.436-0.006
		c1.14,2.845,1.136,5.69,0.002,8.535C0.292,90.624,0.146,90.622,0,90.621C0,87.779,0,84.938,0,82.097z"/>
	<path fill-rule="evenodd" clip-rule="evenodd" fill="#EBF7FB" d="M97.354,0.444C97.353,0.296,97.351,0.148,97.35,0
		c0.748,0,1.495,0,2.243,0c0.002,0.145,0.004,0.291,0.007,0.436C98.854,1.089,98.105,1.086,97.354,0.444z"/>
	<path fill-rule="evenodd" clip-rule="evenodd" fill="#CCEBF6" d="M97.354,0.444c0.749-0.003,1.497-0.006,2.246-0.009
		c8.408,0.499,16.441,2.644,24.167,5.861c10.459,4.355,19.583,10.723,27.34,18.994c3.883,4.14,7.373,8.603,10.101,13.594
		c3.181,5.822,7.194,11.156,9.965,17.219c3.678,8.049,6.07,16.41,6.974,25.251c1.634,15.979-1.436,30.982-9.009,45.062
		c-4.515,8.393-10.405,15.694-17.578,22.065c-7.785,6.916-16.965,11.551-25.814,16.74c-8.117,4.76-16.964,7.665-26.205,9.153
		c-6.677,1.075-13.414,1.295-20.235,0.694c-11.17-0.982-21.613-4.08-31.421-9.389c-5.781-3.13-11.019-7.006-15.958-11.395
		c-8.409-7.471-13.862-17.022-19.606-26.421c-5.183-8.481-8.912-17.507-10.71-27.297c-0.604-3.286-1.169-6.582-1.172-9.941
		c0-2.845-0.001-5.69-0.002-8.535C0.83,72.62,3.081,63.585,6.858,54.917c4.499-10.324,10.969-19.265,19.219-26.891
		c5.546-5.126,11.885-9.148,18.454-12.856c5.9-3.33,11.61-7.012,17.993-9.396c7.761-2.9,15.688-5.103,24.047-5.333
		C90.166,0.442,93.76,0.443,97.354,0.444z"/>
	<path fill-rule="evenodd" clip-rule="evenodd" fill="#AADFF0" d="M86.048,174.174c-16.718-0.188-32.792-5.734-46.769-17.132
		c-8.422-6.868-15.12-15.16-20.256-24.745c-2.671-4.984-5.982-9.603-8.146-14.889c-3.149-7.692-5.241-15.571-6.034-23.89
		c-0.809-8.487-0.101-16.781,1.862-24.994c2.855-11.951,8.457-22.487,16.44-31.854c6.737-7.905,14.914-13.833,23.955-18.75
		c3.531-1.92,6.773-4.352,10.421-6.083C66.749,7.459,76.35,4.72,86.625,3.95c14.456-1.083,27.962,1.911,40.736,8.417
		c8.707,4.435,16.386,10.322,22.544,17.99c9.301,11.58,16.953,24.124,21.68,38.292c2.982,8.941,3.958,18.209,3.307,27.548
		c-1.075,15.454-6.322,29.454-15.788,41.782c-6.812,8.871-15.275,15.819-25.102,21.12c-4.657,2.513-8.953,5.643-13.806,7.832
		c-7.655,3.453-15.571,5.807-23.945,6.765C93.26,174.038,90.299,173.915,86.048,174.174z"/>
	<path fill-rule="evenodd" clip-rule="evenodd" fill="#8CD5E7" d="M74.922,32.21c-2.376-2.076-5.396-2.777-8.256-3.775
		c-8.563-2.992-17.43-2.523-26.575-2.298c2.146-1.944,4.602-3.19,6.956-4.574c7.617-4.476,16.135-6.497,24.479-9.006
		c5.497-1.653,11.071-2.683,16.81-3.2c13.925-1.255,26.976,1.685,39.219,8.066c12.513,6.521,22.258,16.07,29.303,28.37
		c2.2,3.843,3.922,7.862,5.444,11.989c0.27,0.732,0.732,1.524,0.086,2.32c-0.98,1.75-2.896,2.486-4.213,3.9
		c-2.083,2.236-4.307,4.333-5.814,7.037c-0.649,1.164-1.551,1.768-2.945,1.351c-5.607-1.676-11.29-1.771-17.022-0.797
		c-0.516,0.087-1.041,0.128-1.509-0.2c-1.441-3.122-1.282-6.546-1.783-9.838c-1.086-7.139-1.98-14.307-3.055-21.784
		c-1.54,1.428-2.421,3.026-3.472,4.481c-0.994,1.289-1.877,2.656-2.779,4.01c-1.683,2.516-2.851,0.249-4.193-0.448
		c-2.693-2.277-5.506-4.392-8.507-6.251c-1.387-1.086-3.08-1.643-4.534-2.614c-0.842-0.598-1.792-0.991-2.722-1.423
		c-1.436-0.693-2.932-1.237-4.43-1.778c-1.588-0.861-3.399-1.007-5.078-1.575c-1.513-0.512-3.092-0.722-4.652-1.02
		c-1.107-0.379-2.263-0.197-3.395-0.29c-0.338-0.018-0.669-0.076-0.997-0.157c-1.265-0.389-2.541-0.403-3.827-0.105
		c-0.216,0.068-0.436,0.113-0.658,0.149C76.113,32.791,75.401,32.901,74.922,32.21z"/>
	<path fill-rule="evenodd" clip-rule="evenodd" fill="#AADFF0" d="M32.75,70.878c0.003-0.306,0.007-0.611,0.011-0.917
		c0.638-0.767,1.074-1.659,1.556-2.522c1.796-3.367,4.345-6.196,6.579-9.25c0.412-0.586,0.918-1.094,1.364-1.653
		c2.723-3.055,5.907-5.574,9.226-7.939c1.417-0.942,2.934-1.706,4.447-2.479c1.375-0.725,2.857-1.166,4.32-1.664
		c1.329-0.374,2.691-0.598,4.033-0.92c0.829-0.171,1.669-0.187,2.51-0.199c1.101-0.11,2.172-0.433,3.286-0.444
		c1.126-0.008,2.253-0.044,3.374,0.097c1.646,0.432,3.388,0.284,5.018,0.809c1.785,0.422,3.551,0.915,5.281,1.528
		c1.125,0.418,2.248,0.846,3.314,1.404c1.991,1.042,3.867,2.263,5.648,3.634c1.346,1.033,2.767,1.998,3.378,3.703
		c0.719,2.479,1.607,4.92,1.83,7.516c0.069,0.808,0.068,1.626-0.232,2.407c-0.409,0.827-1.208,1.098-1.987,1.398
		c-1.975,0.63-3.858,1.504-5.791,2.248c-1.446,0.599-2.956,1.025-4.54,1.681c1.713,1.259,3.527,2.158,5.36,3.024
		c2.169,1.059,4.165,2.44,6.374,3.426c1.49,0.757,2.975,1.524,4.4,2.399c1.604,0.959,3.378,1.6,4.941,2.635
		c0.752,0.537,1.587,0.923,2.42,1.313c1.482,0.778,3.024,1.441,4.444,2.337c1.422,0.884,2.961,1.543,4.435,2.328
		c0.692,0.368,1.505,0.606,1.798,1.47c-0.178,1.635-1.897,1.959-2.643,3.113c-3.92,3.313-7.718,6.769-11.571,10.16
		c-0.681,0.599-1.452,1.037-2.304,1.343c-3.466,0.971-6.992,1.679-10.496,2.489c-0.466,0.097-0.931,0.121-1.396-0.001
		c-0.338-0.115-0.58-0.333-0.7-0.673c0.186-1.263,1.054-1.943,2.167-2.25c1.201-0.331,1.256-1,1.301-2.141
		c0.094-2.41-1.795-3.53-2.873-5.174c-0.267-0.408-0.845-0.631-1.171-0.32c-0.996,0.953-2.282,1.858-2.771,3.009
		c-0.388,0.915-0.239,2.255-0.449,3.411c-0.119,0.657,0.613,0.948,1.178,1.161c1.161,0.436,2.122,1.08,2.55,2.319
		c0.125,0.649-0.144,1.114-0.676,1.458c-2.497,0.651-4.887,1.745-7.522,1.831c-4.474-1.628-9.024-3.025-13.59-4.372
		c-0.414-0.252-0.67-0.596-0.633-1.105c0.032-0.146,0.072-0.298,0.174-0.402c0.858-0.875,2.316-1.197,1.775-3.12
		c-0.525-1.868-1.594-2.742-3.298-3.174c-3.452-1.966-7.003-2.34-10.727-0.789c-2.257,0.94-2.616,0.736-2.593-1.684
		c0.047-4.844-1.621-9.021-4.578-12.782c-3.463-4.406-8.115-6.909-13.345-8.531C34.446,71.741,33.421,71.708,32.75,70.878z"/>
	<path fill-rule="evenodd" clip-rule="evenodd" fill="#9EC03C" d="M91.966,168.604c-22.766,1.477-42.313-5.686-58.419-21.912
		c-3.468-3.494-6.628-7.284-8.967-11.674c0.63-1.585,2.169-1.971,3.5-2.568c8.88-3.988,18.274-5.928,27.893-7.051
		c8.552-0.999,17.129-1.006,25.708-0.84c2.801,0.054,5.651,0.13,8.406,0.872c0.749,0.709,0.665,1.65,0.715,2.553
		c0,0.486-0.019,0.975,0.043,1.461c0.297,1.031,0.372,2.09,0.367,3.157c0.012,0.233,0.01,0.467,0.005,0.7
		c0.006,0.578-0.007,1.155,0,1.734c-0.028,0.809,0.017,1.609,0.282,2.385c0.216,1.058,0.173,2.129,0.177,3.197
		c0.009,0.236,0.007,0.473,0.006,0.708c-0.023,1.183,0.416,2.31,0.426,3.488c0.016,0.237,0.018,0.475,0.017,0.712
		c0.007,1.064,0,2.129-0.006,3.192c0.005,0.346,0.003,0.692,0.016,1.037c-0.013,1.011,0.505,1.999,0.138,3.025
		c-0.374,0.32-0.337,0.629,0.032,0.929c0.359,1.017,0.219,2.072,0.259,3.114c0.01,0.233,0.007,0.468,0.003,0.701
		c0.009,0.582-0.004,1.164,0.001,1.746c-0.021,0.925-0.045,1.849,0.263,2.743c0.198,0.93,0.183,1.874,0.183,2.816
		c0.009,0.233,0.004,0.468-0.001,0.701c-0.029,0.815,0.021,1.639-0.253,2.43C92.602,168.308,92.3,168.476,91.966,168.604z"/>
	<path fill-rule="evenodd" clip-rule="evenodd" fill="#FFE67C" d="M90.145,125.609c-7.383-0.52-14.785-0.675-22.171-0.402
		c-12.089,0.447-24.054,1.825-35.495,6.13c-2.728,1.026-5.397,2.174-7.899,3.682c-4.811-7.02-8.469-14.578-10.671-22.817
		c-0.286-1.07-0.548-2.146-0.822-3.219c0.805-0.73,1.809-0.67,2.757-0.578c11.561,1.123,23.064,2.637,34.406,5.208
		c9.715,2,19.307,4.49,28.805,7.348c0.783,0.236,1.599,0.399,2.199,1.02c1.004,1.555,2.708,0.435,3.968,1.025
		c1.611,0.776,3.625,0.53,4.979,1.958c0.033,0.111,0.065,0.222,0.098,0.333C90.247,125.401,90.196,125.505,90.145,125.609z"/>
	<path fill-rule="evenodd" clip-rule="evenodd" fill="#B9E4F2" d="M32.75,70.878c6.054,1.028,11.352,3.629,15.483,8.161
		c4.105,4.502,6.201,9.885,5.527,16.303c4.624-2.27,8.956-3.017,13.124,0.308c0.395,0.481,0.262,0.917-0.065,1.384
		c-1.73,2.474-1.711,2.582,0.564,4.625c0.276,0.248,0.497,0.533,0.519,0.931c-0.089,0.233-0.248,0.39-0.48,0.479
		c-0.669,0.227-1.33,0.113-1.983-0.048c-4.415-1.085-8.92-1.692-13.383-2.529c-2.421-0.709-5.094-0.367-7.356-1.75
		c-0.763-3.417,0.314-6.642,1.029-9.902c0.369-0.843-0.154-1.079-0.825-1.123c-1.339-0.087-2.659-0.484-3.99-0.439
		c-5.066,0.174-10.095-0.662-15.155-0.495c-2.763,0.091-5.472-0.698-8.235-0.437c-0.719,0.068-1.904-0.17-1.221,1.289
		c0.126,0.215,0.218,0.438,0.293,0.673c0.076,0.243,0.121,0.489,0.147,0.741c0.271,1.802,0.484,3.61,0.692,5.418
		c0.099,0.856,0.354,1.749-0.465,2.433c-1.568,0-3.147-0.111-4.702,0.032c-1.582,0.145-2.195-0.658-2.34-1.996
		c-0.678-6.229-0.809-12.463-0.05-18.699c0.113-0.934,0.733-1.388,1.464-1.828c5.999-3.608,12.574-4.341,19.393-4.012
		C31.48,70.433,31.917,71.46,32.75,70.878z"/>
	<path fill-rule="evenodd" clip-rule="evenodd" fill="#B9E4F2" d="M131.083,71.336c5.824-1.349,11.655-1.457,17.404,0.264
		c1.904,0.57,2.81,0.147,3.855-1.541c2.53-4.088,5.82-7.522,10.045-9.957c0.941,0.353,1.013,1.281,1.191,2.029
		c1.729,7.207,4.571,14.146,5.383,21.567c0.378,3.463,0.771,6.937,0.644,10.447c-0.069,1.917-1.455,1.233-2.398,1.478
		c-2.01,1.119-4.186,0.396-6.278,0.573c-0.488-0.028-0.97-0.096-1.416-0.309c-1.123-1.206-0.169-1.767,0.785-2.077
		c1.403-0.456,1.188-1.368,1.361-2.558c0.406-2.762-1.931-3.654-3.039-5.361c-0.255-0.391-1.082-0.53-1.167-0.229
		c-0.527,1.858-3.791,1.858-3.04,4.528c0.081,0.288-0.029,0.6-0.175,0.862c-0.771,1.379-0.374,2.225,1.115,2.707
		c0.897,0.29,1.654,0.783,1.082,1.952c-2.416,0.927-4.911,0.385-7.373,0.411c-0.832-0.104-1.628-0.387-2.23-0.95
		c-4.731-4.422-9.896-8.35-14.608-12.799c-1.124-3.265-1.14-6.705-1.591-10.075C130.583,71.928,130.755,71.573,131.083,71.336z"/>
	<path fill-rule="evenodd" clip-rule="evenodd" fill="#9EC03C" d="M52.045,99.996c5.239,0.537,10.339,1.866,15.52,2.736
		c0.548-0.256,0.217,1.252,1.011,0.504c4.678,1.043,9.283,2.316,13.642,4.359c-0.168,0.554-0.599,0.84-1.104,1.005
		c-6.206,2.025-12.485,3.75-18.973,4.616c-0.814-0.019-1.629-0.047-2.419,0.219c-0.448,0.108-0.904,0.164-1.364,0.184
		c-0.782,0.013-1.566,0.012-2.32,0.272c-0.545,0.129-1.1,0.176-1.657,0.186c-1.073,0.057-2.139-0.131-3.212-0.09
		c-0.306,0.071-0.595,0.197-0.898,0.281c-12.278-2.582-24.634-4.61-37.183-5.287c-1.194-3.22-1.945-6.561-2.705-9.9
		c-0.295-1.298-0.052-1.95,1.493-1.831c1.706,0.132,3.43,0.039,5.146,0.043c0.955,0.599,0.913,1.604,1.081,2.547
		c0.334,1.874,0.119,3.865,1.165,5.583c0.498,0.438,1.215,0.307,1.742,0.663c0.253,0.181,0.405,0.438,0.524,0.714
		c0.23,0.744,0.873,0.865,1.514,0.989c1.982,0.181,3.21-1.521,4.941-1.973c3.444-0.084,6.902-0.645,10.302,0.351
		c0.748,0.642,1.325,1.624,2.565,1.319c0.914-0.206,1.637-0.683,2.141-1.479c0.21-0.358,0.454-0.682,0.876-0.81
		c1.888-0.45,3.106-1.956,4.648-2.95C49.69,101.494,50.615,100.349,52.045,99.996z"/>
	<path fill-rule="evenodd" clip-rule="evenodd" fill="#AB5C50" d="M132.786,82.437c4.467,3.812,8.93,7.627,13.404,11.43
		c0.733,0.623,1.516,1.188,2.275,1.78c3.148,1.642,5.384,4.407,8.063,6.622c3.086,2.551,5.887,5.441,8.966,8.013
		c0.635,0.531,1.171,1.142,1.37,1.979c-0.134,2.345-1.306,4.389-1.908,6.598c-1.462,0.59-1.842-0.866-2.7-1.42
		c-0.347-0.354-0.692-0.709-1.092-1.007c-1.268-0.815-2.281-1.915-3.332-2.972c-0.335-0.35-0.7-0.662-1.124-0.906
		c-0.176-0.099-0.339-0.213-0.498-0.336c-1.06-0.963-2.045-2.01-3.247-2.805c-0.235-0.187-0.45-0.396-0.659-0.611
		c-0.342-0.348-0.688-0.692-1.048-1.024c-0.909-0.905-2.071-1.512-2.932-2.474c-0.469-0.495-0.954-0.97-1.546-1.324
		c-1.166-0.765-1.98-1.944-3.174-2.677c-0.249-0.168-0.478-0.359-0.698-0.562c-0.225-0.196-0.438-0.405-0.65-0.615
		c-1.159-1.237-2.687-2.055-3.806-3.338c-0.362-0.36-0.765-0.667-1.196-0.942c-1.266-1.063-2.55-2.103-3.656-3.344
		c-0.972-2.735-0.935-5.63-1.345-8.453C132.168,83.464,132.302,82.872,132.786,82.437z"/>
	<path fill-rule="evenodd" clip-rule="evenodd" fill="#FFD597" d="M90.317,128.386c-0.057-0.926-0.115-1.851-0.172-2.777
		c0,0,0.038,0.024,0.038,0.024c0.638-0.622,1.403-0.963,2.289-1.046c22.347-0.121,44.693-0.031,67.04-0.042
		c0.876,0,1.826-0.131,2.479,0.707c-0.615,1.166-1.23,2.332-1.846,3.498c-0.919,0.619-1.96,0.637-3.015,0.637
		c-21.269-0.001-42.537,0.006-63.805-0.015C92.239,129.371,91.028,129.599,90.317,128.386z"/>
	<path fill-rule="evenodd" clip-rule="evenodd" fill="#F6AF2F" d="M18.843,106.331c-1.389-1.778-0.8-3.993-1.274-5.977
		c-0.236-0.989-0.234-2.06-0.549-3.06c0.029-0.138,0.012-0.27-0.051-0.396c-0.246-2.703-0.493-5.406-0.739-8.109
		c0.729-0.692,1.653-0.576,2.532-0.583c3.119-0.023,6.238-0.006,9.356-0.015c2.211,0.01,4.422,0.023,6.634-0.006
		c0.54-0.057,1.081-0.045,1.621-0.015c1.317,0.062,2.635,0.05,3.952,0.003c1.641,0.055,3.296-0.166,4.918,0.231
		c1.393,1.273-0.208,1.642-0.77,1.994c-2.396,1.502-4.676,3.183-7.121,4.606c-1.417,0.825-2.764,1.751-3.997,2.834
		c-1.37-0.192-2.978-1.701-3.877,0.703c-0.438,1.206-1.361,1.573-2.572,1.625c-1.15,0.048-2.325-0.252-3.433,0.2
		c0.017,0.157,0.081,0.274,0.223,0.353c0.78,0.254,1.686-0.013,2.36,0.613c-1.334,2.517-3.901,3.383-6.195,4.612
		C19.543,106.116,19.121,106.037,18.843,106.331z"/>
	<path fill-rule="evenodd" clip-rule="evenodd" fill="#FED597" d="M163.769,120.754c0.297,1.609-1.08,2.615-1.44,3.987
		c-0.785,0.363-1.618,0.182-2.427,0.183c-22.225,0.013-44.448,0.007-66.668,0.011c-1.447-0.022-0.958-0.84-0.474-1.402
		c0.972-1.125,2.154-2.032,3.439-2.799c0.258-0.097,0.524-0.156,0.798-0.185c7.514-0.108,15.028,0.007,22.542-0.074
		c1.593-0.018,2.704,0.551,3.545,1.816c3.258,0.896,6.571,0.265,9.855,0.365c1.13,0.034,0.981-1.375,1.758-1.8
		c0.982-0.502,2.045-0.351,3.078-0.354c8.125-0.017,16.25,0,24.374-0.015C162.702,120.493,163.28,120.352,163.769,120.754z"/>
	<path fill-rule="evenodd" clip-rule="evenodd" fill="#FED597" d="M90.684,132.776c-0.087-1.055-0.174-2.109-0.261-3.164
		c0.321-0.896,1.097-0.618,1.717-0.618c22.068-0.012,44.136-0.012,66.203-0.002c0.494,0,1.062-0.19,1.442,0.341
		c-0.403,1.525-1.694,2.526-2.314,3.924c-0.144,0.013-0.288,0.026-0.432,0.04c-5.817,0.279-11.639,0.08-17.458,0.116
		c-6.046,0.037-12.092,0.015-18.138,0.002c-0.963-0.002-1.948,0.11-2.864-0.324c-0.952-1.068-2.118-1.474-3.573-1.447
		c-3.885,0.069-7.773,0.063-11.659,0.003c-1.377-0.021-2.473,0.378-3.363,1.405C96.868,133.496,93.751,133.956,90.684,132.776z"/>
	<path fill-rule="evenodd" clip-rule="evenodd" fill="#AB5C50" d="M118.017,162.439c-0.814,0.591-1.798,0.594-2.726,0.79
		c-1.206-1.845-0.559-3.906-0.632-5.867c-0.12-3.201-0.097-3.263-3.263-3.269c-1.49-0.003-2.98-0.019-4.47,0.021
		c-1.235,0.033-1.793,0.652-1.574,1.86c0.403,2.22,0.312,4.458,0.271,6.688c-0.023,1.239,0.545,2.114,1.299,2.958
		c-1.254,0.382-2.508,0.764-3.762,1.146c-0.601-0.571-0.664-1.334-0.658-2.077c0.074-9.416-0.657-18.805-0.926-28.208
		c-0.018-0.598,0.018-1.195,0.033-1.794c0.039-1.608,0.791-2.519,2.453-2.56c3.587-0.088,7.177-0.144,10.76,0.021
		c1.996,0.091,2.556,0.739,2.492,3.185c-0.184,6.955,0.726,13.88,0.497,20.834C117.74,158.261,117.814,160.354,118.017,162.439z"/>
	<path fill-rule="evenodd" clip-rule="evenodd" fill="#78913B" d="M166.865,112.26c-6.133-5.538-12.266-11.076-18.398-16.614
		c2.683-0.387,5.432,0.251,8.09-0.517c0.481-0.226,0.798,0.038,1.094,0.363c0.687,0.763-0.162,1.928,0.696,2.631
		c0.737-0.875,1.097-2.054,2.207-2.589c2.218,0.03,4.436,0.06,6.653,0.09c2.299,0.08,2.503,1.311,2.213,3.328
		C168.775,103.434,168.394,107.952,166.865,112.26z"/>
	<path fill-rule="evenodd" clip-rule="evenodd" fill="#8D4139" d="M118.017,162.439c-0.592-0.104-0.93-0.419-0.92-1.057
		c0.01-0.672-0.028-1.346-0.004-2.018c0.294-8.289-0.71-16.555-0.432-24.841c0.047-1.42-0.53-1.787-1.845-1.763
		c-3.512,0.063-7.028,0.092-10.539-0.009c-1.584-0.046-2.09,0.49-2.019,2.051c0.295,6.394,0.427,12.793,0.846,19.186
		c0.278,4.242,0.054,8.518,0.054,12.778c-0.349,0.083-0.697,0.167-1.046,0.25c-1.092,0.14-1.12-0.688-1.278-1.399
		c-0.03-0.242-0.04-0.485-0.042-0.729c-0.013-1.085-0.01-2.171-0.013-3.257c-0.009-0.241-0.008-0.482-0.006-0.725
		c-0.014-0.962,0.004-1.925-0.006-2.887c-0.005-1.411,0.171-2.827-0.149-4.228c-0.033-0.114-0.058-0.23-0.091-0.346
		c-0.063-0.232-0.099-0.469-0.124-0.708c-0.081-1.078-0.059-2.159-0.069-3.239c-0.01-0.24-0.009-0.481-0.007-0.722
		c-0.013-0.959,0.003-1.918-0.007-2.876c-0.004-1.404,0.166-2.815-0.144-4.21c-0.033-0.113-0.059-0.228-0.091-0.341
		c-0.062-0.229-0.099-0.462-0.124-0.697c-0.082-1.051-0.054-2.104-0.064-3.156c-0.01-0.23-0.007-0.461-0.001-0.69
		c0.083-1.14-0.084-2.269-0.145-3.402c0.038-0.235,0.144-0.434,0.317-0.597c-0.129-1.391,0.422-1.875,1.884-1.849
		c4.883,0.091,9.77,0.077,14.653-0.005c1.381-0.023,2.091,0.319,1.941,1.785c0.199,0.327,0.376,0.664,0.434,1.051
		c0.067,0.381,0.088,0.765,0.071,1.15c0.093,3.219-0.195,6.443,0.176,9.654c0.084,0.243,0.141,0.492,0.181,0.745
		c0.126,1.13,0.094,2.265,0.089,3.398c0.008,0.248,0.005,0.497,0.003,0.745c0.007,1.106-0.002,2.214-0.004,3.321
		c0.008,0.246,0.006,0.492,0.004,0.738c0.007,1.106,0.001,2.214-0.002,3.32c0.008,0.249,0.006,0.496,0.005,0.745
		c0.001,1.125,0.039,2.25-0.052,3.374c-0.092,0.508-0.24,0.988-0.672,1.322C118.523,162.351,118.27,162.395,118.017,162.439z"/>
	<path fill-rule="evenodd" clip-rule="evenodd" fill="#8E433A" d="M135.49,154.326c-0.621,0.984-1.743,1.206-2.657,1.745
		c-3.077,0.797-6.151,1.329-9.211-0.075c-0.531-0.884-0.382-1.87-0.425-2.827c-0.006-2.381,0.075-4.766-0.047-7.146
		c-0.026-0.116-0.049-0.234-0.077-0.351c-0.041-0.229-0.055-0.465-0.055-0.698c-0.017-1.249-0.261-2.486-0.235-3.743
		c-0.016-0.243-0.02-0.482-0.025-0.726c0.006-1.149-0.052-2.297,0.045-3.447c0.025-0.283,0.089-0.553,0.188-0.817
		c0.566-1.201,1.657-1.43,2.805-1.438c9.222-0.064,18.443-0.058,27.665-0.001c0.806,0.005,1.662,0.021,2.198,0.817
		c-0.261,0.733-0.667,1.354-1.354,1.76c-1.755,0.901-3.648,0.49-5.487,0.569c-0.966,0.041-1.935,0.017-2.901,0.005
		c-5.29-0.064-4.203,0.266-4.391,4.368c0.062,1.982,0.056,3.963,0.031,5.943c-0.012,0.887-0.062,1.769-0.719,2.472
		c-0.422,0.721-1.16,1.067-1.807,1.522c-0.646-0.137-0.823-0.647-0.957-1.192c-0.026-3.504,0.528-6.99,0.337-10.507
		c-0.128-2.36-0.259-2.573-2.57-2.605c-2.166-0.03-4.334-0.017-6.5-0.004c-2.939,0.017-3.036,0.119-3.05,3.002
		c-0.002,0.448,0.025,0.896-0.014,1.346c0.041,3.041,0.065,6.083,0.015,9.122c-0.026,1.624,0.646,2.283,2.251,2.225
		c1.555-0.058,3.115-0.041,4.671,0.01C134.023,153.681,134.863,153.658,135.49,154.326z"/>
	<path fill-rule="evenodd" clip-rule="evenodd" fill="#924A44" d="M106.92,165.622c-1.32,0.042-2.011-0.36-1.985-1.919
		c0.045-2.747,0.273-5.512-0.371-8.248c-0.354-1.503,0.325-2.152,1.945-2.065c2.236,0.121,4.491,0.138,6.725-0.004
		c1.769-0.112,2.163,0.62,2.092,2.22c-0.113,2.537-0.034,5.082-0.036,7.624C112.5,164.027,109.71,164.825,106.92,165.622z"/>
	<path fill-rule="evenodd" clip-rule="evenodd" fill="#B9DEED" d="M135.49,154.326c-2.813-0.009-5.625-0.039-8.438-0.013
		c-0.919,0.009-1.55-0.056-1.528-1.258c0.066-3.621,0.043-7.243,0.055-10.864c0.67-0.308,1.154,0.14,1.63,0.455
		c3.488,2.309,6.869,4.771,10.301,7.161c0.519,0.36,0.757,0.91,1.114,1.38c0.136,0.357,0.271,0.714,0.406,1.071
		C138.072,153.327,136.767,153.804,135.49,154.326z"/>
	<path fill-rule="evenodd" clip-rule="evenodd" fill="#FED497" d="M155.658,135.619c-10.056-0.017-20.11-0.032-30.166-0.05
		c-0.959-0.002-2.032-0.204-2.135,1.251c-1.025,0.862-2.233,0.639-3.401,0.534c-1.878-0.166-1.004-1.822-1.449-2.768
		c0.001-0.299,0.003-0.598,0.004-0.896c0.298-0.692,0.908-0.67,1.516-0.669c12.258,0.008,24.516-0.015,36.773,0.009
		c0.239,0.001,0.429,0.112,0.635,0.194l0.035,0.032C156.867,134.044,156.262,134.832,155.658,135.619z"/>
	<path fill-rule="evenodd" clip-rule="evenodd" fill="#A0D6ED" d="M140.921,142.221c-0.222-4.93-0.222-4.94,4.677-4.926
		c2.902,0.008,5.804,0.055,8.706,0.084c-1.024,1.872-2.188,3.628-4.016,4.833c-1.237,1.396-2.304,2.977-4.073,3.803
		C144.097,145.243,142.292,144.035,140.921,142.221z"/>
	<path fill-rule="evenodd" clip-rule="evenodd" fill="#D32F27" d="M78.508,44.33c-1.644-0.254-3.288-0.508-4.932-0.763
		c-1.374-3.452-1.918-7.044-1.797-10.746c1.048-0.204,2.095-0.407,3.143-0.611c0.727,0.009,1.454,0.019,2.182,0.028
		c1.276,2.52,1.058,5.352,1.652,8.017C79.055,41.595,79.577,43.036,78.508,44.33z"/>
	<path fill-rule="evenodd" clip-rule="evenodd" fill="#BA2326" d="M51.639,49.014c-3.054,2.621-6.486,4.81-9.096,7.941
		c-1.42-0.339-1.287-1.251-0.843-2.279c2.461-3.911,5.512-7.313,8.957-10.374C51.753,45.712,52.329,47.231,51.639,49.014z"/>
	<path fill-rule="evenodd" clip-rule="evenodd" fill="#CF2C27" d="M71.779,32.821c0.945,3.524,1.426,7.126,1.797,10.746
		c-1.198-0.021-2.395-0.042-3.592-0.062c-0.185-0.121-0.47-0.214-0.517-0.393c-0.801-3.08-1.781-6.139-1.277-9.396
		C69.387,33.418,70.583,33.119,71.779,32.821z"/>
	<path fill-rule="evenodd" clip-rule="evenodd" fill="#C62827" d="M64.206,44.094c-1.325,0.27-2.65,0.54-3.975,0.81
		c-0.819,0.379-1.336-0.013-1.461-0.765c-0.311-1.869-1.11-3.659-0.919-5.608c1.556-1.063,3.128-2.096,4.953-2.659
		C64.334,38.431,64.569,41.211,64.206,44.094z"/>
	<path fill-rule="evenodd" clip-rule="evenodd" fill="#BFA070" d="M159.786,129.333c-0.744-0.038-1.488-0.108-2.232-0.108
		c-21.586-0.004-43.172-0.002-64.757,0.009c-0.804,0-1.658-0.201-2.375,0.38c-0.251-0.392-0.242-0.805-0.104-1.229
		c0.89,0.569,1.887,0.361,2.842,0.361c22.329,0.008,44.658,0.005,66.986,0.004C160.025,128.944,159.905,129.139,159.786,129.333z"/>
	<path fill-rule="evenodd" clip-rule="evenodd" fill="#BFA070" d="M92.46,124.683c22.095,0.008,44.19,0.016,66.286,0.026
		c1.193,0,2.388,0.021,3.582,0.032c-0.113,0.17-0.225,0.34-0.338,0.51c-18.198-0.025-36.396-0.051-54.594-0.078
		c-5.146-0.007-10.292-0.015-15.438-0.022c-0.135-0.167-0.136-0.341-0.022-0.519C92.123,124.531,92.297,124.548,92.46,124.683z"/>
	<path fill-rule="evenodd" clip-rule="evenodd" fill="#FCD496" d="M118.973,161.02c-0.004-1.171-0.007-2.342-0.011-3.513
		c0.493-0.539,1.146-0.639,1.824-0.649c2.514-0.037,5.028-0.047,7.542,0.007c0.667,0.015,1.344,0.066,1.779,0.699
		c-2.55,1.527-5.251,2.707-8.109,3.524C120.985,161.251,119.963,161.85,118.973,161.02z"/>
	<path fill-rule="evenodd" clip-rule="evenodd" fill="#BF2526" d="M51.639,49.014c-0.327-1.571-0.655-3.142-0.982-4.712
		c1.004-1.227,2.165-2.271,3.545-3.063c0.801-0.442,1.354,0.014,1.571,0.659c0.506,1.505,1.215,3.038,0.303,4.65
		C54.598,47.37,53.118,48.192,51.639,49.014z"/>
	<path fill-rule="evenodd" clip-rule="evenodd" fill="#CD2B28" d="M68.191,33.716c0.598,3.263,1.196,6.526,1.793,9.79
		c-1.046,0.113-2.092,0.226-3.139,0.339c-1.178-2.854-1.029-5.993-1.909-8.912C65.917,34.249,67.048,33.966,68.191,33.716z"/>
	<path fill-rule="evenodd" clip-rule="evenodd" fill="#CA2A27" d="M64.937,34.933c0.488,0.225,0.896,0.543,0.962,1.11
		c0.303,2.603,1.153,5.138,0.947,7.802c-0.88,0.083-1.76,0.166-2.64,0.249c-0.468-2.741-0.936-5.481-1.403-8.222
		C63.411,35.324,64.126,35.021,64.937,34.933z"/>
	<path fill-rule="evenodd" clip-rule="evenodd" fill="#B9DEED" d="M140.921,142.221c1.776,1.192,3.553,2.386,5.329,3.579
		c0.154,0.1,0.205,0.199,0.155,0.3c-0.051,0.101-0.102,0.15-0.152,0.15c-1.438,1.94-3.265,3.408-5.415,4.486
		C140.866,147.897,140.893,145.059,140.921,142.221z"/>
	<path fill-rule="evenodd" clip-rule="evenodd" fill="#FCD396" d="M123.79,155.653c2.984,0.785,6.041-0.01,9.042,0.418
		c-0.49,0.551-1.109,0.864-1.831,0.986c-4.02,0.25-8.04,0.377-12.055-0.071c-0.002-1.175-0.003-2.35-0.005-3.523
		c1.002-0.911,2.21-0.654,3.371-0.561C124.182,153.054,123.261,154.753,123.79,155.653z"/>
	<path fill-rule="evenodd" clip-rule="evenodd" fill="#C32827" d="M56.077,46.548c-0.668-1.754,0.488-4.153-1.875-5.309
		c1.025-1.159,2.351-1.915,3.647-2.708c0.94,1.531,1.126,3.275,1.347,4.994c0.092,0.719,0.173,1.302,1.034,1.38
		C58.846,45.452,57.461,46,56.077,46.548z"/>
	<path fill-rule="evenodd" clip-rule="evenodd" fill="#F9D396" d="M101.36,165.556c0.175,0.527,0.013,1.229,0.754,1.462
		c-2.606,0.586-5.193,1.275-7.895,1.239c-0.587,0.271-1.169,0.321-1.743-0.037c-0.002-0.882-0.005-1.764-0.007-2.646
		C95.43,164.522,98.394,164.553,101.36,165.556z"/>
	<path fill-rule="evenodd" clip-rule="evenodd" fill="#B12726" d="M41.322,58.425c-2.267,3.101-4.533,6.203-6.799,9.304
		c-0.412,0.072-0.676,0.008-0.46-0.499c1.602-3.471,3.498-6.769,5.772-9.846C40.822,57.029,41.365,57.309,41.322,58.425z"/>
	<path fill-rule="evenodd" clip-rule="evenodd" fill="#D7B580" d="M163.769,120.754c-0.309,0.123-0.615,0.247-0.923,0.37
		c-0.24-0.222-0.556-0.311-0.833-0.469c-0.945-0.669-1.718-1.535-2.589-2.289c-0.496-0.43-1.282-0.985-0.181-1.663
		c1.11-0.353,2.16-0.205,3.157,0.377c0.971,0.421,1.399,1.624,2.557,1.776C164.712,119.586,164.543,120.359,163.769,120.754z"/>
	<path fill-rule="evenodd" clip-rule="evenodd" fill="#BFA071" d="M118.945,156.986c4.019,0.023,8.037,0.047,12.056,0.07
		c-0.298,0.169-0.596,0.337-0.894,0.507c-3.715-0.019-7.43-0.038-11.145-0.057C118.957,157.333,118.951,157.16,118.945,156.986z"/>
	<path fill-rule="evenodd" clip-rule="evenodd" fill="#B52727" d="M41.322,58.425c-0.262-0.681-0.775-1.003-1.487-1.042
		c0.275-1.142,1.143-1.875,1.866-2.708c-0.013,0.868,0.201,1.653,0.843,2.279C42.136,57.445,41.729,57.936,41.322,58.425z"/>
	<path fill-rule="evenodd" clip-rule="evenodd" fill="#ADD8DD" d="M146.253,146.25c-0.001-0.15-0.002-0.3-0.003-0.45
		c1.347-1.196,2.692-2.393,4.038-3.588C149.482,144.096,148.136,145.442,146.253,146.25z"/>
	<path fill-rule="evenodd" clip-rule="evenodd" fill="#C0A575" d="M118.973,161.02c1.008,0.022,2.016,0.045,3.024,0.068
		c-0.952,0.729-2.164,0.768-3.22,1.218C118.842,161.877,118.908,161.448,118.973,161.02z"/>
	<path fill-rule="evenodd" clip-rule="evenodd" fill="#AA423A" d="M34.063,67.23c0.153,0.167,0.307,0.333,0.46,0.499
		c-0.468,0.838-0.665,1.891-1.762,2.232C32.866,68.894,33.423,68.042,34.063,67.23z"/>
	<path fill-rule="evenodd" clip-rule="evenodd" fill="#C6B681" d="M92.476,168.22c0.581,0.013,1.162,0.024,1.743,0.037
		c-0.677,0.602-1.472,0.428-2.253,0.348C92.136,168.476,92.306,168.348,92.476,168.22z"/>
	<path fill-rule="evenodd" clip-rule="evenodd" fill="#EF4024" d="M119.306,88.377c-2.083-1.201-4.166-2.403-6.25-3.604
		c-0.571-0.816-0.827-1.745-0.973-2.715c-1.875-12.4-3.911-24.776-5.768-37.179c-0.182-1.212-1.271-2.988,1.008-3.65
		c3.107,1.674,5.914,3.761,8.474,6.185c0.433,0.638,0.537,1.371,0.655,2.113c1.903,11.856,3.707,23.729,5.584,35.588
		c0.213,1.345,0.797,2.777-0.137,4.117C120.716,89.919,119.928,89.402,119.306,88.377z"/>
	<path fill-rule="evenodd" clip-rule="evenodd" fill="#F04A28" d="M132.786,82.437c0.199,3.475,0.682,6.914,1.327,10.331
		c0.726,0.92,0.896,1.961,0.68,3.089c-0.201,0.354-0.532,0.484-0.913,0.53c-0.247,0.012-0.49-0.021-0.729-0.088
		c-1.395-0.703-3.079-1.052-3.572-2.88c-2.463-15.989-4.943-31.975-7.557-47.939c-0.061-0.37-0.053-0.743-0.104-1.112
		c1.223-2.195,2.707-4.204,4.473-6.516c1.601,11.425,3.147,22.455,4.693,33.484C131.602,75.043,131.793,78.801,132.786,82.437z"/>
	<path fill-rule="evenodd" clip-rule="evenodd" fill="#EF4524" d="M121.558,89.342c0.643-2.241-0.187-4.4-0.513-6.545
		c-1.663-10.913-3.493-21.799-5.23-32.7c-0.139-0.873-0.017-1.788-0.016-2.683c0.409,0.294,0.914,0.515,1.209,0.897
		c1.004,1.299,1.699,0.726,2.37-0.3c1.281-0.001,1.33,1.012,1.464,1.868c2.097,13.347,4.24,26.686,6.263,40.044
		c0.121,0.799,0.284,1.637-0.242,2.385c-0.263,0.29-0.596,0.396-0.979,0.362C124.452,91.551,122.454,91.163,121.558,89.342z"/>
	<path fill-rule="evenodd" clip-rule="evenodd" fill="#E53B26" d="M106.328,81.178c-1.745-0.707-3.398-1.584-4.945-2.661
		c-0.886-4.936-1.808-9.867-2.189-14.877c0.375-1.076,1.275-1.353,2.269-1.485c-0.773-2.669-3.449-4.234-4.092-6.994
		c-0.193-5.358-1.555-10.55-2.192-15.843c-0.165-1.366-0.671-2.783,0.425-4.021c1.576,0.424,3.087,0.999,4.446,1.923
		c0.465,0.536,0.555,1.193,0.653,1.866c1.87,12.839,3.997,25.638,5.97,38.461C106.861,78.775,107.305,80.051,106.328,81.178z"/>
	<path fill-rule="evenodd" clip-rule="evenodd" fill="#EB3D25" d="M107.324,41.229c-1.528,0.741-0.598,2.085-0.475,2.958
		c0.985,6.958,2.189,13.885,3.265,20.832c1.019,6.579,1.964,13.169,2.942,19.754c-1.6-0.569-3.031-1.46-4.469-2.339
		c-1.537-7.533-2.48-15.163-3.709-22.746c-1.002-6.186-2.003-12.374-2.872-18.581c-0.123-0.873-0.82-2.093,0.752-2.538
		C104.347,39.342,106.009,39.988,107.324,41.229z"/>
	<path fill-rule="evenodd" clip-rule="evenodd" fill="#EF4725" d="M126.509,92.311c0.195-4.017-0.965-7.865-1.521-11.783
		c-1.192-8.4-2.564-16.775-3.873-25.158c-0.33-2.115-0.881-4.195-0.939-6.353c-0.013-0.47-0.385-0.786-0.798-1.005
		c0.713-1.308,1.528-2.544,2.54-3.644c1.785,2.165,1.375,4.918,1.825,7.395c1.324,7.279,2.463,14.598,3.447,21.932
		c0.904,6.747,2.492,13.397,2.864,20.217c-0.673,0.329-1.243-0.031-1.832-0.27C127.603,93.261,126.826,93.08,126.509,92.311z"/>
	<path fill-rule="evenodd" clip-rule="evenodd" fill="#E83C25" d="M102.76,38.569c-1.167,1.113-0.112,2.306,0.044,3.352
		c1.506,10.101,3.217,20.17,4.75,30.268c0.444,2.928,0.814,5.865,1.423,8.766c0.116,0.553-0.128,1.021-0.388,1.479
		c-0.753-0.418-1.507-0.836-2.26-1.255c-0.169-4.759-1.275-9.39-1.957-14.078c-1.055-7.25-2.305-14.472-3.417-21.714
		c-0.416-2.706-1.072-5.393-0.904-8.166C101.073,37.428,101.943,37.945,102.76,38.569z"/>
	<path fill-rule="evenodd" clip-rule="evenodd" fill="#DE3627" d="M92.476,50.67c-1.828-1.153-3.656-2.305-5.484-3.458
		c-0.381-0.546-0.849-1.047-0.944-1.747c-0.501-3.687-1.31-7.328-1.665-11.033c-0.086-0.902-0.293-2.162,1.407-1.721
		c1.687-0.041,3.276,0.391,4.833,0.986c0.679,0.944,0.826,2.061,0.961,3.16c0.464,3.756,1.304,7.454,1.708,11.216
		C93.39,48.995,93.939,50.186,92.476,50.67z"/>
	<path fill-rule="evenodd" clip-rule="evenodd" fill="#E23926" d="M92.476,50.67c0.973-1.991-0.131-3.89-0.331-5.809
		c-0.388-3.733-1.375-7.392-1.522-11.165c1.708,0.383,3.425,0.74,4.98,1.601c-0.051,5.06,1.344,9.931,1.95,14.904
		c0.219,1.8,0.879,3.585,0.246,5.426c-1.469,0.178-1.72-1.017-2.2-1.954C94.558,52.673,93.517,51.671,92.476,50.67z"/>
	<path fill-rule="evenodd" clip-rule="evenodd" fill="#D73227" d="M78.508,44.33c0.085-4.095-1.535-7.991-1.404-12.091l0.012,0.027
		c1.432-0.293,2.864-0.287,4.297-0.003c0.229,0.01,0.458,0.021,0.687,0.031c1.522,3.587,1.497,7.482,2.217,11.228
		c0.153,0.795,0.244,1.625-0.439,2.282C82.088,45.313,80.298,44.821,78.508,44.33z"/>
	<path fill-rule="evenodd" clip-rule="evenodd" fill="#DA3427" d="M83.878,45.804c-0.184-3.601-0.978-7.116-1.544-10.66
		c-0.154-0.959-0.197-1.897-0.234-2.85c1.245,0.002,2.516-0.222,3.689,0.418c-0.888,0.099-1.05,0.635-0.92,1.422
		c0.718,4.358,1.417,8.719,2.123,13.079C85.955,46.743,84.917,46.273,83.878,45.804z"/>
	<path fill-rule="evenodd" clip-rule="evenodd" fill="#D32F27" d="M81.413,32.263c-1.432,0.001-2.864,0.002-4.297,0.003
		C78.548,31.807,79.98,31.86,81.413,32.263z"/>
	<path fill-rule="evenodd" clip-rule="evenodd" fill="#78913B" d="M50.27,114.269c0.144-0.111,0.288-0.223,0.433-0.334
		c1.151-0.556,2.451,0.159,3.599-0.419c0.597-0.017,1.194-0.033,1.792-0.05c0.698-0.452,1.575,0.106,2.263-0.402
		c0.441-0.012,0.883-0.023,1.324-0.035c0.676-0.48,1.551,0.106,2.22-0.413c5.576-0.656,10.956-2.178,16.331-3.714
		c1.343-0.384,2.658-0.868,3.986-1.307c2.483-0.648,4.966-1.297,7.449-1.945c0.585-0.033,0.742,0.543,1.129,0.773
		c0.678-0.34,1.039-1.016,1.614-1.45c3.587-1.08,7.229-1.93,10.91-2.623c-0.346,1.776-1.858,2.646-3.036,3.708
		c-5.249,4.734-10.544,9.416-15.611,14.347c-0.946,0.92-1.813,2.011-3.299,2.104c-6.67-2.498-13.604-4.079-20.482-5.841
		C57.376,115.769,53.812,115.063,50.27,114.269z"/>
	<path fill-rule="evenodd" clip-rule="evenodd" fill="#AB5C50" d="M81.374,122.509c7.314-6.72,14.629-13.439,21.944-20.16
		c3.942-2.958,7.397-6.478,11.166-9.634c0.682-0.571,1.39-1.112,2.085-1.667c2.511,0.025,4.565,1.324,6.701,2.398
		c0.159,0.156,0.249,0.348,0.281,0.567c-0.192,0.913-0.92,1.368-1.594,1.869c-0.418,0.27-0.806,0.579-1.151,0.94
		c-1.128,1.29-2.663,2.117-3.818,3.376c-0.209,0.223-0.43,0.435-0.653,0.644c-1.306,0.988-2.502,2.11-3.79,3.12
		c-0.598,0.363-1.1,0.84-1.574,1.351c-1.002,1.145-2.314,1.933-3.412,2.968c-0.36,0.345-0.715,0.696-1.069,1.048
		c-1.119,0.969-2.369,1.786-3.356,2.908c-0.207,0.214-0.425,0.417-0.646,0.617c-0.218,0.206-0.453,0.39-0.7,0.56
		c-1.374,0.834-2.259,2.239-3.607,3.104c-0.417,0.268-0.799,0.577-1.144,0.934c-1.116,1.035-2.07,2.246-3.343,3.111
		c-0.436,0.281-0.829,0.612-1.187,0.989c-0.91,0.813-1.602,1.899-2.859,2.278c-1.49,0.154-2.941-0.07-4.378-0.432
		c-1.188-0.016-2.375-0.035-3.563-0.045C80.883,123.348,81.156,122.92,81.374,122.509z"/>
	<path fill-rule="evenodd" clip-rule="evenodd" fill="#557E3E" d="M89.993,104.63c-0.889-0.824-1.573-1.947-3.051-1.873
		c-0.27,0.013-0.6-0.391-0.833-0.663c-0.287-0.335,0.165-5.209,0.53-5.292c1.359-0.308,1.895-1.337,2.504-2.401
		c0.171-0.298,0.775-0.438,1.197-0.48c0.666-0.067,4.145,3.237,3.979,3.864c-0.29,1.098-0.166,1.996,0.34,3.025
		c0.369,0.752-0.016,1.907-0.957,1.907c-1.493,0-2.098,1.147-3.086,1.796C90.453,104.787,90.245,104.826,89.993,104.63z"/>
	<path fill-rule="evenodd" clip-rule="evenodd" fill="#E23926" d="M99.595,63.334c0.663,4.432,1.288,8.87,2.027,13.289
		c0.121,0.723,0.071,1.291-0.239,1.895c-1.603-0.569-3.049-1.438-4.479-2.339c-0.926-3.693-1.972-7.372-1.393-11.252
		c0.612-0.294,1.225-0.588,1.837-0.883C97.951,63.345,98.609,62.821,99.595,63.334z"/>
	<path fill-rule="evenodd" clip-rule="evenodd" fill="#DE3727" d="M95.511,64.927c0.471,3.75,1.53,7.427,1.393,11.252
		c-2.107-1.132-4.215-2.264-6.322-3.396c-0.809-1.784-1.504-3.586-0.898-5.598C91.625,66.432,93.568,65.679,95.511,64.927z"/>
	<path fill-rule="evenodd" clip-rule="evenodd" fill="#557F3F" d="M67.634,102.389c-0.333-0.269-0.627-0.681-1.004-0.779
		c-1.133-0.294-2.314-0.481-1.519-2.101c0.414-0.843-0.667-2.271,1.06-2.606c0.623-0.121,0.563-0.782,0.712-1.254
		c1.768-0.123,3.127,1.372,3.613,2.893c0.772,2.417-0.336,3.261-2.319,3.771C68.02,102.504,67.839,102.537,67.634,102.389z"/>
	<path fill-rule="evenodd" clip-rule="evenodd" fill="#8DD4E6" d="M99.595,63.334c-0.749,0.237-1.498,0.474-2.247,0.71
		c0.263-2.781-0.532-5.39-1.29-8.008c-0.223-0.771-0.627-1.513-0.459-2.362c0.733,0.651,1.466,1.302,2.199,1.954
		c1.488,2.125,3.3,4.03,4.419,6.515C101.324,62.549,100.459,62.941,99.595,63.334z"/>
	<path fill-rule="evenodd" clip-rule="evenodd" fill="#914E44" d="M123.434,93.813c-2.289-0.922-4.577-1.843-6.865-2.764
		c0.912-0.891,1.825-1.781,2.737-2.672c0.75,0.321,1.501,0.643,2.251,0.965c1.209,1.241,3.288,1.283,4.15,3.003
		C125.284,93.353,124.787,94.246,123.434,93.813z"/>
	<path fill-rule="evenodd" clip-rule="evenodd" fill="#D93628" d="M89.683,67.184c0.373,1.854,1.058,3.659,0.898,5.598
		c-2.08-1.062-4.159-2.123-6.722-3.43C86.112,68.514,87.897,67.849,89.683,67.184z"/>
	<path fill-rule="evenodd" clip-rule="evenodd" fill="#627535" d="M92.41,104.973c-0.15,1.2-1.13,1.835-1.814,2.673
		c-0.165-0.876-0.648-1.8,0.366-2.504C91.444,105.085,91.927,105.029,92.41,104.973z"/>
	<path fill-rule="evenodd" clip-rule="evenodd" fill="#8D7652" d="M90.961,105.142c-0.486,0.781-0.325,1.657-0.366,2.504
		c-0.765-0.452-0.255-1.5-0.931-1.995c0.11-0.341,0.219-0.681,0.328-1.021c0.208-0.039,0.416-0.078,0.624-0.118
		C90.731,104.722,90.847,104.932,90.961,105.142z"/>
	<path fill-rule="evenodd" clip-rule="evenodd" fill="#8B7842" d="M67.634,102.389c0.182-0.025,0.363-0.051,0.544-0.076
		c-0.024,0.376-0.008,0.734,0.397,0.923c-0.216,0.343-0.173,1.062-0.702,0.902c-0.224-0.068-0.211-0.915-0.308-1.407
		C67.585,102.617,67.608,102.503,67.634,102.389z"/>
	<path fill-rule="evenodd" clip-rule="evenodd" fill="#E7F5F8" d="M82.714,156.188c-0.955-0.427-2.114-0.419-3.289-0.466
		c-1.93-0.077-1.212-2.185-2.168-3.139c-0.55-0.549,0.854-0.959,1.164-1.461c1.682-2.724,4.15-0.921,6.147-1.018
		c1.762-0.086,0.773,2.309,1.596,3.332C85.023,154.296,84.829,156.29,82.714,156.188z"/>
	<path fill-rule="evenodd" clip-rule="evenodd" fill="#FCD396" d="M100.068,133.225c0.502,1.149,0.361,2.356,0.318,3.554
		c-2.85,1.298-5.81,0.665-8.721,0.396c-1.08-0.1-0.717-1.292-0.889-2.039c-0.021-0.614-0.042-1.229-0.063-1.843
		C93.828,132.805,96.947,132.942,100.068,133.225z"/>
	<path fill-rule="evenodd" clip-rule="evenodd" fill="#FDD497" d="M100.386,137.333c0.03,1.176,0.06,2.352,0.09,3.526
		c-3.108,1.007-6.215,1.018-9.322-0.005c-0.04-1.188-0.079-2.376-0.119-3.564C94.153,136.938,97.271,136.854,100.386,137.333z"/>
	<path fill-rule="evenodd" clip-rule="evenodd" fill="#FDD496" d="M100.84,145.815c0.012,1.031,0.024,2.063,0.037,3.095
		c-3.085,1.053-6.172,1.039-9.26,0.012c-0.029-1.183-0.058-2.364-0.087-3.547c2.823-1.176,5.719-0.669,8.601-0.344
		C100.502,145.072,100.686,145.476,100.84,145.815z"/>
	<path fill-rule="evenodd" clip-rule="evenodd" fill="#FCD396" d="M91.503,144.925c-0.106-1.188-0.213-2.375-0.32-3.563
		c3.093-0.447,6.188-0.405,9.284-0.029l0.003-0.003c0.668,3.79,0.667,3.826-2.972,3.776C95.5,145.079,93.49,145.343,91.503,144.925z
		"/>
	<path fill-rule="evenodd" clip-rule="evenodd" fill="#FDD497" d="M100.867,149.431c0.028,1.186,0.055,2.37,0.083,3.557
		c-3.009,0.976-6.018,0.977-9.027-0.003c-0.09-1.066-0.181-2.132-0.271-3.198c0.136-0.273,0.335-0.563,0.633-0.559
		C95.146,149.262,98.018,148.884,100.867,149.431z"/>
	<path fill-rule="evenodd" clip-rule="evenodd" fill="#FCD496" d="M101.299,157.923c0.007,1.032,0.015,2.065,0.021,3.098
		c-2.638,1.25-5.404,0.601-8.115,0.472c-1.265-0.061-0.913-1.317-1.087-2.135c-0.016-0.617-0.031-1.234-0.046-1.851
		C94.436,156.344,99.862,156.589,101.299,157.923z"/>
	<path fill-rule="evenodd" clip-rule="evenodd" fill="#FED497" d="M101.314,161.543c0.017,1.179,0.033,2.357,0.049,3.536
		c-2.969,0.37-5.938,0.37-8.907,0c-0.049-1.057-0.099-2.114-0.147-3.171c0.056-0.324,0.244-0.6,0.562-0.59
		C95.686,161.403,98.514,160.974,101.314,161.543z"/>
	<path fill-rule="evenodd" clip-rule="evenodd" fill="#FDD496" d="M92.051,157.002c-0.031-1.188-0.063-2.378-0.094-3.567
		c2.996-0.369,5.992-0.352,8.988-0.011l-0.001-0.003c0.064,0.134,0.17,0.264,0.182,0.402c0.28,3.409,0.278,3.453-3.127,3.394
		C96.016,157.182,94.018,157.497,92.051,157.002z"/>
	<path fill-rule="evenodd" clip-rule="evenodd" fill="#E5F3F2" d="M56.389,151.7c1.673-0.127,3.326,0.041,3.166,2.118
		c-0.077,1-0.8,2.164-2.348,2.035c-1.599-0.133-3.305-0.342-3.272-2.304C53.953,152.469,55.096,151.606,56.389,151.7z"/>
	<path fill-rule="evenodd" clip-rule="evenodd" fill="#E4EFE7" d="M47.878,142.601c0.827-0.182,1.689,0.104,1.554,1.424
		c-0.104,1.005-0.627,1.718-1.867,1.619c-1.199-0.095-2.382-0.512-2.322-1.734C45.294,142.853,46.396,142.341,47.878,142.601z"/>
	<path fill-rule="evenodd" clip-rule="evenodd" fill="#E2F0E8" d="M75.366,135.962c-1.567,0.013-2.178-0.558-2.209-1.718
		c-0.043-1.582,1.298-1.097,2.09-1.296c1.058-0.266,1.855,0.563,1.853,1.368C77.096,135.433,76.283,136.188,75.366,135.962z"/>
	<path fill-rule="evenodd" clip-rule="evenodd" fill="#E2F1EA" d="M68.667,143.543c-0.986,0.211-1.932-0.327-1.99-1.486
		c-0.042-0.854,0.809-1.578,1.774-1.488c0.993,0.092,2.438-0.056,2.282,1.579C70.649,143.028,69.986,143.708,68.667,143.543z"/>
	<path fill-rule="evenodd" clip-rule="evenodd" fill="#E3F1EB" d="M61.791,140.379c-1.163,0.37-1.922-0.533-1.963-1.559
		c-0.029-0.713,0.822-1.579,1.857-1.402c0.897,0.154,2.299-0.161,2.18,1.429C63.789,139.855,63.239,140.642,61.791,140.379z"/>
	<path fill-rule="evenodd" clip-rule="evenodd" fill="#E3F1EB" d="M85.738,143.044c1.12-0.335,1.697,0.535,1.553,1.533
		c-0.141,0.98-0.991,1.345-2.162,1.286c-1.252-0.063-1.94-0.726-1.807-1.65C83.457,143.286,84.41,142.718,85.738,143.044z"/>
	<path fill-rule="evenodd" clip-rule="evenodd" fill="#BE9F70" d="M91.503,144.925c2.214-0.006,4.44-0.159,6.638,0.024
		c2.061,0.173,2.657-0.64,2.339-2.515c-0.061-0.357-0.009-0.735-0.009-1.104c0.802,1.439,0.39,2.979,0.37,4.485
		c-3.066-0.949-6.212-0.203-9.312-0.44C91.52,145.225,91.512,145.075,91.503,144.925z"/>
	<path fill-rule="evenodd" clip-rule="evenodd" fill="#BF9F70" d="M92.051,157.002c2.166,0.005,4.343-0.131,6.493,0.054
		c2.043,0.175,2.737-0.576,2.396-2.518c-0.063-0.36-0.001-0.744,0.003-1.117c0.799,1.447,0.365,2.991,0.356,4.502
		c-3.04-0.939-6.154-0.229-9.227-0.416C92.066,157.339,92.059,157.171,92.051,157.002z"/>
	<path fill-rule="evenodd" clip-rule="evenodd" fill="#BF9F70" d="M100.386,137.333c-3.117-0.015-6.234-0.028-9.351-0.043
		c-0.561-0.662-0.353-1.417-0.26-2.156c0.179,1.313,0.855,1.806,2.235,1.729c2.453-0.135,4.916-0.067,7.375-0.085
		C100.386,136.964,100.386,137.148,100.386,137.333z"/>
	<path fill-rule="evenodd" clip-rule="evenodd" fill="#BFA070" d="M101.314,161.543c-2.999,0.175-6.033-0.491-9.005,0.366
		c-0.514-0.818-0.278-1.692-0.192-2.554c0.192,1.252,0.789,1.814,2.178,1.731c2.335-0.139,4.683-0.056,7.025-0.066
		C101.319,161.194,101.317,161.369,101.314,161.543z"/>
	<path fill-rule="evenodd" clip-rule="evenodd" fill="#BFA071" d="M100.867,149.431c-3.07,0.17-6.171-0.442-9.216,0.357
		c-0.011-0.29-0.023-0.578-0.035-0.866c3.087-0.004,6.173-0.008,9.26-0.012C100.874,149.083,100.87,149.257,100.867,149.431z"/>
	<path fill-rule="evenodd" clip-rule="evenodd" fill="#BFA070" d="M100.068,133.225c-3.119,0.022-6.237,0.045-9.355,0.067
		c-0.009-0.172-0.019-0.344-0.028-0.516c3.128,0.011,6.255,0.021,9.383,0.032C100.11,132.947,100.11,133.086,100.068,133.225z"/>
	<path fill-rule="evenodd" clip-rule="evenodd" fill="#BFA070" d="M100.945,153.424c-2.996,0.003-5.992,0.007-8.988,0.011
		c-0.062-0.104-0.134-0.205-0.178-0.317c-0.009-0.022,0.093-0.088,0.144-0.133c3.009,0.001,6.018,0.002,9.026,0.003
		C100.993,153.133,100.991,153.278,100.945,153.424z"/>
	<path fill-rule="evenodd" clip-rule="evenodd" fill="#BFA071" d="M100.467,141.333c-3.095,0.01-6.19,0.02-9.284,0.029
		c-0.01-0.17-0.02-0.339-0.03-0.508c3.107,0.002,6.215,0.003,9.322,0.005C100.473,141.018,100.47,141.175,100.467,141.333z"/>
	<path fill-rule="evenodd" clip-rule="evenodd" fill="#BFA070" d="M92.457,165.079c2.969,0,5.938,0,8.907,0
		c-0.001,0.159-0.002,0.317-0.004,0.477c-2.964,0.006-5.928,0.013-8.891,0.019C92.465,165.409,92.461,165.244,92.457,165.079z"/>
	<path fill-rule="evenodd" clip-rule="evenodd" fill="#DBEEDC" d="M48.459,134.057c-0.734,0.137-1.379-0.031-1.519-0.83
		c-0.132-0.751,0.391-0.964,1.063-0.871C48.459,132.841,48.999,133.304,48.459,134.057z"/>
	<path fill-rule="evenodd" clip-rule="evenodd" fill="#E7F0E8" d="M48.459,134.057c-0.152-0.567-0.304-1.135-0.456-1.701
		c0.562-0.102,1.241-0.391,1.386,0.497C49.495,133.498,49.212,133.997,48.459,134.057z"/>
	<path fill-rule="evenodd" clip-rule="evenodd" fill="#819740" d="M85.27,123.4c1.583-0.02,3.165-0.04,4.748-0.059
		c0.554,0.227,0.548,0.693,0.503,1.176c-0.063,0.235-0.194,0.424-0.392,0.566C88.514,124.507,86.769,124.307,85.27,123.4z"/>
	<path fill-rule="evenodd" clip-rule="evenodd" fill="#A38961" d="M90.128,125.083c0.006-0.116,0.021-0.23,0.045-0.344
		c0.591-0.47,1.18-0.558,1.768,0.005c0.011,0.135,0.017,0.271,0.018,0.407c-0.592,0.161-1.184,0.321-1.776,0.482
		C90.165,125.449,90.146,125.266,90.128,125.083z"/>
	<path fill-rule="evenodd" clip-rule="evenodd" fill="#F7BE32" d="M33.182,97.817c0.588-1.944,2.534-2.306,3.923-3.277
		c2.829-1.978,5.764-3.804,8.655-5.692c0.166-0.126,0.329-0.116,0.488,0.012c-0.653,3.223-1.155,6.466-1.371,9.75
		c0.368,2.378,0.207,4.676-1.027,6.813c-0.107,0.278-0.214,0.556-0.321,0.834c-0.606,0.547-1.382,0.545-2.122,0.662
		c-0.975-0.033-1.965,0.306-2.928-0.098c-1.495-0.973-3.156-0.406-4.737-0.465c-2.133-0.081-4.272,0.026-6.409,0.053
		c-0.947,0.419-1.943,0.569-2.972,0.545c-0.381-0.014-0.763-0.016-1.145-0.023c-0.778,0.001-1.544-0.045-2.194-0.552
		c-0.727-0.016-1.453-0.032-2.18-0.047c2.396-1.644,4.791-3.288,7.187-4.933c0.688-0.748,1.612-0.618,2.479-0.627
		c2.574-0.029,5.148-0.01,7.715-0.014c0.581-0.015,1.167,0.015,1.755,0.006c-1.642-0.487-3.524,0.486-5.034-0.831
		C32.633,99.18,32.569,98.46,33.182,97.817z"/>
	<path fill-rule="evenodd" clip-rule="evenodd" fill="#E49B37" d="M46.249,88.86c-0.163-0.004-0.325-0.008-0.488-0.012
		c-1.799-0.011-3.598-0.021-5.396-0.033c-1.34-0.341-2.681-0.349-4.021,0.005c-0.466-0.006-0.932-0.012-1.397-0.019
		c-2.217-0.451-4.46-0.091-6.688-0.207c-2.279-0.015-4.548-0.354-6.832-0.219c-1.771-0.18-3.601,0.406-5.322-0.41
		c-1-0.226-1.379-0.941-1.175-1.839c0.191-0.835,1.004-0.452,1.515-0.431c9.85,0.413,19.698,0.859,29.546,1.308
		c0.475,0.021,1.125-0.158,1.153,0.664C47.164,88.297,47.129,88.9,46.249,88.86z"/>
	<path fill-rule="evenodd" clip-rule="evenodd" fill="#77913B" d="M43.851,105.423c0.236-2.287,0.385-4.587,1.027-6.813
		c2.389,0.462,4.779,0.924,7.167,1.386c-2.161,2.207-4.811,3.782-7.25,5.631C44.425,105.908,44.114,105.729,43.851,105.423z"/>
	<path fill-rule="evenodd" clip-rule="evenodd" fill="#C4882C" d="M21.49,87.962c2.287-0.309,4.514,0.33,6.776,0.425
		c0.144,0.089,0.191,0.178,0.145,0.269s-0.094,0.136-0.141,0.136c-4.013,0-8.026,0-12.04-0.001
		c-0.068-0.142-0.074-0.287-0.021-0.434C17.94,87.822,19.761,88.5,21.49,87.962z"/>
	<path fill-rule="evenodd" clip-rule="evenodd" fill="#AB752B" d="M21.49,87.962c-1.706,0.856-3.524,0.207-5.28,0.394
		c-0.089-0.116-0.125-0.246-0.107-0.391C17.898,87.964,19.694,87.963,21.49,87.962z"/>
	<path fill-rule="evenodd" clip-rule="evenodd" fill="#557E3E" d="M157.518,95.601c-0.32-0.157-0.642-0.314-0.962-0.472
		c-0.42-0.49-0.739-1.057-1.59-0.917c-0.716,0.118-1.274-0.293-1.615-0.955c-0.177-0.343,0.318-5.405,0.624-5.499
		c1.354-0.413,2.145-1.343,2.707-2.577c0.094-0.206,0.487-0.333,0.764-0.388c0.694-0.135,1.765,0.01,1.744,0.568
		c-0.081,2.194,3.948,1.578,2.804,4.274c-0.255,0.6-0.258,0.9,0.112,1.515c1.007,1.67,0.471,2.7-1.562,3.044
		c-0.885,0.149-1.161,0.472-1.087,1.273c-0.313,0.482-0.784,0.538-1.297,0.479C157.92,95.879,157.707,95.764,157.518,95.601z"/>
	<path fill-rule="evenodd" clip-rule="evenodd" fill="#686E32" d="M157.886,95.596c0.523-0.043,1.047-0.086,1.571-0.129
		c0.365,0.022,0.731,0.045,1.096,0.067c-0.784,1.022-1.044,2.406-2.191,3.177C157.602,97.765,158.014,96.639,157.886,95.596z"/>
	<path fill-rule="evenodd" clip-rule="evenodd" fill="#8F9D3A" d="M24.196,106.359c1.046,0.016,2.092,0.032,3.138,0.049
		c-1.3,1.055-2.532,2.271-4.445,1.855C23.055,107.443,23.453,106.783,24.196,106.359z"/>
	<path fill-rule="evenodd" clip-rule="evenodd" fill="#E19B36" d="M38.479,106.821c0.87-0.562,1.838-0.548,2.815-0.479
		c0.469,0.588,0.381,1.169-0.023,1.746C40.239,107.889,38.656,108.905,38.479,106.821z"/>
	<path fill-rule="evenodd" clip-rule="evenodd" fill="#E39B36" d="M24.196,106.359c-0.469,0.611-0.148,1.766-1.307,1.903
		c-0.593-0.321-1.767,0.308-1.726-1.052c0.39-1.092,1.519-0.345,2.14-0.861C23.601,106.353,23.898,106.355,24.196,106.359z"/>
	<path fill-rule="evenodd" clip-rule="evenodd" fill="#78933B" d="M41.271,108.087c0.008-0.582,0.016-1.164,0.023-1.746
		c0.745-0.028,1.489-0.056,2.234-0.084C43.071,107.23,42.059,107.521,41.271,108.087z"/>
	<path fill-rule="evenodd" clip-rule="evenodd" fill="#91B559" d="M54.302,113.515c-1.118,0.843-2.4,0.273-3.6,0.419
		C51.818,113.074,53.104,113.672,54.302,113.515z"/>
	<path fill-rule="evenodd" clip-rule="evenodd" fill="#CE9330" d="M23.303,106.349c-0.555,0.682-1.544,0.282-2.141,0.861
		c-0.046-0.277-0.093-0.555-0.14-0.832C21.783,106.369,22.543,106.359,23.303,106.349z"/>
	<path fill-rule="evenodd" clip-rule="evenodd" fill="#8EB055" d="M61.9,112.616c-0.633,0.712-1.463,0.363-2.22,0.413
		C60.314,112.32,61.149,112.691,61.9,112.616z"/>
	<path fill-rule="evenodd" clip-rule="evenodd" fill="#94B958" d="M58.356,113.063c-0.655,0.697-1.492,0.366-2.264,0.402
		C56.747,112.762,57.592,113.143,58.356,113.063z"/>
	<path fill-rule="evenodd" clip-rule="evenodd" fill="#CDAB79" d="M151.656,107.633c0.294,0.304,0.588,0.608,0.882,0.912
		c-0.991,0.964-2.4,0.45-3.511,1c-4.996,0.347-9.995,0.173-14.994,0.099c-4.55-0.068-9.103,0.146-13.653-0.107
		c-2.453-0.675-4.967-0.153-7.438-0.386c-0.788-0.074-2.067,0.436-2.053-1.164c0.838-0.624,1.829-0.58,2.785-0.578
		c11.45,0.027,22.9-0.114,34.347,0.065C149.236,107.417,150.45,107.439,151.656,107.633z"/>
	<path fill-rule="evenodd" clip-rule="evenodd" fill="#D7B47F" d="M112.193,103.665c1.323-1.061,2.646-2.123,3.969-3.184
		c1.17-0.703,2.471-0.618,3.757-0.624c6.484,0.009,12.968,0,19.451-0.001c1.294-0.003,2.598-0.061,3.781,0.613
		c0.164,0.145,0.328,0.289,0.492,0.434c-0.895,0.948-2.083,0.549-3.153,0.692c-5.565,0.019-11.136,0.135-16.696-0.045
		c-3.01-0.097-5.557,0.568-7.701,2.683c-0.234,0.146-0.486,0.249-0.752,0.32C114.231,104.477,112.858,105.322,112.193,103.665z"/>
	<path fill-rule="evenodd" clip-rule="evenodd" fill="#D8B580" d="M153.029,108.947c1.458,0.78,2.59,1.936,3.649,3.174
		c-1.491,1.005-3.249,1.007-4.904,1.056c-4.825,0.145-9.658,0.064-14.487,0.041c-0.807-0.004-1.657,0.054-2.265-0.659
		c0.385-1.473,1.649-0.992,2.544-1.01c4.444-0.091,8.891-0.024,13.454-0.046c-0.198-0.998-1.671-1.401-1.144-2.606
		C150.931,108.762,151.983,108.686,153.029,108.947z"/>
	<path fill-rule="evenodd" clip-rule="evenodd" fill="#D8B480" d="M157.901,113.041c1.214,1.056,2.426,2.112,3.639,3.168
		c-0.669,1.342-1.934,0.289-2.833,0.705c-0.238,0.061-0.478,0.059-0.716,0c-1.19-0.588-2.028-1.625-3.036-2.443
		c-0.493-0.401-1.273-0.971-0.314-1.737C155.752,112.572,156.864,112.415,157.901,113.041z"/>
	<path fill-rule="evenodd" clip-rule="evenodd" fill="#D7B480" d="M138.624,96.451c1.355,1.189,2.976,2.078,4.062,3.573
		c-0.898,0.488-1.87,0.12-2.8,0.235c-0.236,0.004-0.472-0.009-0.707-0.037c-1.522-0.501-2.586-1.636-3.683-2.712
		c-0.397-0.39-0.952-0.853-0.133-1.4C136.505,95.699,137.584,95.885,138.624,96.451z"/>
	<path fill-rule="evenodd" clip-rule="evenodd" fill="#C5A575" d="M135.061,112.128c0.55,0.749,1.357,0.464,2.062,0.467
		c4.755,0.023,9.511,0.056,14.265-0.009c1.766-0.024,3.526-0.303,5.291-0.465c0.117-0.004,0.231,0.013,0.343,0.051
		c0.016,0.858-0.646,0.623-1.095,0.636c-0.8,0.024-1.619-0.091-2.254,0.568c-2.627,0.695-5.307,0.252-7.961,0.337
		c-2.295,0.073-4.602,0.125-6.891-0.018c-1.909-0.119-3.145,0.47-3.609,2.387c-0.227,0.221-0.475,0.25-0.746,0.088
		c-0.83-2.058-0.832-4.115-0.009-6.175C135.659,110.392,135.708,110.563,135.061,112.128z"/>
	<path fill-rule="evenodd" clip-rule="evenodd" fill="#D6B37F" d="M151.656,107.633c-0.946,0.914-2.121,0.3-3.178,0.478
		c-1.217-0.402-2.285-1.011-2.962-2.151c-0.277-0.467-0.491-0.942,0.146-1.316c1.01-0.425,1.949-0.192,2.863,0.297
		C149.58,105.825,150.816,106.499,151.656,107.633z"/>
	<path fill-rule="evenodd" clip-rule="evenodd" fill="#D7B47F" d="M140.379,100.958c1.088-0.018,2.176-0.037,3.264-0.055
		c1.517,0.466,2.224,1.967,3.503,2.736c-0.482,1.57-1.853,0.592-2.752,0.964c-0.233-0.022-0.462-0.08-0.682-0.163
		C142.514,103.366,140.82,102.761,140.379,100.958z"/>
	<path fill-rule="evenodd" clip-rule="evenodd" fill="#D4B07D" d="M134.528,95.995c-0.138-1.075-0.276-2.151-0.414-3.227
		c1.558,0.481,2.311,2.011,3.637,2.794C136.819,96.767,135.648,96.194,134.528,95.995z"/>
	<path fill-rule="evenodd" clip-rule="evenodd" fill="#B4956A" d="M144.051,104.106c1.021-0.226,2.17,0.398,3.095-0.467
		c0.61,0.274,1.019,0.763,1.379,1.301c-1.065,0.025-2.131,0.05-3.196,0.075c-0.166,0.122-0.349,0.153-0.549,0.11
		C144.401,104.884,143.777,104.815,144.051,104.106z"/>
	<path fill-rule="evenodd" clip-rule="evenodd" fill="#A58862" d="M134.528,95.995c1.07-0.176,2.243,0.415,3.223-0.433
		c0.291,0.296,0.582,0.593,0.873,0.889c-1.201,0.015-2.403,0.029-3.604,0.043c-0.136,0.138-0.296,0.234-0.483,0.284
		c-0.294,0.036-0.568-0.018-0.818-0.181c-0.098-0.105-0.135-0.215-0.111-0.329c0.023-0.116,0.05-0.173,0.079-0.173
		C133.966,96.062,134.248,96.028,134.528,95.995z"/>
	<path fill-rule="evenodd" clip-rule="evenodd" fill="#A58761" d="M153.906,113.002c0.86-0.943,2.269,0.164,3.115-0.831
		c0.294,0.29,0.587,0.58,0.881,0.869c-1.197,0.016-2.395,0.031-3.592,0.046C154.148,113.191,154.011,113.17,153.906,113.002z"/>
	<path fill-rule="evenodd" clip-rule="evenodd" fill="#A68962" d="M158.377,116.656c1.044-0.22,2.202,0.372,3.162-0.447
		c0.288,0.292,0.574,0.582,0.861,0.873c-1.203,0.019-2.406,0.039-3.609,0.058c-0.174,0.104-0.345,0.099-0.513-0.014
		C158.178,116.941,158.211,116.784,158.377,116.656z"/>
	<path fill-rule="evenodd" clip-rule="evenodd" fill="#A98D64" d="M153.029,108.947c-1.07,0.038-2.14,0.075-3.209,0.112
		c-0.159,0.099-0.296,0.08-0.408-0.076c0.943-0.854,2.09-0.251,3.126-0.438C152.701,108.679,152.865,108.813,153.029,108.947z"/>
	<path fill-rule="evenodd" clip-rule="evenodd" fill="#A78B63" d="M139.542,100.063c1.048-0.013,2.096-0.025,3.144-0.038
		c0.155,0.148,0.311,0.296,0.467,0.444c-1.198-0.004-2.397-0.009-3.597-0.013c-0.168-0.082-0.227-0.167-0.175-0.256
		C139.433,100.108,139.487,100.063,139.542,100.063z"/>
	<path fill-rule="evenodd" clip-rule="evenodd" fill="#E39B36" d="M33.092,100.007c1.561,0.012,3.125-0.038,4.679,0.063
		c0.7,0.046,2.003-0.513,1.946,0.69c-0.05,1.053-1.326,0.47-2.057,0.606c-0.286,0.054-0.593-0.002-0.89-0.008
		c-3.483-0.463-6.984-0.069-10.473-0.213c-1.104-0.445-2.403,0.142-3.44-0.654c-0.429-0.297-1.055-0.739-0.005-0.866
		c1.293-0.156,2.633-0.149,3.928,0c1.229,0.142,1.869-0.432,2.382-1.374C30.267,99.296,32.031,98.865,33.092,100.007z"/>
	<path fill-rule="evenodd" clip-rule="evenodd" fill="#8A5F25" d="M33.092,100.007c-0.88-0.12-1.759-0.311-2.642-0.34
		c-0.987-0.032-1.278-0.563-1.287-1.415c1.175-2.356,2.292-2.477,4.019-0.435C33.152,98.547,33.122,99.277,33.092,100.007z"/>
	<path fill-rule="evenodd" clip-rule="evenodd" fill="#D9A02E" d="M26.015,100.938c2.888,0.001,5.775-0.013,8.662,0.014
		c0.711,0.006,1.499-0.246,2.094,0.408c-3.581,0.013-7.161,0.026-10.741,0.039c-1.041-0.202-2.2,0.404-3.143-0.461
		C23.93,100.599,24.972,100.599,26.015,100.938z"/>
	<path fill-rule="evenodd" clip-rule="evenodd" fill="#BC822C" d="M28.27,88.791c-0.004-0.135-0.006-0.27-0.004-0.404
		c2.222,0.226,4.503-0.518,6.68,0.415C32.721,88.798,30.495,88.794,28.27,88.791z"/>
	<path fill-rule="evenodd" clip-rule="evenodd" fill="#D99530" d="M36.343,88.82c1.34-0.715,2.68-0.7,4.021-0.005
		C39.024,88.817,37.684,88.819,36.343,88.82z"/>
	<path fill-rule="evenodd" clip-rule="evenodd" fill="#CC8D2E" d="M26.015,100.938c-1.042,0-2.085,0-3.128,0
		c-0.017-0.148-0.026-0.297-0.029-0.445C23.907,100.66,25.062,100.084,26.015,100.938z"/>
	<path fill-rule="evenodd" clip-rule="evenodd" fill="#8E443C" d="M134.499,110.001c0.054,2.063,0.107,4.127,0.162,6.19
		c0.86,1.357,0.512,2.829,0.405,4.278c-0.097,0.25-0.217,0.489-0.357,0.717c0.228,1.934-0.602,2.522-2.529,2.393
		c-3.24-0.216-6.499-0.157-9.749-0.214c-0.356-1.988-0.542-3.998-0.75-6.004c-0.083-0.242-0.138-0.49-0.176-0.742
		c-0.122-1.142-0.09-2.289-0.093-3.438c-0.009-0.267-0.008-0.531-0.006-0.799c-0.007-0.277-0.006-0.551-0.008-0.828
		c0.101-1.113,0.403-2.062,1.778-2.07c3.461-0.021,6.921-0.066,10.382,0.026C133.943,109.521,134.264,109.685,134.499,110.001z"/>
	<path fill-rule="evenodd" clip-rule="evenodd" fill="#BFA070" d="M122.126,116.997c0.625,2.098,0.203,4.246,0.304,6.369
		c-0.165-2.173-1.546-2.295-3.352-2.275c-7.545,0.084-15.092,0.022-22.638,0.014c-0.12-0.289-0.049-0.518,0.212-0.689
		c0.234-0.14,0.486-0.233,0.753-0.284c6.995-0.287,13.995-0.097,20.993-0.098c1.824,0,3.072-0.382,3.202-2.434
		C121.71,117.341,121.887,117.142,122.126,116.997z"/>
	<path fill-rule="evenodd" clip-rule="evenodd" fill="#BFA070" d="M134.708,121.187c-0.013-0.17-0.024-0.339-0.037-0.509
		c0.21-0.213,0.455-0.373,0.734-0.481c2.744-0.468,5.51-0.189,8.266-0.216c5.076-0.049,10.153-0.013,15.229-0.015
		c1.201,0,2.397-0.003,3.46,0.684c0.161,0.158,0.323,0.316,0.485,0.475C153.466,121.145,144.087,121.166,134.708,121.187z"/>
	<path fill-rule="evenodd" clip-rule="evenodd" fill="#D7B47F" d="M91.941,124.744c-0.589-0.002-1.178-0.004-1.768-0.005
		c-0.052-0.465-0.103-0.931-0.156-1.397c0.801-0.734,1.603-1.468,2.404-2.203c1.221-0.542,2.44-1.054,3.627,0.073
		c-0.905,1.458-2.799,1.895-3.589,3.472C92.287,124.703,92.114,124.724,91.941,124.744z"/>
	<path fill-rule="evenodd" clip-rule="evenodd" fill="#A68862" d="M96.049,121.211c-1.209-0.024-2.418-0.049-3.627-0.073
		c0.283-0.3,0.566-0.6,0.85-0.9c1.044,0.219,2.239-0.597,3.161,0.462c0.009,0.134,0.012,0.27,0.008,0.404
		C96.309,121.136,96.178,121.172,96.049,121.211z"/>
	<path fill-rule="evenodd" clip-rule="evenodd" fill="#BFA070" d="M157.436,133.225c-12.034,0.009-24.069,0.014-36.104,0.032
		c-0.956,0.002-1.958-0.208-2.821,0.434c0.011-0.316,0.022-0.634,0.033-0.95c12.198,0.015,24.396,0.023,36.593,0.063
		C155.907,132.807,156.789,132.454,157.436,133.225z"/>
	<path fill-rule="evenodd" clip-rule="evenodd" fill="#924A44" d="M109.928,147.144c-0.224,0-0.448,0-0.672,0
		c-4.574,0-4.574,0-5.146-4.379c-1.048-8.031-0.929-8.171,7.012-8.174c0.224,0,0.448,0,0.672,0c3.05,0,3.075,0.001,3.049,2.977
		c-0.022,2.459,0.55,4.864,0.506,7.341c-0.031,1.757-0.496,2.468-2.288,2.258C112.031,147.045,110.974,147.144,109.928,147.144z"/>
	<path fill-rule="evenodd" clip-rule="evenodd" fill="#90443C" d="M105.73,150.572c0.02,0.521-0.232,0.811-0.591,0.89
		c-0.492,0.109-0.837-0.178-0.919-0.666c-0.071-0.421,0.229-0.705,0.584-0.794C105.312,149.876,105.575,150.229,105.73,150.572z"/>
	<path fill-rule="evenodd" clip-rule="evenodd" fill="#8D633A" d="M157.886,95.596c0.688,0.958,0.375,2.068,0.476,3.115
		c-0.303,0.488-0.724,1.013-0.86-0.014c-0.136-1.014-0.001-2.063,0.017-3.097C157.641,95.591,157.763,95.589,157.886,95.596z"/>
	<path fill-rule="evenodd" clip-rule="evenodd" fill="#FAD195" d="M118.926,152.956c-0.002-1.182-0.005-2.363-0.008-3.545
		c3.591-1.705,4.85-0.742,4.583,3.505C121.98,153.394,120.454,153.326,118.926,152.956z"/>
	<path fill-rule="evenodd" clip-rule="evenodd" fill="#F9D094" d="M118.904,148.932c-0.006-1.191-0.013-2.384-0.019-3.575
		c1.499-0.924,3.004-0.877,4.515-0.027l-0.005,0.001C123.971,149.422,123.598,149.721,118.904,148.932z"/>
	<path fill-rule="evenodd" clip-rule="evenodd" fill="#BD9D6F" d="M118.507,134.587c0.373,3.445,3.039,1.911,4.85,2.233
		c0.002,0.155,0.003,0.31,0.005,0.464c-0.39,0.373-0.877,0.588-1.393,0.541c-2.116-0.192-2.708,0.926-2.478,2.794
		c0.007,0.23,0.003,0.458-0.002,0.688c-0.053,1.054,0.073,2.12-0.231,3.155c-0.092,0.23-0.25,0.403-0.468,0.521
		C118.154,141.532,118.484,138.056,118.507,134.587z"/>
	<path fill-rule="evenodd" clip-rule="evenodd" fill="#BFA070" d="M118.904,148.932c0.22,0.003,0.439,0.008,0.659,0.009
		c3.762,0.015,3.762,0.015,3.832-3.61c0.787,2.521,0.335,5.089,0.294,7.642c-0.129,0.155-0.251,0.157-0.364-0.019
		c0.021-0.298,0.015-0.6,0.066-0.892c0.385-2.183-0.546-3.003-2.685-2.673c-0.583,0.091-1.191,0.02-1.788,0.022
		C118.914,149.251,118.909,149.092,118.904,148.932z"/>
	<path fill-rule="evenodd" clip-rule="evenodd" fill="#BD9D6F" d="M123.325,152.953c0.121,0.013,0.243,0.019,0.364,0.019
		c0.033,0.895,0.067,1.788,0.101,2.682c-0.471-3.267-2.992-1.995-4.849-2.19c-0.005-0.17-0.01-0.339-0.015-0.507
		C120.392,152.955,121.858,152.954,123.325,152.953z"/>
	<path fill-rule="evenodd" clip-rule="evenodd" fill="#BFA070" d="M123.4,145.329c-1.505,0.009-3.01,0.018-4.515,0.027
		c-0.054-0.119-0.085-0.244-0.095-0.374c0.059-0.049,0.117-0.1,0.174-0.151c1.504-0.832,2.99-0.903,4.45,0.104
		C123.454,145.068,123.449,145.199,123.4,145.329z"/>
	<path fill-rule="evenodd" clip-rule="evenodd" fill="#A0D6ED" d="M138.625,151.188c-4.349-2.999-8.697-5.997-13.045-8.996
		c-0.301-4.9-0.301-4.901,4.444-4.9c2.534,0,5.069,0.041,7.603-0.019c1.071-0.025,1.439,0.345,1.397,1.411
		C138.859,142.851,138.752,147.02,138.625,151.188z"/>
	<path fill-rule="evenodd" clip-rule="evenodd" fill="#FDD497" d="M123.415,144.936c-1.483-0.034-2.967-0.069-4.45-0.104
		c-0.009-1.139-0.019-2.277-0.028-3.415c1.456-1.082,2.94-0.963,4.442-0.104C123.474,142.52,123.78,143.725,123.415,144.936z"/>
	<path fill-rule="evenodd" clip-rule="evenodd" fill="#FAD195" d="M118.916,140.805c-0.016-0.373,0.001-0.751-0.055-1.117
		c-0.274-1.779,0.3-2.7,2.265-2.417c0.731,0.105,1.49,0.016,2.236,0.014c0.012,1.2,0.023,2.4,0.035,3.601
		C121.898,141.164,120.401,141.304,118.916,140.805z"/>
	<path fill-rule="evenodd" clip-rule="evenodd" fill="#BFA070" d="M118.916,140.805c1.494,0.026,2.987,0.053,4.481,0.08
		c0.037,0.145,0.03,0.287-0.019,0.428c-1.481,0.034-2.962,0.068-4.442,0.103C118.929,141.212,118.923,141.009,118.916,140.805z"/>
	<path fill-rule="evenodd" clip-rule="evenodd" fill="#FED597" d="M162.361,120.649c-9.09,0.001-18.179,0.002-27.268,0.003
		c-0.513-0.667-0.181-1.441-0.276-2.162c-0.201-1.508,0.633-1.984,1.966-2.011c1.715-0.035,3.429-0.02,5.144-0.021
		c4.398-0.003,8.797,0.006,13.195-0.006c1.13-0.003,2.235,0.058,3.264,0.589c0.136,0.029,0.271,0.062,0.406,0.098
		C159.942,118.35,161.521,119.124,162.361,120.649z"/>
	<path fill-rule="evenodd" clip-rule="evenodd" fill="#D7B37E" d="M128.322,93.27c0.577,0.213,1.154,0.427,1.731,0.64
		c1.076,0.685,2.153,1.369,3.229,2.054c-1.231,1.097-2.723,0.499-4.102,0.633c-0.372-0.015-0.74-0.067-1.097-0.175
		c-0.768-0.302-1.546-0.593-2.104-1.253C126.092,93.712,127.06,93.309,128.322,93.27z"/>
	<path fill-rule="evenodd" clip-rule="evenodd" fill="#A38961" d="M128.767,96.018c1.505-0.018,3.011-0.036,4.516-0.054
		c0.147,0.003,0.282,0.046,0.402,0.131c0.001,0.114,0.001,0.228,0.001,0.342c-1.109,0.992-2.451,0.513-3.706,0.589
		c-0.393-0.026-0.759-0.132-1.09-0.348C128.657,96.494,128.616,96.273,128.767,96.018z"/>
	<path fill-rule="evenodd" clip-rule="evenodd" fill="#B9996C" d="M128.322,93.27c-0.765,0.599-1.529,1.198-2.294,1.796
		c-0.155,0.142-0.337,0.202-0.546,0.181c-0.745-0.269-1.561-0.398-2.119-1.047c0.018-0.13,0.041-0.26,0.071-0.388
		c0.975-0.153,1.409-1.144,2.273-1.468c0.268-0.011,0.535-0.023,0.802-0.034C127.183,92.498,127.823,92.75,128.322,93.27z"/>
	<path fill-rule="evenodd" clip-rule="evenodd" fill="#D8B580" d="M122.021,112.158c0,0.149,0.001,0.299,0.001,0.448
		c-0.469,0.42-1.036,0.608-1.648,0.594c-5.366-0.122-10.75,0.464-16.097-0.422c-0.593-0.099-1.194-0.133-1.62-0.639
		c0.977-1.326,2.301-2.255,3.627-3.184c0.997-0.416,1.996-0.781,3.042-0.154c0.745,1.254-0.776,1.685-1.004,2.722
		c3.608,0.003,7.166-0.013,10.722,0.01C120.07,111.541,121.151,111.375,122.021,112.158z"/>
	<path fill-rule="evenodd" clip-rule="evenodd" fill="#CDAB79" d="M110.815,108.104c1.409,0.944,2.986,0.256,4.473,0.459
		c1.64,0.224,3.356-0.469,4.942,0.414c-0.749,0.813-1.759,0.737-2.704,0.71c-2.438-0.069-4.897,0.319-7.313-0.292
		c-0.574-0.474-1.215-0.689-1.98-0.63c-0.462,0.036-1.079,0.145-1.059-0.665c1.204-1.051,2.408-2.103,3.612-3.154
		c0.898-0.572,1.864-0.483,2.84-0.295c1.031,1.02-0.104,1.518-0.544,2.157C112.543,107.59,111.608,107.736,110.815,108.104z"/>
	<path fill-rule="evenodd" clip-rule="evenodd" fill="#D7B480" d="M116.652,100.022c1.063-1.511,2.674-2.399,4.041-3.566
		c1.022-0.582,2.092-0.742,3.221-0.357c0.491,0.275,0.581,0.684,0.194,1.062c-1.193,1.169-2.181,2.616-3.946,3.05
		c-0.235,0.037-0.471,0.052-0.709,0.047C118.523,100.142,117.551,100.516,116.652,100.022z"/>
	<path fill-rule="evenodd" clip-rule="evenodd" fill="#D7B480" d="M97.801,116.212c1.452-0.924,2.298-2.598,3.988-3.229
		c0.928-0.392,1.882-0.481,2.865-0.253c0.972,0.862,0.111,1.443-0.402,1.916c-0.902,0.829-1.838,1.638-2.883,2.301
		c-0.228,0.104-0.465,0.172-0.711,0.215C99.632,117.067,98.345,117.75,97.801,116.212z"/>
	<path fill-rule="evenodd" clip-rule="evenodd" fill="#D7B480" d="M96.433,120.7c-1.043-0.222-2.208,0.387-3.161-0.462
		c1.213-1.048,2.428-2.096,3.642-3.144c1.022-0.545,2.114-0.072,3.163-0.219c1.059,0.647,0.268,1.183-0.175,1.598
		c-0.892,0.834-1.843,1.614-2.95,2.168C96.778,120.661,96.605,120.68,96.433,120.7z"/>
	<path fill-rule="evenodd" clip-rule="evenodd" fill="#C4A474" d="M102.658,112.14c6.441,0.725,12.907,0.413,19.365,0.466
		c-0.002,0.149-0.003,0.297-0.005,0.446c-0.343,0.3-0.735,0.564-1.184,0.573c-5.039,0.103-10.081,0.464-15.11-0.193
		c-0.967-1.112-2.412-0.247-3.505-0.838C102.365,112.442,102.512,112.291,102.658,112.14z"/>
	<path fill-rule="evenodd" clip-rule="evenodd" fill="#D5B27E" d="M123.363,94.2c0.872-0.017,1.652,0.202,2.254,0.879
		c0.238,0.58-0.098,0.894-0.536,1.162c-0.234,0.077-0.472,0.087-0.712,0.031c-0.883-0.415-2.13,0.642-2.787-0.688
		C122.176,95.123,122.769,94.662,123.363,94.2z"/>
	<path fill-rule="evenodd" clip-rule="evenodd" fill="#B49469" d="M113.979,105.009c-1.065-0.02-2.129-0.041-3.194-0.061
		c0.367-0.541,0.77-1.04,1.408-1.283c0.924,0.829,2.052,0.224,3.064,0.435c0.271,0.708-0.347,0.783-0.729,1.026
		C114.328,105.172,114.145,105.132,113.979,105.009z"/>
	<path fill-rule="evenodd" clip-rule="evenodd" fill="#A58761" d="M100.511,117.15c-1.2-0.019-2.398-0.037-3.598-0.056
		c0.173-0.418,0.451-0.73,0.888-0.882c0.946,0.833,2.094,0.225,3.127,0.438c0.117,0.085,0.17,0.184,0.16,0.295
		c-0.011,0.118-0.032,0.177-0.063,0.177C100.86,117.237,100.688,117.246,100.511,117.15z"/>
	<path fill-rule="evenodd" clip-rule="evenodd" fill="#A38760" d="M121.583,95.584c0.941,0.826,2.085,0.215,3.111,0.441
		c0.122,0.083,0.177,0.179,0.167,0.29c-0.011,0.118-0.033,0.177-0.064,0.177c-0.169,0.115-0.341,0.113-0.515,0.01
		c-1.196-0.015-2.393-0.03-3.589-0.046C120.871,96.044,121.141,95.727,121.583,95.584z"/>
	<path fill-rule="evenodd" clip-rule="evenodd" fill="#A98D64" d="M107.173,108.102c0.696,0.943,2.028-0.06,2.721,0.89
		c-0.113,0.146-0.25,0.172-0.409,0.08c-1.066-0.038-2.133-0.076-3.199-0.115C106.582,108.671,106.877,108.387,107.173,108.102z"/>
	<path fill-rule="evenodd" clip-rule="evenodd" fill="#A28961" d="M102.218,112.594c1.053,0.196,2.209-0.39,3.182,0.418
		c-0.107,0.161-0.244,0.184-0.407,0.087c-1.068-0.039-2.136-0.077-3.204-0.116C101.932,112.853,102.075,112.723,102.218,112.594z"/>
	<path fill-rule="evenodd" clip-rule="evenodd" fill="#A78B63" d="M116.652,100.022c1.038,0.011,2.075,0.022,3.113,0.033
		c0.158,0.095,0.208,0.188,0.153,0.277c-0.055,0.088-0.109,0.132-0.165,0.132c-1.197,0.005-2.395,0.011-3.592,0.016
		C116.325,100.328,116.489,100.175,116.652,100.022z"/>
	<path fill-rule="evenodd" clip-rule="evenodd" fill="#FAB343" d="M81.869,151.595c0.752,0.079,1.648,0.196,1.556,1.303
		c-0.085,1.028-1.015,1.224-1.809,1.188c-0.791-0.036-1.761-0.298-1.67-1.343C80.032,151.756,80.93,151.601,81.869,151.595z"/>
	<path fill-rule="evenodd" clip-rule="evenodd" fill="#F8B64B" d="M57.849,153.609c0.009,0.709-0.553,0.854-1.035,0.868
		c-0.466,0.014-1.087-0.032-1.143-0.725c-0.058-0.722,0.503-0.812,1.024-0.823C57.192,152.919,57.756,152.891,57.849,153.609z"/>
	<path fill-rule="evenodd" clip-rule="evenodd" fill="#F8B548" d="M47.988,143.854c0.055,0.427-0.152,0.61-0.445,0.699
		c-0.403,0.123-0.722-0.029-0.847-0.421c-0.107-0.337,0.113-0.537,0.437-0.587C47.495,143.489,47.854,143.481,47.988,143.854z"/>
	<path fill-rule="evenodd" clip-rule="evenodd" fill="#F3BB59" d="M75.82,134.334c0.011,0.454-0.273,0.682-0.66,0.646
		c-0.231-0.021-0.554-0.227-0.637-0.431c-0.161-0.396,0.083-0.686,0.501-0.753C75.437,133.729,75.697,133.945,75.82,134.334z"/>
	<path fill-rule="evenodd" clip-rule="evenodd" fill="#F4BA56" d="M68.607,141.409c0.388-0.008,0.722,0.149,0.807,0.539
		c0.097,0.444-0.237,0.638-0.62,0.677c-0.385,0.04-0.757-0.106-0.832-0.509C67.885,141.691,68.247,141.527,68.607,141.409z"/>
	<path fill-rule="evenodd" clip-rule="evenodd" fill="#F4B953" d="M61.811,138.258c0.5,0.024,0.82,0.284,0.798,0.651
		c-0.022,0.373-0.38,0.593-0.793,0.586c-0.412-0.006-0.746-0.196-0.708-0.623C61.143,138.474,61.506,138.309,61.811,138.258z"/>
	<path fill-rule="evenodd" clip-rule="evenodd" fill="#F5BC5B" d="M85.368,143.796c0.376,0.082,0.722,0.216,0.66,0.696
		c-0.05,0.391-0.399,0.405-0.685,0.42c-0.378,0.019-0.833-0.036-0.812-0.517C84.55,143.979,84.982,143.862,85.368,143.796z"/>
	<path fill-rule="evenodd" clip-rule="evenodd" fill="#FBD296" d="M113.979,105.009c0.138-0.012,0.275-0.03,0.411-0.054
		c1.27-0.505,2.593-0.621,3.949-0.618c7.54,0.015,15.079,0.016,22.618-0.001c1.357-0.003,2.679,0.127,3.954,0.606
		c0.14,0.023,0.278,0.048,0.417,0.073c0.848,1.238,2.061,2.104,3.149,3.096c-12.555-0.002-25.109-0.004-37.664-0.006
		C111.913,107.117,113.121,106.242,113.979,105.009z"/>
	<path fill-rule="evenodd" clip-rule="evenodd" fill="#FED497" d="M109.485,109.071c0.136-0.031,0.272-0.057,0.409-0.08
		c3.445-0.005,6.89-0.009,10.335-0.014c9.727,0.002,19.455,0.004,29.182,0.006c0.137,0.022,0.272,0.047,0.408,0.075
		c0.624,1.234,2.074,1.624,3.101,3.07c-6.146,0-12.004,0-17.859,0c-0.218-0.701,0.402-1.625-0.563-2.128
		c-3.407-0.001-6.819,0.1-10.22-0.048c-1.758-0.076-2.458,0.49-2.257,2.205c-5.079,0-10.159,0-15.778,0
		C107.53,110.933,108.507,110.002,109.485,109.071z"/>
	<path fill-rule="evenodd" clip-rule="evenodd" fill="#FED497" d="M140.379,100.958c0.946,1.155,2.49,1.7,3.175,3.12
		c-0.615,0.597-1.399,0.439-2.129,0.44c-7.848,0.014-15.695,0.014-23.543,0c-0.729-0.001-1.514,0.157-2.126-0.445
		c1.596-2.11,3.502-3.299,6.364-3.206C128.201,101.064,134.292,100.946,140.379,100.958z"/>
	<path fill-rule="evenodd" clip-rule="evenodd" fill="#CCAB79" d="M115.756,104.072c9.266,0.002,18.533,0.004,27.798,0.005
		c0.165,0.01,0.331,0.019,0.496,0.029c0.288,0.279,0.575,0.558,0.861,0.836c-10.174,0.004-20.347,0.009-30.521,0.013
		c0.289-0.285,0.579-0.571,0.868-0.855C115.424,104.09,115.59,104.081,115.756,104.072z"/>
	<path fill-rule="evenodd" clip-rule="evenodd" fill="#C2A373" d="M119.754,100.465c0.021-0.136,0.025-0.272,0.012-0.409
		c0.176-0.019,0.352-0.037,0.528-0.056c1.325-0.556,2.708-0.693,4.137-0.683c3.711,0.025,7.423,0.026,11.135,0.009
		c1.202-0.006,2.371,0.117,3.456,0.682c0.173,0.018,0.347,0.036,0.52,0.054c-0.014,0.132-0.01,0.263,0.014,0.394
		C132.955,100.458,126.354,100.462,119.754,100.465z"/>
	<path fill-rule="evenodd" clip-rule="evenodd" fill="#FED497" d="M153.906,113.002c0.135,0.027,0.27,0.055,0.404,0.084
		c0.936,1.423,2.79,1.913,3.559,3.506c-0.516,0.439-1.136,0.256-1.71,0.257c-6.45,0.013-12.9,0.022-19.35-0.015
		c-0.627-0.003-1.542,0.479-1.827-0.637c0.178-3.335-0.641-3.142,3.317-3.152C143.501,113.034,148.704,113.017,153.906,113.002z"/>
	<path fill-rule="evenodd" clip-rule="evenodd" fill="#BFA071" d="M134.982,116.198c0.535,0.573,1.239,0.413,1.893,0.413
		c6.998,0.001,13.997-0.01,20.994-0.018c0.169,0.021,0.339,0.042,0.509,0.063c-0.007,0.129-0.004,0.257,0.008,0.385
		c-6.693,0.014-13.387,0.031-20.081,0.041c-3.467,0.005-3.467,0-3.212,3.571c-0.14,0.014-0.28,0.022-0.421,0.024
		c-0.004-1.495-0.008-2.991-0.011-4.486C134.768,116.193,134.875,116.195,134.982,116.198z"/>
	<path fill-rule="evenodd" clip-rule="evenodd" fill="#FFD597" d="M139.022,100.008c-6.243-0.002-12.486-0.005-18.729-0.008
		c1.33-1.167,2.659-2.333,3.989-3.498c0.136-0.035,0.273-0.067,0.411-0.096c1.361-0.796,2.722-0.387,4.083,0
		c0.288,0.031,0.575,0.062,0.862,0.093c1.677,0.422,3.463,0.546,4.84,1.75c-0.447-0.612-0.417-1.196,0.139-1.743
		c0.134-0.033,0.268-0.037,0.403-0.013C136.353,97.666,137.688,98.837,139.022,100.008z"/>
	<path fill-rule="evenodd" clip-rule="evenodd" fill="#D7B47F" d="M134.616,96.507c-0.031,0.579-0.063,1.157-0.104,1.913
		c-1.78-0.456-3.346-1.139-4.875-1.921c1.35-0.021,2.699-0.041,4.049-0.062C133.996,96.46,134.306,96.484,134.616,96.507z"/>
	<path fill-rule="evenodd" clip-rule="evenodd" fill="#FED497" d="M104.994,113.099c0.135-0.03,0.271-0.06,0.407-0.087
		c5.539,0.013,11.078,0.026,16.617,0.04c0.166,1.194,0.216,2.388,0.003,3.583c-0.725,0.672-1.634,0.629-2.522,0.631
		c-5.194,0.012-10.387,0.019-15.581-0.006c-0.873-0.004-1.81,0.12-2.478-0.678C102.234,115.022,104.157,114.615,104.994,113.099z"/>
	<path fill-rule="evenodd" clip-rule="evenodd" fill="#B3DEF0" d="M132.807,111.657c0.969,3.237,0.187,6.543,0.381,9.812
		c0.027,0.463-0.335,0.65-0.732,0.644c-2.811-0.048-5.626,0.222-8.428-0.155c-0.06-0.008-0.088-0.254-0.131-0.39
		C126.61,118.033,129.311,114.488,132.807,111.657z"/>
	<path fill-rule="evenodd" clip-rule="evenodd" fill="#A0D6ED" d="M132.807,111.657c-2.92,3.349-5.511,6.993-8.911,9.911
		c-0.041-2.828-0.047-5.656-0.142-8.482c-0.037-1.111,0.238-1.628,1.471-1.573C127.75,111.625,130.279,111.616,132.807,111.657z"/>
	<path fill-rule="evenodd" clip-rule="evenodd" fill="#BFA071" d="M101.439,116.582c6.86,0.018,13.721,0.035,20.582,0.052
		c0.063,0.113,0.098,0.234,0.104,0.363c-0.057,0.052-0.114,0.104-0.169,0.158c-0.799,0.713-1.794,0.636-2.749,0.641
		c-5.123,0.026-10.246,0.027-15.368-0.001c-1.021-0.005-2.108,0.122-2.921-0.748c0.008-0.132,0.012-0.264,0.01-0.396
		C101.099,116.627,101.269,116.604,101.439,116.582z"/>
	<path fill-rule="evenodd" clip-rule="evenodd" fill="#FED497" d="M100.918,117.047c7.013,0.036,14.026,0.072,21.039,0.108
		c0.019,0.447,0,0.898,0.063,1.338c0.229,1.596-0.287,2.229-2.046,2.206c-7.674-0.098-15.35-0.052-23.024-0.058
		c0.762-1.598,2.601-2.097,3.561-3.491C100.646,117.114,100.782,117.08,100.918,117.047z"/>
	<path fill-rule="evenodd" clip-rule="evenodd" fill="#F1CA8F" d="M125.185,95.981c0.144-0.301,0.288-0.602,0.432-0.902
		c0.137,0.005,0.274,0.001,0.411-0.013c0.693,0.119,1.34,0.33,1.802,0.907C126.95,96.368,126.068,96.356,125.185,95.981z"/>
	<path fill-rule="evenodd" clip-rule="evenodd" fill="#BE9F70" d="M125.185,95.981c0.882-0.002,1.764-0.004,2.646-0.007
		c0.312,0.014,0.624,0.029,0.936,0.043c-0.005,0.13-0.002,0.26,0.008,0.39c-1.361,0-2.722,0-4.082,0
		c0.01-0.127,0.011-0.255,0.001-0.382C124.858,96.011,125.021,95.996,125.185,95.981z"/>
</g>
</svg>
