<?xml version="1.0" encoding="utf-8"?>
<!-- Generator: Adobe Illustrator 16.0.3, SVG Export Plug-In . SVG Version: 6.00 Build 0)  -->
<!DOCTYPE svg PUBLIC "-//W3C//DTD SVG 1.1//EN" "http://www.w3.org/Graphics/SVG/1.1/DTD/svg11.dtd">
<svg version="1.1" id="Capa_1" xmlns="http://www.w3.org/2000/svg" xmlns:xlink="http://www.w3.org/1999/xlink" x="0px" y="0px"
	 width="97.541px" height="93.809px" viewBox="0 0 97.541 93.809" enable-background="new 0 0 97.541 93.809" xml:space="preserve">
<g>
	<path fill="#C7F7FF" d="M87.656,23.525c15.088,21.497,7.377,50.596-16.549,62.44c-22.012,15.033-51.537,7.729-63.363-15.68
		C-7.341,48.788,0.371,19.689,24.294,7.842C46.308-7.189,75.832,0.116,87.656,23.525z"/>
	<path fill="#9EF1FF" d="M85.957,25.006c14.521,20.972,7.281,49.228-15.535,60.64c-20.971,14.516-49.23,7.279-60.64-15.537
		C-4.736,49.136,2.503,20.878,25.32,9.469C46.292-5.049,74.548,2.189,85.957,25.006z"/>
	<path fill="#80E2F2" d="M41.68,58.227c0.469-0.146,0.973-0.299,1.492-0.453C42.653,57.928,42.149,58.08,41.68,58.227z"/>
	<path fill="#80E2F2" d="M44.024,57.521c10.958-3.196,31.197-7.77,46.529-6.209c0.203-5.052-0.563-10.265-2.454-15.4
		C83.046,12.309,58.873-1.011,36.222,7.328C15.144,11.84,2.281,31.602,5.706,51.91C15.417,51.9,32.068,52.684,44.024,57.521z"/>
	<path fill="#80E2F2" d="M49.12,67.293L49.12,67.293c-8.736-2.982-16.562-4.994-23.265-6.35c-7.795-1.572-14.053-2.254-18.489-2.541
		c0.003,0.008,0.005,0.016,0.008,0.023c8.856,0.541,22.484,2.525,40.631,8.508C48.379,67.057,48.75,67.176,49.12,67.293z"/>
	<path fill="#AACD4C" d="M44.024,57.521c-0.294,0.086-0.573,0.168-0.853,0.252C43.452,57.689,43.73,57.607,44.024,57.521
		L44.024,57.521z"/>
	<polygon fill="#FFE67B" points="49.12,67.293 49.12,67.293 49.121,67.293 	"/>
	<polygon fill="#FFE67B" points="49.125,67.293 49.12,67.293 49.121,67.293 	"/>
	<g>
		<path fill="#B1F4FF" d="M38.095,56.613h-1.121c0.4-0.641,0.646-1.357,0.646-2.131c0-2.546-2.436-4.61-5.441-4.61
			c-1.33,0-2.531,0.42-3.479,1.091c0.047-0.395,0.072-0.799,0.072-1.206c0-6.792-6.498-12.295-14.518-12.295
			c-3.404,0-6.527,0.994-9.003,2.654c-0.89,6.236-0.281,12.828,2.107,19.296c0.443,2.057,1.039,4.025,1.758,5.918h32.445
			c0.83-0.926,1.348-2.178,1.348-3.566C42.909,58.92,40.753,56.613,38.095,56.613z"/>
		<path fill="#B1F4FF" d="M88.157,36.126c-0.316-1.466-0.705-2.891-1.164-4.274c-2.74,1.731-5.031,4.071-6.334,6.796
			c-1.908-0.684-4.002-1.064-6.205-1.064c-3.01,0-5.814,0.724-8.215,1.956c0.822,1.188,1.297,2.571,1.297,4.045
			c0,1.354-0.428,2.606-1.131,3.727h1.959c4.646,0,8.416,4.032,8.416,9.005c0,4.98-3.77,9.014-8.416,9.014H53.977
			c1.072,0.939,2.443,1.504,3.939,1.504h28.744C91.104,57.68,92.071,46.736,88.157,36.126z"/>
		<path fill="#9EF1FF" d="M68.364,47.311h-1.959c0.703-1.12,1.131-2.372,1.131-3.727c0-1.474-0.475-2.856-1.297-4.045
			c-1.646-2.398-4.705-4.015-8.217-4.015c-2.326,0-4.426,0.737-6.08,1.906c0.082-0.69,0.129-1.396,0.129-2.106
			c0-2.524-0.52-4.942-1.461-7.191c-1.105-2.638-2.802-5.037-4.953-7.088c-4.65-4.424-11.422-7.216-18.969-7.216
			c-2.109,0-3.768-0.108-5.725,0.303C12.595,20.316,6.712,29.905,5.251,40.116c2.476-1.66,5.599-2.654,9.003-2.654
			c8.02,0,14.518,5.503,14.518,12.295c0,0.407-0.025,0.812-0.072,1.206c0.947-0.671,2.148-1.091,3.479-1.091
			c3.006,0,5.441,2.064,5.441,4.61c0,0.774-0.246,1.491-0.646,2.131h1.121c2.658,0,4.814,2.307,4.814,5.15
			c0,1.389-0.518,2.641-1.348,3.566h12.416h14.387c4.646,0,8.416-4.033,8.416-9.014C76.78,51.343,73.01,47.311,68.364,47.311z"/>
	</g>
	<path fill="#9DC038" d="M41.68,58.227c0.47-0.146,0.973-0.299,1.492-0.453c0.28-0.084,0.559-0.166,0.853-0.252
		c-11.957-4.837-29.061-5.557-38.773-5.547c0.365,2.164,0.915,4.334,1.66,6.493c4.436,0.287,11.148,0.904,18.943,2.477
		C30.354,60.758,35.821,60.047,41.68,58.227z"/>
	<path fill="#789130" d="M44.024,57.521L44.024,57.521c-0.294,0.086-0.573,0.168-0.853,0.252c-0.519,0.154-1.022,0.307-1.492,0.453
		c-5.859,1.82-11.326,2.531-15.825,2.717c6.703,1.355,14.529,3.367,23.265,6.35h0.006c-0.002,0-0.003,0-0.004,0
		c14.781,4.648,27.08,4.029,36.25,1.861c3.109-5.369,4.925-11.475,5.182-17.842C75.221,49.751,54.983,54.326,44.024,57.521z"/>
	<path fill="#9DC038" d="M49.122,67.293H49.12c-0.195-0.021-23.25-2.617-36.214,4.893c9.533,15.123,28.551,22.252,46.61,15.604
		c11.505-2.463,20.556-9.477,25.856-18.635C76.202,71.322,63.903,71.941,49.122,67.293z"/>
	<g>
		<polygon fill="#76902A" points="12.678,57.936 14.634,56.92 12.703,56.92 		"/>
		<polygon fill="#76902A" points="21.914,57.857 27.917,53.462 23.346,52.599 21.878,56.668 		"/>
		<g>
			<g>
				<g>
					<polygon fill="#E39A37" points="12.678,57.936 11.177,57.787 11.16,55.941 12.662,55.928 					"/>
					<polygon fill="#E39A37" points="21.914,57.857 20.413,57.727 20.396,55.861 21.897,55.85 					"/>
				</g>
				<polygon fill="#AA7429" points="11.16,56.908 12.667,56.908 11.17,57.168 				"/>
				<polygon fill="#AA7429" points="21.91,56.789 20.4,56.789 20.4,57.053 				"/>
			</g>
			<polygon fill="#F8BE34" points="23.201,56.803 9.717,56.92 8.43,46.708 24.542,47.41 			"/>
			<polygon fill="#F7AF2F" points="9.717,56.92 8.43,46.708 24.542,47.41 			"/>
			<polygon fill="#AA7429" points="8.43,46.91 8.51,47.343 24.529,47.505 			"/>
			<polygon fill="#E39A37" points="25.032,47.525 25.175,46.511 7.781,45.756 7.924,46.89 			"/>
			<g>
				<g>
					<path fill="#AA7429" d="M17.53,52.576c0-0.58-0.47-1.051-1.051-1.051c-0.58,0-1.051,0.471-1.051,1.051v0.783l2.103,0.266
						V52.576z"/>
				</g>
				<g>
					<path fill="#AA7429" d="M17.562,52.89c0-0.58-0.471-1.051-1.051-1.051c-0.581,0-1.052,0.471-1.052,1.051v0.782l2.103,0.266
						V52.89z"/>
				</g>
				<g>
					<path fill="#80571F" d="M17.53,52.588c0-0.505-0.356-0.925-0.831-1.027c-0.476,0.104-0.833,0.546-0.833,1.073v0.792l1.664,0.21
						V52.588z"/>
				</g>
				<g>
					<polygon fill="#AA7429" points="12.056,53.773 12.101,54.013 20.964,54.104 					"/>
					<polygon fill="#E39A37" points="21.242,54.115 21.321,53.554 11.698,53.135 11.777,53.762 					"/>
				</g>
			</g>
		</g>
	</g>
	<g>
		<g>
			<ellipse fill="#E6FBFF" cx="29.883" cy="81.496" rx="0.643" ry="0.443"/>
			<ellipse fill="#E6FBFF" cx="29.239" cy="82.035" rx="0.644" ry="0.445"/>
			<ellipse fill="#E6FBFF" cx="29.574" cy="82.789" rx="0.643" ry="0.443"/>
			<path fill="#E6FBFF" d="M30.022,82.924c0,0.248,0.29,0.443,0.643,0.443c0.356,0,0.645-0.195,0.645-0.443
				c0-0.244-0.289-0.443-0.645-0.443C30.312,82.48,30.022,82.68,30.022,82.924z"/>
			<path fill="#E6FBFF" d="M30.526,82.342c0,0.248,0.288,0.447,0.644,0.447s0.645-0.199,0.645-0.447
				c0-0.244-0.289-0.439-0.645-0.439S30.526,82.098,30.526,82.342z"/>
			<ellipse fill="#E6FBFF" cx="31.002" cy="81.592" rx="0.643" ry="0.443"/>
			<ellipse fill="#FBB03B" cx="30.219" cy="82.172" rx="0.644" ry="0.443"/>
		</g>
		<g>
			<ellipse fill="#E6FBFF" cx="43.06" cy="80.684" rx="0.982" ry="0.678"/>
			<ellipse fill="#E6FBFF" cx="42.079" cy="81.508" rx="0.983" ry="0.68"/>
			<path fill="#E6FBFF" d="M41.609,82.658c0,0.371,0.439,0.676,0.981,0.676c0.542,0,0.982-0.305,0.982-0.676
				c0-0.377-0.44-0.682-0.982-0.682C42.049,81.977,41.609,82.281,41.609,82.658z"/>
			<ellipse fill="#E6FBFF" cx="44.255" cy="82.863" rx="0.982" ry="0.678"/>
			<path fill="#E6FBFF" d="M44.042,81.977c0,0.377,0.439,0.682,0.982,0.682c0.542,0,0.982-0.305,0.982-0.682
				c0-0.371-0.441-0.674-0.982-0.674C44.481,81.303,44.042,81.605,44.042,81.977z"/>
			<ellipse fill="#E6FBFF" cx="44.767" cy="80.83" rx="0.981" ry="0.678"/>
			<ellipse fill="#FBB03B" cx="43.573" cy="81.715" rx="0.982" ry="0.68"/>
		</g>
		<g>
			<ellipse fill="#E6FBFF" cx="45.249" cy="76.715" rx="0.459" ry="0.318"/>
			<ellipse fill="#E6FBFF" cx="44.79" cy="77.1" rx="0.459" ry="0.318"/>
			<path fill="#E6FBFF" d="M44.57,77.641c0,0.172,0.206,0.314,0.46,0.314c0.252,0,0.458-0.143,0.458-0.314
				c0-0.178-0.206-0.32-0.458-0.32C44.776,77.32,44.57,77.463,44.57,77.641z"/>
			<ellipse fill="#E6FBFF" cx="45.809" cy="77.734" rx="0.46" ry="0.318"/>
			<path fill="#E6FBFF" d="M45.708,77.32c0,0.176,0.206,0.32,0.46,0.32s0.46-0.145,0.46-0.32c0-0.174-0.206-0.316-0.46-0.316
				S45.708,77.146,45.708,77.32z"/>
			<ellipse fill="#E6FBFF" cx="46.048" cy="76.783" rx="0.459" ry="0.316"/>
			<ellipse fill="#FBB03B" cx="45.49" cy="77.197" rx="0.459" ry="0.318"/>
		</g>
		<g>
			<ellipse fill="#E6FBFF" cx="32.703" cy="73.771" rx="0.468" ry="0.322"/>
			<ellipse fill="#E6FBFF" cx="32.235" cy="74.164" rx="0.469" ry="0.322"/>
			<ellipse fill="#E6FBFF" cx="32.479" cy="74.711" rx="0.468" ry="0.322"/>
			<ellipse fill="#E6FBFF" cx="33.272" cy="74.809" rx="0.468" ry="0.324"/>
			<ellipse fill="#E6FBFF" cx="33.639" cy="74.389" rx="0.469" ry="0.322"/>
			<path fill="#E6FBFF" d="M33.049,73.84c0,0.18,0.21,0.324,0.467,0.324c0.259,0,0.468-0.145,0.468-0.324
				c0-0.176-0.209-0.322-0.468-0.322C33.259,73.518,33.049,73.664,33.049,73.84z"/>
			<ellipse fill="#FBB03B" cx="32.947" cy="74.262" rx="0.468" ry="0.324"/>
		</g>
		<g>
			<ellipse fill="#E6FBFF" cx="36.364" cy="75.457" rx="0.462" ry="0.32"/>
			<ellipse fill="#E6FBFF" cx="35.901" cy="75.846" rx="0.463" ry="0.32"/>
			<ellipse fill="#E6FBFF" cx="36.143" cy="76.389" rx="0.462" ry="0.318"/>
			<path fill="#E6FBFF" d="M36.465,76.484c0,0.18,0.207,0.32,0.461,0.32c0.255,0,0.465-0.141,0.465-0.32
				c0-0.176-0.209-0.318-0.465-0.318C36.672,76.166,36.465,76.309,36.465,76.484z"/>
			<ellipse fill="#E6FBFF" cx="37.29" cy="76.066" rx="0.463" ry="0.322"/>
			<ellipse fill="#E6FBFF" cx="37.168" cy="75.525" rx="0.463" ry="0.32"/>
			<ellipse fill="#FBB03B" cx="36.605" cy="75.943" rx="0.463" ry="0.32"/>
		</g>
		<g>
			<ellipse fill="#E6FBFF" cx="40.299" cy="71.377" rx="0.463" ry="0.318"/>
			<ellipse fill="#E6FBFF" cx="40.762" cy="71.764" rx="0.463" ry="0.32"/>
			<ellipse fill="#E6FBFF" cx="40.521" cy="72.307" rx="0.462" ry="0.318"/>
			<ellipse fill="#E6FBFF" cx="39.736" cy="72.404" rx="0.463" ry="0.318"/>
			<path fill="#E6FBFF" d="M39.835,71.984c0,0.18-0.207,0.322-0.463,0.322c-0.256,0-0.463-0.143-0.463-0.322
				c0-0.174,0.207-0.316,0.463-0.316C39.628,71.668,39.835,71.811,39.835,71.984z"/>
			<ellipse fill="#E6FBFF" cx="39.494" cy="71.443" rx="0.463" ry="0.32"/>
			<ellipse fill="#FBB03B" cx="40.057" cy="71.861" rx="0.462" ry="0.32"/>
		</g>
	</g>
	<g>
		<ellipse fill="#E6FBFF" cx="24.933" cy="76.498" rx="0.483" ry="0.334"/>
		<ellipse fill="#E6FBFF" cx="24.449" cy="76.902" rx="0.484" ry="0.336"/>
		<ellipse fill="#E6FBFF" cx="24.7" cy="77.471" rx="0.483" ry="0.332"/>
		<ellipse fill="#E6FBFF" cx="25.521" cy="77.57" rx="0.484" ry="0.334"/>
		<ellipse fill="#E6FBFF" cx="25.9" cy="77.135" rx="0.484" ry="0.336"/>
		<ellipse fill="#E6FBFF" cx="25.773" cy="76.568" rx="0.484" ry="0.334"/>
		<ellipse fill="#FBB03B" cx="25.185" cy="77.006" rx="0.483" ry="0.334"/>
	</g>
	<g>
		<ellipse fill="#E6FBFF" cx="25.479" cy="70.83" rx="0.302" ry="0.209"/>
		<ellipse fill="#E6FBFF" cx="25.177" cy="71.084" rx="0.302" ry="0.209"/>
		<ellipse fill="#E6FBFF" cx="25.335" cy="71.438" rx="0.302" ry="0.207"/>
		<ellipse fill="#E6FBFF" cx="25.847" cy="71.5" rx="0.302" ry="0.209"/>
		<ellipse fill="#E6FBFF" cx="26.083" cy="71.229" rx="0.302" ry="0.209"/>
		<ellipse fill="#E6FBFF" cx="26.004" cy="70.875" rx="0.303" ry="0.209"/>
		<ellipse fill="#FBB03B" cx="25.636" cy="71.146" rx="0.302" ry="0.209"/>
	</g>
	<g>
		<polygon fill="#5A6D24" points="84.5,53.064 85.805,51.026 84.368,50.998 		"/>
		<g>
			<polygon fill="#8C6239" points="84.5,49.529 84.5,53.064 84.104,53.161 84.104,49.529 			"/>
			<path fill="#537E3E" d="M82.529,48.375c-0.337-0.138-0.575-0.469-0.575-0.855c0-0.511,0.414-0.924,0.925-0.924
				c0.181,0,0.349,0.053,0.491,0.143c-0.063-0.134-0.1-0.282-0.1-0.441c0-0.57,0.463-1.032,1.032-1.032
				c0.57,0,1.032,0.462,1.032,1.032c0,0.159-0.035,0.308-0.101,0.441c0.144-0.09,0.313-0.143,0.494-0.143
				c0.511,0,0.925,0.413,0.925,0.924c0,0.387-0.238,0.718-0.576,0.855c0.452,0.109,0.788,0.517,0.788,1.002
				c0,0.57-0.463,1.031-1.032,1.031c-0.185,0-0.357-0.05-0.509-0.134c-0.062,0.437-0.395,0.785-0.823,0.869
				c-0.064,0.011-0.131,0.02-0.198,0.02s-0.134-0.009-0.198-0.02c-0.428-0.084-0.762-0.433-0.821-0.869
				c-0.151,0.084-0.324,0.134-0.509,0.134c-0.572,0-1.032-0.461-1.032-1.031C81.742,48.892,82.077,48.485,82.529,48.375z"/>
		</g>
	</g>
	<g>
		<polygon fill="#5A6D24" points="48.351,57.576 49.513,56.025 48.284,56.316 		"/>
		<g>
			<polygon fill="#8C6239" points="48.351,54.229 48.351,57.576 47.976,57.668 47.976,54.229 			"/>
			<path fill="#537E3E" d="M46.484,53.137c-0.32-0.131-0.545-0.444-0.545-0.811c0-0.483,0.392-0.875,0.875-0.875
				c0.171,0,0.332,0.05,0.466,0.136c-0.059-0.127-0.095-0.268-0.095-0.418c0-0.54,0.438-0.978,0.977-0.978
				c0.541,0,0.979,0.438,0.979,0.978c0,0.15-0.034,0.291-0.096,0.418c0.137-0.086,0.295-0.136,0.469-0.136
				c0.483,0,0.875,0.392,0.875,0.875c0,0.366-0.225,0.68-0.547,0.811c0.43,0.103,0.747,0.489,0.747,0.948
				c0,0.54-0.438,0.977-0.978,0.977c-0.174,0-0.338-0.047-0.481-0.127c-0.058,0.413-0.374,0.743-0.779,0.823
				c-0.061,0.012-0.123,0.02-0.188,0.02c-0.063,0-0.127-0.008-0.187-0.02c-0.405-0.08-0.722-0.41-0.778-0.823
				c-0.144,0.08-0.307,0.127-0.481,0.127c-0.541,0-0.978-0.437-0.978-0.977C45.739,53.626,46.056,53.24,46.484,53.137z"/>
		</g>
	</g>
	<g>
		<polygon fill="#76902A" points="36.269,55.953 36.75,55.19 36.143,55.04 		"/>
		<g>
			<polygon fill="#8C6239" points="36.269,53.703 36.269,55.953 36.016,56.014 36.016,53.703 			"/>
			<path fill="#537E3E" d="M35.013,52.968c-0.215-0.088-0.366-0.299-0.366-0.545c0-0.325,0.264-0.588,0.588-0.588
				c0.115,0,0.223,0.033,0.313,0.091c-0.04-0.085-0.064-0.18-0.064-0.281c0-0.363,0.295-0.657,0.657-0.657
				c0.364,0,0.658,0.294,0.658,0.657c0,0.102-0.023,0.196-0.064,0.281c0.092-0.058,0.199-0.091,0.315-0.091
				c0.325,0,0.589,0.263,0.589,0.588c0,0.246-0.152,0.457-0.368,0.545c0.288,0.069,0.502,0.329,0.502,0.638
				c0,0.363-0.295,0.656-0.657,0.656c-0.118,0-0.228-0.031-0.324-0.085c-0.039,0.277-0.251,0.499-0.524,0.554
				c-0.041,0.007-0.083,0.012-0.127,0.012c-0.042,0-0.085-0.005-0.125-0.012c-0.272-0.055-0.485-0.276-0.523-0.554
				c-0.097,0.054-0.206,0.085-0.324,0.085c-0.364,0-0.657-0.293-0.657-0.656C34.512,53.297,34.726,53.038,35.013,52.968z"/>
		</g>
	</g>
	<path fill="#FFE67B" d="M12.905,72.186c12.965-7.51,36.019-4.914,36.214-4.893c-0.37-0.117-0.74-0.236-1.114-0.359
		c-18.147-5.982-32.344-8.168-41.201-8.707c0.089,0.26,0.167,0.52,0.263,0.777C8.092,63.789,10.482,68.342,12.905,72.186z"/>
	<g>
		<defs>
			<path id="SVGID_1_" d="M88.1,35.912C83.047,12.309,58.874-1.011,36.222,7.328C15.144,11.84,2.281,31.602,5.706,51.91
				c0.365,2.164,0.915,4.334,1.66,6.493c0.003,0.008,0.005,0.016,0.008,0.023c0.089,0.26,0.167,0.52,0.263,0.779
				c1.024,4.783,2.845,9.137,5.269,12.98c9.533,15.123,28.551,22.252,46.611,15.604c11.504-2.463,20.555-9.477,25.855-18.635
				c3.109-5.369,4.926-11.475,5.182-17.842C90.756,46.26,89.991,41.047,88.1,35.912z"/>
		</defs>
		<clipPath id="SVGID_2_">
			<use xlink:href="#SVGID_1_"  overflow="visible"/>
		</clipPath>
		<g clip-path="url(#SVGID_2_)">
			<g>
				<path fill="#FFD597" d="M90.489,65.703c-6.969-6.209-14.033-12.302-21.256-18.215c-7.22,5.917-14.281,12.01-21.255,18.215
					c0.6,8.277,1.104,16.549,1.386,24.844c13.248-0.004,26.495-0.002,39.743-0.002C89.379,82.252,89.896,73.98,90.489,65.703z"/>
				<g>
					<defs>
						<path id="SVGID_3_" d="M90.489,65.74c-6.974-6.295-14.029-12.488-21.256-18.492c-7.223,6.008-14.282,12.195-21.252,18.494
							c0.593,8.186,1.095,16.369,1.376,24.572c13.252,0.004,26.503,0,39.755,0C89.388,82.111,89.896,73.928,90.489,65.74z"/>
					</defs>
					<clipPath id="SVGID_4_">
						<use xlink:href="#SVGID_3_"  overflow="visible"/>
					</clipPath>
					<g clip-path="url(#SVGID_4_)">
						<path fill="#BFA071" d="M46.625,90.725c-0.004-0.121-0.005-0.182-0.009-0.303c15.08,0.004,30.159,0.004,45.238,0
							c-0.004,0.121-0.006,0.182-0.01,0.303C76.771,90.729,61.699,90.725,46.625,90.725z"/>
						<path fill="#BFA071" d="M46.549,88.568c-0.005-0.121-0.007-0.182-0.012-0.303c15.132-0.012,30.265-0.012,45.397,0
							c-0.005,0.121-0.006,0.182-0.011,0.303C76.798,88.564,61.673,88.564,46.549,88.568z"/>
						<path fill="#BFA071" d="M46.458,86.412c-0.005-0.119-0.009-0.182-0.015-0.301c15.195-0.008,30.39-0.004,45.585,0
							c-0.006,0.119-0.008,0.182-0.014,0.301C76.829,86.404,61.643,86.404,46.458,86.412z"/>
						<path fill="#BFA071" d="M46.35,84.256c-0.006-0.121-0.008-0.182-0.015-0.303c15.267-0.004,30.534-0.012,45.801,0
							c-0.007,0.121-0.011,0.182-0.017,0.303C76.863,84.24,61.607,84.248,46.35,84.256z"/>
						<path fill="#BFA071" d="M46.231,82.104c-0.007-0.121-0.01-0.186-0.018-0.307c15.348-0.008,30.694-0.016,46.042,0
							c-0.007,0.121-0.011,0.186-0.018,0.307C76.902,82.086,61.567,82.082,46.231,82.104z"/>
						<path fill="#BFA071" d="M46.101,79.945c-0.008-0.121-0.012-0.184-0.02-0.305c15.436-0.012,30.87-0.012,46.306,0
							c-0.008,0.121-0.01,0.184-0.018,0.305C76.947,79.934,61.524,79.93,46.101,79.945z"/>
						<path fill="#BFA071" d="M45.959,77.791c-0.008-0.121-0.013-0.182-0.021-0.303c15.531-0.029,31.062-0.029,46.593,0
							c-0.009,0.121-0.012,0.182-0.02,0.303C76.994,77.77,61.477,77.77,45.959,77.791z"/>
						<path fill="#BFA071" d="M45.808,75.635c-0.009-0.121-0.012-0.18-0.021-0.301c15.632-0.039,31.265-0.049,46.896,0
							c-0.009,0.121-0.013,0.18-0.021,0.301C77.044,75.594,61.426,75.594,45.808,75.635z"/>
						<path fill="#BFA071" d="M45.649,73.48c-0.009-0.121-0.014-0.184-0.023-0.305c15.74-0.047,31.479-0.047,47.22,0
							c-0.01,0.121-0.017,0.184-0.025,0.305C77.096,73.422,61.373,73.432,45.649,73.48z"/>
						<path fill="#BFA071" d="M45.483,71.324c-0.01-0.119-0.015-0.182-0.024-0.301c15.851-0.072,31.701-0.074,47.552,0
							c-0.01,0.121-0.012,0.182-0.021,0.301C77.154,71.258,61.318,71.254,45.483,71.324z"/>
						<path fill="#BFA071" d="M45.308,69.17c-0.01-0.119-0.015-0.182-0.025-0.301c15.968-0.088,31.937-0.088,47.904,0
							c-0.01,0.119-0.016,0.182-0.025,0.303C77.21,69.076,61.258,69.078,45.308,69.17z"/>
						<path fill="#BFA071" d="M45.129,67.014c-0.01-0.121-0.015-0.184-0.025-0.305c16.087-0.111,32.174-0.109,48.262,0
							c-0.01,0.121-0.015,0.184-0.024,0.305C77.271,66.9,61.2,66.896,45.129,67.014z"/>
						<path fill="#BFA071" d="M44.945,64.855c-0.01-0.121-0.015-0.182-0.025-0.303c16.21-0.133,32.42-0.141,48.63,0
							c-0.011,0.121-0.015,0.182-0.025,0.303C77.331,64.73,61.139,64.727,44.945,64.855z"/>
						<path fill="#BFA071" d="M44.759,62.699c-0.011-0.121-0.015-0.184-0.026-0.305c16.335-0.164,32.668-0.176,49.003,0.002
							c-0.011,0.121-0.015,0.182-0.025,0.303C77.393,62.531,61.076,62.531,44.759,62.699z"/>
						<path fill="#BFA071" d="M44.57,60.543c-0.011-0.121-0.016-0.182-0.026-0.303c16.462-0.199,32.922-0.217,49.384,0.002
							c-0.011,0.121-0.017,0.18-0.027,0.301C77.456,60.344,61.014,60.348,44.57,60.543z"/>
						<path fill="#BFA071" d="M44.379,58.385c-0.011-0.121-0.016-0.182-0.027-0.303c16.587-0.262,33.176-0.262,49.764,0
							c-0.011,0.121-0.016,0.182-0.026,0.303C77.519,58.145,60.951,58.141,44.379,58.385z"/>
						<path fill="#BFA071" d="M44.186,56.223c-0.011-0.121-0.015-0.18-0.026-0.301c16.717-0.311,33.435-0.313,50.151,0
							c-0.011,0.121-0.017,0.18-0.027,0.301C77.584,55.926,60.885,55.926,44.186,56.223z"/>
						<path fill="#BFA071" d="M43.995,54.061c-0.011-0.121-0.016-0.183-0.026-0.304c16.845-0.347,33.688-0.358,50.532,0.002
							c-0.011,0.121-0.015,0.18-0.025,0.301C77.647,53.717,60.823,53.714,43.995,54.061z"/>
						<path fill="#BFA071" d="M43.804,51.897c-0.011-0.121-0.016-0.182-0.027-0.303c16.971-0.418,33.945-0.426,50.916,0.002
							c-0.011,0.121-0.016,0.182-0.026,0.303C77.711,51.494,60.759,51.492,43.804,51.897z"/>
						<path fill="#BFA071" d="M43.617,49.737c-0.01-0.121-0.014-0.182-0.024-0.303c17.096-0.49,34.188-0.483,51.284-0.002
							c-0.011,0.121-0.015,0.184-0.025,0.305C77.774,49.255,60.695,49.255,43.617,49.737z"/>
						<path fill="#BFA071" d="M43.437,47.573c-0.01-0.121-0.016-0.184-0.026-0.305c17.217-0.554,34.429-0.549,51.646,0
							c-0.01,0.121-0.014,0.184-0.023,0.305C77.833,47.028,60.637,47.028,43.437,47.573z"/>
					</g>
				</g>
				<path opacity="0.5" fill="#B2B2B2" d="M90.348,67.635c0.061-0.84,0.095-1.26,0.157-2.102
					c-6.977-6.301-14.042-12.491-21.272-18.5c-7.227,6.012-14.29,12.201-21.267,18.5c0.062,0.842,0.092,1.262,0.153,2.102
					c6.921-6.301,13.94-12.478,21.113-18.491C76.409,55.153,83.43,61.332,90.348,67.635z"/>
				<g>
					<g>
						<g>
							<g>
								<path fill="#9FD6ED" d="M74.208,82.496c-2.892-0.002-4.336-0.002-7.227,0c-0.018-3.031-0.034-6.063-0.055-9.094
									c2.961-0.002,4.438,0,7.4,0.002C74.285,76.434,74.244,79.465,74.208,82.496z"/>
								<path fill="#8C4038" d="M65.934,72.523c0.03,3.617,0.063,7.234,0.094,10.852c3.041,0,6.083,0,9.124,0
									c0.049-3.617,0.106-7.234,0.174-10.85C72.195,72.523,69.065,72.521,65.934,72.523z M66.926,73.402
									c2.961-0.002,4.438,0,7.4,0.002c-0.042,3.029-0.083,6.061-0.119,9.092c-2.892-0.002-4.336-0.002-7.227,0
									C66.963,79.465,66.947,76.434,66.926,73.402z"/>
							</g>
							<path opacity="0.3" fill="#F1F1F1" d="M66.943,75.93c2.437,1.686,4.864,3.385,7.283,5.098
								c-0.007,0.588-0.012,0.881-0.019,1.469c-2.892-0.002-4.336-0.002-7.227,0c-0.011-2.037-0.017-3.055-0.029-5.094
								C66.948,76.814,66.947,76.518,66.943,75.93z"/>
						</g>
					</g>
					<g>
						<g>
							<g>
								<path fill="#9FD6ED" d="M82.276,82.498c-2.893,0-4.338-0.002-7.229-0.002c0.041-3.031,0.089-6.063,0.141-9.092
									c2.962,0.002,4.444,0.004,7.415,0.01C82.485,76.441,82.375,79.469,82.276,82.498z"/>
								<path fill="#8C4038" d="M74.218,72.523c-0.06,3.617-0.104,7.234-0.14,10.852c3.044,0,6.087,0,9.131,0.002
									c0.108-3.613,0.251-7.227,0.42-10.838C80.493,72.531,77.355,72.527,74.218,72.523z M75.188,73.404
									c2.962,0.002,4.444,0.004,7.415,0.01c-0.118,3.027-0.228,6.055-0.327,9.084c-2.893,0-4.338-0.002-7.229-0.002
									C75.088,79.465,75.136,76.434,75.188,73.404z"/>
							</g>
							<path opacity="0.3" fill="#F1F1F1" d="M75.145,75.932c2.401,1.686,4.795,3.385,7.178,5.098
								c-0.02,0.588-0.029,0.883-0.047,1.469c-2.893,0-4.338-0.002-7.229-0.002c0.027-2.037,0.041-3.053,0.073-5.092
								C75.13,76.816,75.135,76.52,75.145,75.932z"/>
						</g>
					</g>
					<g>
						<g>
							<path fill="#AA5B4F" d="M54.693,90.105c2.781,0,5.563,0.002,8.345,0.002c-0.065-6.545-0.169-13.086-0.299-19.629
								c-2.926,0.002-5.852,0.008-8.777,0.016C54.279,77.029,54.537,83.564,54.693,90.105z"/>
							<path fill="#8C4038" d="M63.225,70.035c0.123,6.836,0.224,13.674,0.289,20.512c-0.378,0-0.568,0-0.946,0
								c-0.003-0.352-0.003-0.525-0.007-0.877l0,0c-0.072-6.25-0.181-12.5-0.311-18.748c-3.102,0.006-4.654,0.004-7.768,0.012
								c0.284,6.244,0.519,12.488,0.674,18.736c0.002,0,0.003,0,0.005,0c0.008,0.352,0.01,0.525,0.017,0.875
								c-0.38,0-0.571,0-0.951,0c-0.163-6.834-0.441-13.662-0.785-20.49C56.703,70.045,59.964,70.041,63.225,70.035z"/>
						</g>
						<path fill="#914943" d="M55.749,78.631c2.295-0.002,3.44,0,5.731-0.002c-0.053-2.621-0.086-3.936-0.148-6.564
							c-2.335,0.004-3.503,0.004-5.846,0.008C55.599,74.699,55.654,76.012,55.749,78.631z"/>
						<path fill="#914943" d="M56.037,88.479c2.242,0,3.36,0.002,5.603,0.002c-0.033-2.615-0.052-3.924-0.099-6.543
							c-2.272,0.002-3.406,0-5.681,0C55.944,84.557,55.98,85.863,56.037,88.479z"/>
						<path fill="#8C4038" d="M55.541,80.609c0.009,0.24,0.227,0.432,0.489,0.432c0.262,0,0.469-0.195,0.461-0.434
							s-0.228-0.432-0.49-0.432C55.737,80.176,55.533,80.371,55.541,80.609z"/>
					</g>
				</g>
				<path fill="#AA5B4F" d="M69.233,42.575c-8.961,7.539-17.654,15.371-26.209,23.367c1.966-0.018,2.946-0.025,4.902-0.039
					c6.984-6.275,14.064-12.435,21.307-18.415c7.247,5.976,14.32,12.143,21.313,18.415c1.956,0.014,2.936,0.021,4.901,0.039
					C86.887,57.947,78.197,50.113,69.233,42.575z"/>
				<g>
					<path fill="#8C4038" d="M71.88,66.068c-2.634-0.004-3.949-0.002-6.583,0.002c-0.038-2.883-0.057-4.326-0.1-7.232
						c2.7-0.006,4.048-0.006,6.748-0.002C71.917,61.742,71.906,63.184,71.88,66.068z"/>
					<path fill="#9FD6ED" d="M66.108,65.273c1.983-0.002,2.974,0,4.957,0c0.014-2.254,0.022-3.381,0.037-5.645
						c-2.022-0.002-3.034-0.004-5.057,0C66.071,61.893,66.084,63.021,66.108,65.273z"/>
					<path fill="#B2DEF1" d="M71.102,59.629c-2.037,2.262-3.034,3.389-4.994,5.645c1.983-0.002,2.974,0,4.957,0
						C71.079,63.02,71.087,61.893,71.102,59.629z"/>
				</g>
				<g>
					<path fill="#AA5B4F" d="M90.092,91.838c0.01-0.373,0.016-0.559,0.026-0.932c0.013-0.441-0.4-0.799-0.922-0.799
						c-13.309-0.004-26.617-0.004-39.926,0c-0.521,0-0.932,0.359-0.919,0.799c0.011,0.373,0.015,0.559,0.024,0.932
						C62.282,91.838,76.187,91.838,90.092,91.838z"/>
					<path fill="#8C4038" d="M48.368,91.492c0.004,0.139,0.005,0.207,0.009,0.346c13.905,0,27.811,0,41.716,0
						c0.004-0.139,0.006-0.207,0.01-0.346C76.191,91.492,62.279,91.492,48.368,91.492z"/>
				</g>
			</g>
		</g>
	</g>
	<g>
		<polygon opacity="0.5" fill="#B2B2B2" points="69.243,43.035 62.047,48.604 71.939,52.76 67.625,21.361 63.272,27.668 		"/>
		
			<linearGradient id="SVGID_5_" gradientUnits="userSpaceOnUse" x1="-110.4331" y1="187.6191" x2="-57.1138" y2="187.6191" gradientTransform="matrix(1.011 -0.1585 -0.1985 -1.2661 164.3551 260.7314)">
			<stop  offset="0" style="stop-color:#A80C00"/>
			<stop  offset="1" style="stop-color:#FF471F"/>
		</linearGradient>
		<path fill="url(#SVGID_5_)" d="M15.541,41.18c0,0,6.983-15.081,17.316-17.309c15.484-3.339,21.737,9.361,21.737,9.361
			l-9.839,3.824l27.029,14.46l-4.314-31.4l-4.352,6.308C63.118,26.424,34.24-2.356,15.541,41.18z"/>
	</g>
</g>
</svg>
