<?xml version="1.0" encoding="utf-8"?>
<!-- Generator: Adobe Illustrator 19.0.0, SVG Export Plug-In . SVG Version: 6.00 Build 0)  -->
<svg version="1.1" id="Capa_1" xmlns="http://www.w3.org/2000/svg" xmlns:xlink="http://www.w3.org/1999/xlink" x="0px" y="0px"
	 viewBox="0 0 62.4 87.5" style="enable-background:new 0 0 62.4 87.5;" xml:space="preserve">
<style type="text/css">
	.st0{fill:#727176;}
</style>
<g id="XMLID_16_">
	<g id="XMLID_17_">
		<path id="XMLID_14_" class="st0" d="M60.2,80.8c-0.1-0.2-0.2-0.4-0.3-0.6c-0.7-1.7-1.5-3.3-2.4-4.9c-1.3-2.5-1-8.3-0.7-10.8
			c0.1-0.7,0.4-2.7,0.6-3.3c0.9-3.5,3.6-8.1,5-13.7c-0.5-0.3-3.1,2.7-4.7,1.4c-3.4-2.6-3.4-6.3-2.8-8.9c1-4.5,2.4-5.8,2.7-9.4
			c-0.2,2.2-8.3-1.7-9.2-2.8c-1.7-2.2-3-5-3.5-7.8c-0.3-1.6,0.4-6.4-0.6-7.8c-0.1-0.1-4.1,2.2-4.7,2.3c-2.7,0.5-5.4-0.6-7.5-2.1
			c-2.8-1.9-5.1-4.3-7.1-7c-0.5-0.7-2.2-4.7-2.9-5c-0.6-0.2-4.3,6.5-7.8,5.5c-4-1.1-7.2-5-10.9-6C5,0.4,7.9,7.5,7.4,13.3
			C7.2,15,6.2,17.2,4.5,18C4.2,18.2,0,19.6,0,19.6s6.6,3.3,6.9,8.3c0.3,5.5-6.2,6.8-6.2,6.8s3.1,5.4,10.3,9.9c3,1.9,4.6,5.5,3.7,9.3
			c-0.6,2.3-2.7,3.2-3,5.2c0,0.3,10.8-1.2,17,6.6c1.2,1.5-2,5-1.8,5.1c0.7,0.5,6-0.8,7-0.8c3.3-0.3,6.6,0.1,9.8,0.9
			c1.8,0.5,5.2,1.2,6.1,3.1c3.6,1,6.4,5.1,6.8,8.6c0.1,1.1-0.2,4.3,1.2,4.7c1.2,0.3,3.8-0.4,4-1.8C61.9,84,60.9,82.2,60.2,80.8z"/>
	</g>
</g>
</svg>
