<?xml version="1.0" encoding="utf-8"?>
<!-- Generator: Adobe Illustrator 16.0.3, SVG Export Plug-In . SVG Version: 6.00 Build 0)  -->
<!DOCTYPE svg PUBLIC "-//W3C//DTD SVG 1.1//EN" "http://www.w3.org/Graphics/SVG/1.1/DTD/svg11.dtd">
<svg version="1.1" id="Capa_1" xmlns="http://www.w3.org/2000/svg" xmlns:xlink="http://www.w3.org/1999/xlink" x="0px" y="0px"
	 width="95.402px" height="93.81px" viewBox="0 0 95.402 93.81" enable-background="new 0 0 95.402 93.81" xml:space="preserve">
<g>
	<g>
		<path fill="#C7F7FF" d="M87.656,23.525c15.088,21.497,7.377,50.596-16.549,62.441C49.095,101,19.57,93.695,7.744,70.285
			C-7.34,48.788,0.371,19.689,24.294,7.842C46.308-7.189,75.832,0.116,87.656,23.525z"/>
		<path fill="#9EF1FF" d="M85.957,25.006c14.521,20.972,7.281,49.229-15.535,60.64c-20.971,14.518-49.23,7.279-60.641-15.537
			C-4.737,49.136,2.503,20.878,25.32,9.469C46.292-5.049,74.548,2.189,85.957,25.006z"/>
		<path fill="#80E2F2" d="M88.101,35.911c8.34,22.651-4.982,46.825-28.584,51.878c-22.65,8.338-46.826-4.982-51.879-28.584
			c-8.336-22.65,4.982-46.825,28.586-51.878C58.875-1.012,83.048,12.308,88.101,35.911z"/>
		<g>
			<ellipse fill="#E6FBFF" cx="41.124" cy="62.716" rx="0.249" ry="0.172"/>
			<ellipse fill="#E6FBFF" cx="40.874" cy="62.925" rx="0.249" ry="0.174"/>
			<ellipse fill="#E6FBFF" cx="41.003" cy="63.218" rx="0.25" ry="0.172"/>
			<ellipse fill="#E6FBFF" cx="41.427" cy="63.269" rx="0.25" ry="0.174"/>
			<ellipse fill="#E6FBFF" cx="41.623" cy="63.044" rx="0.25" ry="0.174"/>
			<ellipse fill="#E6FBFF" cx="41.557" cy="62.753" rx="0.249" ry="0.172"/>
			<ellipse fill="#FBB03B" cx="41.253" cy="62.978" rx="0.25" ry="0.174"/>
		</g>
		<g>
			<g>
				<g>
					<polygon fill="#E39A37" points="38.468,66.417 35.613,66.134 35.58,62.623 38.437,62.597 					"/>
					<polygon fill="#E39A37" points="56.042,66.269 53.185,66.019 53.152,62.472 56.009,62.449 					"/>
				</g>
				<polygon fill="#AA7429" points="35.58,64.462 38.449,64.462 35.599,64.957 				"/>
				<polygon fill="#AA7429" points="56.033,64.236 53.162,64.236 53.162,64.738 				"/>
			</g>
			<g>
				<polygon fill="#F8BE34" points="58.49,64.261 32.835,64.486 30.386,45.056 61.042,46.389 				"/>
				<polygon fill="#AA7429" points="30.386,45.438 30.539,46.263 61.017,46.574 				"/>
				<polygon fill="#E39A37" points="61.972,46.609 62.246,44.683 29.152,43.244 29.423,45.402 				"/>
			</g>
		</g>
		<circle fill="#F9D212" cx="53.515" cy="26.961" r="13.337"/>
		<path fill="#B1F4FF" d="M38.355,56.408h-1.121c0.4-0.641,0.646-1.356,0.646-2.131c0-2.545-2.436-4.609-5.441-4.609
			c-1.33,0-2.531,0.42-3.479,1.09c0.047-0.395,0.072-0.799,0.072-1.205c0-6.792-6.498-12.295-14.518-12.295
			c-3.404,0-6.527,0.994-9.004,2.654C4.623,46.147,5.23,52.739,7.619,59.208c0.443,2.055,1.039,4.025,1.758,5.916h32.445
			c0.83-0.924,1.348-2.178,1.348-3.564C43.169,58.714,41.013,56.408,38.355,56.408z"/>
		<path fill="#B1F4FF" d="M88.3,35.921c-0.316-1.466-0.705-2.891-1.164-4.274c-2.74,1.731-4.914,4.071-6.217,6.796
			c-1.908-0.684-4.002-1.064-6.205-1.064c-3.01,0-5.814,0.724-8.215,1.956c0.822,1.188,1.297,2.571,1.297,4.045
			c0,1.354-0.428,2.606-1.131,3.727h1.959c4.646,0,8.416,4.031,8.416,9.006c0,4.98-3.77,9.012-8.416,9.012H54.238
			c1.072,0.941,2.443,1.506,3.939,1.506h28.744C91.365,57.474,92.214,46.531,88.3,35.921z"/>
		<path fill="#9EF1FF" d="M68.625,47.106h-1.959c0.703-1.121,1.131-2.373,1.131-3.727c0-1.474-0.475-2.856-1.297-4.045
			c-1.646-2.398-4.705-4.015-8.217-4.015c-2.326,0-4.426,0.737-6.08,1.906c0.082-0.69,0.129-1.396,0.129-2.106
			c0-2.524-0.52-4.942-1.461-7.191c-1.105-2.638-2.803-5.037-4.953-7.088c-4.65-4.424-11.422-7.216-18.969-7.216
			c-2.109,0-4.156,0.226-6.113,0.637C12.466,20.445,6.972,29.7,5.511,39.911c2.477-1.66,5.6-2.654,9.004-2.654
			c8.02,0,14.518,5.503,14.518,12.295c0,0.406-0.025,0.811-0.072,1.205c0.947-0.67,2.148-1.09,3.479-1.09
			c3.006,0,5.441,2.064,5.441,4.609c0,0.775-0.246,1.491-0.646,2.131h1.121c2.658,0,4.814,2.307,4.814,5.152
			c0,1.387-0.518,2.641-1.348,3.564h12.416h14.387c4.646,0,8.416-4.031,8.416-9.012C77.041,51.138,73.271,47.106,68.625,47.106z"/>
		<path fill="#E6FBFF" d="M77.949,27.169h-0.423c0.151-0.241,0.243-0.513,0.243-0.804c0-0.96-0.917-1.737-2.051-1.737
			c-0.502,0-0.953,0.159-1.31,0.411c0.017-0.149,0.027-0.302,0.027-0.454c0-2.561-2.451-4.634-5.473-4.634
			c-2.295,0-4.259,1.197-5.07,2.896c-0.556-0.198-1.164-0.311-1.806-0.311c-2.188,0-4.015,1.287-4.495,3.016
			c-0.08,0.291-0.129,0.593-0.129,0.901c0,0.245,0.028,0.483,0.082,0.716h-0.273c-1.002,0-1.814,0.869-1.814,1.94
			c0,1.073,0.813,1.943,1.814,1.943h4.165h16.512c1.002,0,1.813-0.87,1.813-1.943C79.761,28.039,78.951,27.169,77.949,27.169z"/>
		<g>
			<path fill="#789130" d="M90.761,52.12c-4.359,1.441-8.654,3.072-12.85,4.924c-4.498,1.996-8.883,4.232-13.129,6.707
				c-3.406,1.994-7.326,4.611-10.521,6.918l1.293,0.334c0.506,0.131,1.768,0.457,1.768,0.457l1.775,0.518l3.549,1.049l3.512,1.152
				c1.174,0.371,2.334,0.787,3.49,1.209s2.322,0.82,3.475,1.262c1.572,0.596,3.135,1.219,4.693,1.852
				C85.392,71.781,90.078,62.324,90.761,52.12z"/>
		</g>
		<g>
			<g>
				<ellipse fill="#E6FBFF" cx="87.197" cy="57.013" rx="0.25" ry="0.172"/>
				<ellipse fill="#E6FBFF" cx="86.947" cy="57.222" rx="0.25" ry="0.174"/>
				<ellipse fill="#E6FBFF" cx="87.078" cy="57.515" rx="0.25" ry="0.172"/>
				<ellipse fill="#E6FBFF" cx="87.501" cy="57.566" rx="0.25" ry="0.174"/>
				<ellipse fill="#E6FBFF" cx="87.697" cy="57.341" rx="0.25" ry="0.174"/>
				<ellipse fill="#E6FBFF" cx="87.63" cy="57.05" rx="0.25" ry="0.172"/>
				<ellipse fill="#FBB03B" cx="87.327" cy="57.275" rx="0.249" ry="0.174"/>
			</g>
			<g>
				<ellipse fill="#E6FBFF" cx="72.85" cy="60.978" rx="0.249" ry="0.172"/>
				<ellipse fill="#E6FBFF" cx="72.6" cy="61.187" rx="0.249" ry="0.174"/>
				<ellipse fill="#E6FBFF" cx="72.73" cy="61.48" rx="0.25" ry="0.172"/>
				<ellipse fill="#E6FBFF" cx="73.154" cy="61.531" rx="0.25" ry="0.174"/>
				<ellipse fill="#E6FBFF" cx="73.349" cy="61.306" rx="0.25" ry="0.174"/>
				<ellipse fill="#E6FBFF" cx="73.284" cy="61.015" rx="0.249" ry="0.172"/>
				<ellipse fill="#FBB03B" cx="72.98" cy="61.24" rx="0.25" ry="0.174"/>
			</g>
			<g>
				<ellipse fill="#E6FBFF" cx="80.491" cy="61.146" rx="0.302" ry="0.209"/>
				<ellipse fill="#E6FBFF" cx="80.188" cy="61.4" rx="0.302" ry="0.209"/>
				<ellipse fill="#E6FBFF" cx="80.346" cy="61.753" rx="0.302" ry="0.207"/>
				<ellipse fill="#E6FBFF" cx="80.858" cy="61.816" rx="0.302" ry="0.209"/>
				<ellipse fill="#E6FBFF" cx="81.094" cy="61.544" rx="0.302" ry="0.209"/>
				<ellipse fill="#E6FBFF" cx="81.015" cy="61.191" rx="0.303" ry="0.209"/>
				<ellipse fill="#FBB03B" cx="80.647" cy="61.462" rx="0.302" ry="0.209"/>
			</g>
			<g>
				<ellipse fill="#E6FBFF" cx="69.883" cy="66.574" rx="0.427" ry="0.293"/>
				<ellipse fill="#E6FBFF" cx="69.458" cy="66.931" rx="0.427" ry="0.295"/>
				<ellipse fill="#E6FBFF" cx="69.68" cy="67.431" rx="0.427" ry="0.293"/>
				<ellipse fill="#E6FBFF" cx="70.403" cy="67.519" rx="0.427" ry="0.295"/>
				<ellipse fill="#E6FBFF" cx="70.737" cy="67.134" rx="0.427" ry="0.297"/>
				<ellipse fill="#E6FBFF" cx="70.625" cy="66.636" rx="0.427" ry="0.295"/>
				<ellipse fill="#FBB03B" cx="70.106" cy="67.021" rx="0.427" ry="0.295"/>
			</g>
			<g>
				<ellipse fill="#E6FBFF" cx="76.924" cy="64.904" rx="0.368" ry="0.254"/>
				<ellipse fill="#E6FBFF" cx="77.292" cy="65.212" rx="0.368" ry="0.254"/>
				<ellipse fill="#E6FBFF" cx="77.1" cy="65.642" rx="0.368" ry="0.254"/>
				<ellipse fill="#E6FBFF" cx="76.477" cy="65.72" rx="0.368" ry="0.254"/>
				<ellipse fill="#E6FBFF" cx="76.188" cy="65.388" rx="0.368" ry="0.254"/>
				<ellipse fill="#E6FBFF" cx="76.285" cy="64.957" rx="0.367" ry="0.256"/>
				<ellipse fill="#FBB03B" cx="76.733" cy="65.289" rx="0.368" ry="0.254"/>
			</g>
			<g>
				<ellipse fill="#E6FBFF" cx="82.831" cy="64.626" rx="0.368" ry="0.254"/>
				<ellipse fill="#E6FBFF" cx="83.198" cy="64.935" rx="0.368" ry="0.256"/>
				<ellipse fill="#E6FBFF" cx="83.006" cy="65.367" rx="0.368" ry="0.252"/>
				<ellipse fill="#E6FBFF" cx="82.383" cy="65.443" rx="0.368" ry="0.254"/>
				<ellipse fill="#E6FBFF" cx="82.094" cy="65.111" rx="0.368" ry="0.256"/>
				<ellipse fill="#E6FBFF" cx="82.191" cy="64.681" rx="0.367" ry="0.254"/>
				<ellipse fill="#FBB03B" cx="82.639" cy="65.013" rx="0.368" ry="0.254"/>
			</g>
		</g>
		<polygon fill="#5A6D24" points="75.82,62.337 78.092,57.687 75.592,57.568 		"/>
		<g>
			<polygon fill="#8C6239" points="75.82,56.566 75.82,62.337 75.173,62.496 75.173,56.566 			"/>
			<path fill="#537E3E" d="M72.601,54.685c-0.551-0.227-0.939-0.766-0.939-1.396c0-0.834,0.676-1.51,1.51-1.51
				c0.295,0,0.57,0.086,0.803,0.232c-0.102-0.219-0.164-0.461-0.164-0.719c0-0.932,0.756-1.686,1.686-1.686
				c0.932,0,1.686,0.754,1.686,1.686c0,0.258-0.059,0.5-0.164,0.719c0.234-0.146,0.51-0.232,0.807-0.232
				c0.834,0,1.51,0.676,1.51,1.51c0,0.631-0.389,1.17-0.941,1.396c0.738,0.178,1.287,0.842,1.287,1.635
				c0,0.93-0.756,1.684-1.686,1.684c-0.301,0-0.584-0.08-0.83-0.219c-0.1,0.713-0.645,1.281-1.344,1.418
				c-0.105,0.02-0.213,0.033-0.324,0.033c-0.109,0-0.219-0.014-0.322-0.033c-0.699-0.137-1.244-0.705-1.342-1.418
				c-0.248,0.139-0.529,0.219-0.83,0.219c-0.934,0-1.686-0.754-1.686-1.684C71.316,55.527,71.863,54.862,72.601,54.685z"/>
		</g>
		<g>
			<g>
				<path fill="#9DC038" d="M59.501,87.808c10.262-2.197,18.578-8.01,24.018-15.74c-1.34-0.539-2.682-1.068-4.033-1.58
					c-1.15-0.441-2.316-0.84-3.473-1.264c-1.158-0.42-2.318-0.836-3.492-1.207l-3.51-1.154l-3.549-1.049l-1.777-0.516l-1.768-0.457
					l-1.293-0.334l-2.311-0.598l-3.613-0.809l-1.805-0.406l-1.822-0.344l-3.633-0.689l-3.666-0.559l-1.832-0.277l-1.846-0.215
					l-3.703-0.424c-1.229-0.111-2.439-0.17-3.662-0.262l-1.828-0.123l-0.457-0.035l-0.494-0.016l-0.922-0.025
					c-2.467-0.064-4.932-0.186-7.396-0.121l-3.701,0.041l-3.697,0.174l-1.844,0.086l-1.846,0.15L7.88,60.283
					C13.421,83.216,37.195,96.021,59.501,87.808z"/>
			</g>
			<g>
				<ellipse fill="#E6FBFF" cx="21.195" cy="78.082" rx="0.666" ry="0.461"/>
				<ellipse fill="#E6FBFF" cx="20.529" cy="78.64" rx="0.666" ry="0.461"/>
				<ellipse fill="#E6FBFF" cx="20.876" cy="79.421" rx="0.666" ry="0.459"/>
				<ellipse fill="#E6FBFF" cx="22.005" cy="79.56" rx="0.666" ry="0.459"/>
				<path fill="#E6FBFF" d="M21.861,78.958c0,0.256,0.299,0.463,0.666,0.463c0.369,0,0.668-0.207,0.668-0.463
					c0-0.252-0.299-0.457-0.668-0.457C22.16,78.501,21.861,78.707,21.861,78.958z"/>
				<ellipse fill="#E6FBFF" cx="22.353" cy="78.181" rx="0.666" ry="0.459"/>
				<ellipse fill="#FBB03B" cx="21.542" cy="78.781" rx="0.666" ry="0.461"/>
			</g>
			<g>
				<ellipse fill="#E6FBFF" cx="27.19" cy="71.789" rx="0.483" ry="0.334"/>
				<ellipse fill="#E6FBFF" cx="26.707" cy="72.195" rx="0.484" ry="0.334"/>
				<ellipse fill="#E6FBFF" cx="26.958" cy="72.761" rx="0.483" ry="0.334"/>
				<ellipse fill="#E6FBFF" cx="27.779" cy="72.863" rx="0.484" ry="0.334"/>
				<ellipse fill="#E6FBFF" cx="28.158" cy="72.425" rx="0.484" ry="0.336"/>
				<ellipse fill="#E6FBFF" cx="28.031" cy="71.861" rx="0.484" ry="0.334"/>
				<ellipse fill="#FBB03B" cx="27.442" cy="72.296" rx="0.483" ry="0.334"/>
			</g>
			<g>
				<ellipse fill="#E6FBFF" cx="27.737" cy="66.121" rx="0.302" ry="0.209"/>
				<ellipse fill="#E6FBFF" cx="27.434" cy="66.375" rx="0.302" ry="0.209"/>
				<ellipse fill="#E6FBFF" cx="27.592" cy="66.728" rx="0.302" ry="0.209"/>
				<ellipse fill="#E6FBFF" cx="28.104" cy="66.791" rx="0.302" ry="0.209"/>
				<ellipse fill="#E6FBFF" cx="28.34" cy="66.519" rx="0.302" ry="0.209"/>
				<ellipse fill="#E6FBFF" cx="28.261" cy="66.166" rx="0.303" ry="0.209"/>
				<ellipse fill="#FBB03B" cx="27.893" cy="66.439" rx="0.302" ry="0.209"/>
			</g>
			<g>
				<ellipse fill="#E6FBFF" cx="16.276" cy="64.152" rx="0.249" ry="0.172"/>
				<ellipse fill="#E6FBFF" cx="16.026" cy="64.361" rx="0.249" ry="0.174"/>
				<ellipse fill="#E6FBFF" cx="16.156" cy="64.654" rx="0.25" ry="0.172"/>
				<ellipse fill="#E6FBFF" cx="16.58" cy="64.705" rx="0.25" ry="0.174"/>
				<ellipse fill="#E6FBFF" cx="16.775" cy="64.48" rx="0.25" ry="0.174"/>
				<ellipse fill="#E6FBFF" cx="16.709" cy="64.189" rx="0.249" ry="0.172"/>
				<ellipse fill="#FBB03B" cx="16.406" cy="64.414" rx="0.25" ry="0.174"/>
			</g>
			<g>
				<ellipse fill="#E6FBFF" cx="21.046" cy="63.683" rx="0.25" ry="0.174"/>
				<ellipse fill="#E6FBFF" cx="20.796" cy="63.894" rx="0.25" ry="0.172"/>
				<ellipse fill="#E6FBFF" cx="20.927" cy="64.185" rx="0.25" ry="0.172"/>
				<ellipse fill="#E6FBFF" cx="21.351" cy="64.238" rx="0.25" ry="0.172"/>
				<ellipse fill="#E6FBFF" cx="21.546" cy="64.013" rx="0.25" ry="0.172"/>
				<ellipse fill="#E6FBFF" cx="21.48" cy="63.72" rx="0.25" ry="0.174"/>
				<ellipse fill="#FBB03B" cx="21.176" cy="63.947" rx="0.249" ry="0.172"/>
			</g>
			<g>
				<ellipse fill="#E6FBFF" cx="36.691" cy="84.751" rx="0.83" ry="0.572"/>
				<ellipse fill="#E6FBFF" cx="35.86" cy="85.447" rx="0.831" ry="0.574"/>
				<path fill="#E6FBFF" d="M35.462,86.421c0,0.314,0.371,0.57,0.83,0.57s0.83-0.256,0.83-0.57c0-0.318-0.371-0.578-0.83-0.578
					S35.462,86.103,35.462,86.421z"/>
				<ellipse fill="#E6FBFF" cx="37.702" cy="86.593" rx="0.831" ry="0.574"/>
				<path fill="#E6FBFF" d="M37.521,85.843c0,0.32,0.371,0.578,0.83,0.578s0.832-0.258,0.832-0.578c0-0.314-0.373-0.568-0.832-0.568
					S37.521,85.529,37.521,85.843z"/>
				<ellipse fill="#E6FBFF" cx="38.134" cy="84.875" rx="0.83" ry="0.572"/>
				<ellipse fill="#FBB03B" cx="37.124" cy="85.623" rx="0.831" ry="0.574"/>
			</g>
			<g>
				<ellipse fill="#E6FBFF" cx="53.694" cy="83.705" rx="1.267" ry="0.875"/>
				<ellipse fill="#E6FBFF" cx="52.427" cy="84.767" rx="1.268" ry="0.875"/>
				<path fill="#E6FBFF" d="M51.822,86.251c0,0.48,0.566,0.871,1.266,0.871s1.268-0.391,1.268-0.871
					c0-0.486-0.568-0.881-1.268-0.881S51.822,85.765,51.822,86.251z"/>
				<path fill="#E6FBFF" d="M53.968,86.515c0,0.486,0.568,0.875,1.266,0.875c0.699,0,1.27-0.389,1.27-0.875
					c0-0.48-0.57-0.873-1.27-0.873C54.537,85.642,53.968,86.035,53.968,86.515z"/>
				<path fill="#E6FBFF" d="M54.96,85.371c0,0.488,0.566,0.881,1.268,0.881c0.699,0,1.268-0.393,1.268-0.881
					c0-0.479-0.568-0.867-1.268-0.867C55.527,84.503,54.96,84.892,54.96,85.371z"/>
				<path fill="#E6FBFF" d="M54.63,83.892c0,0.486,0.566,0.875,1.266,0.875s1.266-0.389,1.266-0.875c0-0.48-0.566-0.869-1.266-0.869
					S54.63,83.412,54.63,83.892z"/>
				<path fill="#FBB03B" d="M53.087,85.035c0,0.48,0.566,0.875,1.268,0.875c0.697,0,1.268-0.395,1.268-0.875
					c0-0.484-0.57-0.875-1.268-0.875C53.654,84.16,53.087,84.55,53.087,85.035z"/>
			</g>
			<g>
				<ellipse fill="#E6FBFF" cx="73.988" cy="72.816" rx="0.666" ry="0.459"/>
				<ellipse fill="#E6FBFF" cx="74.655" cy="73.375" rx="0.667" ry="0.459"/>
				<ellipse fill="#E6FBFF" cx="74.308" cy="74.154" rx="0.666" ry="0.459"/>
				<ellipse fill="#E6FBFF" cx="73.178" cy="74.292" rx="0.667" ry="0.461"/>
				<ellipse fill="#E6FBFF" cx="72.656" cy="73.693" rx="0.666" ry="0.461"/>
				<ellipse fill="#E6FBFF" cx="72.83" cy="72.914" rx="0.666" ry="0.461"/>
				<ellipse fill="#FBB03B" cx="73.641" cy="73.515" rx="0.667" ry="0.459"/>
			</g>
			<g>
				<ellipse fill="#E6FBFF" cx="54.855" cy="69.517" rx="0.604" ry="0.418"/>
				<ellipse fill="#E6FBFF" cx="55.458" cy="70.023" rx="0.604" ry="0.418"/>
				<ellipse fill="#E6FBFF" cx="55.144" cy="70.73" rx="0.604" ry="0.418"/>
				<ellipse fill="#E6FBFF" cx="54.12" cy="70.857" rx="0.604" ry="0.416"/>
				<ellipse fill="#E6FBFF" cx="53.647" cy="70.312" rx="0.604" ry="0.418"/>
				<ellipse fill="#E6FBFF" cx="53.804" cy="69.607" rx="0.604" ry="0.416"/>
				<ellipse fill="#FBB03B" cx="54.54" cy="70.152" rx="0.604" ry="0.416"/>
			</g>
			<g>
				<ellipse fill="#E6FBFF" cx="65.576" cy="69.488" rx="0.484" ry="0.334"/>
				<ellipse fill="#E6FBFF" cx="66.059" cy="69.892" rx="0.483" ry="0.336"/>
				<ellipse fill="#E6FBFF" cx="65.807" cy="70.46" rx="0.483" ry="0.332"/>
				<ellipse fill="#E6FBFF" cx="64.987" cy="70.56" rx="0.483" ry="0.334"/>
				<ellipse fill="#E6FBFF" cx="64.608" cy="70.125" rx="0.483" ry="0.336"/>
				<ellipse fill="#E6FBFF" cx="64.735" cy="69.558" rx="0.483" ry="0.334"/>
				<ellipse fill="#FBB03B" cx="65.324" cy="69.996" rx="0.484" ry="0.334"/>
			</g>
			<g>
				<polygon fill="#8C6239" points="12.394,43.019 12.394,62.361 10.054,61.83 10.054,43.019 				"/>
				<g>
					<path fill="#537E3E" d="M8.884,52.55c0.377,0.066,0.77,0.115,1.166,0.115c0.4,0,0.791-0.049,1.174-0.115
						c2.521-0.494,4.49-2.551,4.854-5.127c0.889,0.502,1.914,0.795,3,0.795c3.359,0,6.09-2.725,6.09-6.087
						c0-2.861-1.986-5.266-4.65-5.906c1.992-0.815,3.398-2.768,3.398-5.047c0-3.013-2.443-5.451-5.451-5.451
						c-1.076,0-2.072,0.311-2.914,0.84c0.379-0.79,0.592-1.665,0.592-2.601c0-1.541-0.576-2.942-1.518-4.014
						C7.482,28.167,3.958,39.22,5.466,50.546C6.337,51.556,7.525,52.284,8.884,52.55z"/>
				</g>
			</g>
			<polygon fill="#76902A" points="38.42,66.359 42.142,64.427 38.468,64.427 			"/>
			<polygon fill="#76902A" points="55.995,66.208 59.586,64.238 58.535,63.947 55.925,63.947 			"/>
			<g>
				<g>
					<g>
						<polygon fill="#E39A37" points="38.42,66.359 35.565,66.076 35.532,62.564 38.389,62.539 						"/>
						<polygon fill="#E39A37" points="55.995,66.208 53.137,65.96 53.104,62.414 55.961,62.388 						"/>
					</g>
					<polygon fill="#AA7429" points="35.532,64.402 38.401,64.402 35.551,64.898 					"/>
					<polygon fill="#AA7429" points="55.985,64.177 53.114,64.177 53.114,64.677 					"/>
				</g>
				<polygon fill="#F8BE34" points="58.442,64.203 32.788,64.427 30.338,44.997 60.995,46.33 				"/>
				<polygon fill="#F7AF2F" points="32.788,64.427 30.338,44.997 60.995,46.33 				"/>
				<polygon fill="#AA7429" points="30.338,45.378 30.491,46.204 60.969,46.514 				"/>
				<polygon fill="#E39A37" points="61.924,46.549 62.198,44.624 29.104,43.184 29.375,45.342 				"/>
				<g>
					<g>
						<path fill="#AA7429" d="M47.652,56.162c0-1.106-0.896-2-2-2s-2,0.895-2,2v1.488l4,0.506V56.162z"/>
					</g>
					<g>
						<path fill="#AA7429" d="M47.712,56.759c0-1.105-0.896-2-2-2s-2,0.895-2,2v1.488l4,0.506V56.759z"/>
					</g>
					<g>
						<path fill="#80571F" d="M47.652,56.185c0-0.961-0.678-1.762-1.58-1.956c-0.905,0.199-1.586,1.039-1.586,2.043v1.506l3.166,0.4
							V56.185z"/>
					</g>
					<g>
						<polygon fill="#AA7429" points="37.238,58.439 37.323,58.896 54.187,59.068 						"/>
						<polygon fill="#E39A37" points="54.714,59.087 54.866,58.021 36.555,57.226 36.707,58.419 						"/>
					</g>
				</g>
			</g>
			<polygon fill="#76902A" points="12.394,62.361 16.026,59.736 14.758,59.794 13.881,59.835 12.966,59.878 12.394,59.886 			"/>
			<g>
				<ellipse fill="#E6FBFF" cx="56.518" cy="78.583" rx="0.593" ry="0.408"/>
				<ellipse fill="#E6FBFF" cx="55.926" cy="79.08" rx="0.593" ry="0.41"/>
				<ellipse fill="#E6FBFF" cx="56.235" cy="79.775" rx="0.593" ry="0.408"/>
				<ellipse fill="#E6FBFF" cx="57.24" cy="79.898" rx="0.594" ry="0.41"/>
				<path fill="#E6FBFF" d="M57.111,79.363c0,0.229,0.266,0.412,0.594,0.412s0.594-0.184,0.594-0.412
					c0-0.225-0.266-0.406-0.594-0.406S57.111,79.138,57.111,79.363z"/>
				<ellipse fill="#E6FBFF" cx="57.549" cy="78.669" rx="0.593" ry="0.41"/>
				<ellipse fill="#FBB03B" cx="56.829" cy="79.205" rx="0.593" ry="0.41"/>
			</g>
			<g>
				<ellipse fill="#E6FBFF" cx="40.33" cy="74.785" rx="0.604" ry="0.416"/>
				<ellipse fill="#E6FBFF" cx="39.725" cy="75.291" rx="0.604" ry="0.416"/>
				<ellipse fill="#E6FBFF" cx="40.041" cy="75.998" rx="0.604" ry="0.416"/>
				<ellipse fill="#E6FBFF" cx="41.064" cy="76.123" rx="0.604" ry="0.418"/>
				<ellipse fill="#E6FBFF" cx="41.538" cy="75.58" rx="0.604" ry="0.418"/>
				<ellipse fill="#E6FBFF" cx="41.378" cy="74.873" rx="0.604" ry="0.418"/>
				<ellipse fill="#FBB03B" cx="40.644" cy="75.417" rx="0.604" ry="0.418"/>
			</g>
			<g>
				<ellipse fill="#E6FBFF" cx="45.053" cy="76.96" rx="0.597" ry="0.412"/>
				<ellipse fill="#E6FBFF" cx="44.457" cy="77.46" rx="0.598" ry="0.414"/>
				<path fill="#E6FBFF" d="M44.171,78.162c0,0.225,0.266,0.41,0.596,0.41s0.598-0.186,0.598-0.41c0-0.23-0.268-0.416-0.598-0.416
					S44.171,77.931,44.171,78.162z"/>
				<path fill="#E6FBFF" d="M45.183,78.285c0,0.23,0.268,0.412,0.596,0.412c0.33,0,0.6-0.182,0.6-0.412c0-0.227-0.27-0.41-0.6-0.41
					C45.451,77.875,45.183,78.058,45.183,78.285z"/>
				<path fill="#E6FBFF" d="M45.65,77.746c0,0.23,0.268,0.416,0.598,0.416s0.598-0.186,0.598-0.416c0-0.227-0.268-0.41-0.598-0.41
					S45.65,77.519,45.65,77.746z"/>
				<ellipse fill="#E6FBFF" cx="46.091" cy="77.048" rx="0.598" ry="0.412"/>
				<ellipse fill="#FBB03B" cx="45.365" cy="77.587" rx="0.598" ry="0.412"/>
			</g>
			<g>
				<ellipse fill="#E6FBFF" cx="50.13" cy="71.693" rx="0.598" ry="0.412"/>
				<ellipse fill="#E6FBFF" cx="50.728" cy="72.195" rx="0.598" ry="0.412"/>
				<ellipse fill="#E6FBFF" cx="50.417" cy="72.894" rx="0.597" ry="0.41"/>
				<ellipse fill="#E6FBFF" cx="49.404" cy="73.019" rx="0.598" ry="0.412"/>
				<ellipse fill="#E6FBFF" cx="48.935" cy="72.48" rx="0.598" ry="0.414"/>
				<ellipse fill="#E6FBFF" cx="49.092" cy="71.781" rx="0.597" ry="0.414"/>
				<ellipse fill="#FBB03B" cx="49.819" cy="72.32" rx="0.597" ry="0.412"/>
			</g>
		</g>
		<polygon fill="#5A6D24" points="83.763,55.263 84.174,54.468 83.763,54.626 		"/>
		<g>
			<polygon fill="#8C6239" points="83.763,51.69 83.763,55.263 83.271,55.437 83.271,51.69 			"/>
			<path fill="#537E3E" d="M81.316,50.261c-0.418-0.172-0.713-0.582-0.713-1.063c0-0.633,0.514-1.146,1.146-1.146
				c0.225,0,0.434,0.066,0.611,0.178c-0.078-0.166-0.125-0.352-0.125-0.547c0-0.709,0.574-1.282,1.281-1.282
				s1.281,0.573,1.281,1.282c0,0.195-0.045,0.381-0.125,0.547c0.178-0.111,0.387-0.178,0.613-0.178c0.633,0,1.146,0.514,1.146,1.146
				c0,0.48-0.295,0.891-0.715,1.063c0.561,0.135,0.979,0.641,0.979,1.242c0,0.707-0.574,1.281-1.281,1.281
				c-0.229,0-0.443-0.063-0.631-0.168c-0.076,0.543-0.49,0.975-1.021,1.078c-0.08,0.016-0.162,0.025-0.246,0.025
				s-0.166-0.01-0.246-0.025c-0.531-0.104-0.945-0.535-1.02-1.078c-0.188,0.105-0.402,0.168-0.631,0.168
				c-0.709,0-1.281-0.574-1.281-1.281C80.339,50.901,80.755,50.396,81.316,50.261z"/>
		</g>
	</g>
</g>
</svg>
