<?xml version="1.0" encoding="utf-8"?>
<!-- Generator: Adobe Illustrator 16.0.3, SVG Export Plug-In . SVG Version: 6.00 Build 0)  -->
<!DOCTYPE svg PUBLIC "-//W3C//DTD SVG 1.1//EN" "http://www.w3.org/Graphics/SVG/1.1/DTD/svg11.dtd">
<svg version="1.1" id="Layer_1" xmlns="http://www.w3.org/2000/svg" xmlns:xlink="http://www.w3.org/1999/xlink" x="0px" y="0px"
	 width="297.308px" height="292.259px" viewBox="0 0 297.308 292.259" enable-background="new 0 0 297.308 292.259"
	 xml:space="preserve">
<g>
	<path fill-rule="evenodd" clip-rule="evenodd" fill="#CCEBF6" d="M133.065,291.722c-9.66-0.428-19.04-2.423-28.274-5.15
		c-15.866-4.686-30.335-12.145-43.425-22.249c-10.066-7.771-18.973-16.751-26.099-27.263c-8.668-12.786-16.886-25.911-23.506-39.893
		c-5.58-11.785-8.955-24.286-10.624-37.277c-1.026-7.979-1.444-15.979-0.892-23.934C1.336,120.202,4.914,105,11.503,90.528
		c5.623-12.347,12.918-23.506,21.841-33.714c10.599-12.125,23.07-21.796,37.142-29.496c8.293-4.538,16.066-9.992,24.667-13.987
		c12.089-5.615,24.676-9.541,37.868-11.631c9.29-1.473,18.633-2.048,27.968-1.492c15.48,0.922,30.492,4.164,44.845,10.269
		c12.139,5.164,23.381,11.797,33.496,20.228c11.825,9.855,21.893,21.315,29.462,34.762c5.306,9.425,11.613,18.261,16.122,28.158
		c5.646,12.393,9.556,25.212,11.294,38.763c1.024,7.985,1.366,15.977,0.887,23.937c-0.845,14.012-3.905,27.596-9.136,40.689
		c-5.211,13.044-12.395,24.91-21.32,35.656c-10.244,12.333-22.438,22.469-36.391,30.446c-8.124,4.646-16.081,9.602-24.342,13.989
		c-13.839,7.349-28.706,11.71-44.178,13.951c-2.756,0.399-5.559,0.987-8.398,0.665c-1.963,0.719-4.073-0.228-6.031,0.537
		c-3.1,0-6.2,0-9.3,0C136.416,291.511,134.653,292.419,133.065,291.722z"/>
	<path fill-rule="evenodd" clip-rule="evenodd" fill="#DBF1F8" d="M147.298,292.259c1.923-1.161,4.028-0.272,6.031-0.538
		c-0.009,0.18-0.013,0.358-0.014,0.538C151.31,292.259,149.304,292.259,147.298,292.259z"/>
	<path fill-rule="evenodd" clip-rule="evenodd" fill="#E1F3F9" d="M133.065,291.722c1.64,0.217,3.388-0.55,4.934,0.537
		c-1.642,0-3.283,0-4.924,0C133.075,292.08,133.072,291.901,133.065,291.722z"/>
	<path fill-rule="evenodd" clip-rule="evenodd" fill="#AADFF0" d="M147.823,290.121c-24.017,0.155-44.015-5.114-62.787-15.084
		c-9.09-4.828-17.351-10.85-25.055-17.742c-12.087-10.814-21.372-23.653-29.012-37.844c-2.71-5.033-6.1-9.676-8.756-14.771
		c-5.152-9.877-9.091-20.166-11.698-31.004c-2.957-12.29-3.942-24.778-3.166-37.309c0.978-15.781,4.901-30.896,11.543-45.345
		c7.494-16.302,18.162-30.169,31.333-42.165c6.658-6.064,14.014-11.259,21.949-15.572c8.624-4.688,16.591-10.521,25.537-14.648
		c12.608-5.817,25.714-9.848,39.561-11.47c5.876-0.688,11.738-1.125,17.647-1.03c10.93,0.175,21.685,1.676,32.191,4.643
		c13.842,3.908,26.779,9.858,38.569,18.136c12.297,8.633,23.054,18.915,31.509,31.365c8.119,11.956,15.606,24.338,21.944,37.338
		c5.762,11.819,9.205,24.374,11.037,37.427c1.171,8.343,1.378,16.707,0.906,25.029c-0.813,14.313-4.239,28.116-9.748,41.376
		c-4.991,12.017-11.849,22.92-20.145,32.884c-6.766,8.126-14.546,15.245-23.215,21.317c-10.804,7.566-22.257,14.129-33.844,20.353
		c-12.87,6.913-26.75,11.165-41.328,13.037C156.918,289.797,151.06,290.228,147.823,290.121z"/>
	<path fill-rule="evenodd" clip-rule="evenodd" fill="#9EC03C" d="M182.438,199.187c4.466,1.161,8.829,2.751,13.46,3.229
		c5.22,0.424,9.986,2.602,14.984,3.884c1.316,0.338,2.602,0.804,3.917,1.156c0.88,0.29,1.748,0.621,2.632,0.906
		c0.716,0.234,1.42,0.51,2.146,0.719c0.832,0.32,1.771,0.15,2.587,0.555c5.527,2.397,11.35,3.961,16.985,6.052
		c6.407,2.377,12.826,4.716,19.15,7.308c0.83,0.341,1.759,0.562,2.205,1.483c-11.773,16.862-27.12,29.558-45.404,38.783
		c-8.969,4.525-18.462,7.546-28.189,10.054c-7.557,1.949-14.888,4.757-22.632,6.045c-37.49,6.236-71.039-2.552-100.195-26.929
		c-19.886-16.628-32.565-37.971-39.057-63.022c-0.135-0.522-0.174-1.069-0.258-1.604c0.959-0.857,2.076-0.992,3.28-0.719
		c0.788,0.933,1.313,2.04,2.715,2.433c2.809,0.784,2.965,0.794,3.838-1.996c0.199-0.639,0.491-1.148,1.153-1.39
		c3.333-0.581,6.721-0.571,10.066-0.738c11.183-0.557,22.388-1.117,33.579-0.578c5.278,0.254,10.549,0.375,15.826,0.489
		c1.643,0.035,3.271,0.25,4.788,0.959c1.287,0.974,1.353,2.438,1.547,3.856c0.413,3.017,0.585,6.068,1.329,9.028
		c0.466,1.282,1.582,0.901,2.513,0.976c1.762,0.14,3.591-0.339,5.27,0.578c0.329,0.327,0.506,0.731,0.607,1.175
		c0.329,1.151-0.35,2.863,1.113,3.357c1.842,0.622,3.857,0.925,5.824,0.627c0.991-0.149,0.865-1.224,0.959-2.012
		c0.146-1.212-0.171-2.579,1.152-3.401c0.687-0.304,1.413-0.401,2.143-0.388c13.209,0.248,26.397-0.957,39.608-0.572
		c1.001,0.029,2.009,0.012,2.949,0.439c0.478,0.227,0.726,0.638,0.883,1.113c0.472,3.585,2.724,5.143,6.409,4.514
		c1.126-0.192,1.457-0.856,1.55-1.847c0.115-1.226-0.168-2.543,0.779-3.593C177.158,199.061,179.887,199.876,182.438,199.187z"/>
	<path fill-rule="evenodd" clip-rule="evenodd" fill="#8CD5E7" d="M208.026,122.129c-1.271-0.025-1.917-1.023-2.6-1.823
		c-9.898-11.592-28.691-13.339-41.085-5.36c-0.36,0.232-0.804,0.335-1.472,0.604c1.114-9.994-0.823-19.302-4.066-28.412
		c1.216-1.16,2.749-0.772,4.159-0.774c19.577-0.027,39.155-0.017,58.732-0.02c1.184,0,2.372,0.068,3.546-0.118
		c3.26-0.515,5.714-3.214,5.976-6.544c0.253-3.225-1.602-6.211-4.805-7.071c-2.349-0.63-3.482-1.541-3.396-4.247
		c0.132-4.098-3.4-6.557-8.205-6.157c-4.256,0.354-4.256,0.354-5.186-3.773c-1.771-7.863-8.511-13.805-17.035-14.743
		c-5.9-0.649-11.644-0.119-16.804,3.296c-2.082,1.377-3.941,2.965-5.273,5.072c-1.236,1.956-2.851,2.543-5.112,2.134
		c-3.245-0.587-6.525-0.617-9.755,0.233c-4.938,1.299-8.54,4.304-11.071,8.682c-0.387,0.668-0.553,1.612-1.636,1.579
		c-6.156-5.593-12.937-10.271-20.487-13.779c-8.452-3.927-17.297-6.516-26.574-7.575c-5.022-0.573-10.037-0.796-15.111-0.631
		c-5.075,0.165-10.077,0.658-15.129,1.488c4.366-3.538,9.1-6.466,13.999-9.116c10.215-5.522,21.093-9.216,32.333-12.092
		c6.843-1.75,13.482-4.315,20.466-5.58c5.613-1.016,11.292-1.487,16.956-2.113c5.954-0.657,11.824-0.196,17.647,0.282
		c10.958,0.899,21.639,3.455,31.947,7.397c11.726,4.485,22.54,10.629,32.333,18.434c8.612,6.864,16.189,14.802,22.638,23.774
		c7.217,10.041,12.648,20.999,16.805,32.614c0.148,0.415,0.113,0.895,0.164,1.345c-0.341,1.156-1.361,1.687-2.23,2.309
		c-6.181,4.424-11.08,10.003-14.812,16.587c-1.038,1.833-2.155,2.313-4.194,1.723c-13.031-3.773-25.897-3.397-38.536,1.772
		C210.172,121.928,209.19,122.565,208.026,122.129z"/>
	<path fill-rule="evenodd" clip-rule="evenodd" fill="#547E3D" d="M18.164,158.786c-1.449-1.412-1.344-3.342-1.497-5.088
		c-2.932-33.498,6.068-63.36,27.281-89.526c1.563-1.927,2.225-1.597,3.362,0.25c3.484,5.659,3.97,11.555,1.414,18.154
		c5.426-2.704,10.599-3.159,15.808-0.86c3.805,1.679,6.619,4.441,8.402,8.224c3.97,8.422,0.983,16.843-8.076,22.752
		c0.046,0.157,0.057,0.418,0.151,0.452c9.27,3.401,13.639,10.111,13.468,19.898c0.688,0.816,0.434,1.717,0.206,2.598
		c-3.188,12.331-14.383,17.384-25.145,14.249c-2.394-0.697-3.059-0.251-3.818,1.959c-2.395,6.967-7.503,10.976-14.614,12.563
		c-2.31,0.559-4.623,0.817-6.945,0.076C24.332,163.457,20.404,162.601,18.164,158.786z"/>
	<path fill-rule="evenodd" clip-rule="evenodd" fill="#E7F6FC" d="M142.938,64.688c4.454-10.242,13.985-13.064,23.104-11.129
		c1.912,0.406,2.757-0.325,3.732-1.75c8.726-12.756,30.434-12.219,38.531,0.927c1.454,2.36,2.273,4.979,2.396,7.735
		c0.072,1.597,0.295,2.047,2.013,1.402c2.867-1.077,5.772-0.726,8.354,0.962c2.142,1.399,3.308,3.479,2.794,6.075
		c-0.366,1.855,0.384,2.403,2.016,2.767c3.902,0.871,6.051,3.465,6.204,7.208c0.143,3.477-1.959,6.548-5.26,7.854
		c-1.162,0.459-2.33,0.354-3.501,0.355c-21.507,0.022-43.013,0.032-64.52,0.044c-5.366-0.011-10.732-0.01-16.099-0.038
		c-4.484-0.023-7.575-2.443-7.985-6.211c-0.539-4.956,1.414-7.958,5.979-9.186c1.257-0.338,2.271-0.56,1.821-2.469
		C142.189,67.829,142.766,66.211,142.938,64.688z"/>
	<path fill-rule="evenodd" clip-rule="evenodd" fill="#B9E4F2" d="M208.026,122.129c10.338-4.955,21.177-6.528,32.535-5.033
		c3.337,0.439,6.626,0.955,9.776,2.126c1.371,0.51,1.974,0.17,2.701-1.14c4.342-7.822,10.203-14.258,17.888-18.948
		c1.986,0.951,1.699,3.077,2.117,4.656c2.663,10.055,6.363,19.831,8.132,30.127c1.522,8.87,2.053,17.805,1.773,26.791
		c-0.019,0.605-0.343,1.2-0.524,1.8c-0.437,0.933-1.351,1.17-2.199,1.474c-5.575,1.995-11.164,3.952-16.698,6.063
		c-0.833,0.317-1.697,0.743-2.61,0.185c-0.541-0.769-0.54-1.614-0.356-2.485c1.702-1.901,3.013-4.134,6.112-4.359
		c2.513-0.183,3.488-2.896,1.857-4.92c-1.084-1.347-1.198-2.343-0.439-3.875c0.972-1.962,0.196-3.421-2.006-3.763
		c-1.717-0.268-2.521-0.903-2.746-2.669c-0.216-1.69-1.329-2.82-3.167-2.759c-1.678,0.057-2.75,1.111-2.965,2.694
		c-0.231,1.701-0.904,2.465-2.686,2.725c-2.332,0.34-3.053,1.803-1.985,3.956c0.732,1.478,0.489,2.395-0.493,3.63
		c-1.64,2.063-0.756,4.756,1.751,4.957c3.077,0.247,4.424,2.444,6.168,4.32c0.256,1.011,0.252,2.009-0.126,2.991
		c-3.051,2.667-6.984,3.413-10.61,4.823c-0.499,0.194-1.027-0.198-1.42-0.596c-0.23-0.28-0.348-0.653-0.583-0.914
		c-1.882-2.07-3.243-3.898-1.067-6.926c1.353-1.883-0.98-4.861-3.565-4.772c-2.108,0.073-2.903-0.517-3.038-2.657
		c-0.181-2.859-1.719-4.115-4.642-4.29c-0.71-0.042-1.463,0.231-2.096-0.314c-4.108-3.97-8.742-6.989-14.474-8.044
		c-3.235-0.595-6.516,0.037-9.743-0.351c-0.371-0.731,0.118-1.243,0.385-1.78c3.485-7.032,3.222-13.966-0.562-20.791
		C208.069,123.426,207.495,122.913,208.026,122.129z"/>
	<path fill-rule="evenodd" clip-rule="evenodd" fill="#F6AF2F" d="M101.987,199.823c-0.598-4.411-1.196-8.822-1.794-13.234
		c-0.86-0.932-0.992-2.136-1.128-3.296c-0.972-8.298-2.101-16.577-3.077-24.875c-0.12-1.015-0.176-1.989,0.343-2.913
		c-0.471-3.857-0.941-7.715-1.413-11.571c1.154-1.004,2.572-0.78,3.915-0.794c6.831-0.071,13.688-0.309,20.487,0.133
		c13.644,0.884,27.295,0.11,40.932,0.649c2.215,0.699,4.497,0.376,6.75,0.393c5.165,0.039,10.331,0.033,15.494-0.004
		c1.734-0.015,3.479-0.155,5.19,0.267c1.696,1.39,0.054,1.985-0.733,2.551c-3.626,2.604-7.465,4.892-11.219,7.304
		c-8.273,5.317-16.537,10.653-24.858,15.896c-0.92,0.579-1.777,1.294-2.932,1.38c-1.64-0.252-2.655-1.769-4.259-2.095
		c-3.53-0.445-5.789,1.183-6.791,4.626c-0.494,1.696,0.184,3.682-1.282,5.124c-3.764,0.796-7.554,0.544-11.321,0.145
		c-2.352-0.25-4.693-0.253-7.042-0.234c-0.694,0.005-1.561-0.105-1.833,0.785c-0.253,0.823,0.409,1.313,0.932,1.81
		c1.349,1.266,3.022,0.644,4.557,0.769c1.052,0.086,2.117-0.027,3.163,0.191c1.212,0.502,2.585,0.207,3.789,0.75
		c1.031,1.743-0.756,1.997-1.522,2.492c-5.876,3.794-11.719,7.643-17.649,11.354c-1.386,0.868-2.687,1.881-4.146,2.617
		C103.709,200.46,102.72,201.202,101.987,199.823z"/>
	<path fill-rule="evenodd" clip-rule="evenodd" fill="#78913B" d="M261.134,170.109c7.097-2.533,14.193-5.067,21.29-7.601
		c0.609,4.18-0.41,8.232-1.107,12.278c-3.127,18.146-9.939,34.775-20.813,49.691c-12.43-4.751-24.866-9.486-37.527-13.602
		c-0.624-0.203-1.238-0.345-1.341-1.132c-1.75-2.733-2.326-2.883-6.401-1.671c-6.568-1.468-12.982-3.46-19.337-5.657
		c10.519-6.849,21.671-12.545,32.872-18.16c0.881-0.441,2.253-0.434,2.39-1.884c1.519,0.37,2.634,1.315,3.581,2.503
		c0.644,2.648,0.06,5.361,0.459,8.702c0.975-3.281,0.097-6.083,0.781-8.726c1.069-1.809,3.077-2.769,4.143-4.604
		c0.346-0.596,1.118-0.434,1.756-0.437c4.023-0.019,4.718-0.58,5.724-4.552c0.068-0.269,0.212-0.493,0.427-0.669
		c0.847,1.063,1.673,0.162,2.405-0.12c3.014-1.16,5.987-2.424,8.977-3.649C260.31,171.371,260.609,170.466,261.134,170.109z"/>
	<path fill-rule="evenodd" clip-rule="evenodd" fill="#B9E4F2" d="M96.332,155.504c1.293,9.819,2.59,19.639,3.87,29.46
		c0.069,0.532-0.002,1.082-0.009,1.624c-21.677-1.437-43.347-1.093-65.014,0.235c-0.834-0.753-0.868-1.778-0.878-2.774
		c-0.062-5.823-0.054-11.647-0.005-17.472c0.008-0.999,0.046-2.018,0.827-2.802c8.618-2.512,12.327-6.341,15.179-15.671
		c14.766,6.489,26.906-3.182,28.174-15.063c0.925-0.978,0.062-2.308,0.824-3.678c7.909,7.931,11.718,17.282,11.081,28.576
		C92.543,157.055,94.437,156.28,96.332,155.504z"/>
	<path fill-rule="evenodd" clip-rule="evenodd" fill="#F7BE32" d="M147.661,171.408c4.847-3.037,9.718-6.039,14.536-9.12
		c8.266-5.287,16.496-10.629,24.752-15.931c0.542-0.348,1.121-0.614,1.39-1.248c0.631-0.503,1.24-0.516,1.824,0.078
		c-2.4,16.746-4.801,33.491-7.2,50.237c-0.18,1.253-0.351,2.508-0.525,3.762c-0.199,1.264-1.161,1.15-2.066,1.153
		c-1.893,0.007-3.785,0.021-5.677,0.031c-2.65,0.81-5.39-0.305-8.046,0.379c-0.479,0.056-0.912-0.06-1.304-0.337
		c-15.129-0.359-30.243,0.665-45.37,0.501c-2.813,0.58-5.669-0.135-8.487,0.292c-0.31-0.003-0.594-0.09-0.854-0.257
		c-2.221-0.015-4.443-0.002-6.663-0.057c-0.802-0.021-1.912,0.37-1.985-1.069c0.565,0.301,1.049,0.529,1.736,0.078
		c8.128-5.348,16.281-10.656,24.428-15.976c1.052-1.011,2.388-0.736,3.631-0.741c7.278-0.031,14.558-0.013,21.836-0.021
		c1.862,0,3.727,0.048,5.587-0.027c3.417-0.192,6.894,0.348,10.478-0.374c-0.653-1.414-1.563-1.265-2.32-1.263
		c-4.982,0.008-9.928-0.867-14.925-0.604c-1.32,0.069-2.761,0.211-3.788-1.005C148.152,177.083,147.325,174.313,147.661,171.408z"/>
	<path fill-rule="evenodd" clip-rule="evenodd" fill="#E49B37" d="M190.163,145.187c-0.608-0.025-1.217-0.052-1.824-0.078
		c-1.831-0.009-3.662-0.017-5.494-0.025c-4.709-0.556-9.456-0.089-14.17-0.536c-1.017,0-2.032,0-3.049,0
		c-13.259-0.458-26.527-0.52-39.783-0.927c-9.342-0.286-18.68-0.822-28.03-0.955c-1.102-0.016-2.191-0.086-3.088-0.849
		c-1.02-0.293-2.628,0.225-2.988-0.819c-0.608-1.765-1.036-3.708-0.745-5.624c0.189-1.243,1.344-0.67,2.028-0.65
		c6.367,0.184,12.734,0.407,19.097,0.69c5.543,0.247,11.08,0.643,16.623,0.874c19.273,0.804,38.548,1.561,57.822,2.35
		c1.271,0.052,2.589,0.049,3.791,0.399c1.23,0.358,3.608-1.358,3.468,1.821C193.655,144.611,193.335,145.079,190.163,145.187z"/>
	<path fill-rule="evenodd" clip-rule="evenodd" fill="#547E3D" d="M234.303,184.506c-1.43-0.15-2.407-0.966-3.144-2.135
		c-0.729-1.158-1.187-2.256-3.169-1.8c-2.519,0.578-4.606-1.052-5.438-3.476c-0.864-2.52,0.139-4.679,3.17-6.733
		c-1.088-1.198-2.328-2.298-2.382-4.107c-0.078-2.7,1.819-4.76,4.775-4.765c1.382-0.002,1.946-0.235,1.916-1.722
		c-0.043-2.086,1.276-3.498,2.782-4.743c5.043-1.027,7.128,0.474,7.556,5.535c0.065,0.76,0.035,1.161,1,0.98
		c2.414-0.45,4.378,0.318,5.415,2.619c1.148,2.548-0.046,4.545-1.979,6.243c1.628,1.089,3.21,2.05,3.224,4.186
		c0.356,4.33-1.8,6.446-6.161,5.931c-0.78-0.092-1.244-0.331-1.672,0.655c-0.715,1.649-2.153,2.655-3.797,3.344
		C235.698,185.098,235,185.04,234.303,184.506z"/>
	<path fill-rule="evenodd" clip-rule="evenodd" fill="#B9E3F0" d="M18.164,158.786c2.839,2.439,6.031,4.203,9.69,5.075
		c1.112,0.821,1.033,2.055,1.042,3.212c0.047,5.696,0.057,11.394-0.007,17.09c-0.013,1.139,0.129,2.403-1.087,3.161
		c-0.942,0.597-2.021,0.329-3.034,0.481c-2.405-8.525-5.436-16.884-6.843-25.678C17.741,160.971,17.25,159.843,18.164,158.786z"/>
	<path fill-rule="evenodd" clip-rule="evenodd" fill="#AB762B" d="M94.724,141.817c9.2-0.374,18.374,0.479,27.562,0.672
		c9.077,0.19,18.157,0.705,27.234,1.069c5.453,0.22,10.904,0.345,16.356,0.483c0.196,0.34,0.113,0.585-0.25,0.734
		c-1.738-0.048-3.491,0.287-5.214-0.187c-10.649-0.031-21.309,0.208-31.946-0.168c-11.184-0.396-22.367-0.239-33.548-0.488
		C94.854,143.228,94.789,142.522,94.724,141.817z"/>
	<path fill-rule="evenodd" clip-rule="evenodd" fill="#8D633A" d="M27.802,187.324c0.017-7.821,0.034-15.643,0.051-23.464
		c2.431,0.566,4.853,0.347,7.271-0.085c0.018,7.683,0.037,15.365,0.056,23.048c-0.139,4.463-0.121,4.378-4.617,3.388
		C28.842,189.832,27.628,189.34,27.802,187.324z"/>
	<path fill-rule="evenodd" clip-rule="evenodd" fill="#E7F6FB" d="M172.227,272.211c-0.272-0.019-0.59,0.045-0.807-0.075
		c-2.108-1.161-4.316-0.877-6.61-0.801c-2.426,0.081-3.356-1.346-2.767-3.873c0.279-1.198-0.598-0.872-0.969-1.144
		c-0.833-0.608-1.696-1.228-1.591-2.349c0.113-1.199,1.013-1.899,2.091-2.278c0.748-0.263,1.445-0.31,1.943-1.208
		c1.323-2.385,3.744-3.124,6.164-1.84c1.048,0.556,1.798,0.64,2.959,0.319c3.658-1.009,5.178,0.373,4.717,4.11
		c-0.082,0.667,0.346,0.713,0.637,0.979c1.924,1.753,1.376,3.111-0.67,4.231c-0.541,0.297-1.068,0.474-1.215,1.279
		C175.724,271.682,174.062,272.115,172.227,272.211z"/>
	<path fill-rule="evenodd" clip-rule="evenodd" fill="#E7F5F9" d="M121.132,265.447c2.396,2.105-0.283,3.257-1.177,4.868
		c-0.448,0.807-1.13,1.234-1.98,1.166c-2.026-0.164-4.117-0.184-6.042-0.74c-2.016-0.584-1.342-3.148-2.58-4.558
		c-0.546-0.621,1.444-1.183,1.837-1.848c2.353-3.98,5.824-0.835,8.673-1.463C120.789,262.668,121.834,263.742,121.132,265.447z"/>
	<path fill-rule="evenodd" clip-rule="evenodd" fill="#E49B36" d="M166.417,200.263c2.771-0.86,5.526-0.58,8.277,0.106
		c-0.014,0.82-0.037,1.64-0.038,2.458c-0.001,3.836-0.136,3.96-4.003,3.458c-0.539-0.069-1.06-0.263-1.598-0.345
		c-3.726-0.571-3.727-0.566-3.587-4.473c1.308-0.913,2.819-0.683,4.271-0.788c0.369,0.011-0.086-0.585,0.031-0.239
		c0.008,0.022-0.041,0.058-0.146,0.053C168.553,200.441,167.413,201.347,166.417,200.263z"/>
	<path fill-rule="evenodd" clip-rule="evenodd" fill="#E49B36" d="M111.166,200.83c2.944-0.754,5.88-0.794,8.809,0.084
		c-0.01,1.088-0.164,2.197-0.002,3.26c0.418,2.754-1.074,3.02-3.179,2.622c-0.71-0.134-1.428-0.414-2.129-0.377
		c-4.141,0.219-4.129-0.288-3.92-4.384c1.501-0.587,3.385-0.861,5.597-0.749C114.427,200.695,112.663,202.236,111.166,200.83z"/>
	<path fill-rule="evenodd" clip-rule="evenodd" fill="#E7F5F7" d="M66.818,242.07c0.709,0.491,1.952,0.152,3.2,0.125
		c1.098-0.024,2.582,2.874,2.241,4.125c-0.445,1.637-3.179,3.234-4.843,2.636c-0.76-0.273-1.356-0.136-2.063-0.083
		c-1.041,0.076-2.245-0.221-2.195-1.46c0.052-1.273-2.817-2.806,0.342-3.923C64.466,243.149,64.856,241.515,66.818,242.07z"/>
	<path fill-rule="evenodd" clip-rule="evenodd" fill="#E7F5F8" d="M228.381,225.941c1.558-0.762,3.487-0.715,5.069,1.279
		c0.466,0.587,1.829,1.125,1.072,1.744c-1.249,1.022-0.406,3.756-2.835,3.501c-1.113-0.117-2.076,0.002-3.104,0.33
		c-2.15,0.688-2.663-1.47-3.733-2.434c-1.146-1.031,0.287-2.43,0.381-3.693C225.301,225.733,226.737,225.621,228.381,225.941z"/>
	<path fill-rule="evenodd" clip-rule="evenodd" fill="#E6F4F6" d="M131.168,235.831c0.12-0.259,0.06,0.201-0.178,0.327
		c-1.205,0.645-1.437,2.746-3.318,2.312c-2.146-0.496-4.75-0.209-5.456-3.254c-0.301-1.297,2.178-3.688,3.861-3.507
		c0.615,0.067,1.274,0.521,1.811,0.389C130.669,231.406,130.913,233.363,131.168,235.831z"/>
	<path fill-rule="evenodd" clip-rule="evenodd" fill="#E6F4F6" d="M170.849,215.265c1.072-0.016,4.151,2.407,3.737,2.957
		c-0.971,1.29-0.579,4.129-3.544,3.383c-1.186-0.299-2.385,1.189-3.601,0.086c-1.412-1.281-2.3-2.674-1.574-4.762
		c0.636-1.828,1.963-1.129,3.147-1.207C169.634,215.681,170.238,215.424,170.849,215.265z"/>
	<path fill-rule="evenodd" clip-rule="evenodd" fill="#E7F5F6" d="M140.68,238.586c0.741-0.151,1.257,0.665,2.071,0.36
		c2.938-1.099,2.831,1.583,2.992,2.933c0.171,1.423-1.397,3.38-2.497,3.086c-1.838-0.491-4.951,1.431-5.554-2.324
		c-0.099-0.615-1.434-1.414-0.534-1.942C138.339,240.004,138.888,238.184,140.68,238.586z"/>
	<path fill-rule="evenodd" clip-rule="evenodd" fill="#E6F5F6" d="M153.792,222.444c0.761,0.48,1.266-0.163,1.867-0.238
		c1.215-0.15,4.546,1.921,4.141,2.605c-0.81,1.363-0.468,3.789-3.367,3.572c-1.777-0.133-3.27,0.654-4.913-1.254
		c-1.377-1.598-0.04-2.605-0.111-3.816C151.354,222.407,152.809,222.163,153.792,222.444z"/>
	<path fill-rule="evenodd" clip-rule="evenodd" fill="#E7F5F7" d="M177.76,250.112c-0.997-1.182-3.217,0.548-3.963-1.111
		c-0.412-0.916-1.683-2.237-1.169-2.724c1.131-1.072,1.899-2.954,4.022-2.683c3.555,0.455,5.073,1.513,5.02,3.618
		C181.643,248.263,179.134,250.253,177.76,250.112z"/>
	<path fill-rule="evenodd" clip-rule="evenodd" fill="#E5F3F1" d="M84.529,222.682c2.223,0.273,4.67-0.327,4.611,2.594
		c-0.029,1.442-1.047,2.758-2.67,2.737c-2.02-0.026-4.331-0.404-4.508-2.9C81.865,223.746,83.587,223.07,84.529,222.682z"/>
	<path fill-rule="evenodd" clip-rule="evenodd" fill="#E6F3F2" d="M202.32,220.858c-1.13-0.227-2.243-1.272-2.309-2.563
		c-0.146-2.832,2.229-2.57,4.08-2.72c1.676-0.137,2.796,1.033,3.122,2.336C207.572,219.336,204.915,220.923,202.32,220.858z"/>
	<path fill-rule="evenodd" clip-rule="evenodd" fill="#DEECE3" d="M215.235,208.074c1.192-0.549,1.868-1.648,3.726-1.45
		c2.415,0.257,2.647,1.342,2.677,3.12c-0.746,0.438-1.47,0.477-2.156-0.123c-0.527-1.037-1.305-1.229-2.302-0.681
		C216.524,208.667,215.676,208.828,215.235,208.074z"/>
	<path fill-rule="evenodd" clip-rule="evenodd" fill="#DFEEDF" d="M86.644,208.649c-0.87,0.141-1.858-0.43-1.818-1.696
		c0.031-0.991,0.937-1.702,2.079-1.542c0.948,0.134,2.3-0.234,2.258,1.485C89.128,208.301,88.313,208.708,86.644,208.649z"/>
	<path fill-rule="evenodd" clip-rule="evenodd" fill="#E3E9D6" d="M66.231,200.642c-1.025-0.066-1.998-0.343-1.957-1.467
		c0.032-0.885,0.833-1.309,1.771-1.21c0.885,0.093,1.991,0.017,1.839,1.358C67.787,200.19,67.143,200.693,66.231,200.642z"/>
	<path fill-rule="evenodd" clip-rule="evenodd" fill="#B27A2C" d="M111.166,200.83c0.902,0.021,1.804,0.052,2.706,0.063
		c0.895,0.01,1.791,0.002,2.697,0.16c-1.923,0.496-3.815,1.087-5.824,0.981c-0.037-0.361-0.073-0.724-0.11-1.085
		C110.81,200.904,110.987,200.865,111.166,200.83z"/>
	<path fill-rule="evenodd" clip-rule="evenodd" fill="#B27A2C" d="M166.417,200.263c1.258,0,2.516,0,3.773,0
		c-1.532,0.783-3.068,1.282-4.723,1.204c-0.041-0.352-0.082-0.704-0.123-1.056C165.702,200.363,166.059,200.313,166.417,200.263z"/>
	<path fill-rule="evenodd" clip-rule="evenodd" fill="#E3F1E9" d="M52.613,201.429c-0.492,1.002-1.391,0.643-2.106,0.514
		c-0.925-0.168-1.317-1.007-1.033-1.795c0.446-1.236,1.315-0.809,2.094-0.241c0.197,0.096,0.255,0.245,0.179,0.443
		c-0.174,0.457,0.302,0.228,0.42,0.382C52.426,200.896,52.586,201.121,52.613,201.429z"/>
	<path fill-rule="evenodd" clip-rule="evenodd" fill="#F5B549" d="M217.179,208.94c0.275-1.081,1.106-1.075,1.905-0.856
		c0.89,0.244,0.56,0.945,0.396,1.537C218.714,209.394,217.947,209.167,217.179,208.94z"/>
	<path fill-rule="evenodd" clip-rule="evenodd" fill="#E7F5F7" d="M52.613,201.429c-0.174-0.188-0.348-0.377-0.522-0.565
		c-0.255-0.146-0.574-0.24-0.52-0.639c0.001-0.106,0-0.212-0.003-0.318C52.901,199.738,53.407,200.138,52.613,201.429z"/>
	<path fill-rule="evenodd" clip-rule="evenodd" fill="#547E3D" d="M259.509,167.529c-1.016-0.718-2.361-1.071-2.797-2.435
		c-0.309-0.966-1.012-0.846-1.761-0.758c-1.934,0.229-3.451-0.463-4.195-2.292c-0.721-1.769-0.404-3.472,1.179-4.644
		c0.914-0.677,0.77-0.978,0.177-1.846c-1.925-2.818-0.568-5.568,2.814-5.644c1.252-0.028,1.331-0.285,1.394-1.414
		c0.126-2.28,1.494-3.686,3.815-3.879c2.131-0.178,3.904,1.431,4.079,3.883c0.081,1.131,0.16,1.381,1.402,1.409
		c3.381,0.077,4.738,2.829,2.813,5.646c-0.593,0.868-0.74,1.166,0.174,1.844c1.58,1.172,1.9,2.868,1.185,4.643
		c-0.688,1.706-2.103,2.541-3.921,2.289c-1.188-0.164-1.862,0.104-2.308,1.236c-0.437,1.107-1.695,1.289-2.529,1.96
		C260.523,167.968,260.016,167.968,259.509,167.529z"/>
	<path fill-rule="evenodd" clip-rule="evenodd" fill="#8D673E" d="M259.509,167.529c0.507,0,1.014,0,1.521,0
		c0.035,0.86,0.069,1.721,0.104,2.581c-0.203,0.773,0.388,1.982-0.803,2.205c-1.044,0.195-0.783-0.876-0.92-1.495
		C259.444,169.723,259.476,168.626,259.509,167.529z"/>
	<path fill-rule="evenodd" clip-rule="evenodd" fill="#E49B36" d="M148.856,179.454c0.581,0.801,1.45,0.681,2.245,0.633
		c5.815-0.348,11.583,0.688,17.389,0.571c1.215-0.023,2.404-0.134,2.347,1.728c-0.053,1.688-1.144,1.566-2.252,1.563
		c-3.091-0.01-6.181-0.021-9.271-0.032c-1.886-0.547-3.815-0.121-5.721-0.26c-5.228-0.018-10.456,0.103-15.678-0.266
		c-6.682,0.356-13.327-0.557-19.998-0.561c-0.644-0.001-1.263-0.085-1.775-0.527c-2.192,0.172-1.923-1.751-2-2.823
		c-0.11-1.545,1.417-0.963,2.27-0.988c6.5-0.193,12.967,0.926,19.475,0.522c1.532-0.563,3.125,0.013,4.675-0.258
		C143.325,179.01,146.188,178.086,148.856,179.454z"/>
	<path fill-rule="evenodd" clip-rule="evenodd" fill="#815823" d="M148.856,179.454c-2.883,0.016-5.766,0.03-8.648,0.046
		c-1.888-0.022-2.37-1.161-2.412-2.83c-0.117-4.716,2.389-7.779,6.272-7.557c1.563,0.192,2.507,1.357,3.594,2.295
		C148.774,173.984,148.911,176.705,148.856,179.454z"/>
	<path fill-rule="evenodd" clip-rule="evenodd" fill="#AD772B" d="M144.068,169.113c-4.727,0.158-5.966,5.735-5.469,9.09
		c0.138,0.93,1.199,0.708,1.608,1.297c-1.465,0.053-2.951,0.29-4.322-0.486c-0.146-1.998-0.032-3.98,0.521-5.909
		C137.328,169.899,140.752,168.136,144.068,169.113z"/>
	<path fill-rule="evenodd" clip-rule="evenodd" fill="#B8822C" d="M137.972,182.882c5.273,0.729,10.58,0.43,15.874,0.526
		c0.19,0.109,0.253,0.218,0.188,0.324c-0.064,0.105-0.129,0.158-0.195,0.158c-8.563,0.012-17.125,0.022-25.688,0.034
		c-1.294-0.229-2.695,0.386-3.908-0.491c1.339-1.016,2.814-0.163,4.22-0.272C131.623,182.915,134.813,183.408,137.972,182.882z"/>
	<path fill-rule="evenodd" clip-rule="evenodd" fill="#B27C2B" d="M137.972,182.882c-2.425,1.114-4.98,0.303-7.47,0.479
		c-2.078,0.146-4.171,0.058-6.259,0.073c-2.04,0.002-4.079,0.021-6.118-0.002c-0.846-0.01-1.881,0.222-1.983-1.13
		C123.418,182.496,130.695,182.689,137.972,182.882z"/>
	<path fill-rule="evenodd" clip-rule="evenodd" fill="#D2932D" d="M160.413,144.589c1.817-0.027,3.635-0.055,5.452-0.082
		c0.844-0.569,1.918,0.149,2.749-0.49c4.72,0.671,9.536,0.06,14.23,1.066c-6.616-0.001-13.233,0.007-19.85-0.015
		C162.119,145.066,161.162,145.34,160.413,144.589z"/>
	<path fill-rule="evenodd" clip-rule="evenodd" fill="#8B6639" d="M234.303,184.506c0.699,0.004,1.399,0.008,2.098,0.012
		c0.014,2.731,0.011,5.462,0.051,8.192c0.014,0.937-0.215,1.648-1.271,1.719c-1.543,0.102-0.854-1.131-0.871-1.731
		C234.233,189.969,234.292,187.237,234.303,184.506z"/>
	<path fill-rule="evenodd" clip-rule="evenodd" fill="#E0EBE4" d="M258.379,200.654c0.585,0.267,1.924,0.537,1.865,1.943
		c-0.082,1.964-1.853,1.893-3.19,2.058c-1.416,0.175-2.13-0.894-2.188-2.086C254.761,200.414,256.621,200.852,258.379,200.654z"/>
	<path fill-rule="evenodd" clip-rule="evenodd" fill="#E0EEEB" d="M238.75,205.437c-1.398,0.176-2.122-0.726-2.263-1.963
		c-0.205-1.807,1.112-1.818,2.474-1.978c1.563-0.183,2.76,0.659,2.825,1.768C241.883,204.903,240.483,205.614,238.75,205.437z"/>
	<path fill-rule="evenodd" clip-rule="evenodd" fill="#DCEAE2" d="M251.816,189.963c0.617-0.008,1.737-0.105,1.637,1.432
		c-0.073,1.108-0.542,1.854-1.836,1.85c-1.344-0.005-2.494-0.499-2.452-1.874C249.197,190.32,250.292,189.858,251.816,189.963z"/>
	<path fill-rule="evenodd" clip-rule="evenodd" fill="#DAE8DC" d="M227.352,192.163c-1.058,0.194-1.753-0.539-1.699-1.438
		c0.059-0.975,0.993-1.32,2.01-1.265c0.913,0.05,1.661,0.327,1.619,1.335C229.236,191.876,228.501,192.312,227.352,192.163z"/>
	<path fill-rule="evenodd" clip-rule="evenodd" fill="#D7E6DC" d="M270.745,177.854c0.925-0.834,1.974-0.823,2.902-0.162
		c0.229,0.162,0.127,1.101-0.101,1.539c-0.676,1.306-1.692,0.45-2.592,0.271C270.746,178.97,271.135,178.363,270.745,177.854z"/>
	<path fill-rule="evenodd" clip-rule="evenodd" fill="#DCE8DB" d="M270.745,177.854c1.992,0.305,0.72,1.024,0.21,1.647
		C270.357,179.019,270.02,178.504,270.745,177.854z"/>
	<path fill-rule="evenodd" clip-rule="evenodd" fill="#D09230" d="M153.838,183.891c0.016-0.161,0.018-0.322,0.008-0.483
		c1.819,0.196,3.727-0.545,5.467,0.508C157.489,183.908,155.664,183.899,153.838,183.891z"/>
	<path fill-rule="evenodd" clip-rule="evenodd" fill="#C0842C" d="M168.614,144.017c-0.787,0.89-1.816,0.415-2.749,0.49
		c0.021-0.155,0.024-0.311,0.013-0.467C166.79,144.033,167.702,144.025,168.614,144.017z"/>
	<path fill-rule="evenodd" clip-rule="evenodd" fill="#FBB240" d="M169.412,267.683c-1.839-0.191-3.898-0.571-3.843-2.855
		c0.051-2.065,1.999-2.627,3.811-2.611c1.894,0.018,3.936,0.521,3.886,2.802C173.22,267.103,171.258,267.515,169.412,267.683z"/>
	<path fill-rule="evenodd" clip-rule="evenodd" fill="#FAB345" d="M115.75,264.906c1.212,0.16,2.511,0.451,2.477,1.905
		c-0.034,1.453-1.424,1.8-2.571,1.772c-1.037-0.024-2.291-0.382-2.333-1.746C113.276,265.282,114.577,265.112,115.75,264.906z"/>
	<path fill-rule="evenodd" clip-rule="evenodd" fill="#FAB241" d="M67.108,246.869c-0.862-0.083-1.851-0.262-1.845-1.414
		c0.006-1.154,0.978-1.359,1.931-1.37c0.968-0.01,1.922,0.23,1.907,1.381C69.086,246.584,68.156,246.853,67.108,246.869z"/>
	<path fill-rule="evenodd" clip-rule="evenodd" fill="#FAB344" d="M231.521,229.217c-0.399,1.158-1.349,1.312-2.396,1.217
		c-0.901-0.082-1.702-0.545-1.559-1.494c0.192-1.26,1.303-1.347,2.349-1.247C230.803,227.776,231.47,228.156,231.521,229.217z"/>
	<path fill-rule="evenodd" clip-rule="evenodd" fill="#F8B54A" d="M128.569,235.037c-0.414,0.924-1.132,1.458-2.117,1.266
		c-0.75-0.147-1.725-0.4-1.506-1.506c0.193-0.973,1.05-1.114,1.902-1.087C127.727,233.737,128.417,234.035,128.569,235.037z"/>
	<path fill-rule="evenodd" clip-rule="evenodd" fill="#F8B54A" d="M170.052,220.021c-0.939-0.276-1.887-0.54-1.841-1.489
		c0.057-1.157,1.082-1.289,2.025-1.215c0.861,0.067,1.698,0.381,1.556,1.426C171.657,219.729,170.64,219.703,170.052,220.021z"/>
	<path fill-rule="evenodd" clip-rule="evenodd" fill="#F9B64C" d="M141.208,243.024c-0.757-0.113-1.631-0.333-1.528-1.396
		c0.097-1.01,1.034-1.221,1.844-1.214c0.846,0.006,1.734,0.398,1.627,1.397C143.051,242.739,142.209,243.052,141.208,243.024z"/>
	<path fill-rule="evenodd" clip-rule="evenodd" fill="#F8B64E" d="M155.316,223.965c0.777,0.193,1.751,0.349,1.751,1.322
		c-0.001,1.147-0.99,1.339-1.935,1.317c-0.878-0.021-1.706-0.369-1.616-1.35C153.599,224.354,154.447,224.046,155.316,223.965z"/>
	<path fill-rule="evenodd" clip-rule="evenodd" fill="#FAB344" d="M178.923,246.735c-0.16,0.99-0.874,1.248-1.732,1.258
		c-0.839,0.01-1.745-0.157-1.813-1.139c-0.071-1.043,0.872-1.211,1.684-1.26C177.905,245.544,178.644,245.776,178.923,246.735z"/>
	<path fill-rule="evenodd" clip-rule="evenodd" fill="#F9B64C" d="M87.017,225.366c-0.316,0.773-0.94,0.993-1.702,0.858
		c-0.631-0.111-1.291-0.344-1.079-1.17c0.193-0.755,0.911-0.767,1.528-0.724C86.381,224.373,87.037,224.471,87.017,225.366z"/>
	<path fill-rule="evenodd" clip-rule="evenodd" fill="#F9B447" d="M205.01,218.139c-0.205,0.766-0.801,0.905-1.469,0.892
		c-0.684-0.013-1.365-0.256-1.355-0.999c0.01-0.813,0.795-0.862,1.425-0.865C204.276,217.164,204.856,217.371,205.01,218.139z"/>
	<path fill-rule="evenodd" clip-rule="evenodd" fill="#F7B64B" d="M86.783,207.491c-0.402-0.066-0.684-0.291-0.506-0.697
		c0.081-0.185,0.426-0.339,0.661-0.353c0.357-0.021,0.747,0.109,0.659,0.595C87.518,207.458,87.161,207.526,86.783,207.491z"/>
	<path fill-rule="evenodd" clip-rule="evenodd" fill="#FAB13C" d="M66.154,199.796c-0.267-0.16-0.608-0.249-0.648-0.411
		c-0.108-0.448,0.268-0.598,0.616-0.562c0.185,0.02,0.345,0.27,0.516,0.415C66.487,199.413,66.336,199.586,66.154,199.796z"/>
	<path fill-rule="evenodd" clip-rule="evenodd" fill="#F1BF62" d="M51.571,200.225c0.173,0.213,0.346,0.426,0.52,0.639
		c-0.501,0.208-1.124,0.959-1.443-0.058C50.453,200.184,51.226,200.384,51.571,200.225z"/>
	<path fill-rule="evenodd" clip-rule="evenodd" fill="#F6B345" d="M257.241,203.316c-0.147-0.186-0.523-0.443-0.536-0.719
		c-0.027-0.581,0.466-0.675,0.952-0.647c0.408,0.023,0.759,0.248,0.714,0.64C258.316,203.074,257.923,203.332,257.241,203.316z"/>
	<path fill-rule="evenodd" clip-rule="evenodd" fill="#F4B856" d="M239.026,202.598c0.679,0.082,1.138,0.359,1.132,0.829
		c-0.01,0.722-0.649,0.786-1.208,0.735c-0.488-0.044-0.886-0.285-0.768-0.874C238.291,202.749,238.721,202.624,239.026,202.598z"/>
	<path fill-rule="evenodd" clip-rule="evenodd" fill="#F6B751" d="M252.096,191.586c-0.135,0.403-0.446,0.516-0.832,0.493
		c-0.466-0.027-0.676-0.398-0.506-0.71c0.115-0.21,0.598-0.285,0.919-0.293C251.883,191.072,252.235,191.191,252.096,191.586z"/>
</g>
</svg>
