<?xml version="1.0" encoding="utf-8"?>
<!-- Generator: Adobe Illustrator 16.0.3, SVG Export Plug-In . SVG Version: 6.00 Build 0)  -->
<!DOCTYPE svg PUBLIC "-//W3C//DTD SVG 1.1//EN" "http://www.w3.org/Graphics/SVG/1.1/DTD/svg11.dtd">
<svg version="1.1" id="Layer_1" xmlns="http://www.w3.org/2000/svg" xmlns:xlink="http://www.w3.org/1999/xlink" x="0px" y="0px"
	 width="152.534px" height="149.863px" viewBox="0 0 152.534 149.863" enable-background="new 0 0 152.534 149.863"
	 xml:space="preserve">
<g>
	<path fill-rule="evenodd" clip-rule="evenodd" fill="#CCEBF6" d="M152.162,79.733c-0.31,8.038-2.241,15.714-5.434,23.056
		c-3.621,8.327-8.715,15.687-15.295,21.958c-4.624,4.407-9.73,8.213-15.416,11.146c-3.968,2.048-7.54,4.747-11.602,6.645
		c-7.139,3.336-14.513,5.734-22.374,6.645c-1.266,0.146-2.679-0.104-3.858,0.681c-0.384,0-0.767,0-1.15,0
		c-1.928-0.428-3.883-0.08-5.822-0.202c-0.745-0.047-1.513,0.181-2.234-0.174c-10.577-0.457-20.374-3.601-29.553-8.737
		c-5.639-3.156-10.752-7.067-15.204-11.751c-4.354-4.583-8.034-9.687-11.072-15.254c-1.432-2.623-3.091-5.122-4.596-7.708
		c-4.384-7.528-7.104-15.689-8.077-24.282c-2.002-17.689,2.302-33.802,12.895-48.208c6.668-9.067,15.296-15.665,25.091-21.035
		c5.305-2.908,10.413-6.143,16.144-8.206c5.646-2.033,11.435-3.324,17.41-3.975c3.063-0.333,6.11-0.381,9.157-0.292
		c9.061,0.266,17.72,2.313,26.012,6.021c7.357,3.291,13.893,7.794,19.643,13.365c4.63,4.486,8.52,9.637,11.609,15.317
		c2.345,4.311,5.326,8.242,7.37,12.729c3.053,6.702,5.258,13.625,6.01,20.988c0.136,1.327,0.356,2.642,0.343,3.981
		C152.452,74.872,152.45,77.302,152.162,79.733z"/>
	<path fill-rule="evenodd" clip-rule="evenodd" fill="#E1F3FA" d="M68.978,149.487c2.092-0.002,4.184-0.02,6.276,0.002
		c0.607,0.007,1.286-0.215,1.78,0.374c-2.683,0-5.365,0-8.048,0C68.985,149.738,68.983,149.612,68.978,149.487z"/>
	<path fill-rule="evenodd" clip-rule="evenodd" fill="#ECF8FC" d="M152.162,79.733c-0.001-2.431-0.001-4.861-0.002-7.292
		c0.125,0.003,0.25,0.004,0.374,0.005c0,2.427,0,4.854,0,7.281C152.41,79.728,152.286,79.73,152.162,79.733z"/>
	<path fill-rule="evenodd" clip-rule="evenodd" fill="#AADFF0" d="M149.171,78.395c-0.041,14.946-4.952,28.661-14.682,40.682
		c-5.888,7.272-13.093,12.896-21.292,17.33c-2.796,1.513-5.41,3.368-8.233,4.821c-7.764,3.997-15.986,6.351-24.729,7.174
		c-9.09,0.856-17.875-0.26-26.47-3.085c-8.447-2.776-15.902-7.268-22.635-13.112c-6.555-5.69-11.247-12.685-15.577-20.087
		c-3.45-5.896-6.927-11.737-8.88-18.328c-1.554-5.243-2.539-10.568-2.908-16.066C3.099,67.819,4.786,58.353,8.482,49.25
		c2.743-6.754,6.56-12.89,11.408-18.425c5.796-6.619,12.847-11.436,20.392-15.804c5.582-3.232,11.068-6.54,17.231-8.551
		c4.905-1.6,9.911-2.556,15.066-3.075c12.12-1.221,23.557,1.119,34.425,6.295c5.752,2.739,10.965,6.366,15.668,10.772
		c5.923,5.548,10.524,11.974,14.443,19.042c2.469,4.452,5.335,8.682,7.21,13.448c2.217,5.638,3.83,11.411,4.462,17.481
		C149.047,72.926,148.926,75.394,149.171,78.395z"/>
	<path fill-rule="evenodd" clip-rule="evenodd" fill="#9EC03C" d="M133.389,115.019c-4.318,6.56-10.061,11.67-16.519,16.003
		c-6.363,4.27-13.365,7.06-20.796,8.936c-4.688,1.184-9.242,2.851-14.073,3.504c-17.958,2.427-34.068-1.94-48.174-13.275
		c-10.254-8.24-16.97-18.896-20.646-31.518c-0.481-1.653-0.581-2.702,1.502-2.784c0.396-0.477,0.874-0.448,1.383-0.227
		c0.25,0.211,0.432,0.496,0.42,0.807c-0.064,1.734,1.035,2.242,2.478,2.404c0.949,0.225,1.517-0.466,2.194-0.901
		c1.588-1.021,2.928-2.434,4.788-3.035c1.182-0.318,2.38-0.452,3.599-0.468c6.695-0.084,13.386,0.031,20.072,0.398
		c0.511,0.028,1.02,0.063,1.494,0.272c1.14,0.973,0.91,2.385,1.158,3.646c0.225,1.14,0,2.413,1.006,3.312
		c1.115,0.261,2.314-0.145,3.384,0.438c0.252,0.196,0.389,0.464,0.472,0.762c0.032,1.293,0.758,1.859,1.992,1.943
		c0.682,0.047,1.36,0.042,2.041,0.018c1.733-0.268,2.977-1.547,4.527-2.191c0.633-0.263,1.218-0.639,1.904-0.784
		c5.466-0.235,10.93-0.206,16.393-0.027c0.216,0.044,0.421,0.125,0.61,0.232c0.167,0.117,0.296,0.273,0.384,0.459
		c0.134,1.429,0.829,2.174,2.36,2.019c0.624-0.064,1.258,0.162,1.896,0.07c2.061-0.542,3.637-2.17,5.76-2.565
		c1.809,0.352,3.509,1.217,5.408,1.133c3.398,0.312,6.481,1.855,9.794,2.505c0.358,0.098,0.701,0.239,1.038,0.394
		c0.481,0.234,0.989,0.403,1.503,0.559c0.352,0.111,0.703,0.221,1.059,0.325c5.827,1.85,11.566,3.941,17.259,6.163
		C131.909,113.875,132.962,113.979,133.389,115.019z"/>
	<path fill-rule="evenodd" clip-rule="evenodd" fill="#8CD5E7" d="M106.55,62.492c-1.49-0.426-1.92-2.067-3.243-2.774
		c-0.977-0.522-1.869-1.259-2.893-1.752c1.647-2.506,3.559-4.855,4.581-7.734c0.171-0.482,0.479-0.887,0.985-1.092
		c3.04-0.452,6.098-0.136,9.146-0.198c2.8-0.057,5.603-0.015,8.403-0.012c1.375,0.001,2.612-0.301,3.005-1.797
		c0.4-1.525-0.314-2.582-1.729-3.191c-0.598-0.256-1.043-0.546-1.221-1.301c-0.559-2.363-1.02-2.704-3.584-2.625
		c-1.02,0.031-1.462-0.297-1.727-1.284c-1.3-4.849-5.488-7.275-10.398-6.137c-1.061,0.246-1.994,0.849-3.08,0.993
		c-1.148-0.157-1.418-1.208-1.91-1.974c-6.155-9.571-18.61-11.602-27.203-7.004c-1.809,0.968-3.421,2.211-4.91,3.623
		c-0.545,0.517-0.992,1.188-1.829,1.303c-5.331-3.484-11.057-5.982-17.378-7.029c-5.688-0.942-11.364-1.022-17.042,0.048
		c-0.158,0.03-0.336-0.052-0.71-0.118c1.714-1.681,3.676-2.72,5.591-3.77c5.262-2.885,10.776-5.137,16.614-6.641
		c5.033-1.297,9.937-3.079,15.134-3.74c4.805-0.612,9.582-0.769,14.428-0.322c7.11,0.655,13.842,2.534,20.319,5.447
		c4.899,2.204,9.36,5.108,13.526,8.488c6.47,5.248,11.454,11.711,15.377,19c1.656,3.077,3.009,6.315,3.937,9.706
		c0.102,0.813-0.583,1.069-1.063,1.432c-2.927,2.215-5.411,4.842-7.256,8.015c-0.788,1.355-1.742,1.598-3.18,1.24
		c-6.465-1.612-12.854-1.599-19.075,1.122C107.649,62.637,107.11,62.917,106.55,62.492z"/>
	<path fill-rule="evenodd" clip-rule="evenodd" fill="#547E3D" d="M9.18,81.269c-1.235-3.108-1.044-6.401-0.986-9.611
		c0.252-14.017,4.693-26.6,13.342-37.666c1.934-2.474,2.254-2.418,3.482,0.572c0.994,2.419,0.912,4.842-0.059,7.637
		c2.533-1.162,4.959-1.589,7.441-0.643c2.454,0.936,4.212,2.588,5.167,5.047c1.631,4.2,0.16,7.933-4.479,11.229
		c4.122,1.405,6.372,4.34,7.157,8.482c0.989,2.82-0.19,5.217-1.868,7.221c-2.739,3.272-6.291,4.738-10.603,3.47
		c-1.062-0.312-1.813-0.317-2.254,0.924c-0.998,2.806-3.035,4.667-5.665,5.943c-1.186,0.418-2.404,0.633-3.665,0.585
		C13.434,84.321,10.785,83.941,9.18,81.269z"/>
	<path fill-rule="evenodd" clip-rule="evenodd" fill="#B9E4F2" d="M106.55,62.492c4.759-2.273,9.782-3.035,15.018-2.71
		c2.037,0.126,4.03,0.389,5.962,1.075c1.054,0.374,1.756,0.243,2.407-0.95c2.104-3.851,5.261-6.776,8.804-9.303
		c1.046,0.44,0.856,1.523,1.062,2.307c1.218,4.653,2.899,9.171,3.924,13.88c1.183,5.434,1.265,10.929,1.12,16.446
		c-0.213,0.321-0.445,0.632-0.824,0.765c-3.063,1.071-6.127,2.136-9.195,3.189c-0.364,0.125-0.753,0.122-1.109-0.084
		c-0.301-0.31-0.329-0.692-0.295-1.092c0.57-1.201,1.428-1.997,2.783-2.337c1.561-0.391,1.798-1.02,1.186-2.508
		c-0.072-0.176-0.295-0.377-0.244-0.503c1.12-2.777-1.671-3.588-2.678-5.275c-0.674-1.129-1.782-1.053-2.344,0.143
		c-0.408,0.868-0.87,1.492-1.816,1.772c-0.681,0.201-1.277,0.926-0.848,1.434c1.252,1.479-2.635,4.325,1.412,4.976
		c1.18,0.189,1.886,1.196,2.445,2.226c0.043,0.49,0.093,0.98-0.106,1.453c-1.727,1.471-3.714,2.304-5.984,2.443
		c-0.575-0.425-0.831-1.124-1.357-1.591c-0.678-0.6-0.644-1.224-0.318-2.048c0.717-1.811,0.395-2.395-1.438-2.909
		c-0.634-0.178-1.352-0.291-1.432-1.047c-0.193-1.849-1.363-2.441-2.997-2.549c-0.187-0.013-0.343-0.156-0.475-0.3
		c-3.291-3.613-7.468-4.738-12.397-4.18c0.466-1.335,0.889-2.466,1.254-3.615C109.112,68.31,107.677,65.424,106.55,62.492z"/>
	<path fill-rule="evenodd" clip-rule="evenodd" fill="#F9D214" d="M105.686,49.519c-1.043,3.261-2.596,6.204-5.271,8.446
		c-5.704-2.495-11.239-2.104-16.777,1.155c-0.098-2.213-0.06-4.27-0.3-6.293c-1.132-9.532-6.05-16.82-13.547-22.545
		c-0.298-0.228-0.564-0.498-0.845-0.748c10.016-11.966,27.986-9.996,35.565,3.9c-1.014,2.511-2.133,3.319-4.62,3.138
		c-3.664-0.267-7.19,1.5-7.615,5.743c-0.089,0.886-0.579,1.332-1.348,1.652c-1.331,0.555-2.042,1.545-1.693,3.018
		c0.352,1.488,1.479,1.94,2.892,1.942c3.688,0.005,7.377-0.019,11.065,0.016C104.048,48.952,104.997,48.715,105.686,49.519z"/>
	<path fill-rule="evenodd" clip-rule="evenodd" fill="#F6AF2F" d="M52.892,102.705c-1.487-0.38-0.693-1.712-0.943-2.548
		c-0.444-1.487-0.446-3.106-0.633-4.671c-0.53-0.589-0.763-1.294-0.853-2.069c-0.449-3.898-0.946-7.791-1.453-11.683
		c-0.092-0.704-0.104-1.392,0.341-2.004c-0.214-2.029-0.429-4.059-0.643-6.088c0.656-0.66,1.505-0.704,2.32-0.581
		c4.678,0.706,9.383,0.229,14.074,0.361c4.953,0.14,9.912-0.112,14.867,0.116c2.443,0.582,4.926,0.196,7.389,0.275
		c1.838,0.06,3.68,0.022,5.518,0c1.095-0.015,2.196-0.094,3.272,0.193c1.158,1.079-0.151,1.374-0.657,1.705
		c-3.026,1.982-6.081,3.926-9.129,5.877c-3.474,2.225-6.936,4.469-10.416,6.683c-1.108-0.197-1.827-1.433-3.11-1.161
		c-1.809-0.096-2.305,1.237-2.796,2.574c-0.493,2.325-0.591,2.442-2.987,2.436c-2.144-0.007-4.293,0.155-6.433-0.201
		c-0.804-0.135-1.828-0.259-0.832,1.076c1.02,0.761,2.256,0.191,3.338,0.549c0.726,0.288,1.553,0.155,2.259,0.532
		c0.522,0.503,0.069,0.825-0.271,1.043C61.073,97.703,57.256,100.644,52.892,102.705z"/>
	<path fill-rule="evenodd" clip-rule="evenodd" fill="#78913B" d="M133.825,87.005c3.674-1.257,7.348-2.513,11.021-3.77
		c-0.786,11.688-4.528,22.31-11.457,31.783c-6.568-2.721-13.299-5-20.004-7.351c-0.297-0.628-0.43-1.417-1.381-1.393
		c-0.534,0.064-1.072,0.092-1.59,0.253c-3.441-0.618-6.766-1.636-10.009-2.932c5.257-3.329,10.757-6.216,16.318-8.993
		c0.609-0.305,1.327-0.455,1.767-1.054c0.747-0.168,1.201,0.299,1.656,0.763c0.092,0.158,0.155,0.328,0.201,0.504
		c0.148,0.975,0.03,1.96,0.107,2.937c0.021,0.269-0.209,0.835,0.479,0.672c1.195-1.845,1.906-3.933,3.05-5.792
		c1.272-0.783,2.593-1.513,3.267-2.958c1.901-0.752,3.803-1.504,5.705-2.256c0.257,0.157,0.263,0.428,0.303,0.682
		C133.423,87.723,133.341,87.217,133.825,87.005z"/>
	<path fill-rule="evenodd" clip-rule="evenodd" fill="#B9E4F2" d="M49.352,79.73c0.655,5.252,1.31,10.504,1.964,15.756
		c-6.789-0.201-13.574-0.587-20.369-0.367c-1.9,0.062-3.798,0.193-5.697,0.293c-1.805,0.775-3.618,0.978-5.447,0.076
		c-0.356-0.479-0.472-1.044-0.449-1.611c0.138-3.445-0.49-6.919,0.374-10.337c2.717-1.662,5.012-3.661,5.761-6.965
		c0.295-1.304,1.101-0.405,1.605-0.236c5.335,1.795,10.866-0.86,12.582-6.084c0.42-1.279,0.53-2.603,0.57-3.938
		c3.509,2.751,5.261,6.437,5.746,10.797c0.028,0.253-0.045,0.591,0.091,0.746c0.794,0.901-0.54,2.427,0.506,2.835
		C47.278,80.964,48.415,80.091,49.352,79.73z"/>
	<path fill-rule="evenodd" clip-rule="evenodd" fill="#F7BE32" d="M75.874,88.172c0.917-1.392,2.453-1.976,3.767-2.834
		c5.633-3.678,11.291-7.32,16.939-10.976c0.25-0.202,0.501-0.202,0.754-0.004c-1.25,8.63-2.503,17.261-3.742,25.893
		c-0.081,0.563-0.056,1.144-0.08,1.716c-0.928,1.585-2.476,0.692-3.738,0.94c-1.686-0.116-3.395,0.178-5.064-0.261
		c-5.9,0.044-11.8,0.086-17.7,0.129c-1.796,0.659-3.662,0.539-5.521,0.491c-0.348-0.008-0.697,0.042-1.045,0.008
		c-1.249-0.162-2.582,0.301-3.745-0.502c-1.269-0.022-2.538-0.046-3.807-0.068c3.235-2.567,6.915-4.467,10.279-6.843
		c0.773-0.546,1.577-1.05,2.366-1.573c0.665-0.673,1.528-0.521,2.334-0.525c3.359-0.022,6.718-0.01,10.076-0.012
		c0.707,0.003,1.414,0.008,2.12,0.005c1.117,0.001,2.236,0.021,3.353-0.014c0.934-0.106,1.906,0.21,2.969-0.281
		c-0.648-0.711-1.435-0.509-2.131-0.537c-2.037-0.08-4.087,0.152-6.113-0.203c-0.686-0.119-1.399-0.19-1.978-0.658
		C75.614,90.799,75.398,89.511,75.874,88.172z"/>
	<path fill-rule="evenodd" clip-rule="evenodd" fill="#E49B37" d="M97.334,74.358c-0.252,0.001-0.503,0.003-0.754,0.004
		c-1.154-0.003-2.308-0.007-3.461-0.011c-2.891-0.44-5.82,0.045-8.712-0.375c-0.794,0-1.587,0-2.381,0
		c-0.465-0.002-0.929,0.007-1.392-0.031c-2.977-0.385-5.979-0.25-8.958-0.289c-5.668-0.074-11.335-0.372-17.007-0.262
		c-2.023,0.04-4.021-0.795-6.062-0.179c-0.739-0.903-2.179-1.146-2.017-2.913c0.102-1.11,0.203-1.386,1.278-1.333
		c4.262,0.21,8.528,0.343,12.792,0.531c7.444,0.328,14.887,0.675,22.331,1.016c4.835,0.222,9.672,0.419,14.503,0.705
		c0.577,0.034,1.782-0.566,1.68,0.795C99.091,73.11,99.223,74.592,97.334,74.358z"/>
	<path fill-rule="evenodd" clip-rule="evenodd" fill="#547E3D" d="M119.954,94.296c-0.645,0.06-0.972-0.505-1.464-0.746
		c-0.38-0.773-0.807-1.266-1.865-1.1c-1.171,0.184-2.064-0.447-2.548-1.591c-0.492-1.163-0.197-2.211,0.694-2.935
		c0.696-0.565,0.745-0.756,0.181-1.518c-1.158-1.563-0.266-3.539,1.629-3.638c1.035-0.055,1.455-0.253,1.378-1.325
		c-0.066-0.934,0.733-1.426,1.252-2.051c2.825-0.349,3.453,0.005,3.89,2.665c0.169,1.032,0.748,0.586,1.209,0.641
		c1.93,0.229,2.961,1.963,1.937,3.531c-0.516,0.79-0.791,1.197,0.156,1.792c0.537,0.337,0.691,1.034,0.848,1.652
		c0.069,2.104-1.556,2.537-3.053,3.097c-0.74,0.166-1.106,0.827-1.652,1.249C121.736,94.645,120.906,95.038,119.954,94.296z"/>
	<path fill-rule="evenodd" clip-rule="evenodd" fill="#B9E4F1" d="M9.18,81.269c1.981,1.692,4.225,2.742,6.873,2.801
		c0.089,0.09,0.241,0.169,0.258,0.271c0.614,3.751,0.661,7.502-0.02,11.25c-0.018,0.099-0.179,0.171-0.273,0.255
		c-0.445,0.013-0.891,0.025-1.336,0.038c-1.571,0.181-2.223-0.507-2.72-2.063c-1.232-3.851-2.235-7.738-2.943-11.713
		C8.959,81.774,8.88,81.502,9.18,81.269z"/>
	<path fill-rule="evenodd" clip-rule="evenodd" fill="#AD772B" d="M48.608,73.215c0.862-1.57,2.297-0.697,3.405-0.626
		c1.131,0.072,2.272,0.198,3.416,0.233c8.465,0.263,16.931,0.53,25.396,0.795c0.053,0.687-0.318,0.585-0.736,0.395
		c-10.46-0.149-20.926,0.194-31.38-0.371C48.675,73.5,48.642,73.358,48.608,73.215z"/>
	<path fill-rule="evenodd" clip-rule="evenodd" fill="#7D933B" d="M89.697,102.388c1.268-0.181,2.622,0.435,3.814-0.421
		c0.495,0.165,0.991,0.331,1.486,0.497c-1.751,1.225-3.6,2.264-5.628,2.961C88.535,104.311,88.452,103.278,89.697,102.388z"/>
	<path fill-rule="evenodd" clip-rule="evenodd" fill="#8D643B" d="M16.018,95.845c0.011-3.926,0.022-7.852,0.034-11.776
		c1.226-0.176,2.451-0.353,3.676-0.529c0.037,3.969,0.074,7.938,0.111,11.907c0.141,1.367,0.922,2.845-0.671,3.915
		C16.141,98.864,16.141,98.864,16.018,95.845z"/>
	<path fill-rule="evenodd" clip-rule="evenodd" fill="#E7F5F9" d="M91.115,134.401c-0.432,0.522,0.03,0.746,0.308,1.09
		c0.54,0.666,0.447,1.342-0.303,1.766c-0.581,0.329-0.863,0.769-1.163,1.356c-0.457,0.896-1.769,1.313-2.28,0.761
		c-1.353-1.461-4.687,1.476-4.802-2.268c-0.002-0.062,0.055-0.164,0.033-0.181c-2.963-2.258,0.462-2.827,1.151-4.021
		c0.569-0.985,6.092-0.64,6.856,0.257C91.247,133.548,91.276,133.953,91.115,134.401z"/>
	<path fill-rule="evenodd" clip-rule="evenodd" fill="#E7F5F7" d="M59.288,134.513c0.009,0.002,0.493,0.264,0.852,0.146
		c1.994-0.658,2.075,0.955,2.235,2.037c0.168,1.149-0.892,1.854-1.778,2.344c-0.805,0.444-1.633-0.461-2.566-0.271
		c-1.105,0.225-1.245-0.62-1.486-1.479c-0.131-0.468-0.996-0.973-0.33-1.373C57.08,135.396,57.536,134.077,59.288,134.513z"/>
	<path fill-rule="evenodd" clip-rule="evenodd" fill="#E29C36" d="M89.697,102.388c-0.641,0.955-0.308,2.015-0.327,3.036
		c-1.285,0.315-2.583,0.058-3.83-0.123c-1.245-0.181-0.699-1.367-0.762-2.173c0.477-0.424,1.085-0.063,1.571-0.262
		c-0.52,0.018-1.076,0.184-1.593-0.141c0,0-0.048-0.077-0.048-0.078C86.343,101.994,88.034,102.465,89.697,102.388z"/>
	<path fill-rule="evenodd" clip-rule="evenodd" fill="#78913B" d="M19.168,99.362c0.952-1.181-0.103-2.705,0.672-3.915
		c1.804-0.012,3.607-0.023,5.411-0.035c-1.572,1.558-3.532,2.603-5.251,3.965C19.722,99.596,19.44,99.644,19.168,99.362z"/>
	<path fill-rule="evenodd" clip-rule="evenodd" fill="#E6F4F4" d="M34.205,123.968c1.273,0.141,2.953-0.034,2.68,1.897
		c-0.129,0.917-0.747,1.944-2.213,1.789c-1.44-0.152-2.594-0.498-2.855-2.094C31.715,124.942,33.427,123.837,34.205,123.968z"/>
	<path fill-rule="evenodd" clip-rule="evenodd" fill="#E6F4F3" d="M116.952,119.26c-1.138-0.022-1.726-0.854-1.897-1.741
		c-0.246-1.271,1.062-2.116,2.995-2.047c1.06,0.038,1.747,0.887,2.102,1.642C120.541,117.942,118.515,119.247,116.952,119.26z"/>
	<path fill-rule="evenodd" clip-rule="evenodd" fill="#E39B36" d="M60.514,102.751c0.281,0.007,0.562,0.015,0.843,0.021
		c0.702,1.008,0.652,2.01-0.025,3.006c-0.945-0.036-1.89-0.066-2.833-0.109c-1.396-0.063-2.087-0.694-1.715-2.164
		C57.914,102.696,59.309,103.192,60.514,102.751z"/>
	<path fill-rule="evenodd" clip-rule="evenodd" fill="#E5F2EF" d="M72.891,122.333c1.41-0.489,1.85,0.649,1.726,1.737
		c-0.077,0.669-0.644,1.681-1.813,1.514c-1.24-0.178-2.537-0.313-2.681-1.938C70.063,122.975,71.542,122.26,72.891,122.333z"/>
	<path fill-rule="evenodd" clip-rule="evenodd" fill="#E5F3F2" d="M86.523,113.719c-1.008-0.012-1.643-0.826-1.712-1.604
		c-0.148-1.656,1.156-1.694,2.41-1.775c1.162-0.076,2.116,0.698,2.13,1.421C89.383,113.411,87.895,113.621,86.523,113.719z"/>
	<path fill-rule="evenodd" clip-rule="evenodd" fill="#E4F3F0" d="M65.242,118.832c1.113-0.29,2.045,0.262,1.896,1.674
		c-0.09,0.856-0.713,1.729-1.912,1.615c-1.247-0.119-2.418-0.374-2.69-1.849C62.413,119.602,63.879,118.763,65.242,118.832z"/>
	<path fill-rule="evenodd" clip-rule="evenodd" fill="#E5F3F2" d="M79.969,113.787c0.884,0.104,1.839,0.727,1.83,1.471
		c-0.018,1.657-1.552,1.833-2.792,1.905c-1.091,0.064-1.611-0.808-1.668-1.813C77.223,113.292,78.936,114.151,79.969,113.787z"/>
	<path fill-rule="evenodd" clip-rule="evenodd" fill="#77913B" d="M61.332,105.779c0.008-1.002,0.017-2.004,0.025-3.006
		c1.884,0.001,3.768,0.002,5.652,0.003C65.166,103.871,63.396,105.104,61.332,105.779z"/>
	<path fill-rule="evenodd" clip-rule="evenodd" fill="#E5F4F3" d="M90.991,124.983c1.384-0.488,2.054,0.464,1.944,1.591
		c-0.091,0.94-0.854,1.6-2.179,1.508c-1.393-0.096-2.351-0.652-2.185-1.895C88.681,125.367,89.63,124.446,90.991,124.983z"/>
	<path fill-rule="evenodd" clip-rule="evenodd" fill="#E2F0E7" d="M44.115,114.195c0.802-0.131,1.583,0.022,1.472,1.198
		c-0.086,0.914-0.569,1.519-1.605,1.387c-0.943-0.119-2.096-0.272-1.983-1.466C42.081,114.438,42.938,113.887,44.115,114.195z"/>
	<path fill-rule="evenodd" clip-rule="evenodd" fill="#E2F1E9" d="M104.135,110.447c1.21-0.19,1.922,0.479,1.937,1.233
		c0.022,1.14-0.959,1.414-2.013,1.421c-1.02,0.007-1.564-0.549-1.565-1.428C102.493,110.528,103.34,110.278,104.135,110.447z"/>
	<path fill-rule="evenodd" clip-rule="evenodd" fill="#BE852C" d="M60.514,102.751c-1.179,0.575-2.444,0.72-3.731,0.754
		c-0.028-0.244-0.056-0.488-0.084-0.732C57.97,102.766,59.242,102.758,60.514,102.751z"/>
	<path fill-rule="evenodd" clip-rule="evenodd" fill="#CFE1CA" d="M111.896,105.864c1.533-0.253,1.868,0.481,1.489,1.805
		c-0.303-0.096-0.604-0.191-0.907-0.288c-0.102-0.409-0.582-0.499-0.732-0.868C111.678,106.268,111.696,106.044,111.896,105.864z"/>
	<path fill-rule="evenodd" clip-rule="evenodd" fill="#D9E0B3" d="M26.643,102.602c-0.219,0.301-0.466,0.725-0.931,0.763
		c-0.42,0.034-0.486-0.365-0.409-0.671c0.123-0.487,0.487-0.705,0.996-0.64C26.583,102.09,26.769,102.211,26.643,102.602z"/>
	<path fill-rule="evenodd" clip-rule="evenodd" fill="#E1EBD9" d="M44.859,105.755c0.394,0.001,0.921,0.063,0.686,0.565
		c-0.421,0.898-1.126,0.782-1.812,0.223C43.916,106.004,44.325,105.791,44.859,105.755z"/>
	<path fill-rule="evenodd" clip-rule="evenodd" fill="#E3EFE4" d="M44.859,105.755c-0.375,0.263-0.75,0.525-1.126,0.788
		c-0.335-0.349-0.523-0.677-0.007-1.056C44.236,105.114,44.616,105.095,44.859,105.755z"/>
	<path fill-rule="evenodd" clip-rule="evenodd" fill="#DEEEDE" d="M34.101,101.538c0.479-0.041,0.762,0.27,0.634,0.647
		c-0.221,0.65-0.806,0.654-1.388,0.495C32.775,101.756,33.896,101.949,34.101,101.538z"/>
	<path fill-rule="evenodd" clip-rule="evenodd" fill="#E2F0EA" d="M111.896,105.864c0.006,0.203,0.011,0.406,0.016,0.609
		c-0.087,0.385-0.495,0.266-0.709,0.451c-0.263-0.131-0.525-0.263-0.788-0.395C110.784,106.034,111.22,105.68,111.896,105.864z"/>
	<path fill-rule="evenodd" clip-rule="evenodd" fill="#F1BC5C" d="M111.202,106.924c0.236-0.15,0.473-0.301,0.709-0.451
		c0.482,0.12,0.796,0.345,0.566,0.908C112.053,107.229,111.628,107.077,111.202,106.924z"/>
	<path fill-rule="evenodd" clip-rule="evenodd" fill="#DEE0B6" d="M34.101,101.538c0.31,0.751-1.01,0.427-0.754,1.143
		c-0.503-0.144-0.53-0.524-0.356-0.893C33.229,101.279,33.648,101.259,34.101,101.538z"/>
	<path fill-rule="evenodd" clip-rule="evenodd" fill="#B47C2C" d="M84.757,102.726c0.481,0,0.964,0,1.445,0
		c0.009,0.099,0.018,0.198,0.026,0.297c-0.483,0.035-0.967,0.07-1.45,0.105C84.771,102.995,84.764,102.861,84.757,102.726z"/>
	<path fill-rule="evenodd" clip-rule="evenodd" fill="#E7F6FC" d="M105.686,49.519c-4.457-0.01-8.915-0.019-13.373-0.033
		c-2.26-0.006-3.381-0.748-3.726-2.449c-0.322-1.595,0.541-2.917,2.527-3.658c0.496-0.185,0.688-0.263,0.65-0.858
		c-0.231-3.733,3.4-7.077,8.345-6.434c1.479,0.192,2.338-0.057,3.052-1.32c0.3-0.529,0.891-0.894,1.349-1.333
		c4.95-2.565,9.223-2.07,12.565,1.398c1.024,1.063,1.597,2.305,1.706,3.734c0.059,0.76,0.099,1.076,1.057,0.957
		c3.033-0.377,3.769,0.201,4.205,3.233c0.109,0.762,0.591,0.491,0.935,0.624c1.733,0.67,2.604,1.979,2.236,3.715
		c-0.371,1.75-1.579,2.403-3.361,2.392C117.798,49.45,111.741,49.501,105.686,49.519z"/>
	<path fill-rule="evenodd" clip-rule="evenodd" fill="#547E3E" d="M133.003,85.857c-1.107-0.654-1.858-1.759-3.399-1.888
		c-1.266-0.105-1.733-1.787-0.915-2.886c0.498-0.669,0.839-1.065,0.202-1.87c-0.371-0.469-0.362-1.521,0.207-1.729
		c1.574-0.578,2.229-1.934,3.23-3.05c0.826-0.921,2.525-0.281,2.875,1.003c0.214,0.789,0.302,1.191,1.298,1.359
		c1.31,0.221,1.939,1.311,1.179,2.587c-0.424,0.712-0.25,0.982,0.197,1.544c0.944,1.186,0.578,2.871-0.786,3.034
		c-1.503,0.181-2.295,1.205-3.385,1.884C133.477,86.085,133.241,86.083,133.003,85.857z"/>
	<path fill-rule="evenodd" clip-rule="evenodd" fill="#88693B" d="M133.003,85.857c0.234-0.004,0.469-0.009,0.703-0.013
		c0.04,0.387,0.079,0.773,0.118,1.161c-0.096,0.445,0.092,1.118-0.499,1.218c-0.516,0.087-0.266-0.516-0.37-0.805
		C132.971,86.898,132.986,86.377,133.003,85.857z"/>
	<path fill-rule="evenodd" clip-rule="evenodd" fill="#E49B36" d="M76.22,91.981c3.19,0.523,6.409,0.372,9.62,0.402
		c0.74,0.007,1.476,0.098,1.495,1.039c0.024,1.121-0.885,0.83-1.521,0.858c-0.757,0.033-1.517-0.002-2.274-0.007
		c-1.152-0.385-2.342-0.082-3.51-0.181c-0.675,0-1.348,0.001-2.022,0c-3.413,0.079-6.821-0.085-10.231-0.187
		c-2.786,0.037-5.563-0.118-8.338-0.347c-0.592-0.586-1.365-1.327-0.866-2.082c0.39-0.591,1.425-0.288,2.167-0.127
		c2.528,0.549,5.083,0.163,7.625,0.239c1.723,0.052,0.52-1.746,1.349-2.292c0.669,0.949,0.597,2.796,2.595,2.133
		C73.623,91.544,75.019,91.08,76.22,91.981z"/>
	<path fill-rule="evenodd" clip-rule="evenodd" fill="#815924" d="M76.22,91.981c-1.385-0.011-2.771-0.021-4.156-0.032
		c-0.718-0.185-1.546-0.203-1.609-1.256c-0.084-1.407,0.224-2.655,1.333-3.612c0.294-0.255,0.741-0.188,1.028-0.467
		c1.415-0.256,2.287,0.553,3.059,1.559C76.257,89.417,76.286,90.695,76.22,91.981z"/>
	<path fill-rule="evenodd" clip-rule="evenodd" fill="#AB762B" d="M72.815,86.614c-1.016,0.807-1.715,1.807-1.897,3.119
		c-0.14,1.007,0.013,1.865,1.146,2.216c-2.434,0.58-2.43-1.001-2.351-2.65C70.143,87.706,70.889,86.478,72.815,86.614z"/>
	<path fill-rule="evenodd" clip-rule="evenodd" fill="#C48D2D" d="M67.781,93.564c3.465,0.171,6.925,0.494,10.401,0.346
		c0.126,0.083,0.167,0.167,0.125,0.25s-0.084,0.125-0.127,0.125c-4.214,0.001-8.43,0.003-12.645,0.004
		c-0.776-0.131-1.629,0.252-2.337-0.345C64.688,93.352,66.284,94.053,67.781,93.564z"/>
	<path fill-rule="evenodd" clip-rule="evenodd" fill="#D4952C" d="M80.089,74.013c0.285-0.058,0.595-0.071,0.736-0.396
		c0.399-0.004,0.8-0.009,1.199-0.014c0.761,0.302,1.522,0.301,2.283,0c2.895,0.759,5.925-0.087,8.812,0.748
		c-3.741,0-7.481,0.008-11.223-0.007C81.283,74.342,80.615,74.532,80.089,74.013z"/>
	<path fill-rule="evenodd" clip-rule="evenodd" fill="#AB762B" d="M67.781,93.564c-1.477,0.733-3.066,0.115-4.582,0.38
		c-1.25-0.175-2.572,0.368-3.762-0.384C62.219,93.562,65,93.563,67.781,93.564z"/>
	<path fill-rule="evenodd" clip-rule="evenodd" fill="#5B6F31" d="M119.954,94.296c1.232,0.158,2.251-0.175,2.928-1.28
		c0.351-0.572,0.738-0.901,1.314-0.244c-0.807,2.153-1.833,4.197-3.056,6.145c-0.714-0.644-0.495-1.52-0.567-2.318
		c-0.062-0.685,0.063-1.417-0.587-1.919C119.976,94.551,119.965,94.423,119.954,94.296z"/>
	<path fill-rule="evenodd" clip-rule="evenodd" fill="#8B6639" d="M119.986,94.679c0.782-0.078,1.146,0.245,1.126,1.062
		c-0.025,1.058,0.016,2.117,0.028,3.175c-0.089,0.398-0.254,0.762-0.739,0.651c-0.479-0.109-0.434-0.556-0.434-0.923
		C119.966,97.322,119.979,96,119.986,94.679z"/>
	<path fill-rule="evenodd" clip-rule="evenodd" fill="#DCE8DC" d="M133.269,103.477c-0.07,1.334-0.913,1.275-1.559,1.331
		c-0.776,0.068-1.11-0.461-1.092-1.205c0.023-0.985,0.8-0.808,1.392-0.858C132.757,102.679,133.088,103.178,133.269,103.477z"/>
	<path fill-rule="evenodd" clip-rule="evenodd" fill="#D8E8DE" d="M122.488,103.135c0.624,0.102,1.166,0.465,1.144,1.029
		c-0.025,0.628-0.524,1.082-1.257,1.119c-0.804,0.041-1.16-0.427-1.225-1.125C121.058,103.144,122.166,103.661,122.488,103.135z"/>
	<path fill-rule="evenodd" clip-rule="evenodd" fill="#DAEBE3" d="M140.294,91.44c-0.055,0.379-0.247,0.683-0.719,0.426
		c-0.348-0.189-1.11,0.356-1.038-0.522c0.033-0.405,0.428-0.592,0.835-0.547C139.761,90.838,140.314,90.677,140.294,91.44z"/>
	<path fill-rule="evenodd" clip-rule="evenodd" fill="#DCDFC4" d="M129.146,97.422c0.78-0.167,0.872,0.428,0.728,0.864
		c-0.228,0.686-0.826,0.821-1.493,0.537C127.857,97.932,128.785,97.833,129.146,97.422z"/>
	<path fill-rule="evenodd" clip-rule="evenodd" fill="#C9DAC2" d="M117.45,97.774c0.002,0.353-0.193,0.604-0.529,0.623
		c-0.501,0.026-0.508-0.503-0.652-0.791c-0.192-0.383,0.229-0.505,0.507-0.551C117.3,96.97,117.344,97.41,117.45,97.774z"/>
	<path fill-rule="evenodd" clip-rule="evenodd" fill="#DEF0EC" d="M129.146,97.422c-0.256,0.468-0.511,0.935-0.766,1.401
		c-0.463-0.142-0.876-0.446-0.674-0.928C127.956,97.297,128.529,97.175,129.146,97.422z"/>
	<path fill-rule="evenodd" clip-rule="evenodd" fill="#DD9D32" d="M80.099,93.909c1.143,0.164,2.359-0.373,3.44,0.365
		c-1.146,0.004-2.294,0.009-3.441,0.014c-0.124-0.085-0.165-0.169-0.123-0.254C80.016,93.951,80.058,93.909,80.099,93.909z"/>
	<path fill-rule="evenodd" clip-rule="evenodd" fill="#D0952F" d="M80.099,93.909c0.001,0.126,0.001,0.253-0.001,0.379
		c-0.639-0.001-1.277-0.002-1.916-0.003c0.002-0.125,0.002-0.25,0.001-0.375C78.821,93.909,79.46,93.909,80.099,93.909z"/>
	<path fill-rule="evenodd" clip-rule="evenodd" fill="#CB8C2E" d="M84.308,73.604c-0.761,0.564-1.522,0.573-2.283,0
		C82.785,73.603,83.547,73.604,84.308,73.604z"/>
	<path fill-rule="evenodd" clip-rule="evenodd" fill="#FAB242" d="M88.814,135.767c-0.414,1.07-1.269,1.472-2.26,1.366
		c-0.873-0.093-1.934-0.457-1.732-1.568c0.196-1.081,1.269-1.338,2.262-1.229C87.921,134.428,88.654,134.803,88.814,135.767z"/>
	<path fill-rule="evenodd" clip-rule="evenodd" fill="#F8B54A" d="M60.554,136.623c-0.115,0.697-0.585,0.954-1.212,0.964
		c-0.601,0.009-1.262-0.162-1.325-0.808c-0.077-0.792,0.622-1.033,1.285-1.055C59.904,135.705,60.416,135.938,60.554,136.623z"/>
	<path fill-rule="evenodd" clip-rule="evenodd" fill="#F8B54A" d="M34.445,124.979c0.49,0.08,0.884,0.288,0.855,0.814
		c-0.03,0.538-0.461,0.707-0.932,0.678c-0.53-0.034-1.056-0.235-0.942-0.871C33.508,125.136,34,125,34.445,124.979z"/>
	<path fill-rule="evenodd" clip-rule="evenodd" fill="#F7B850" d="M117.435,116.564c0.547,0.032,1.029,0.19,1.043,0.821
		c0.009,0.433-0.346,0.628-0.756,0.658c-0.534,0.038-1.06-0.067-1.138-0.681C116.515,116.816,117.005,116.678,117.435,116.564z"/>
	<path fill-rule="evenodd" clip-rule="evenodd" fill="#F6B850" d="M73.246,123.825c-0.031,0.446-0.307,0.661-0.725,0.691
		c-0.415,0.03-0.796-0.171-0.869-0.555c-0.106-0.558,0.339-0.773,0.807-0.789C72.858,123.159,73.161,123.382,73.246,123.825z"/>
	<path fill-rule="evenodd" clip-rule="evenodd" fill="#F5BB5B" d="M88.007,111.946c-0.09,0.506-0.458,0.695-0.916,0.719
		c-0.404,0.021-0.773-0.181-0.85-0.573c-0.104-0.533,0.28-0.81,0.759-0.818C87.438,111.265,87.846,111.437,88.007,111.946z"/>
	<path fill-rule="evenodd" clip-rule="evenodd" fill="#F5BA56" d="M65.831,120.332c-0.098,0.507-0.453,0.753-0.918,0.739
		c-0.447-0.013-0.899-0.195-0.87-0.754c0.023-0.441,0.42-0.603,0.795-0.641C65.31,119.628,65.669,119.843,65.831,120.332z"/>
	<path fill-rule="evenodd" clip-rule="evenodd" fill="#F5BA57" d="M80.464,115.369c-0.183,0.577-0.546,0.776-1.016,0.737
		c-0.471-0.039-0.88-0.278-0.806-0.805c0.058-0.404,0.477-0.582,0.855-0.552C79.922,114.782,80.331,114.944,80.464,115.369z"/>
	<path fill-rule="evenodd" clip-rule="evenodd" fill="#F6BA55" d="M90.64,125.723c0.528,0.047,0.896,0.212,0.918,0.653
		c0.028,0.581-0.451,0.749-0.899,0.714c-0.348-0.028-0.82-0.171-0.829-0.629C89.818,125.896,90.313,125.814,90.64,125.723z"/>
	<path fill-rule="evenodd" clip-rule="evenodd" fill="#F6BB59" d="M44.418,115.491c-0.122,0.284-0.349,0.465-0.694,0.391
		c-0.29-0.062-0.646-0.143-0.593-0.54c0.051-0.387,0.416-0.411,0.715-0.404C44.157,114.944,44.458,115.034,44.418,115.491z"/>
	<path fill-rule="evenodd" clip-rule="evenodd" fill="#F5B74D" d="M104.947,111.73c-0.117,0.323-0.327,0.532-0.691,0.518
		c-0.358-0.015-0.646-0.234-0.629-0.562c0.017-0.332,0.328-0.511,0.687-0.501C104.67,111.194,104.906,111.347,104.947,111.73z"/>
	<path fill-rule="evenodd" clip-rule="evenodd" fill="#F1B854" d="M132.505,103.614c-0.182,0.236-0.259,0.412-0.394,0.495
		c-0.251,0.155-0.479,0.031-0.555-0.222c-0.031-0.101,0.121-0.359,0.217-0.375C131.976,103.481,132.195,103.563,132.505,103.614z"/>
	<path fill-rule="evenodd" clip-rule="evenodd" fill="#F2B957" d="M122.95,104.287c-0.093,0.078-0.205,0.241-0.35,0.279
		c-0.268,0.07-0.525-0.035-0.554-0.337c-0.01-0.103,0.189-0.291,0.324-0.326C122.616,103.836,122.877,103.868,122.95,104.287z"/>
</g>
</svg>
