<?xml version="1.0" encoding="utf-8"?>
<!-- Generator: Adobe Illustrator 16.0.3, SVG Export Plug-In . SVG Version: 6.00 Build 0)  -->
<!DOCTYPE svg PUBLIC "-//W3C//DTD SVG 1.1//EN" "http://www.w3.org/Graphics/SVG/1.1/DTD/svg11.dtd">
<svg version="1.1" id="Layer_1" xmlns="http://www.w3.org/2000/svg" xmlns:xlink="http://www.w3.org/1999/xlink" x="0px" y="0px"
	 width="170.422px" height="157.885px" viewBox="0 0 170.422 157.885" enable-background="new 0 0 170.422 157.885"
	 xml:space="preserve">
<g>
	<path fill-rule="evenodd" clip-rule="evenodd" fill="#D3E49F" d="M0,62.302c1.2-2.269,1.49-4.83,2.321-7.224
		c6.341-18.267,18.14-31.836,35.078-41.021c3.904-2.117,7.552-4.662,11.544-6.641c6.991-3.465,14.352-5.685,22.015-6.988
		C71.346,0.363,71.784,0.447,72.012,0c6.608,0,13.215,0,19.823,0c3.234,0.784,6.498,1.46,9.696,2.369
		c18.904,5.376,33.273,16.619,43.102,33.622c2.86,4.948,6.131,9.657,8.49,14.902c5.28,11.739,7.277,23.963,5.949,36.781
		c-0.7,6.751-2.577,13.162-4.906,19.48c-1.098,0.634-1.881,0.12-2.581-0.703c-0.004-2.489,1.268-4.646,1.857-6.983
		c3.852-15.281,3.089-30.271-3.329-44.699c-4.389-9.866-9.793-19.259-16.832-27.499c-8.79-10.289-19.802-17.363-32.864-21.136
		C94.624,4.461,88.693,3.473,82.69,3.409c-14.113-0.15-27.133,3.685-39.054,11.277c-5.167,3.29-10.673,6.03-15.416,10.003
		C14.56,36.133,6.311,50.61,3.742,68.242c-2.554,17.529,1.584,33.544,11.177,48.303c2.164,3.329,3.822,6.974,6.164,10.204
		c11.932,16.463,27.843,26.282,48.097,28.928c3.097,0.404,6.182,0.36,9.282,0.301c2.491,0.133,5.025-0.044,7.38,1.039
		c-4.774,1.077-9.633,0.966-14.443,0.651c-6.653-0.434-13.17-1.769-19.469-4.05c-17.331-6.277-30.355-17.578-39.258-33.666
		c-2.183-3.944-4.829-7.607-6.769-11.705c-2.169-4.581-3.948-9.275-5.156-14.194C0.593,93.429,0.586,92.703,0,92.24
		C0,82.26,0,72.281,0,62.302z"/>
	<path fill-rule="evenodd" clip-rule="evenodd" fill="#FAC214" d="M151.748,106.409c0.807,0.248,1.612,0.497,2.419,0.745
		c7.649,2.529,13.155,7.331,15.291,15.26c2.913,10.808-0.772,19.037-11.052,25.358c-1.994,1.228-4.071,2.317-6.305,3.07
		c-2.116,0.112-3.901,1.268-5.847,1.907c-7.648,2.518-15.408,4.216-23.521,4.016c-2.784-0.068-5.532-0.345-8.137-1.279
		c-4.325-1.551-8.748-1.435-13.161-0.898c-6.012,0.73-12.013,1.405-18.083,1.359c-6.39-0.048-12.376-1.532-17.913-4.748
		c-0.633-0.461-1.272-0.916-2.113-0.904c-2.281-1.228-4.049-3.112-5.907-4.838c-2.581-2.397-5.434-4.39-8.338-6.336
		c-0.782-0.969-1.919-1.312-3.027-1.704c-0.918-0.444-1.832-0.897-2.812-1.197c-0.69-0.334-1.403-0.594-2.177-0.655
		c-2.918-1.14-5.227-3.071-6.803-5.733c-2.076-3.509-0.509-8.233,3.424-10.821c0.675-0.443,1.386-0.836,2.106-1.19
		c3.595-1.764,6.582-4.17,9.375-7.119c3.593-3.793,8.511-5.796,13.363-7.671c1.759-0.68,3.587-1.143,5.396-1.666
		c0.65-0.188,1.304-0.368,1.953,0.01c0.33,1.253-0.832,1.154-1.417,1.442c-4.836,2.38-9.496,5.053-13.94,8.107
		c-2.039,1.401-3.398,3.436-5.07,5.179c-1.494,1.557-3.049,3.044-4.809,4.304c-3.247,2.34-3.413,4.279-0.568,7.021
		c1.561,1.504,3.36,2.689,5.196,3.831c5.317,3.309,10.438,6.939,16.149,9.599c1.959,0.912,4.075,1.398,5.99,2.4
		c1.229,0.637,2.57,0.933,3.891,1.292c0.934,0.478,1.976,0.569,2.971,0.835c5.583,1.843,11.378,2.716,17.142,3.715
		c7.631,1.321,15.31,2.14,23.054,2.578c9.178,0.52,18.193-0.1,26.876-3.143c8.771-3.073,15.317-8.622,17.997-17.929
		c1.044-3.629,1.113-7.302,0.313-10.97c-0.47-2.149-1.549-3.998-3.32-5.379c-1.479-0.75-2.577-2.151-4.282-2.522
		c-1.054-0.286-1.886-1.023-2.891-1.409c-5.537-3.041-11.557-5.158-16.812-8.734c-0.653-0.445-1.729-0.582-1.624-1.759
		c0.814-0.525,1.53-0.022,2.27,0.221c3.055,1.006,5.601,3.059,8.605,4.172c0.874,0.324,1.738,0.666,2.654,0.859
		C149.427,105.505,150.732,105.577,151.748,106.409z"/>
	<path fill-rule="evenodd" clip-rule="evenodd" fill="#F6AA1D" d="M65.134,150.496c7.461,4.459,15.66,5.284,24.096,4.832
		c6.139-0.328,12.181-1.731,18.37-1.632c2.315,0.038,4.509,0.374,6.7,1.112c4.93,1.659,9.983,1.505,15.104,1.075
		c7.426-0.623,14.437-2.792,21.419-5.16c0.465-0.157,0.89-0.341,1.278,0.119c-5.594,2.563-11.418,4.451-17.435,5.685
		c-7.903,1.619-15.746,2.032-23.612-0.663c-4.056-1.39-8.395-0.593-12.58-0.015c-4.198,0.58-8.42,0.802-12.633,1.168
		c-2.554-0.151-5.108-0.302-7.662-0.452c-3.917-0.278-7.513-1.585-10.924-3.453c-0.983-0.539-2.039-1.022-2.605-2.096
		C64.623,150.668,64.659,150.377,65.134,150.496z"/>
	<path fill-rule="evenodd" clip-rule="evenodd" fill="#B8D65D" d="M64.744,150.866c3.721,2.683,7.86,4.395,12.345,5.29
		c0.394,0.079,0.794,0.088,1.089,0.409c-16.832,0.317-31.69-5.033-44.685-15.648c-7.5-6.126-13.402-13.545-17.863-22.157
		c-1.667-3.218-3.865-6.14-5.506-9.398c-4.161-8.264-6.597-16.941-7.381-26.198c-1.113-13.124,1.533-25.45,7.453-37.035
		c6.374-12.474,15.858-22.097,28.148-28.922c3.585-1.991,6.972-4.352,10.614-6.224c8.568-4.403,17.612-7.156,27.313-7.811
		c18.752-1.266,35.246,4.154,49.679,16.119c7.37,6.109,12.854,13.654,17.5,21.956c2.922,5.223,6.186,10.241,8.309,15.888
		c3.902,10.382,5.188,21.058,4.078,32.085c-0.597,5.932-2.05,11.621-4.089,17.189c-1.321,0.085-2.472-0.542-3.69-0.882
		c-0.538-0.813-0.064-1.569,0.17-2.311c4.286-13.62,3.996-27.198-0.348-40.742c-1.603-4.997-2.639-10.166-4.844-14.981
		c-3.141-6.855-6.967-13.227-12.326-18.593c-1.209-1.348-2.521-2.597-3.796-3.882c-0.201-0.189-0.393-0.388-0.587-0.584
		c-1.148-1.019-2.347-1.975-3.608-2.853c-4.448-3.348-9.168-6.22-14.356-8.282c-0.965-0.396-1.919-0.822-2.912-1.15
		c-0.899-0.313-1.791-0.65-2.747-0.759c-0.785-0.111-1.465-0.547-2.236-0.702c-1.124-0.069-2.095-0.705-3.201-0.842
		c-1.447-0.229-2.85-0.696-4.323-0.777c-1.108,0.044-2.158-0.39-3.262-0.384c-0.799-0.007-1.596-0.028-2.396-0.025
		c-1.296,0.076-2.593-0.021-3.89,0.018c-0.94,0.044-1.88-0.037-2.82-0.023c-1.142,0.048-2.288-0.077-3.428,0.057
		c-1.499,0.452-3.088,0.23-4.595,0.624c-1.897,0.261-3.749,0.741-5.605,1.191c-1.098,0.201-2.169,0.516-3.242,0.82
		c-1.135,0.314-2.244,0.709-3.353,1.103c-0.558,0.181-1.116,0.362-1.688,0.495c-0.766,0.118-1.521,0.282-2.254,0.539
		c-1.117,0.338-2.266,0.564-3.354,0.997c-1.303,0.353-2.538,0.894-3.794,1.373c-0.9,0.265-1.691,0.784-2.568,1.104
		c-0.872,0.264-1.679,0.675-2.477,1.106c-0.409,0.208-0.823,0.404-1.229,0.617c-4.712,2.549-9.1,5.562-13.09,9.144
		c-1.569,1.101-2.753,2.611-4.137,3.91c-0.324,0.323-0.64,0.653-0.906,1.028c-3.264,3.909-6.319,7.959-8.712,12.476
		c-0.566,1.068-0.961,2.204-1.421,3.315c-0.781,0.89-1.182,1.972-1.543,3.075c-2.469,5.601-3.833,11.484-4.549,17.539
		c-1.187,10.025,0.394,19.678,3.42,29.248c1.971,6.232,3.519,12.592,6.683,18.377c9.296,17,23.325,27.926,42.101,32.728
		c0.852,0.218,1.674,0.501,2.509,0.758C63.92,150.214,64.363,150.466,64.744,150.866z"/>
	<path fill-rule="evenodd" clip-rule="evenodd" fill="#95C13E" d="M63.539,150.482c-5.207-0.553-10.033-2.421-14.731-4.548
		c-7.284-3.297-13.779-7.825-19.361-13.561c-8.729-8.968-14.357-19.634-17.317-31.789c-1.234-5.066-3.124-9.957-3.736-15.197
		c-0.585-5.006-0.882-9.964-0.389-15.02c0.551-5.651,1.77-11.094,3.624-16.431c0.312-0.895,0.645-1.764,1.187-2.544
		c0.65,0.269,0.761,0.908,0.963,1.46c5.121,13.97,15.373,22.93,28.527,28.919c7.648,3.482,15.717,5.435,24.15,5.989
		c3.366,0.221,6.703,0.35,10.06,0.14c0.309,0.043,0.578,0.176,0.817,0.372c0.567,0.521,0.881,1.254,1.47,1.761
		c0.225,0.193,0.454,0.38,0.696,0.553c1.777,1.19,3.474,0.428,4.911-0.511c2.433-1.589,5.022-2.21,7.854-2.019
		c1.861,0.126,3.654-1.019,5.543-0.263c1.8,2.626,1.088,5.527,0.848,8.35c-0.08,0.942-1.106,1.044-1.85,1.313
		c-8.437,0.822-16.814,2.016-25.042,4.121c-0.581,0.148-1.187,0.281-1.768-0.048c-5.019,0.844-9.673,2.683-14.126,5.103
		c-3.331,1.81-6.368,3.887-8.722,6.988c-2.096,2.762-5.59,3.628-8.449,5.357c-3.022,1.828-5.019,4.193-4.769,7.988
		c0.079,1.195,0.378,2.285,1.061,3.202c1.623,2.181,3.718,3.82,6.177,4.988c0.818,0.197,1.539,0.625,2.292,0.977
		c1.074,0.104,1.869,0.857,2.834,1.214c1.144,0.256,2.166,0.75,3.043,1.532c5.438,2.834,9.414,7.515,14.169,11.21
		c0.091,0.08,0.127,0.164,0.106,0.253C63.591,150.436,63.567,150.482,63.539,150.482z"/>
	<path fill-rule="evenodd" clip-rule="evenodd" fill="#F6A91D" d="M69.995,101.531c5.84-1.771,11.831-2.802,17.863-3.61
		c2.915-0.39,5.82-0.933,8.783-0.868c1.582-0.541,2.202,0.211,2.242,1.694c0.032,1.179,0.042,2.36-0.127,3.53
		c-0.429,1.397-1.565,1.676-2.829,1.846c-4.808,0.645-9.564,1.529-14.17,3.113c-3.779,1.3-7.29,3.07-10.533,5.441
		c-3.162,2.313-3.842,5.513-3.629,9.079c0.054,0.909,0.005,1.697-0.388,2.523c-1.101,2.314-0.415,3.974,2.04,4.899
		c1.13,0.427,2.319,0.695,3.46,1.104c1.999,0.676,3.376,2.201,4.868,3.572c1.565,2.241,3.975,3.349,6.316,4.42
		c2.844,1.301,5.869,1.923,9.039,2.267c2.971,0.321,5.784,0.359,8.618-0.514c0.305-0.082,0.615-0.131,0.93-0.154
		c2.113-0.094,4.228-0.127,6.334-0.336c0.657-0.099,1.31-0.082,1.96,0.051c1.631,0.683,3.436-0.412,5.048,0.479
		c2.672,1.627,5.593,0.971,8.429,0.854c4.369-0.18,7.851-2.328,10.936-5.245c1.58-1.656,3.12-3.376,4.357-5.281
		c1.514-2.331,1.443-4.997,0.739-7.604c-1.037-3.836-3.549-6.833-6.228-9.531c-4.384-4.417-9.589-7.484-15.892-8.602
		c-3.31-0.587-6.585-1.297-9.953-1.389c-1.494-0.041-1.943-0.956-2.108-2.208c-0.085-0.689,0.167-1.352,0.147-2.037
		c0.353-2.488,0.729-2.849,3.121-2.889c2.059-0.035,4.119,0.011,6.177-0.028c5.653-0.113,11.185,0.729,16.621,2.213
		c0.964,0.263,2.179,0.276,2.563,1.561c3.871,2.769,8.064,4.945,12.396,6.9c2.122,0.958,4.298,1.863,6.202,3.257
		c0.703,0.583,1.583,0.935,2.181,1.661c1.197,1.184,2.428,2.326,3.485,3.646c3.887,4.851,4.192,11.627,0.01,17.192
		c-4.653,6.192-10.314,11.114-17.77,13.729c-4.392,1.54-8.9,1.374-13.375,0.9c-5.748-0.607-11.445-1.749-17.267-1.37
		c-2.141,0.139-4.278,0.333-6.399,0.674c-1.894,0.025-3.741,0.513-5.633,0.557c-2.577-0.025-5.153-0.009-7.728-0.009
		c-4.849,0.262-9.511-0.802-14.153-2.002c-0.472-0.246-0.946-0.495-1.463-0.646c-5.656-1.581-10.325-4.738-14.358-8.939
		c-1.271-1.323-2.796-2.261-4.584-2.813c-3.079-0.951-6.115-2.037-9.162-3.091c-0.864-0.246-1.528-0.825-2.203-1.367
		c-3.331-2.675-3.437-4.903-0.408-8.007c5.902-6.123,11.801-12.242,19.779-15.775C66.224,103.518,68.092,102.485,69.995,101.531z"/>
	<path fill-rule="evenodd" clip-rule="evenodd" fill="#95C13E" d="M134.73,99.882c-3.742-1.722-7.781-2.191-11.79-2.763
		c-2.375-0.339-4.767-0.571-7.175-0.465c-2.366-0.38-4.75-0.17-7.122-0.14c-1.521,0.02-2.069-0.557-1.878-1.992
		c0.6-2.841,0.948-5.72,1.235-8.607c0.638-1.839-0.012-3.706,0.111-5.556c0.899-1.646,2.702-1.838,4.16-2.588
		c2.659-0.956,4.277-2.828,4.9-5.577c2.322-2.329,4.664-4.638,6.671-7.256c5.707-7.443,8.483-15.802,7.914-25.215
		c-0.033-0.545-0.192-1.056-0.301-1.583c-0.307-2.518-0.595-5.036-0.979-7.542c-0.118-0.765-0.433-1.583,0.226-2.285
		c4.212,3.589,7.238,8.132,9.807,12.918c5.771,10.752,9.041,22.371,10.755,34.38c1.452,10.179,0.298,20.205-3.206,29.916
		c-2.092-0.469-4.025-1.317-5.881-2.379C139.813,101.794,137.44,100.452,134.73,99.882z"/>
	<path fill-rule="evenodd" clip-rule="evenodd" fill="#F9BE16" d="M160.206,113.682c2.045,0.946,3.062,2.772,3.635,4.757
		c1.938,6.71,0.771,13.048-2.854,18.904c-4.232,6.838-10.777,10.54-18.274,12.662c-4.567,1.294-9.267,1.868-14.043,2.177
		c-11.788,0.76-23.331-0.907-34.88-2.828c-4.687-0.78-9.339-1.693-13.943-2.869c-0.663-0.169-1.313-0.275-1.767-0.843
		c0.09-0.067,0.18-0.134,0.27-0.201c3.27,0.271,6.448,1.118,9.728,1.406c8.284,0.727,16.545,1.69,24.808,2.631
		c6.296,0.716,12.636,0.683,18.936,0.422c7.057-0.291,13.759-2.262,19.81-6.069c1.65-1.039,3.111-2.328,4.464-3.731
		c2.551-2.673,4.685-5.616,5.897-9.153c2.14-4.32,1.794-8.721,0.369-13.131c-0.245-0.761-1.031-1.236-1.425-1.947
		C160.558,115.187,159.851,114.61,160.206,113.682z"/>
	<path fill-rule="evenodd" clip-rule="evenodd" fill="#F7B11A" d="M154.947,111.658c-0.486-0.593-1.339-0.819-1.618-1.619
		c1.128-0.023,1.752,1.125,2.83,1.218c8.25,4.797,9.41,14.69,4.27,22.179c-3.815,5.41-8.325,10.054-14.458,12.835
		c-4.077,1.85-8.379,2.757-12.849,3.195c-8.524,0.837-16.862-0.734-25.268-1.535c-2.334-0.223-4.661-0.64-7.031-0.562
		c-0.775,0.025-1.823,0.327-2.11-0.919c1.897-0.006,3.749-0.652,5.664-0.405c3.92-0.317,7.821-0.401,11.753,0.101
		c3.25,0.414,6.528,0.67,9.81,0.865c2.552,0.151,5.097,0.252,7.648,0.249c6.967-0.009,12.915-2.574,18.181-7.053
		c3.153-2.683,5.798-5.738,8.074-9.188c2.737-4.146,2.859-11.476-0.982-15.583C157.62,114.111,156.419,112.743,154.947,111.658z"/>
	<path fill-rule="evenodd" clip-rule="evenodd" fill="#F8BA17" d="M44.501,120.154c-0.155,0.355-0.254,0.751-0.474,1.059
		c-1.791,2.499-1.591,4.513,0.831,6.288c0.771,0.565,1.385,1.47,2.475,1.555c2.099,1.687,4.833,1.918,7.157,3.101
		c0.592,0.301,1.255,0.444,1.748,0.942c4.385,4.434,9.697,7.414,15.375,9.828c0.338,0.144,1.11-0.031,0.775,0.801
		c-0.408,0.102-0.813,0.184-1.185-0.108c-8.169-2.575-15.119-7.417-22.229-11.958c-2.199-1.404-4.419-2.78-6.106-4.834
		C40.604,124.072,41.194,121.652,44.501,120.154z"/>
	<path fill-rule="evenodd" clip-rule="evenodd" fill="#F8B918" d="M160.206,133.1c1.424-2.914,2.871-5.792,2.854-9.185
		c-0.025-5.001-2.228-8.815-6.056-11.838c-0.307-0.242-0.564-0.545-0.846-0.821c1.666,0.28,2.727,1.569,4.047,2.425
		c0.911,2.1,2.769,3.612,3.282,6.027c0.78,3.663,0.626,7.182-0.572,10.686c-0.094,0.273-0.451,0.457-0.687,0.683
		c-0.662,0.979-0.341,2.681-2.1,2.852C159.949,133.633,159.985,133.358,160.206,133.1z"/>
	<path fill-rule="evenodd" clip-rule="evenodd" fill="#FBF3BB" d="M167.153,134.026c-0.954,5.676-6.726,11.816-11.697,12.204
		c5.591-2.64,9.421-6.816,11.304-12.694C167.153,133.489,167.318,133.625,167.153,134.026z"/>
	<path fill-rule="evenodd" clip-rule="evenodd" fill="#FBF2B6" d="M93.015,153.252c-5.552,0.797-11.109,1.199-16.669,0.099
		c-1.05-0.208-2.068-0.573-3.102-0.866c-0.07-0.366-0.006-0.589,0.436-0.409c6.1,1.687,12.3,1.063,18.485,0.811
		C92.557,152.757,93.005,152.496,93.015,153.252z"/>
	<path fill-rule="evenodd" clip-rule="evenodd" fill="#FBF0B0" d="M40.111,130.745c-3.574-1.608-4.628-4.021-3.276-7.132
		C36.192,126.782,38.089,128.771,40.111,130.745z"/>
	<path fill-rule="evenodd" clip-rule="evenodd" fill="#FBEFA5" d="M122.168,154.599c1.915,0,3.83,0,6.105,0
		c-1.077,0.829-1.988,0.749-2.894,0.693c-0.978-0.35-2-0.015-2.989-0.198C122.186,154.989,122.112,154.824,122.168,154.599z"/>
	<path fill-rule="evenodd" clip-rule="evenodd" fill="#F9BE16" d="M71.203,143.619c0.404,0,0.809,0,1.214,0
		c0.635-0.496,1.176-0.063,1.737,0.174c0.339,0.095,0.657,0.239,0.957,0.423c0.166,0.078,0.259,0.207,0.267,0.393
		c-0.043,0.075-0.086,0.15-0.128,0.225C73.778,144.832,72.447,144.369,71.203,143.619z"/>
	<path fill-rule="evenodd" clip-rule="evenodd" fill="#FBEEA7" d="M118.567,154.877c-0.794-0.117-1.604-0.19-2.798-0.971
		c1.769,0.055,2.942,0.091,4.06,0.592C119.505,154.944,118.935,154.575,118.567,154.877z"/>
	<path fill-rule="evenodd" clip-rule="evenodd" fill="#FCCF33" d="M167.875,129.922c-0.559-0.973-0.407-1.908,0.479-3.362
		c-0.187,1.484,0.306,2.449-0.5,3.337L167.875,129.922z"/>
	<path fill-rule="evenodd" clip-rule="evenodd" fill="#F4B01C" d="M49.337,138.881c-1.073-0.461-2.145-0.922-3.218-1.383
		c-0.119-0.082-0.157-0.163-0.117-0.243c0.041-0.079,0.081-0.119,0.121-0.119C47.418,137.305,48.647,137.597,49.337,138.881z"/>
	<path fill-rule="evenodd" clip-rule="evenodd" fill="#FBEEA5" d="M93.015,153.252c-0.283-0.122-0.566-0.244-0.849-0.366
		c0.917-0.51,1.901-0.362,2.938-0.061C94.408,152.967,93.711,153.11,93.015,153.252z"/>
	<path fill-rule="evenodd" clip-rule="evenodd" fill="#F4AE1D" d="M46.124,137.136c-0.002,0.121-0.004,0.241-0.004,0.362
		c-0.941-0.417-1.882-0.833-2.823-1.25c-0.12-0.069-0.16-0.141-0.122-0.212c0.039-0.072,0.078-0.108,0.118-0.108
		C44.407,135.932,45.316,136.414,46.124,137.136z"/>
	<path fill-rule="evenodd" clip-rule="evenodd" fill="#FBF3B9" d="M118.567,154.877c0.327-0.438,0.831-0.285,1.262-0.379
		c0.78,0.033,1.56,0.066,2.339,0.101c0.006,0.116,0.009,0.231,0.008,0.348c-0.086,0.058-0.173,0.114-0.26,0.171
		c-0.613-0.009-1.241,0.151-1.834-0.138C119.578,154.946,119.073,154.912,118.567,154.877z"/>
	<path fill-rule="evenodd" clip-rule="evenodd" fill="#FAF0AC" d="M167.132,132.292c0.271-0.782,0.08-1.71,0.742-2.369l-0.021-0.026
		c0.025,0.822,0.225,1.666-0.318,2.413C167.393,132.491,167.258,132.485,167.132,132.292z"/>
	<path fill-rule="evenodd" clip-rule="evenodd" fill="#F9BE16" d="M78.08,145.642c-1.021,0.001-2.077,0.122-2.832-0.81l0,0
		C76.385,144.428,77.283,144.859,78.08,145.642L78.08,145.642z"/>
	<path fill-rule="evenodd" clip-rule="evenodd" fill="#F4B01C" d="M63.539,150.482c-0.021-0.129-0.032-0.26-0.033-0.391
		c0.748-0.688,1.153-0.001,1.628,0.404c-0.13,0.124-0.26,0.247-0.39,0.37C64.342,150.738,63.941,150.61,63.539,150.482z"/>
	<path fill-rule="evenodd" clip-rule="evenodd" fill="#FBEB9B" d="M73.68,152.076c-0.145,0.137-0.291,0.272-0.436,0.409
		c-0.578-0.236-1.318-0.188-1.613-0.921l-0.038-0.098C72.383,151.346,73.055,151.633,73.68,152.076z"/>
	<path fill-rule="evenodd" clip-rule="evenodd" fill="#FBF3B9" d="M122.176,154.947c1.064,0.152,2.198-0.34,3.204,0.346
		c-1.064-0.003-2.13-0.006-3.194-0.01c-0.137-0.071-0.184-0.146-0.141-0.222c0.044-0.077,0.088-0.115,0.133-0.115L122.176,154.947z"
		/>
	<path fill-rule="evenodd" clip-rule="evenodd" fill="#FCCC24" d="M62.366,145.208c0.913,0.336,1.365,0.619,1.416,1.353
		C63.089,146.472,62.831,145.978,62.366,145.208z"/>
	<path fill-rule="evenodd" clip-rule="evenodd" fill="#FBEB9B" d="M71.593,151.466c0,0,0.038,0.1,0.038,0.099
		c-0.699,0.153-1.218-0.17-1.684-0.635c0.083-0.17,0.216-0.279,0.398-0.328C70.84,150.776,71.41,150.842,71.593,151.466z"/>
	<path fill-rule="evenodd" clip-rule="evenodd" fill="#EDAE20" d="M43.292,135.928c0,0.107,0.001,0.214,0.004,0.321
		c-0.753-0.279-1.532-0.506-2.129-1.091C42.002,135.064,42.729,135.27,43.292,135.928z"/>
	<path fill-rule="evenodd" clip-rule="evenodd" fill="#FCD852" d="M129.712,154.821c0.237-0.427,0.732-0.724,0.968-0.51
		c0.541,0.489-0.041,0.568-0.396,0.619C130.11,154.956,129.919,154.864,129.712,154.821z"/>
	<path fill-rule="evenodd" clip-rule="evenodd" fill="#FBE892" d="M155.025,146.618c-0.382,0.866-0.938,0.775-1.419,1.12
		C153.72,146.82,154.276,146.819,155.025,146.618z"/>
	<path fill-rule="evenodd" clip-rule="evenodd" fill="#FAEFAD" d="M167.132,132.292c0.134,0.002,0.269,0.008,0.402,0.018
		c-0.013,0.598,0.082,1.219-0.382,1.716c-0.131-0.162-0.263-0.326-0.394-0.489C166.883,133.122,167.008,132.707,167.132,132.292z"/>
	<path fill-rule="evenodd" clip-rule="evenodd" fill="#FCCA21" d="M39.793,119.788c-0.189,0.156-0.362,0.39-0.587,0.462
		c-0.261,0.082-0.315-0.199-0.2-0.343c0.151-0.189,0.395-0.305,0.598-0.452C39.657,119.547,39.71,119.64,39.793,119.788z"/>
	<path fill-rule="evenodd" clip-rule="evenodd" fill="#FAF3BA" d="M70.345,150.602c-0.133,0.109-0.266,0.219-0.398,0.328
		c-0.425-0.112-0.862-0.205-1.028-0.724C69.52,149.935,69.869,150.503,70.345,150.602z"/>
	<path fill-rule="evenodd" clip-rule="evenodd" fill="#FBE995" d="M41.031,130.82c0.226,0.181,0.474,0.296,0.58,0.489
		c0.083,0.151-0.068,0.395-0.305,0.33c-0.24-0.065-0.456-0.217-0.683-0.331C40.739,131.169,40.854,131.032,41.031,130.82z"/>
	<path fill-rule="evenodd" clip-rule="evenodd" fill="#FBEEA9" d="M122.178,154.946c0,0.112,0.003,0.225,0.008,0.337
		c-0.724,0.058-1.453,0.154-2.103-0.303C120.781,154.969,121.48,154.958,122.178,154.946z"/>
	<path fill-rule="evenodd" clip-rule="evenodd" fill="#9C9C9B" d="M25.478,31.549c1.217-1.454,2.505-2.835,4.058-3.944
		c4.64,2.366,9.557,4.006,14.522,5.516c0.473,0.137,0.94,0.296,1.427,0.384c0.96,0.241,1.918,0.493,2.885,0.709
		c0.903,0.096,1.774,0.365,2.672,0.488c0.888,0.197,1.781,0.368,2.676,0.535c0.671,0.236,1.374,0.246,2.074,0.282
		c0.306,0.02,0.605,0.073,0.902,0.145c0.787,0.272,1.606,0.212,2.418,0.229c0.424,0.011,0.841,0.065,1.254,0.161
		c1.145,0.351,2.32,0.186,3.483,0.205c0.741,0.016,1.487-0.02,2.204,0.215c0.432,0.368,0.925,0.113,1.396,0.124
		c1.62,0.147,3.24,0.047,4.859,0.071c0.862,0.001,1.729,0.058,2.564-0.238c0.646-0.146,1.302-0.152,1.958-0.161
		c1.065-0.032,2.143,0.123,3.189-0.213c0.414-0.106,0.836-0.153,1.263-0.168c0.92-0.041,1.854,0.082,2.755-0.211
		c0.39-0.1,0.787-0.148,1.187-0.179c0.676-0.003,1.319-0.222,1.98-0.322c0.638-0.079,1.295,0,1.914-0.243
		c0.172-0.078,0.346-0.144,0.521-0.211c0.807-0.349,1.672-0.409,2.526-0.53c1.047-0.256,2.084-0.547,3.136-0.782
		c1.237-0.331,2.489-0.604,3.718-0.968c0.935-0.244,1.841-0.582,2.758-0.883c0.722-0.224,1.447-0.438,2.139-0.748
		c0.77-0.375,1.618-0.511,2.411-0.816c0.984-0.375,1.879-0.947,2.87-1.31c4.464-1.458,8.214-4.211,12.12-6.68
		c0.53-0.335,0.913-1.089,1.727-0.59c1.413,0.673,2.541,1.703,3.575,2.85c-0.168,0.824-0.908,1.246-1.327,1.895
		c-0.176,0.197-0.386,0.347-0.628,0.45c-0.589,0.158-1.075,0.491-1.518,0.9c-0.59,0.464-1.132,0.985-1.764,1.396
		C111.245,35.833,100,39.865,87.924,41.729c-0.699,0.074-1.413,0.037-2.093,0.271c-0.294,0.078-0.592,0.125-0.895,0.151
		c-0.702,0.036-1.406,0.048-2.081,0.285c-0.408,0.101-0.821,0.152-1.24,0.169c-1.062,0.036-2.138-0.105-3.172,0.275
		c-1.004,0.213-1.995,0.543-3.045,0.34c-3.485-0.393-6.98-0.086-10.468-0.166c-0.823,0.047-1.641-0.005-2.452-0.151
		c-1.067-0.368-2.178-0.277-3.279-0.291c-0.436-0.006-0.865-0.067-1.289-0.162c-0.711-0.25-1.45-0.259-2.192-0.23
		c-6.572-0.517-12.833-2.353-19.03-4.47c-1.911-0.653-3.726-1.56-5.664-2.134c-1.401-0.578-2.726-1.302-3.991-2.139
		C26.468,32.875,25.323,32.734,25.478,31.549z"/>
	<path fill-rule="evenodd" clip-rule="evenodd" fill="#A7A6A5" d="M124.604,26.296c0.135-0.135,0.271-0.271,0.406-0.406
		c0.764-0.264,1.037-1.338,2.028-1.226c1.393,1.044,2.626,2.248,3.663,3.649c0.391,3.341,1.236,6.626,1.229,10.016
		c0.697,4.279-0.913,8.075-2.536,11.85c-2.365,5.504-5.845,10.291-9.795,14.741c-0.608,0.686-1.137,1.999-2.542,1.206
		c-0.404-0.907-0.341-1.851-0.142-2.773c2.154-10.006,0.983-19.621-3.358-28.867c-0.134-0.966,0.675-1.195,1.261-1.592
		c2.096-1.419,4.43-2.473,6.354-4.151c0.682-0.288,1.2-0.794,1.721-1.298C123.559,27.207,123.997,26.625,124.604,26.296z"/>
	<path fill-rule="evenodd" clip-rule="evenodd" fill="#9C9C9B" d="M76.905,88.278c-7.646,0.854-15.188-0.027-22.583-1.827
		c-12.203-2.97-23.008-8.585-31.649-17.91c-4.59-4.953-7.972-10.627-9.857-17.148c0.396-1.069,0.355-2.391,1.691-2.914
		c0.077,0.057,0.155,0.114,0.233,0.17c1.833,5.08,4.589,9.617,8.089,13.712c0.478,0.559,1.008,1.07,1.619,1.488
		c1.21,0.878,2.176,2.016,3.255,3.035c0.744,0.77,1.44,1.599,2.489,1.99c0.159,0.091,0.3,0.204,0.427,0.336
		c0.699,0.984,1.67,1.603,2.764,2.058c1.562,0.829,2.911,2,4.497,2.79c1.507,0.982,3.106,1.787,4.758,2.493
		c1.531,0.635,3.067,1.252,4.621,1.831c1.824,0.629,3.649,1.25,5.548,1.621c2.017,0.545,4.065,0.942,6.115,1.33
		c0.686,0.246,1.404,0.267,2.12,0.299c0.309,0.02,0.612,0.073,0.912,0.145c0.888,0.309,1.813,0.204,2.725,0.24
		c0.948,0.095,1.895,0.2,2.848,0.263c2.61,0.219,5.223,0.037,7.832,0.097c0.845-0.019,1.701,0.105,2.529-0.173
		c0.693-0.134,1.364-0.497,2.101-0.228c0.57,0.792-0.172,1.186-0.542,1.653c-0.448,0.564-1.016,1.033-1.346,1.691
		C77.532,86.238,77.61,87.417,76.905,88.278z"/>
	<path fill-rule="evenodd" clip-rule="evenodd" fill="#A7A6A5" d="M27.519,67.164c-1.082-0.946-2.163-1.893-3.245-2.839
		c-2.207-3.005-4.714-5.786-6.542-9.075c-1.202-2.164-2.233-4.395-3.155-6.684c0,0-0.07-0.087-0.07-0.087
		c-0.042-0.9,0.266-1.689,0.677-2.48c2.576-4.964,5.727-9.521,9.518-13.634c1.047-0.475,1.603,0.516,2.395,0.803
		c1.313,0.51,2.539,1.179,3.658,2.037c0.618,0.462,1.875,0.183,1.751,1.51c-2.303,6.08-3.538,12.324-3.248,18.87
		c0.158,3.572,0.685,7.049,1.64,10.481c0.278,1,0.842,2.029,0.068,3.068c-0.199,0.165-0.408,0.179-0.627,0.043l0,0.002
		C29.126,68.889,28.527,67.741,27.519,67.164z"/>
	<path fill-rule="evenodd" clip-rule="evenodd" fill="#A7A6A5" d="M123.043,21.415c-3.506,2.373-7.017,4.739-10.823,6.625
		c-0.96,0.476-1.936,0.881-2.991,1.083c-0.407-0.442-0.388-0.979-0.314-1.515c0.612-4.487,0.361-8.928-0.68-13.331
		c-0.108-0.458-0.157-0.93,0.188-1.334C113.801,14.897,118.673,17.723,123.043,21.415z"/>
	<path fill-rule="evenodd" clip-rule="evenodd" fill="#A7A6A5" d="M44.098,33.573c-4.708-1.241-9.297-2.809-13.656-5.002
		c-0.416-0.209-0.875-0.391-0.907-0.966c3.984-3.767,8.455-6.835,13.349-9.293c0.724,0.699,0.56,1.616,0.546,2.462
		c-0.059,3.617-0.007,7.217,1.016,10.733C44.653,32.221,44.704,32.967,44.098,33.573z"/>
	<path fill-rule="evenodd" clip-rule="evenodd" fill="#C2C2C2" d="M72.414,8.904c1.392-0.854,3.057-0.062,4.477-0.746
		c7.404,0.852,12.706,5.763,13.659,13.21c0.641,5.007-2.41,12.233-9.353,14.538c-0.575,0.19-1.162,0.304-1.656,0.677
		c-0.854,0.048-1.71,0.013-2.565,0.023c-5.44,0.305-9.643-1.821-12.58-6.419c-4.997-7.821-1.493-17.875,7.296-20.932
		C71.95,9.166,72.194,9.063,72.414,8.904z"/>
	<path fill-rule="evenodd" clip-rule="evenodd" fill="#B3B2B2" d="M99.119,32.777c-1.094,0.767-2.501,0.578-3.646,1.191
		c-0.626-0.792-0.187-1.531,0.144-2.25c3.39-7.372,2.686-14.423-1.617-21.209c-0.382-0.602-1.013-1.104-0.927-1.938
		c1.483,0.274,2.966,0.548,4.449,0.822c0.884,0.477,1.313,1.315,1.708,2.172c2.956,6.399,3.344,12.926,0.985,19.596
		C99.986,31.808,99.771,32.432,99.119,32.777z"/>
	<path fill-rule="evenodd" clip-rule="evenodd" fill="#B6B6B6" d="M93.072,8.571c4.104,4.796,5.654,10.321,5.046,16.597
		c-0.305,3.151-1.874,5.837-2.645,8.801c-1.079,0.268-2.158,0.536-3.237,0.804c-0.717-0.979-0.058-1.809,0.344-2.617
		c0.932-1.873,1.798-3.753,2.225-5.825c1.208-5.862-0.265-11.04-3.873-15.708c-0.558-0.721-1.391-1.341-1.103-2.453
		C90.911,8.304,91.992,8.438,93.072,8.571z"/>
	<path fill-rule="evenodd" clip-rule="evenodd" fill="#B3B3B3" d="M56.653,36.014c-0.275-0.004-0.55-0.009-0.826-0.014
		c-0.335-0.299-0.863-0.181-1.17-0.542c-2.958-4.344-3.893-9.232-3.686-14.366c0.064-1.593,0.355-3.204,0.735-4.777
		c0.209-0.867,0.454-1.694,1.283-2.188c0.97-0.697,2.161-0.737,3.245-1.096c0.627,0.767,0.219,1.543-0.02,2.288
		c-2.087,6.496-1.518,12.693,2,18.589c0.39,0.654,1.024,1.327,0.432,2.203C57.974,36.212,57.303,36.34,56.653,36.014z"/>
	<path fill-rule="evenodd" clip-rule="evenodd" fill="#BCBCBC" d="M87.397,35.596c-0.679,0.128-1.357,0.256-2.037,0.385
		c-0.543-0.94,0.253-1.35,0.775-1.79c7.576-6.377,6.988-18.928-1.663-24.392c-0.602-0.38-1.325-0.749-1.129-1.693
		c1.348,0.009,2.695,0.018,4.042,0.027c8.625,6.908,9.539,19.169,2.014,27.036l0.002,0.035
		C88.798,35.663,87.996,35.11,87.397,35.596z"/>
	<path fill-rule="evenodd" clip-rule="evenodd" fill="#B0B0B0" d="M52.989,14.127c-2.524,7.168-1.94,14.066,1.793,20.694
		c0.127,0.226,0.161,0.504,0.238,0.758c-0.391,0.313-0.792,0.284-1.198,0.031c-0.986,0.108-1.915-0.169-2.846-0.427
		c-3.083-6.32-3.944-12.868-2.02-19.702C50.285,14.982,51.533,14.245,52.989,14.127z"/>
	<path fill-rule="evenodd" clip-rule="evenodd" fill="#C0C0BF" d="M72.414,8.904c-0.206,0.468-0.618,0.625-1.059,0.838
		c-6.89,3.326-10.074,9.518-8.234,16.421c1.604,6.019,6.784,10.113,13.758,10.253c0.125,0.095,0.163,0.184,0.113,0.266
		c-0.048,0.079-0.095,0.118-0.142,0.118c-0.677,0.015-1.354,0.03-2.031,0.044c-0.772,0.331-1.584,0.094-2.374,0.166
		c-1.001-0.004-2.003,0.009-3.004-0.008c-7.68-4.292-10.994-12.604-7.923-20.173c1.092-2.692,2.616-5.157,5.231-6.715
		C68.577,9.419,70.465,9.021,72.414,8.904z"/>
	<path fill-rule="evenodd" clip-rule="evenodd" fill="#BABABA" d="M66.345,36.83c-0.808-0.008-1.616-0.015-2.424-0.023
		c-0.32-0.297-0.828-0.166-1.135-0.493c-5.981-6.43-7.409-13.698-4.018-21.851c0.361-0.869,0.76-1.716,1.506-2.337
		c0.994-0.617,2.104-0.907,3.23-1.152c0.309,1.057-0.393,1.793-0.856,2.585c-4.311,7.371-3.424,14.882,2.481,21.113
		C65.7,35.274,66.579,35.753,66.345,36.83z"/>
	<path fill-rule="evenodd" clip-rule="evenodd" fill="#BAB9BA" d="M89.4,35.168c0.103-0.762,0.507-1.36,0.971-1.957
		c5.306-6.83,4.647-16.858-1.475-23.021c-0.598-0.601-1.444-1.054-1.51-2.059c0.815,0.013,1.629,0.025,2.444,0.038
		c1.498,2.505,3.579,4.6,4.625,7.447c1.927,5.243,1.713,10.277-0.657,15.29c-0.593,1.255-1.552,2.373-1.561,3.867
		C91.291,34.905,90.346,35.037,89.4,35.168z"/>
	<path fill-rule="evenodd" clip-rule="evenodd" fill="#ADADAD" d="M48.957,15.482c0.372,2.485-0.59,4.877-0.454,7.374
		c0.181,3.308,0.702,6.503,1.886,9.597c0.334,0.873,0.7,1.755,0.588,2.731c-0.944-0.133-1.889-0.266-2.833-0.398
		c-1.63-2.336-2.097-5.073-2.467-7.784c-0.372-2.722-0.174-5.488-0.085-8.235c0.027-0.835,0.355-1.56,0.932-2.168
		C47.335,16.227,48.146,15.854,48.957,15.482z"/>
	<path fill-rule="evenodd" clip-rule="evenodd" fill="#BDBDBD" d="M66.345,36.83c-1.076-1.635-2.735-2.748-3.797-4.423
		c-4.067-6.417-4.301-12.827-0.209-19.313c0.429-0.681,0.779-1.412,1.166-2.12c1.043-0.435,2.1-0.816,3.246-0.859
		c-1.847,2.361-3.984,4.489-4.985,7.459c-2.256,6.693,0.254,13.683,5.917,17.7c0.569,0.404,1.39,0.617,1.499,1.503
		c-0.654,0.397-1.323,0.29-1.997,0.063C66.906,36.818,66.619,37.284,66.345,36.83z"/>
	<path fill-rule="evenodd" clip-rule="evenodd" fill="#B0B0B0" d="M99.119,32.777c3.158-8.047,2.695-15.847-1.598-23.384
		c1.125,0.054,2.043,0.931,3.213,0.805c3.548,7.074,4.122,14.313,1.213,21.748C101.041,32.345,100.138,32.757,99.119,32.777z"/>
	<path fill-rule="evenodd" clip-rule="evenodd" fill="#AAAAA9" d="M108.423,12.943c1.614,5.326,1.808,10.724,0.806,16.18
		c-0.947,0.397-1.77,1.084-2.829,1.221c-0.664-0.678-0.503-1.504-0.346-2.287c0.93-4.649,0.618-9.231-0.627-13.781
		c-0.225-0.822-0.542-1.703,0.163-2.488C106.604,12,107.561,12.357,108.423,12.943z"/>
	<path fill-rule="evenodd" clip-rule="evenodd" fill="#B6B6B6" d="M58.661,35.999c-1.044-2.518-2.74-4.698-3.399-7.445
		c-1.106-4.613-1.127-9.101,0.501-13.578c0.227-0.623,0.317-1.296,0.471-1.945c0.798-0.21,1.552-0.654,2.426-0.467
		c0.545,0.751,0.069,1.434-0.194,2.089c-2.812,7.002-2.062,13.571,2.34,19.712c0.44,0.615,0.833,1.251,0.402,2.044
		c-0.304,0.222-0.609,0.23-0.917,0.01c-0.408-0.005-0.815-0.01-1.222-0.016C58.946,36.256,58.681,36.251,58.661,35.999z"/>
	<path fill-rule="evenodd" clip-rule="evenodd" fill="#C0BFBF" d="M83.344,8.106c1.179,1.58,3.051,2.306,4.417,3.722
		c6.105,6.33,5.441,17.483-1.523,22.912c-0.447,0.349-0.86,0.63-0.876,1.242c-0.411,0.015-0.821,0.03-1.232,0.044
		c-0.391,0.258-0.798,0.202-1.209,0.067c-0.315-1.097,0.644-1.413,1.241-1.825c9.556-6.597,7.751-20.58-2.705-24.817
		c-0.559-0.227-1.472-0.297-0.947-1.333C81.454,8.113,82.399,8.109,83.344,8.106z"/>
	<path fill-rule="evenodd" clip-rule="evenodd" fill="#ADADAC" d="M105.589,11.787c0.016,2.292,0.959,4.402,1.299,6.647
		c0.542,3.576,0.255,7.026-0.45,10.505c-0.091,0.452-0.029,0.935-0.039,1.404c-0.705,0.583-1.626,0.514-2.428,0.809
		c-0.705-0.772-0.38-1.652-0.204-2.479c1.118-5.221,0.814-10.35-0.884-15.41c-0.246-0.734-0.676-1.498-0.125-2.293
		C103.806,10.883,104.689,11.363,105.589,11.787z"/>
	<path fill-rule="evenodd" clip-rule="evenodd" fill="#ABABAA" d="M46.524,16.599c-0.807,5.638-0.729,11.207,1.269,16.634
		c0.182,0.494,0.237,1.035,0.351,1.554c-0.944-0.27-1.888-0.54-2.832-0.809c-1.35-2.477-1.597-5.252-1.956-7.954
		c-0.282-2.122-0.055-4.305-0.064-6.46c-0.003-0.736,0.311-1.289,0.796-1.786C44.797,17.172,45.611,16.782,46.524,16.599z"/>
	<path fill-rule="evenodd" clip-rule="evenodd" fill="#AFAFAF" d="M102.759,10.971c1.217,3.471,2.181,7.025,2.343,10.695
		c0.114,2.579-0.382,5.163-0.869,7.714c-0.112,0.586-0.175,1.181-0.261,1.771c-0.567,0.538-1.305,0.643-2.025,0.793
		c0.179-3.257,1.389-6.358,1.261-9.687c-0.125-3.243-0.687-6.34-1.863-9.349c-0.338-0.865-0.719-1.739-0.61-2.713
		C101.409,10.456,102.084,10.713,102.759,10.971z"/>
	<path fill-rule="evenodd" clip-rule="evenodd" fill="#B8B8B8" d="M61.09,36.384c0.085-0.739-0.343-1.222-0.757-1.78
		c-2.856-3.844-4.251-8.187-4.08-12.971c0.114-3.186,1.322-6.12,2.406-9.069c0.479-0.365,1.018-0.506,1.614-0.439
		c-0.882,2.708-2.181,5.234-2.572,8.158c-0.732,5.488,0.989,10.098,4.228,14.331c0.437,0.57,1.177,0.933,1.181,1.787
		C62.435,36.709,61.761,36.738,61.09,36.384z"/>
	<path fill-rule="evenodd" clip-rule="evenodd" fill="#C0C0BF" d="M80.508,8.117c0.053,0.771,0.68,0.935,1.241,1.143
		c5.104,1.897,7.937,5.838,8.771,10.934c0.938,5.727-1.084,10.6-5.866,14.123c-0.66,0.486-1.29,0.958-1.721,1.662
		c-0.438,0.493-1.153-0.04-1.598,0.43c-0.41,0.004-0.82,0.008-1.229,0.013c-0.157,0.161-0.293,0.137-0.411-0.047
		c0.812-1.113,2.201-1.174,3.292-1.78c4.743-2.633,7.013-6.938,7.109-12.027c0.092-4.931-2.366-8.917-6.68-11.646
		c-2.045-1.293-4.391-1.752-6.526-2.762C78.097,8.145,79.303,8.131,80.508,8.117z"/>
	<path fill-rule="evenodd" clip-rule="evenodd" fill="#A9A9A8" d="M44.088,17.777c-0.951,4.826-0.344,9.557,0.91,14.237
		c0.175,0.655,0.343,1.287,0.314,1.963c-0.404-0.135-0.809-0.27-1.213-0.404c-0.991-5.041-1.5-10.121-1.214-15.263
		C43.286,18.133,43.687,17.955,44.088,17.777z"/>
	<path fill-rule="evenodd" clip-rule="evenodd" fill="#9BA68A" d="M27.096,33.169c-0.798-0.268-1.597-0.536-2.395-0.803
		c0.127-0.397,0.411-0.646,0.776-0.816C25.734,32.372,26.854,32.333,27.096,33.169z"/>
	<path fill-rule="evenodd" clip-rule="evenodd" fill="#8D9185" d="M127.039,24.665c-0.738,0.306-1.077,1.273-2.028,1.226
		c0.386-0.691,0.929-1.225,1.609-1.625C126.758,24.398,126.899,24.531,127.039,24.665z"/>
	<path fill-rule="evenodd" clip-rule="evenodd" fill="#F8C017" d="M98.304,102.759c0.001-1.326-0.071-2.658,0.025-3.977
		c0.095-1.303-0.404-1.855-1.688-1.728c1.455-0.218,1.826-1.095,1.704-2.478c-0.202-2.283,0.34-4.654-0.868-6.81
		c-0.288-0.215-0.623-0.375-0.83-0.687c-0.917-1.452-2.084-2.683-3.369-3.808c-0.49-0.417-1.086-0.616-1.684-0.814
		c-0.461-0.19-0.922-0.377-1.166-0.861c-0.115-1.105,0.31-1.849,1.425-2.133c4.299,1.709,7.153,4.613,7.82,9.371
		c0.158,1.127,0.341,2.255,0.584,3.371c0.087,0.418,0.085,0.838,0.007,1.257c-0.218,0.706-0.214,1.433-0.201,2.161
		c-0.005,1.808-0.135,3.626,0.542,5.365c0.105,0.659-0.041,1.246-0.503,1.738c-0.097-0.054-0.913,0.365-1.053,0.48
		c-0.226,0.186-0.494,0.152-0.753,0.037c-0.104-0.11-0.136-0.219-0.099-0.326C98.233,102.812,98.269,102.759,98.304,102.759z"/>
	<path fill-rule="evenodd" clip-rule="evenodd" fill="#FAEF70" d="M96.962,86.885c0.171,0.294,0.343,0.588,0.514,0.882
		c-2.02,0.527-4.058,0.916-6.162,0.823c-2.283-0.1-4.336,0.462-6.267,1.777c-2.716,1.849-4.342,1.844-6.186,0.32
		c-0.359-0.749-0.569-1.53-0.512-2.368c0.044-0.692,0.164-1.353,0.794-1.782c0.62-0.179,0.836,0.293,1.028,0.702
		c0.561,1.199,1.592,1.355,2.7,1.181c1.459-0.229,2.74-1.005,4.094-1.545c0.902-0.36,0.648-1.333,0.741-2.116
		c0.097-0.824-0.44-1.958,0.926-2.284c2.042,4.533,2.042,4.533,7.727,4.339C96.564,86.808,96.765,86.833,96.962,86.885z"/>
	<path fill-rule="evenodd" clip-rule="evenodd" fill="#F3DF12" d="M76.905,88.278c-0.008-1.174,0.143-2.306,0.853-3.294
		c1.345,0.292,2.204-1.458,3.622-0.861c-0.019,1.259-0.875,1.816-1.882,2.245c-1.094,0.396-1.388,1.59-2.23,2.239
		C77.146,88.498,77.025,88.388,76.905,88.278z"/>
	<path fill-rule="evenodd" clip-rule="evenodd" fill="#F7E60B" d="M77.267,88.607c0.003-1.388,1.029-1.909,2.058-2.427
		c0.105,0.092,0.14,0.184,0.104,0.275c-0.036,0.091-0.071,0.137-0.106,0.137c-0.333,0.476-0.5,0.997-0.443,1.582
		c-0.487,0.608,0.098,1.436-0.416,2.04C77.813,89.867,77.55,89.229,77.267,88.607z"/>
	<path fill-rule="evenodd" clip-rule="evenodd" fill="#F9EB6C" d="M78.464,90.214c0.126-0.682-0.23-1.463,0.416-2.04
		c-0.006,0.837-0.012,1.674-0.018,2.512C78.729,90.53,78.597,90.372,78.464,90.214z"/>
	<path fill-rule="evenodd" clip-rule="evenodd" fill="#F4AC1D" d="M98.304,102.759c0.004,0.134,0.007,0.268,0.009,0.401
		c1.038,1.753,0.138,3.407-0.36,5.022c-0.83,2.692-2.875,4.669-4.375,6.964c-0.492,0.971-0.017,1.701,0.6,2.395
		c1.828,1.505,3.591,3.071,4.981,5.001c0.424,0.315,0.897,0.382,1.406,0.261c0.167-0.029,0.333-0.028,0.5-0.006
		c0.08,0.025,0.159,0.055,0.239,0.08c0.435,0.244,0.877,0.474,1.367,0.601c0.172,0.047,0.337,0.106,0.503,0.168
		c1.168,0.54,2.331,0.534,3.493-0.008c0.182-0.045,0.367-0.059,0.554-0.054c0.973,0.261,1.808-0.017,2.547-0.658
		c0.16-0.089,0.333-0.145,0.511-0.181c0.556,0.085,1.542-0.864,1.525,0.627c-0.766,1.503-2.354,1.519-3.665,2.042
		c-4.165,0.454-8.231,0.215-12.053-1.717c-0.188-0.092-0.373-0.194-0.557-0.294c-0.518-0.299-1.017-0.632-1.529-0.94
		c-1.573-0.354-2.861-0.99-3.422-2.709c-0.313-0.959-1.206-1.062-2.188-0.968c-2.417,0.23-4.209,1.696-6.127,2.922
		c-0.52,0.332-0.558,0.876-0.523,1.439c0.041,0.67,0.111,1.353-0.336,1.942c-0.24,0.185-0.514,0.257-0.811,0.259
		c-1.123-0.232-2.343-0.448-3.229-1.088c-1.703-1.229-2.801-0.329-4.117,0.61c-1.323,0.945-0.941,2.053-0.669,3.248
		c0.19,0.835,0.63,1.659,0.243,2.553c-2.047-0.524-4.196-0.669-5.842-2.347c-1.275-1.299-1.369-2.585-0.456-3.966
		c0.594-0.898,0.535-1.662,0.503-2.716c-0.077-2.6-0.122-5.399,1.911-7.499c4.914-5.077,11.319-7.213,17.914-8.943
		c3.171-0.832,6.413-1.273,9.665-1.611C97.26,103.514,97.714,103.044,98.304,102.759z"/>
	<path fill-rule="evenodd" clip-rule="evenodd" fill="#F5AB1D" d="M106.406,101.14c0.4,1.331,1.286,1.589,2.647,1.667
		c9.752,0.557,18.852,2.959,25.759,10.438c2.616,2.832,5.22,5.85,6.133,9.763c0.854,3.661,0.254,7.109-2.583,9.822
		c-1.022,0.978-1.579,2.357-2.834,3.103c-0.625-1.192,0.212-1.967,0.92-2.606c2.316-2.094,2.302-4.827,1.453-7.285
		c-1.385-4.012-3.473-7.743-6.93-10.458c-1.122-0.881-1.973-2.017-2.971-3.009c-2.678-2.662-6.047-3.58-9.555-4.412
		c-3.589-0.852-7.143-1.818-10.846-2.05c-0.532-0.033-1.077-0.142-1.435-0.628c-0.457-1.364-0.463-2.728-0.009-4.093
		C106.239,101.307,106.322,101.224,106.406,101.14z"/>
	<path fill-rule="evenodd" clip-rule="evenodd" fill="#F5AC1C" d="M106.403,105.59c3.297,0.386,6.669,0.161,9.84,1.552
		c1.253,0.55,2.731,0.577,4.1,0.878c3.916,0.861,7.032,2.915,9.747,5.898c1.835,2.018,4.108,3.683,5.45,6.099
		c1.505,2.709,3.405,5.273,3.27,8.678c-0.079,1.99-0.415,3.7-2.039,5.002c-0.698,0.559-1.145,1.314-1.242,2.235
		c-3.311,3.696-7.523,5.44-12.409,5.649c-1.734,0.074-3.484,0.095-5.208-0.063c-0.789-0.072-1.772-0.185-2.207-1.137
		c0.568-0.827,1.383-0.896,2.271-0.745c3.565,1.504,6.986,0.38,10.362-0.683c3.493-1.099,5.84-3.799,8.016-6.513
		c1.785-2.228,1.021-4.889-0.125-7.078c-2.257-4.308-5.298-7.962-9.119-11.152c-2.347-1.96-4.518-3.66-7.527-4.21
		c-1.533-0.28-3.057-0.45-4.609-0.2c-2.122-0.52-4.224-1.108-6.407-1.352c-0.84-0.093-1.723-0.206-2.368-0.887
		C105.861,106.862,105.82,106.193,106.403,105.59z"/>
	<path fill-rule="evenodd" clip-rule="evenodd" fill="#F6AD1C" d="M154.947,111.658c4.829,2.19,8.112,8.905,7.139,14.085
		c-1.091,5.806-4.749,9.83-8.78,13.735c-3.563,3.451-7.643,5.872-12.421,7.131c-4.665,1.229-9.404,1.067-14.18,0.957
		c-3.521-0.08-7.004-0.492-10.486-0.799c-3.947-0.348-7.878-0.73-11.842-0.723c1.828-0.725,3.794-0.611,5.682-0.755
		c6.119-0.466,12.129,0.672,18.179,1.438c8.502,1.078,16.232-0.874,22.846-6.677c3.144-2.759,6.046-5.642,8.372-9.159
		c2.377-3.594,2.611-9.696,0.386-13.379C158.495,115.289,156.503,113.668,154.947,111.658z"/>
	<path fill-rule="evenodd" clip-rule="evenodd" fill="#F8BA18" d="M78.08,145.641c-0.865-0.545-1.834-0.727-2.832-0.809
		c0-0.135,0-0.27,0-0.404c0.405-0.271,0.81-0.28,1.214,0c4.648,1.177,9.305,2.292,14.16,2.025c0.483,0.354,1.041,0.19,1.564,0.199
		c7.59,0.131,15.086,1.298,22.621,2.045c7.961,0.79,15.928,1.405,23.862-0.239c3.511-0.729,6.815-2.039,9.946-3.776
		c1.025-0.367,2.022-0.791,2.772-1.632c0.7-0.604,1.444-1.152,2.209-1.671c0.996-0.383,1.474-1.682,2.752-1.569
		c0.072,0.056,0.145,0.111,0.217,0.168c-1.521,2.572-3.985,4.09-6.491,5.41c-4.199,2.212-8.609,3.966-13.387,4.507
		c-2.409,0.272-4.831,0.509-7.253,0.582c-8.587,0.262-17.102-0.548-25.636-1.482C95.198,148.053,86.614,147.06,78.08,145.641z"/>
	<path fill-rule="evenodd" clip-rule="evenodd" fill="#F6B11B" d="M72.82,130.672c-0.379-1.335-0.85-2.651-1.117-4.009
		c-0.392-1.986,1.649-2.171,2.596-3.13c0.56-0.567,1.451-1.183,2.414-0.156c0.99,1.055,2.653,0.783,3.795,1.632
		c0.501,1.923,0.603,3.803-0.652,5.513c-0.706,0.963-0.787,1.939-0.216,3.001c0.251,0.467,0.444,0.984,0.179,1.533
		c-1.239,0.484-1.884-0.353-2.548-1.146C75.787,132.831,74.304,131.751,72.82,130.672z"/>
	<path fill-rule="evenodd" clip-rule="evenodd" fill="#F8BC18" d="M107.238,94.34c-0.291,1.604,0.405,2.008,1.967,1.999
		c2.182-0.013,4.407-0.42,6.56,0.316c-2.058,0.01-4.116,0.025-6.174,0.031c-2.663,0.008-2.726,0.068-2.789,2.834
		c-1.367-0.335-0.901-1.486-0.904-2.296c-0.007-2.079,0.099-4.156-0.35-6.208c-0.1-0.458-0.16-0.929-0.317-1.372
		c-0.247-0.694-0.468-1.591-1.314-1.596c-1.017-0.006-1.212,0.999-1.282,1.764c-0.275,3.005-0.898,5.966-1.074,8.985
		c-0.327,0.594-0.152,1.72-1.404,1.337c-0.457-2-0.297-4.035-0.153-6.034c0.127-1.771-0.096-3.476-0.342-5.198
		c-0.093-0.348-0.1-0.697-0.029-1.048c0.257-0.623,0.432-1.237,0.347-1.949c-0.113-0.953,0.149-1.883,0.548-2.747
		c0.869-1.881,2.484-2.282,4.089-0.977c2.198,1.787,3.061,4.288,3.122,6.969C107.776,90.862,107.512,92.619,107.238,94.34z"/>
	<path fill-rule="evenodd" clip-rule="evenodd" fill="#F8B519" d="M153.733,141.596c-0.44,0.832-1.358,1.067-2.023,1.618
		c-0.754,0.621-1.619,1.076-2.427,1.618c-3.112,1.362-6.146,2.91-9.498,3.672c-7.216,1.641-14.486,1.236-21.795,0.885
		c-6.221-0.298-12.352-1.352-18.543-1.881c-2.911-0.249-5.943-0.247-8.824-1.055c2.697-0.001,5.394-0.002,8.091-0.003
		c2.218,0.933,4.598,0.417,6.897,0.726c6.678,0.896,13.395,1.792,20.118,1.996c9.868,0.298,19.331-1.17,27.232-8.092
		c2.76-2.418,4.73-5.418,7.246-7.98c0,0.27,0,0.539,0,0.81c0.004,0.34-0.069,0.66-0.251,0.952c-0.336,0.468-0.742,0.884-1.022,1.393
		c-0.086,0.146-0.185,0.279-0.291,0.408c-0.398,0.432-0.755,0.894-1.03,1.416c-0.223,0.379-0.475,0.732-0.817,1.015
		C155.614,139.731,154.828,140.853,153.733,141.596z"/>
	<path fill-rule="evenodd" clip-rule="evenodd" fill="#F7B11B" d="M74.438,144.024c-0.674-0.135-1.348-0.271-2.021-0.405
		c-4.044-1.6-8.001-3.356-11.539-5.949c-1.729-1.268-3.281-2.738-4.931-4.08c-1.265-1.029-2.997-1.497-4.547-2.154
		c-1.462-0.621-3.155-0.826-4.067-2.38c3.487,1.19,6.96,2.423,10.469,3.547c1.018,0.326,1.851,0.967,2.486,1.635
		c4.23,4.448,9.093,7.87,14.961,9.785C74.979,144.25,74.709,144.256,74.438,144.024z"/>
	<path fill-rule="evenodd" clip-rule="evenodd" fill="#F8B818" d="M101.14,98.712c-0.188-3.099,0.841-6.078,0.914-9.165
		c0.022-0.937,0.43-2.408,1.682-2.445c1.297-0.039,1.806,1.239,2.069,2.379c0.495,2.146,0.781,4.307,0.642,6.539
		c-0.071,1.147-0.465,2.41,0.355,3.499c-0.132,0.54-0.264,1.08-0.396,1.62l-0.008,0c-0.155,0.135-0.333,0.196-0.538,0.172
		c-1.202-0.815-0.686-2.066-0.758-3.146c-0.077-1.135,0.229-2.292-0.167-3.41c-0.174-0.493-0.264-1.225-0.889-1.205
		c-0.654,0.021-0.678,0.755-0.742,1.272c-0.151,1.218-0.375,2.404-1.166,3.394C101.892,98.523,101.63,98.867,101.14,98.712z"/>
	<path fill-rule="evenodd" clip-rule="evenodd" fill="#F6AD1C" d="M77.27,133.91c0.81,0.404,1.619,0.809,2.428,1.213
		c1.194-0.306,1.959,0.536,2.846,1.058c4.759,2.558,9.677,4.333,15.245,3.762c1.185-0.122,2.669-0.969,3.756,0.441
		c-2.656,1.142-5.321,1.149-8.187,0.681c-2.171-0.354-4.386-0.454-6.53-1.078c-3.355-0.976-6.27-2.77-9.048-4.807
		C77.468,134.95,77.434,134.342,77.27,133.91z"/>
	<path fill-rule="evenodd" clip-rule="evenodd" fill="#F7B31A" d="M101.544,140.383c-1.426,0.013-2.866-0.093-4.277,0.061
		c-5.459,0.596-10.273-1.261-14.932-3.771c-0.101-0.055-0.141-0.222-0.209-0.337c1.349-0.601,2.367,0.612,3.601,0.649
		c3.411,0.523,6.63,2.007,10.143,2.012c1.116-0.148,2.213-0.441,3.352-0.398c1.575,0.235,3.264-0.472,4.742,0.566
		c0.205,1.387-1.14,0.723-1.61,1.217C102.084,140.382,101.814,140.382,101.544,140.383z"/>
	<path fill-rule="evenodd" clip-rule="evenodd" fill="#F6AF1C" d="M118.131,139.978c-0.855-0.144-1.618,0.271-2.427,0.404
		c-1.568-0.74-3.321,0.741-4.855-0.404c-0.166-0.546,0.133-0.856,0.557-1.106c2.309-0.231,4.637-0.722,6.851,0.469
		C118.313,139.572,118.271,139.785,118.131,139.978z"/>
	<path fill-rule="evenodd" clip-rule="evenodd" fill="#F6AF1C" d="M102.354,140.382c0.54-0.271,1.079-0.54,1.619-0.81
		c0.191-0.223,0.436-0.349,0.719-0.408c0.736-0.055,1.457-0.232,2.193-0.292c0.188,0.007,0.373,0.037,0.555,0.081
		c0.499,0.289,1.431,0,1.387,1.023C106.684,140.357,104.517,140.344,102.354,140.382z"/>
	<path fill-rule="evenodd" clip-rule="evenodd" fill="#F7B31A" d="M108.827,139.977c-0.346-0.656-1.273-0.15-1.619-0.808
		c1.349-0.817,2.698-0.817,4.046,0c-0.135,0.27-0.27,0.539-0.405,0.809C110.175,139.978,109.501,139.977,108.827,139.977z"/>
	<path fill-rule="evenodd" clip-rule="evenodd" fill="#F8B519" d="M74.438,144.024c0.271,0,0.541-0.001,0.811-0.002
		c0.444,0.017,0.923-0.07,1.213,0.406c-0.405,0-0.81,0-1.214,0C74.915,144.419,74.612,144.35,74.438,144.024z"/>
	<path fill-rule="evenodd" clip-rule="evenodd" fill="#9C9C9B" d="M117.323,66.35c7.733-7.847,13.687-16.621,14.607-28.02
		c1.019,4.719,0.395,9.363-0.962,13.881c-2.442,8.132-7.101,14.842-13.629,20.26c-0.444-0.074-0.724-0.399-1.039-0.671
		c-0.306-0.284-0.64-0.532-1.005-0.738c-0.627-0.487-1.483-0.516-2.09-1.043c-0.068-1.123,1.062-1.4,1.516-2.157
		C115.545,67.286,116.279,66.551,117.323,66.35z"/>
	<path fill-rule="evenodd" clip-rule="evenodd" fill="#F9C015" d="M108.454,80.146c0.25,1.891,0.764,3.783-0.01,5.672
		c-1.565-1.761-2.107-4.15-3.819-5.871c-2.683-2.696-4.856-2.38-6.135,1.125c-0.206,0.564-0.307,1.181-0.881,1.532
		c-2.177-0.759-3.805-2.318-5.505-3.776c0.124-1.202,1.049-1.833,1.885-2.453c2.174-1.615,4.623-2.614,7.322-2.963
		c2.546,0.723,4.244,2.67,6.171,4.289c0.147,0.116,0.276,0.25,0.391,0.399C108.199,78.744,108.745,79.327,108.454,80.146z"/>
	<path fill-rule="evenodd" clip-rule="evenodd" fill="#F9BE16" d="M97.483,82.582c0.331-0.944,0.624-1.904,1.001-2.829
		c0.834-2.042,3.342-2.856,5.041-1.504c2.456,1.957,4.117,4.501,4.918,7.569c-0.03,2.894-0.477,5.727-1.206,8.521
		c-0.222-2.879,0.605-5.83-0.767-8.644c-0.564-1.158-1.09-2.246-2.136-3.059c-1.541-1.198-2.93-0.9-3.447,0.949
		c-0.254,0.908-0.799,1.844-0.262,2.897c0.289,0.567-0.142,1.004-0.633,1.308C99.042,86.108,97.977,84.482,97.483,82.582z"/>
	<path fill-rule="evenodd" clip-rule="evenodd" fill="#F9EC6C" d="M108.454,80.146c-0.294-0.671-0.588-1.342-0.882-2.013
		c-0.146-1.338-0.058-2.697-0.372-4.021c0.028-1.522,1.438-1.645,2.327-2.3c0.288-0.144,0.593-0.227,0.912-0.264
		c0.528-0.05,1.049-0.007,1.561,0.141c0.566,0.188,1.098,0.459,1.588,0.793c1.745,1.189,1.85,3.13,0.234,4.453
		c-0.457,0.374-0.999,0.644-1.339,1.153C111.14,78.775,109.797,79.46,108.454,80.146z"/>
	<path fill-rule="evenodd" clip-rule="evenodd" fill="#F9EF71" d="M112.483,78.089c-0.428-0.721,0.306-0.922,0.623-1.206
		c2.045-1.83,1.951-3.001-0.403-4.364c-0.227-0.131-0.425-0.312-0.637-0.469c0.667-0.742,1.601-0.772,2.486-0.937
		c0.688,0.028,1.369,0.091,1.962,0.497c0.275,0.287,0.55,0.574,0.825,0.861C117.229,75.649,115.181,77.15,112.483,78.089z"/>
	<path fill-rule="evenodd" clip-rule="evenodd" fill="#F8BA18" d="M159.801,134.718c0.008-0.333,0.077-0.636,0.404-0.809
		c1.177-0.586,1.066-2.09,2.023-2.832c-0.928,3.577-2.877,6.506-5.664,8.9c-0.344-0.405-0.29-0.81,0-1.214
		c0.27-0.27,0.539-0.539,0.809-0.81c0.374-0.563,0.859-1.041,1.214-1.618C158.965,135.777,159.439,135.29,159.801,134.718z"/>
	<path fill-rule="evenodd" clip-rule="evenodd" fill="#878787" d="M32.374,36.403c-0.54-0.399-1.08-0.799-1.62-1.198
		c0.913-0.121,1.676,0.289,2.493,0.618c7.275,2.926,14.735,5.156,22.59,5.853c0.603,0.484,1.409-0.072,2.016,0.393
		c0.408,0.004,0.815,0.007,1.223,0.011c1.022,0.54,2.192-0.127,3.217,0.392c0.815,0.004,1.63,0.008,2.446,0.013
		c2.77,0.458,5.561,0.071,8.338,0.208c0.854,0.042,1.728-0.187,2.56,0.173c0.954-0.132,1.907-0.265,2.86-0.397
		c1.026-0.516,2.196,0.153,3.219-0.391c0.406-0.004,0.812-0.007,1.218-0.011c0.61-0.463,1.42,0.094,2.025-0.395
		c0.273-0.003,0.546-0.007,0.818-0.011c0.601-0.461,1.4,0.096,1.995-0.391c4.97-0.74,9.799-2.029,14.576-3.578
		c6.799-2.205,13.121-5.343,19.019-9.361c0.142,0.088,0.189,0.178,0.145,0.271c-0.045,0.093-0.09,0.14-0.137,0.14
		c-2.199,2.286-5.056,3.612-7.689,5.264c-0.159,0.348-0.393,0.626-0.729,0.815c-1.07,0.524-2.045,1.223-3.131,1.721
		c-1.185,0.756-2.529,1.175-3.775,1.802c-0.943,0.444-1.947,0.741-2.883,1.202c-1.082,0.371-2.174,0.712-3.209,1.208
		c-0.816,0.291-1.647,0.536-2.458,0.843c-0.84,0.262-1.673,0.546-2.508,0.827c-1.165,0.298-2.34,0.556-3.484,0.932
		c-1.063,0.419-2.221,0.378-3.307,0.689c-0.71,0.166-1.445,0.201-2.143,0.43c-0.85,0.183-1.729,0.192-2.565,0.457
		c-2.516,0.445-5.085,0.377-7.6,0.827c-2.198,0.281-4.404,0.153-6.607,0.132c-1.322-0.035-2.651,0.116-3.965-0.139
		c-1.318-0.479-2.711-0.162-4.055-0.365c-0.843-0.167-1.686-0.351-2.554-0.343c-0.951,0.005-1.884-0.11-2.784-0.432
		c-0.559-0.188-1.12-0.37-1.711-0.433c-0.288-0.033-0.571-0.091-0.85-0.164c-0.63-0.218-1.299-0.221-1.949-0.329
		c-0.553-0.116-1.081-0.314-1.62-0.477c-0.521-0.187-1.071-0.268-1.601-0.421c-0.437-0.137-0.871-0.279-1.31-0.409
		c-0.523-0.178-1.072-0.259-1.603-0.411c-0.797-0.268-1.598-0.527-2.401-0.774c-0.708-0.244-1.461-0.36-2.115-0.753
		c-0.642-0.368-1.353-0.582-2.025-0.881c-0.943-0.37-1.868-0.787-2.829-1.113c-0.956-0.352-1.951-0.619-2.781-1.251
		C32.835,36.975,32.534,36.756,32.374,36.403z"/>
	<path fill-rule="evenodd" clip-rule="evenodd" fill="#9CA88A" d="M75.638,42.867c-3.007,0.005-6.014,0.024-9.021,0.005
		c-0.638-0.004-1.354,0.232-1.877-0.387c3.006-0.002,6.012-0.018,9.017,0.003C74.396,42.493,75.11,42.255,75.638,42.867z"/>
	<path fill-rule="evenodd" clip-rule="evenodd" fill="#A4B28C" d="M67.186,36.841c0.666-0.021,1.331-0.042,1.997-0.063
		c1.076,0.023,2.153,0.048,3.229,0.072c0.135,0.081,0.18,0.161,0.134,0.24c-0.045,0.079-0.091,0.119-0.137,0.119
		C70.672,37.017,68.877,37.668,67.186,36.841z"/>
	<path fill-rule="evenodd" clip-rule="evenodd" fill="#A9B398" d="M61.09,36.384c0.674,0.006,1.347,0.011,2.021,0.017
		c0.323,0.028,0.632,0.086,0.81,0.406c-1.207-0.161-2.491,0.408-3.63-0.388C60.558,36.408,60.824,36.396,61.09,36.384z"/>
	<path fill-rule="evenodd" clip-rule="evenodd" fill="#9AA48A" d="M62.294,42.472c-1.069-0.162-2.226,0.404-3.217-0.392
		C60.146,42.24,61.302,41.678,62.294,42.472z"/>
	<path fill-rule="evenodd" clip-rule="evenodd" fill="#AEB89C" d="M79.696,36.374c0.137,0.016,0.273,0.031,0.411,0.047
		c-1.009,0.782-2.172,0.236-3.255,0.38c0.008-0.128,0.018-0.257,0.029-0.385C77.819,36.402,78.757,36.388,79.696,36.374z"/>
	<path fill-rule="evenodd" clip-rule="evenodd" fill="#9BA48B" d="M81.716,42.079c-0.992,0.797-2.149,0.237-3.219,0.391
		C79.49,41.677,80.648,42.245,81.716,42.079z"/>
	<path fill-rule="evenodd" clip-rule="evenodd" fill="#898A87" d="M121.375,28.742c-0.002-0.137-0.005-0.274-0.008-0.411
		c0.54-0.405,1.08-0.809,1.619-1.214c0.141,0.088,0.188,0.179,0.145,0.271c-0.045,0.094-0.09,0.14-0.136,0.14
		C122.625,28.16,122.19,28.704,121.375,28.742z"/>
	<path fill-rule="evenodd" clip-rule="evenodd" fill="#A7B096" d="M81.336,36.408c0.417-0.574,1.058-0.316,1.598-0.429
		c0.398,0.015,0.796,0.031,1.194,0.046C83.282,36.773,82.264,36.26,81.336,36.408z"/>
	<path fill-rule="evenodd" clip-rule="evenodd" fill="#8A8C86" d="M122.996,27.529c-0.003-0.137-0.006-0.275-0.009-0.412
		c0.45-0.448,0.853-0.99,1.617-0.82C124.271,26.973,123.801,27.47,122.996,27.529z"/>
	<path fill-rule="evenodd" clip-rule="evenodd" fill="#A8B197" d="M58.661,35.999c0.136,0.135,0.272,0.27,0.408,0.405
		c-0.807-0.118-1.707,0.335-2.416-0.39C57.322,36.009,57.992,36.004,58.661,35.999z"/>
	<path fill-rule="evenodd" clip-rule="evenodd" fill="#A0A893" d="M72.409,37.208c0.005-0.12,0.006-0.24,0.002-0.359
		c0.803-0.001,1.606-0.003,2.409-0.004C74.101,37.529,73.215,37.105,72.409,37.208z"/>
	<path fill-rule="evenodd" clip-rule="evenodd" fill="#AAB39B" d="M87.397,35.596c0.564-0.663,1.326-0.319,2.005-0.393
		C88.838,35.866,88.075,35.513,87.397,35.596z"/>
	<path fill-rule="evenodd" clip-rule="evenodd" fill="#A7B097" d="M53.823,35.611c0.399-0.011,0.798-0.021,1.198-0.031
		c0.325,0.032,0.635,0.094,0.806,0.421C55.151,35.913,54.387,36.277,53.823,35.611z"/>
	<path fill-rule="evenodd" clip-rule="evenodd" fill="#9AA38B" d="M87.773,41.271c-0.56,0.667-1.32,0.313-1.995,0.391
		C86.338,40.994,87.1,41.358,87.773,41.271z"/>
	<path fill-rule="evenodd" clip-rule="evenodd" fill="#9AA389" d="M57.854,42.069c-0.681-0.085-1.449,0.273-2.016-0.394
		C56.518,41.763,57.287,41.399,57.854,42.069z"/>
	<path fill-rule="evenodd" clip-rule="evenodd" fill="#9BA48C" d="M84.959,41.673c-0.57,0.668-1.34,0.313-2.025,0.396
		C83.504,41.397,84.276,41.762,84.959,41.673z"/>
	<path fill-rule="evenodd" clip-rule="evenodd" fill="#A9A9A8" d="M112.869,34.424c0.272-0.14,0.545-0.279,0.818-0.419
		c2.775,4.264,3.72,9.11,4.44,14.021c0.776,5.283,0.525,10.517-0.745,15.712c-0.202,0.826-0.048,1.739-0.059,2.612
		c-0.601,0.852-1.432,1.358-2.427,1.619c-0.72-0.794-0.323-1.646-0.099-2.468c0.88-3.231,1.405-6.532,1.883-9.837
		c0.428-2.961-0.31-5.862-0.797-8.748c-0.603-3.57-1.558-7.063-3.05-10.389C112.531,35.851,112.346,35.115,112.869,34.424z"/>
	<path fill-rule="evenodd" clip-rule="evenodd" fill="#B2B2B2" d="M42.887,40.845c0.886,0.04,1.715,0.25,2.431,0.806
		c0.632,1.047-0.077,1.952-0.356,2.872c-3.072,10.125-1.409,19.425,5.026,27.78c2.256,2.929,5.04,5.401,8.196,7.409
		c0.755,0.481,1.752,0.833,1.771,2.003c-0.289,0.232-0.582,0.236-0.878,0.015c-2.235-0.024-4.338-0.735-6.482-1.235
		c-3.156-2.842-6.044-5.916-8.157-9.636c-5.101-8.984-5.972-18.378-2.665-28.161C42.007,42.007,42.183,41.262,42.887,40.845z"/>
	<path fill-rule="evenodd" clip-rule="evenodd" fill="#B0B0B0" d="M42.887,40.845c-1.663,4.715-2.718,9.506-2.46,14.574
		c0.362,7.142,2.712,13.482,7.158,19.05c1.335,1.672,2.596,3.436,4.473,4.591c0.54,0.332,0.54,0.889,0.537,1.435
		c-1.888-0.539-3.776-1.077-5.665-1.616c-3.51-4.458-6.66-9.083-8.262-14.658c-2.111-7.345-2.111-14.595,0.384-21.818
		c0.325-0.939,0.415-2.184,1.81-2.355C41.435,40.573,42.361,40.198,42.887,40.845z"/>
	<path fill-rule="evenodd" clip-rule="evenodd" fill="#ABAAAA" d="M33.176,36.806c0.944,0.418,1.888,0.836,2.832,1.254
		c0.553,0.808,0.083,1.547-0.175,2.287c-3.611,10.369-3.075,20.538,1.435,30.527c0.511,1.132,1.332,2.258,0.36,3.552
		c-1.471-0.939-2.942-1.878-4.414-2.817c-0.163-0.167-0.305-0.351-0.426-0.55c-4.272-10.569-4.712-21.245-0.88-32.035
		C32.195,38.214,32.343,37.31,33.176,36.806z"/>
	<path fill-rule="evenodd" clip-rule="evenodd" fill="#ADADAD" d="M37.627,74.425c0.197-1.355-0.441-2.466-1-3.622
		c-2.004-4.147-2.964-8.551-3.493-13.121c-0.792-6.831,0.524-13.287,2.874-19.623c1.031,0.186,1.941,0.667,2.842,1.169
		c-1.756,4.916-2.826,9.936-2.714,15.204c0.147,6.968,1.923,13.418,5.602,19.349c0.57,0.919,1.573,1.8,0.742,3.084
		C40.704,76.365,39.14,75.445,37.627,74.425z"/>
	<path fill-rule="evenodd" clip-rule="evenodd" fill="#AFAFAF" d="M42.479,76.865c0.092-1.106-0.617-1.862-1.146-2.714
		c-4.844-7.798-6.56-16.243-5.415-25.351c0.319-2.541,0.935-4.975,1.621-7.413c0.236-0.838,0.43-1.708,1.311-2.158
		c0.702,0.197,1.45,0.282,2.012,0.82c-1.913,2.66-2.276,5.82-2.821,8.906c-1.219,6.914,0.277,13.46,2.884,19.818
		c1.103,2.688,2.847,5.005,4.596,7.307c0.637,0.838,1.484,1.594,1.409,2.8C45.446,78.208,43.962,77.537,42.479,76.865z"/>
	<path fill-rule="evenodd" clip-rule="evenodd" fill="#B5B5B5" d="M46.945,42.055c0.444,0.019,0.92-0.052,1.21,0.416
		c0.094,0.773-0.266,1.447-0.498,2.141c-2.317,6.919-2.146,13.782,0.73,20.474c4.167,9.691,14.281,16.185,23.938,16.099
		c1.75-0.016,3.5,0.047,5.248-0.039c0.891-0.044,1.78-0.126,2.064-1.217c0.22-0.373,0.37-0.862,0.979-0.604
		c0.551,0.862,0.514,1.747,0.108,2.647c-0.152,0.218-0.352,0.275-0.598,0.171c-0.691,0.135-1.383,0.27-2.075,0.405
		c-0.834,0.361-1.712,0.098-2.566,0.178c-2.762-0.102-5.531,0.216-8.287-0.172c-0.835,0.602-1.654-0.143-2.483-0.03
		c-0.317-0.303-0.787-0.18-1.134-0.401c-5.607-2.409-10.613-5.651-14.135-10.753c-5.898-8.544-7.356-17.774-3.933-27.664
		C45.758,43.002,45.838,42.055,46.945,42.055z"/>
	<path fill-rule="evenodd" clip-rule="evenodd" fill="#B4B4B4" d="M46.945,42.055c-1.554,2.134-1.973,4.711-2.355,7.17
		c-1.18,7.577,0.459,14.644,4.717,21.024c3.043,4.56,7.089,8.002,12.128,10.256c0.891,0.398,1.948,0.626,2.486,1.607
		c-0.67,0.336-1.344,0.303-2.02,0.021c-0.271-0.004-0.543-0.009-0.814-0.013c-0.316-0.392-0.905,0-1.211-0.422
		c-2.756-2.32-5.854-4.188-8.36-6.858c-4.709-5.016-7.417-10.796-8.318-17.657c-0.717-5.461,0.517-10.478,2.12-15.53
		C45.874,41.729,46.506,41.501,46.945,42.055z"/>
	<path fill-rule="evenodd" clip-rule="evenodd" fill="#ECD818" d="M80.127,82.143c0.105-0.012,0.209-0.025,0.314-0.039
		c1.382-1.251,2.439-2.787,3.665-4.18c0.182-0.093,0.372-0.151,0.575-0.173c1.096,0.101,1.684,0.722,1.842,1.787
		c0.004,0.208-0.026,0.411-0.083,0.611c-0.949,2.302-2.585,3.728-5.123,3.997c-0.861,0.015-1.354,0.754-2.072,1.064
		c-0.589,0.254-1.08,0.458-1.486-0.226C78.147,83.704,79.526,83.248,80.127,82.143z"/>
	<path fill-rule="evenodd" clip-rule="evenodd" fill="#888987" d="M14.577,48.567c1.1,1.299,1.619,2.918,2.384,4.399
		c1.793,3.471,3.955,6.681,6.57,9.579c0.478,0.53,0.833,1.045,0.743,1.781c-3.772-3.247-6.307-7.398-8.415-11.812
		C15.276,51.292,14.313,50.101,14.577,48.567z"/>
	<path fill-rule="evenodd" clip-rule="evenodd" fill="#A7BC87" d="M67.199,82.553c2.815,0.003,5.63,0.007,8.445,0.01
		c0.138,0.079,0.184,0.156,0.137,0.233c-0.046,0.077-0.092,0.115-0.139,0.115C72.83,82.749,69.983,83.38,67.199,82.553z"/>
	<path fill-rule="evenodd" clip-rule="evenodd" fill="#969F88" d="M33.177,71.192c0.012,0.139,0.023,0.277,0.036,0.417
		c-1.236-0.481-2.539-0.884-2.874-2.431c0.133,0.004,0.267,0.009,0.401,0.014C31.823,69.529,32.595,70.245,33.177,71.192z"/>
	<path fill-rule="evenodd" clip-rule="evenodd" fill="#929886" d="M27.519,67.164c1.285,0.189,1.833,1.409,2.82,2.016
		C28.864,69.255,28.253,68.123,27.519,67.164z"/>
	<path fill-rule="evenodd" clip-rule="evenodd" fill="#A7B197" d="M61.901,82.132c0.673-0.007,1.347-0.014,2.02-0.021
		c0.321,0.029,0.628,0.085,0.795,0.412C63.779,82.378,62.75,82.902,61.901,82.132z"/>
	<path fill-rule="evenodd" clip-rule="evenodd" fill="#A2B18D" d="M75.642,82.912c0.006-0.117,0.007-0.233,0.002-0.349
		c0.803-0.005,1.606-0.011,2.408-0.016C77.335,83.241,76.451,82.829,75.642,82.912z"/>
	<path fill-rule="evenodd" clip-rule="evenodd" fill="#A6B098" d="M59.875,81.697c0.437,0.045,0.922-0.049,1.211,0.422
		c-0.679-0.086-1.444,0.278-2.01-0.389C59.343,81.719,59.609,81.708,59.875,81.697z"/>
	<path fill-rule="evenodd" clip-rule="evenodd" fill="#A9A9A8" d="M33.177,71.192c-0.846-0.625-1.901-0.996-2.438-2
		c0.324-2.615-1.105-4.88-1.468-7.37c-1.24-8.505-0.678-16.792,2.61-24.804c0.096-0.233,0.325-0.411,0.492-0.615
		c0.326,0.018,0.632,0.075,0.802,0.402c-1.083,3.842-2.508,7.565-2.942,11.611c-0.621,5.789-0.284,11.43,1.219,17.045
		C31.97,67.394,32.971,69.173,33.177,71.192z"/>
	<path fill-rule="evenodd" clip-rule="evenodd" fill="#C3C3C3" d="M63.92,22.494c-0.383-6.291,5.216-12.533,12.557-12.417
		c6.432,0.101,12.523,5.075,12.409,12.48c-0.11,7.073-4.899,12.346-12.554,12.585C69.751,35.349,63.38,29.215,63.92,22.494z"/>
	<path fill-rule="evenodd" clip-rule="evenodd" fill="#F7B619" d="M101.14,98.712c1.137-1.146,1.688-2.525,1.616-4.14
		c-0.044-1.005,0.489-1.85,1.324-1.999c0.863-0.154,0.885,0.986,1.222,1.577c0.668,1.172,0.237,2.467,0.312,3.709
		c0.065,1.094-0.429,2.27,0.38,3.28c0.375,0.626,0.223,1.321,0.18,1.969c-0.295,4.45,0.02,8.818,1.563,13.046
		c0.161,0.442,0.227,0.915,0.077,1.386c-1.561,1.147-2.144-0.221-2.362-1.2c-0.461-2.07-1.266-4.067-1.236-6.266
		c0.041-2.948,0.319-5.892,0.185-8.843c-0.019-0.395-0.005-0.793-0.229-1.242c-2.022,3.481-2.661,7.351-4.075,10.931
		c-0.642,1.624-1.151,3.293-1.745,4.933c-0.891,2.46-1.938,2.879-4.496,1.872c-0.906-0.598-1.235-1.389-0.813-2.431
		c1.902,1.355,1.951,1.374,2.796-0.838c1.475-3.859,3.346-7.583,4.085-11.701c0.133-0.542,0.267-1.085,0.4-1.628
		c-0.229-0.268-0.222-0.534,0.004-0.799C100.6,99.792,100.87,99.252,101.14,98.712z"/>
	<path fill-rule="evenodd" clip-rule="evenodd" fill="#EEE05F" d="M107.611,74.04c0.276,1.367,0.899,2.737-0.039,4.093
		c0,0-0.085-0.066-0.085-0.066c-0.59-3.309-3.255-3.82-5.892-4.37c-3.56,0.905-7.033,1.965-9.343,5.14
		c0.247,0.469-0.067,0.667-0.411,0.849c-0.802,0.404-1.065,1.147-1.232,1.951c0.04,0.37,0.138,0.735,0.108,1.111
		c0.045,2.802,0.571,3.43,3.132,3.719c0.389-0.002,0.776,0.001,1.165,0.006c0.305-0.003,0.607,0.018,0.908,0.071
		c0.313,0.064,0.576,0.212,0.778,0.463c-1.729,0.7-3.534,0.596-5.237,0.126c-2.253-0.622-2.81-1.709-2.86-4.603
		c-0.113-1.649,0.971-2.794,1.716-4.084c2.782-3.396,6.337-5.587,10.633-6.359C103.386,71.649,105.949,71.502,107.611,74.04z"/>
	<path fill-rule="evenodd" clip-rule="evenodd" fill="#F8BB17" d="M99.926,102.758c0.547,2.15-0.174,4.307-1.151,5.919
		c-1.244,2.053-1.307,4.446-2.577,6.408c-0.453,0.699-0.397,1.847-1.49,1.941c-1.136,0.099-1.201-1.056-1.663-1.729
		c0.481-1.656,1.829-2.742,2.764-4.093c1.693-2.448,2.507-5.101,2.504-8.043c1.813-0.282-0.175-1.945,0.927-2.542
		C99.892,101.216,99.122,102.253,99.926,102.758z"/>
	<path fill-rule="evenodd" clip-rule="evenodd" fill="#FBF3BB" d="M91.84,79.686c0.137-0.283,0.274-0.565,0.411-0.848
		c2.022,0.859,3.607,2.33,5.231,3.744c1.189,1.566,2.336,3.152,2.509,5.208c0.001,0.272,0.002,0.544,0.003,0.817
		c0.157,1.212,0.293,2.424-0.071,3.626c-0.83-0.79-0.551-1.911-0.63-2.817c-0.36-4.167-2.734-6.832-6.1-8.871
		C92.737,80.268,92.292,79.972,91.84,79.686z"/>
	<path fill-rule="evenodd" clip-rule="evenodd" fill="#FBCC32" d="M99.924,92.233c0.023-1.209,0.047-2.418,0.071-3.626
		c0.753,2.071,0.216,4.212,0.321,6.318c0.089,1.798,0.016,3.604,0.015,5.406c-0.001,0.267-0.003,0.533-0.004,0.799
		c-1.291-1.764-0.672-3.788-0.775-5.713c0.437-0.609-0.084-1.399,0.378-2.003C99.928,93.02,99.926,92.626,99.924,92.233z"/>
	<path fill-rule="evenodd" clip-rule="evenodd" fill="#7E7D7C" d="M90.27,82.541c0.113-0.301,0.226-0.603,0.338-0.904
		c0.412,0.166,0.825,0.331,1.237,0.496c1.393,1.418,2.821,2.812,3.24,4.876c-0.405-0.003-0.81-0.006-1.214-0.009
		C92.242,85.86,91.248,84.207,90.27,82.541z"/>
	<path fill-rule="evenodd" clip-rule="evenodd" fill="#868582" d="M95.085,87.009c-1.15-1.579-2.369-3.112-3.24-4.876
		c0.662,0.023,1.171,0.346,1.608,0.813c0.747,1.376,2.44,2.182,2.422,4.02C95.612,86.98,95.349,86.995,95.085,87.009z"/>
	<path fill-rule="evenodd" clip-rule="evenodd" fill="#8C8A86" d="M95.875,86.965c-0.76-1.369-1.956-2.475-2.422-4.02
		c1.564,0.961,2.603,2.393,3.51,3.939c-0.1,0.016-0.188,0.056-0.265,0.121C96.424,86.992,96.15,86.979,95.875,86.965z"/>
	<path fill-rule="evenodd" clip-rule="evenodd" fill="#FBE075" d="M99.93,93.414c-0.087,0.676,0.262,1.434-0.379,2.004
		C99.654,94.745,99.24,93.975,99.93,93.414z"/>
	<path fill-rule="evenodd" clip-rule="evenodd" fill="#F9EB6C" d="M90.617,78.887c-0.672,1.214-1.344,2.429-2.016,3.643
		c-0.792,0.947-0.391,2.065-0.336,3.087c0.035,0.667,0.102,1.26-0.535,1.539c-1.509,0.663-3.019,1.391-4.603,1.803
		c-1.948,0.506-3.378-0.223-3.804-2.366c0.001-0.137,0.001-0.275,0.002-0.413c0.784-0.561,1.463-1.223,1.991-2.034
		c1.915-0.994,3.838-1.978,4.848-4.053c0.878-0.349,1.571-1.011,2.403-1.434C89.286,78.294,90.043,77.834,90.617,78.887z"/>
	<path fill-rule="evenodd" clip-rule="evenodd" fill="#F6B11B" d="M93.857,117.727c3.229,0,3.331,0.032,4.309-2.997
		c1.019-3.154,2.513-6.153,3.129-9.436c0.382-2.034,2.081-3.607,1.982-5.818c-0.017-0.384,0.413-0.769,0.869-0.58
		c0.657,0.271,1.008,0.753,0.961,1.57c-0.152,2.688-0.082,5.396-0.368,8.067c-0.272,2.534,0.664,4.84,0.998,7.252
		c0.121,0.875,0.455,2.073,1.876,1.94c1.377-0.624,2.479-0.246,3.109,1.078c0.608,1.277-0.16,2.215-1.766,2.33
		c0.062-1.211-0.337-1.813-1.729-1.779c-1.596,0.039-2.518-0.914-2.923-2.51c-0.604-2.382-0.463-4.792-0.481-7.197
		c-0.009-1.26,0.098-2.518-0.533-4.115c-1.331,4.233-2.719,8.039-3.892,11.916c-0.453,1.497,0.746,1.604,1.712,1.863
		c0.493,0.1,0.971,0.268,1.479,0.289c1.021,0.126,2.203-0.012,2.408,1.458c-0.25,0.828-1.006,0.77-1.617,0.824
		c-0.917,0.082-1.544,0.664-2.268,1.092c-0.122,0.007-0.244,0.012-0.366,0.015c-0.543-0.018-1.087,0.152-1.63-0.004
		c-0.874-0.494-1.793-0.831-1.801-2.186c-0.004-0.748-1.028-0.886-1.665-1.236C94.901,119.151,94.292,118.5,93.857,117.727z"/>
	<path fill-rule="evenodd" clip-rule="evenodd" fill="#F9BD17" d="M95.881,122.989c3.936,2.189,8.229,2.162,12.541,2.02
		c1.246,0.352,2.328,1.061,3.399,1.728c1.23,0.767,1.188,2.068-0.091,2.425c-2.644,0.736-5.37,1.103-8.133,0.998
		c-0.193-0.008-0.338-0.204-0.463-0.358c0.327-0.902,0.102-1.571-0.856-1.88c-1.659-0.536-3.35-0.953-5.059-1.289
		c-0.559-0.109-1.156-0.012-1.25,0.669c-0.111,0.801,0.586,0.78,1.096,0.817c1.468,0.107,2.907,0.461,4.393,0.454
		c0.664-0.002,1.549-0.17,1.743,0.879c-0.334,0.758-0.887,1.221-1.726,1.309c-1.972-0.07-3.945,0.334-5.917-0.008
		c-0.971-0.608-2.083-0.958-3.042-1.573c-0.914-0.586-1.431-1.57-0.297-2.256C93.853,125.934,94.805,124.431,95.881,122.989z"/>
	<path fill-rule="evenodd" clip-rule="evenodd" fill="#F6B11B" d="M81.316,125.009c-0.604-2.477,0.359-3.93,2.65-5.091
		c1.585-0.805,3.157-1.399,4.854-1.75c1.08-0.224,1.859,0.303,2.234,1.287c0.487,1.282,0.85,2.613,2.716,2.136
		c0.107-0.027,0.326,0.38,0.492,0.586c-0.484,1.588-1.849,2.314-4.074,2.17c-2.917-0.188-3.489,0.482-2.917,3.417
		c0.052,0.27,0.005,0.532-0.115,0.779c-1.316,0.584-2.024-0.971-3.194-0.904C82.774,127.07,81.842,126.244,81.316,125.009z"/>
	<path fill-rule="evenodd" clip-rule="evenodd" fill="#F7B41A" d="M81.316,125.009c0.944,0.809,1.888,1.618,2.832,2.428
		c0.874,0.778,2.461,0.874,2.422,2.528c-0.938,0.572-2.206,0.375-2.944,1.516c-0.758,1.171-0.871,2.043,0.042,3.234
		c0.65,0.85,2.222,1.262,1.695,2.835c-1.079-0.404-2.158-0.81-3.237-1.214c-0.809-0.404-1.618-0.809-2.427-1.214
		c-0.269-0.672-0.528-1.349-0.811-2.016c-0.205-0.485-0.633-1.04-0.225-1.488c1.735-1.91,1.517-4.329,1.845-6.609
		C80.777,125.009,81.047,125.009,81.316,125.009z"/>
	<path fill-rule="evenodd" clip-rule="evenodd" fill="#F8BB17" d="M108.827,120.963c1.04,0.056,1.639-0.338,1.619-1.478
		c-0.017-0.998-0.611-1.395-1.472-1.555c-0.451-0.084-0.907-0.138-1.36-0.205c-1.414-3.732-2.033-7.605-2.018-11.584
		c0.006-1.675,0.64-3.304,0.399-5.001c0.135,0,0.269,0,0.404,0c0.001,1.483,0.003,2.967,0.005,4.45c0,0.674,0,1.349,0,2.023
		c0.712,0.885,0.587,2.007,0.863,3.016c0.118,1.389,0.4,2.738,1.002,4.007c0.882,1.855,2.899,2.815,3.728,4.714
		c1.032,1.873-0.158,2.8-1.552,3.638c-0.134,0.001-0.269,0.001-0.403,0.002c-0.853,0.592-1.758,0.997-2.833,0.807
		c-0.135,0.005-0.269,0.012-0.403,0.021c-0.083-0.005-0.167-0.01-0.25-0.014c-0.669,0.017-1.338,0.031-2.006,0.085
		c-0.593,0.057-1.181,0.001-1.769-0.072l-0.018-0.013c-0.41-0.533-1.164-0.385-1.625-0.818c0,0-0.025-0.008-0.025-0.009
		c0.497-2.191,2.321-1.354,3.668-1.606C106.093,120.868,107.47,121.014,108.827,120.963z"/>
	<path fill-rule="evenodd" clip-rule="evenodd" fill="#F8B719" d="M103.163,129.459c1.136,1.057,2.272-0.049,3.409-0.046
		c1.507,0.004,3.025-0.267,4.518-0.537c0.43-0.079,1.221-0.04,1.204-0.777c-0.013-0.534-0.402-0.895-0.979-1.12
		c-1.1-0.432-2.294-0.781-2.892-1.971c0.947-0.887,2.662-0.543,3.238-2.022c0.27-0.549,0.681-0.55,1.176-0.326
		c1.981,0.894,3.471,3.803,3.079,6.026c-1.242,1.22-3.001,1.466-4.425,2.348c-2.012,0.075-4.025,0.125-6.039,0.05
		c-0.875-0.276-1.757-0.381-2.655-0.096c-0.419,0.073-0.826,0.063-1.2-0.173c-0.176-0.167-0.193-0.35-0.052-0.547
		C102.249,130.329,102.602,129.686,103.163,129.459z"/>
	<path fill-rule="evenodd" clip-rule="evenodd" fill="#F7B519" d="M86.981,128.649c-0.733-1.729-0.861-3.355,0.61-4.834
		c0.485-0.488,0.842-0.676,1.537-0.383c1.914,0.807,3.9,0.279,5.133-1.255c0.405,0.269,0.81,0.537,1.215,0.806
		c-0.213,1.728-1.635,2.422-2.851,3.251c-1.974,1.346-1.995,1.315-1.084,3.48c-0.08,0.19-0.214,0.32-0.413,0.385
		C89.599,130.039,88.079,129.946,86.981,128.649z"/>
	<path fill-rule="evenodd" clip-rule="evenodd" fill="#F7B51A" d="M115.704,128.65c0.264-2.616-1.443-4.162-3.118-5.72
		c-0.305-0.284-0.622-0.047-0.927,0.056c-0.405-0.72-0.81,0.719-1.215,0.001c0.791-1.085,2.165-1.976,1.214-3.642
		c0.569-0.248,1.073-0.025,1.487,0.312c2.257,1.841,4.265,3.887,4.864,6.881C118.379,128.383,117.602,129.05,115.704,128.65z"/>
	<path fill-rule="evenodd" clip-rule="evenodd" fill="#F8B918" d="M91.431,129.864c-1.5-2.05-2.45-2.24,0.688-3.84
		c1.353-0.69,2.524-1.713,3.358-3.041c0.134,0.001,0.269,0.003,0.404,0.006c-0.33,1.915-1.373,3.269-3.148,4.079
		c-1.486,0.679-0.68,1.38,0.119,1.813c0.867,0.47,1.904,0.622,2.624,1.387C94.03,131.11,92.667,131.124,91.431,129.864z"/>
	<path fill-rule="evenodd" clip-rule="evenodd" fill="#F7B51A" d="M102.78,123.815c0.544-0.138,1.087-0.276,1.631-0.414
		c0.725,0.487,1.606-0.063,2.341,0.355c0,0,0.053,0.059,0.053,0.06C105.463,125.078,104.122,124.672,102.78,123.815z"/>
	<path fill-rule="evenodd" clip-rule="evenodd" fill="#F7B51A" d="M107.208,123.795c0.944-0.27,1.889-0.538,2.833-0.807
		C109.349,124.139,108.476,124.66,107.208,123.795z"/>
	<path fill-rule="evenodd" clip-rule="evenodd" fill="#F8BB17" d="M99.117,122.986c0.544-0.207,1.088-0.575,1.63,0.004
		C100.202,123.561,99.659,123.557,99.117,122.986z"/>
	<path fill-rule="evenodd" clip-rule="evenodd" fill="#FAD563" d="M101.138,122.984c0.648,0.06,1.498-0.279,1.625,0.818
		C102.086,123.797,101.424,123.763,101.138,122.984z"/>
	<path fill-rule="evenodd" clip-rule="evenodd" fill="#F5AB1D" d="M106.805,110.849c-0.324-1.056-0.505-2.128-0.402-3.236
		c3.013,0.464,6.112,0.554,8.896,2.023c1.801-0.232,2.932,1.155,4.31,1.874c2.585,1.348,4.783,3.202,6.187,5.849
		c0.529,1.247,0.911,2.527,0.901,3.898c-0.313,2.057-1.288,3.826-2.413,5.529c-1.079,1.429-2.366,2.656-3.72,3.822
		c-1.481,1.012-3.039,1.851-4.831,2.179c-1.473,0.033-2.966,0.354-4.39-0.306c-0.623-0.862-0.046-1.223,0.662-1.406
		c0.773-0.201,1.565-0.323,2.283-0.697c0.895-0.331,1.814-0.569,2.767-0.663c2.322-0.244,3.519-2.187,4.891-3.619
		c0.935-0.975,0.466-2.739-0.166-4.029c-1.757-3.588-4.647-6.235-7.649-8.739c-1.113-0.928-2.65-0.904-4.034-1.151
		C108.901,111.961,107.688,111.828,106.805,110.849z"/>
	<path fill-rule="evenodd" clip-rule="evenodd" fill="#F5AE1C" d="M125.414,117.323c-2.488-3.725-6.312-5.691-10.114-7.687
		c0.031-0.06,0.047-0.154,0.095-0.175c2.552-1.145,9.553,1.081,10.893,3.507c0.544,0.986,1.626,1.153,2.371,1.798
		c3.554,3.073,6.458,6.736,8.325,11.001c1.317,3.007,1.34,6.019-1.642,8.71c-2.182,1.969-4.223,4.215-6.976,5.021
		c-3.275,0.957-6.731,2.592-10.235,0.481c0-0.136,0-0.27,0-0.405c0.396-0.404,0.878-0.438,1.394-0.328
		c0.835,0.493,1.705,0.635,2.624,0.235c0.558-0.131,1.105-0.3,1.675-0.374c1.073-0.052,2.089-0.378,3.113-0.658
		c0.279-0.088,0.563-0.153,0.85-0.213c1.384-0.348,2.565-1.061,3.765-1.83c4.486-2.88,3.467-7.169,1.563-9.95
		C130.859,123.16,128.807,119.667,125.414,117.323z"/>
	<path fill-rule="evenodd" clip-rule="evenodd" fill="#F8B918" d="M156.565,138.764c0,0.404,0,0.809,0,1.214
		c-1.263-0.019-1.57,1.636-2.832,1.618C154.514,140.49,155.458,139.545,156.565,138.764z"/>
	<path fill-rule="evenodd" clip-rule="evenodd" fill="#F8B918" d="M149.283,144.833c0.598-0.856,1.431-1.359,2.427-1.618
		C151.189,144.186,150.342,144.668,149.283,144.833z"/>
	<path fill-rule="evenodd" clip-rule="evenodd" fill="#F8B918" d="M159.801,134.718c-0.03,0.82-0.564,1.263-1.214,1.618
		C158.618,135.517,159.153,135.075,159.801,134.718z"/>
	<path fill-rule="evenodd" clip-rule="evenodd" fill="#F8B918" d="M158.587,136.336c-0.03,0.82-0.564,1.263-1.214,1.618
		C157.404,137.135,157.938,136.693,158.587,136.336z"/>
	<path fill-rule="evenodd" clip-rule="evenodd" fill="#F8BC17" d="M111.255,132.287c1.618,0.002,3.236,0.005,4.854,0.007
		c0.868,0.512,1.667,1.129,2.46,1.738c1.489,1.146,1.334,2.449-0.472,2.865c-2.126,0.489-4.207,1.171-6.453,1.259
		c-4.184,0.164-8.365,0.507-12.526,1.013c-1.122-0.203-2.144,0.386-3.237,0.404c-0.135-0.138-0.285-0.256-0.453-0.354
		c-1.662-0.69-3.248-1.543-4.896-2.265c-1.988-0.87-2.132-1.883-0.483-3.193c0.839-0.667,1.472-1.538,2.354-2.146
		c0.896-0.289,1.673-0.075,2.354,0.549c0.507,0.877,0.104,1.573-0.516,2.152c-1.049,0.981-0.425,1.483,0.492,1.916
		c2.302,1.084,4.822,1.197,7.121,0.552c2.07-0.582,4.111-0.381,6.374-0.627c-0.943-1.401-2.353-1.654-3.578-2.176
		c-0.804-0.343-1.718-0.396-2.498-0.801c-0.601-0.311-1.476-0.584-0.788-1.585C104.743,130.678,108.064,130.553,111.255,132.287z"/>
	<path fill-rule="evenodd" clip-rule="evenodd" fill="#F8BA18" d="M99.117,139.168c1.872-0.398,3.745-1.118,5.617-1.115
		c2.345,0.003,4.61-0.722,6.945-0.499c2.252,0.214,4.25-0.941,6.421-1.165c0.466-0.048,0.99-0.194,1.08-0.747
		c0.104-0.641-0.435-0.946-0.88-1.226c-0.887-0.554-2.074-0.78-2.191-2.123c1.483-0.676,2.965-1.352,4.448-2.027
		c2.083,1.136,2.911,3.148,3.524,5.246c0.228,0.782-0.404,1.367-1.094,1.743c-0.775,0.424-1.626,0.635-2.49,0.74
		c-4.309,0.524-8.605,1.229-12.971,0.965c-0.973-0.06-1.838,0.372-2.746,0.611c-0.27,0.001-0.539,0.001-0.808,0.001
		C102.413,138.731,100.729,139.376,99.117,139.168z"/>
	<path fill-rule="evenodd" clip-rule="evenodd" fill="#F7B619" d="M95.88,139.169c0,0.134,0,0.269,0,0.403
		c-3.245,0.05-6.191-1.411-9.342-1.839c-0.393-0.054-0.784-0.122-1.176-0.184c-0.195-1.313-1.613-1.638-2.174-2.708
		c-0.409-0.778-1.504-1.289-0.725-2.371c0.775-1.074,1.083-2.7,2.915-2.609c0.398,0.02,0.798,0.002,1.198,0.002
		c1.627-0.42,2.756,0.44,3.816,1.479c-0.159,1.555-1.565,1.841-2.586,2.493c-1.533,0.979-1.595,1.6,0.026,2.502
		C90.343,137.735,93.274,138.002,95.88,139.169z"/>
	<path fill-rule="evenodd" clip-rule="evenodd" fill="#F7B619" d="M107.208,138.764c4.96,0.434,9.719-0.968,14.551-1.654
		c2.195-0.312,2.433-1.06,1.298-3.007c-0.768-1.317-1.662-2.561-2.5-3.837c1.081-1.213,2.16-2.426,3.241-3.638
		c1.001-0.65,1.721-0.085,2.188,0.684c1.112,1.83,2.215,3.685,2.946,5.705c0.658,1.82,0.288,2.707-1.451,3.631
		c-2.014,1.069-4.17,1.837-6.228,2.818c-0.489,0.187-0.995,0.161-1.503,0.106c-0.539,0-1.079,0-1.618,0
		c-2.264-0.616-4.582-0.323-6.877-0.403c-1.349,0-2.698,0-4.046,0c-0.132-0.091-0.176-0.18-0.132-0.271
		C107.12,138.809,107.164,138.764,107.208,138.764z"/>
	<path fill-rule="evenodd" clip-rule="evenodd" fill="#F7B31A" d="M107.208,138.764c0,0.135,0,0.271,0,0.405
		c-0.81,0.132-1.572,0.548-2.428,0.402C105.482,138.98,106.32,138.798,107.208,138.764z"/>
	<path fill-rule="evenodd" clip-rule="evenodd" fill="#ABABAA" d="M112.869,34.424c0.304,2.498,1.858,4.586,2.32,7.026
		c0.5,2.641,1.268,5.207,1.579,7.917c0.244,2.121,0.79,4.255,0.495,6.358c-0.494,3.521-1.06,7.048-2.09,10.473
		c-0.171,0.567-0.188,1.18-0.276,1.771c0.063,1.146-1.206,1.147-1.62,1.883c-0.49,0.798-1.345,0.686-2.095,0.843
		c-0.356-0.002-0.681-0.08-0.909-0.384c-0.415-0.896-0.016-1.709,0.281-2.52c3.618-9.9,3.353-19.716-0.595-29.464
		c-0.291-0.718-0.851-1.422-0.326-2.269C110.711,35.513,111.79,34.969,112.869,34.424z"/>
	<path fill-rule="evenodd" clip-rule="evenodd" fill="#F1DE14" d="M111.242,70.341c0.546-0.71,1.406-0.119,2.034-0.49
		c0.977-0.083,1.74,0.345,2.405,1.006c0.064,0.997-0.934,0.239-1.183,0.717c-0.811,0.158-1.622,0.317-2.433,0.476
		c-0.539-0.017-1.078-0.034-1.617-0.05C109.678,70.951,110.656,70.74,111.242,70.341z"/>
	<path fill-rule="evenodd" clip-rule="evenodd" fill="#F1DF24" d="M114.499,71.574c0.394-0.239,0.789-0.478,1.183-0.717
		c0.454,0.056,0.676,0.368,0.832,0.753C115.841,71.598,115.17,71.586,114.499,71.574z"/>
	<path fill-rule="evenodd" clip-rule="evenodd" fill="#7A786F" d="M101.595,73.697c0.856,0.015,1.733-0.083,2.564,0.067
		c2.5,0.452,3.339,1.589,3.328,4.302C105.522,76.61,103.559,75.153,101.595,73.697z"/>
	<path fill-rule="evenodd" clip-rule="evenodd" fill="#FAF070" d="M90.617,78.887c-0.931-0.624-1.553,0.093-2.325,0.438
		c-0.676,0.301-1.083,1.496-2.128,0.768c0.002-0.134,0.003-0.268,0.004-0.401c0.347-0.444,0.185-1.106,0.643-1.504
		c0.987-1.583,2.426-2.717,3.837-3.884c4.334-3.482,9.186-5.174,14.786-4.289c1.483,0.503,2.938,1.07,4.199,2.036
		c-0.116,1.23-2.216,0.443-2.022,1.989c-3.328-2.549-6.812-1.855-10.223-0.324C94.758,74.897,92.347,76.474,90.617,78.887z"/>
	<path fill-rule="evenodd" clip-rule="evenodd" fill="#F9E708" d="M109.633,72.051c-1.615,0.099-2.692-1.128-4.056-1.649
		c0.414-0.917,1.218-0.884,2.029-0.841c0.943,0.246,1.97,0.166,2.838,0.715c0.266,0.022,0.532,0.044,0.798,0.066
		c-0.365,0.505-0.982,0.889-0.794,1.658C110.177,72.016,109.905,72.034,109.633,72.051z"/>
	<path fill-rule="evenodd" clip-rule="evenodd" fill="#CBCBCA" d="M69.179,45.356c2.279-0.025,4.558-0.05,6.837-0.075
		c1.813-0.546,3.155,0.117,4.474,1.41c2.886,2.83,3.346,6.268,2.895,10.013c-0.187,1.084-1.39,1.489-1.676,2.511
		c-0.55,1.027-1.39,1.776-2.335,2.424c-4.748,2.718-9.533,2.161-12.884-1.496C62.313,55.585,63.57,48.671,69.179,45.356z"/>
	<path fill-rule="evenodd" clip-rule="evenodd" fill="#AEAEAE" d="M110.444,70.275c-0.969,0.114-1.937,0.211-2.847-0.281
		c-0.785-0.71-1.229-1.576-1.208-2.654c0.992-3.469,2.014-6.901,2.341-10.551c0.516-5.749-0.521-11.178-2.516-16.505
		c-0.271-0.722-0.779-1.458-0.229-2.28c1.215-0.649,2.43-1.298,3.646-1.946c1.381,3.476,2.702,6.955,3.392,10.667
		c1.327,7.143,0.572,14.07-1.794,20.874C110.924,68.48,110.473,69.314,110.444,70.275z"/>
	<path fill-rule="evenodd" clip-rule="evenodd" fill="#C1C0C0" d="M55.831,44.113c0.943,0.141,1.887,0.282,2.831,0.422
		c0.615,1.022-0.177,1.802-0.502,2.627c-2.675,6.786-1.247,13.856,3.901,18.775c3.553,3.395,7.802,4.913,12.721,4.459
		c0.612-0.056,1.212-0.094,1.751,0.283c0.525,0.636,0.742,1.362,0.642,2.182c-0.697,1.616-2.195,1.756-3.582,1.658
		c-9.951-0.706-18.018-6.418-20.274-17.115C52.313,52.643,53.129,48.191,55.831,44.113z"/>
	<path fill-rule="evenodd" clip-rule="evenodd" fill="#C8C8C8" d="M69.179,45.356c-1.091,1.731-2.963,2.758-3.857,4.741
		c-2.854,6.337,2.538,12.941,7.823,12.667c2.27-0.118,4.325-0.599,6.305-1.618c0.226,0.544-0.042,0.971-0.327,1.395
		c-1.105,1.279-1.54,3.034-2.915,4.127c-8.286,1.589-15.294-3.814-15.948-12.404c-0.235-3.099,0.961-5.944,2.764-8.489
		c0.573-0.81,1.323-0.793,2.144-0.492C66.505,45.308,67.842,45.332,69.179,45.356z"/>
	<path fill-rule="evenodd" clip-rule="evenodd" fill="#B3B2B2" d="M81.336,59.209c-0.124-1.206,1.03-1.475,1.595-2.176
		c0.813-1.735,2.552-2.416,3.957-3.479c0.844-0.419,1.613-0.976,2.473-1.369c0.824-0.298,1.648-0.592,2.494-0.825
		c0.702-0.153,1.387-0.376,2.102-0.474c0.324-0.04,0.648-0.05,0.975-0.054c1.766,0.102,3.563-0.286,5.292,0.339
		c0.765,0.205,1.292,0.912,2.341,1.091c-0.033-2.417-0.539-4.646-1.173-6.876c-0.471-1.656-1.491-3.148-1.478-4.946
		c0.92-0.839,2.068-1.067,3.248-1.208c1.067,0,1.264,0.902,1.549,1.606c2.898,7.154,3.571,14.457,1.335,21.924
		c-0.261,0.873-0.395,1.91-1.616,2.055c-0.754-0.662-0.517-1.576-0.621-2.408c-0.301-2.407-0.211-4.913-1.736-7.015
		c-2.521-2.787-5.767-1.837-8.821-1.63c-1.451,0.098-2.833,0.72-4.203,1.241c-2.104,0.796-3.932,2.063-5.737,3.368
		C82.717,58.805,82.172,59.35,81.336,59.209z"/>
	<path fill-rule="evenodd" clip-rule="evenodd" fill="#B9B9B9" d="M49.781,42.847c0.581-0.032,1.112,0.118,1.597,0.439
		c0.67,0.846,0.208,1.686-0.07,2.484c-3.1,8.894-1.192,16.804,4.68,23.932c5.149,6.25,15.322,9.336,23.097,7.028
		c1.185-0.001,1.823,0.602,1.949,1.769c-0.146,0.319-0.375,0.539-0.731,0.605c-1.195,0.913-2.657,0.937-4.034,1.072
		c-14.719,1.45-27.211-9.098-28.92-22.79c-0.611-4.9-0.295-9.822,2.166-14.338C49.601,42.98,49.691,42.914,49.781,42.847z"/>
	<path fill-rule="evenodd" clip-rule="evenodd" fill="#BEBDBD" d="M55.831,44.113c-0.43,2.508-1.821,4.682-2.177,7.28
		c-0.754,5.504,0.972,10.225,4.03,14.521c3.665,5.147,9.118,7.271,15.159,8.08c1.447,0.193,2.983,0.207,4.029-1.188
		c1.228,0.28,1.104,1.224,1.051,2.135c-1.83,1.768-4.147,1.37-6.274,1.158c-9.638-0.963-17.047-7.263-19.65-16.614
		c-1.324-4.754-0.924-9.442,0.872-14.03c0.283-0.724,0.744-1.265,1.341-1.721C54.803,43.639,55.329,43.823,55.831,44.113z"/>
	<path fill-rule="evenodd" clip-rule="evenodd" fill="#C4C3C3" d="M76.403,70.797c-2.729,0.436-5.456,0.369-8.08-0.483
		c-10.077-3.271-14.871-14.535-10.32-24.106c0.256-0.54,0.441-1.114,0.659-1.672c0.839-0.071,1.666-0.064,2.426,0.376
		c0.586,0.987-0.268,1.632-0.593,2.385c-4.308,9.987,1.779,19.197,10.398,20.815c1.716,0.322,3.515-0.271,5.181,0.513
		C76.585,69.288,76.815,69.994,76.403,70.797z"/>
	<path fill-rule="evenodd" clip-rule="evenodd" fill="#BBBBBB" d="M79.301,76.84c-0.808,1.335-2.293,1.079-3.429,1.173
		c-7.501,0.624-14.303-1.649-19.408-6.99c-6.505-6.805-8.967-15.08-5.974-24.457c0.343-1.075,0.912-2.102,0.887-3.281
		c0.7,0.037,1.452-0.2,2.051,0.38c-1.223,3.692-2.254,7.387-2.082,11.372c0.448,10.285,8.473,19.002,18.042,20.653
		c3.029,0.522,5.986,0.315,8.978-0.025C78.925,75.861,79.405,76.119,79.301,76.84z"/>
	<path fill-rule="evenodd" clip-rule="evenodd" fill="#C6C6C6" d="M76.073,68.773c-3.712,0.099-7.321,0.018-10.622-2.202
		c-7.338-4.935-8.798-14.021-4.593-20.9c0.133-0.218,0.156-0.505,0.229-0.759c1.365,0.08,2.769-0.28,4.082,0.371
		c-2.201-0.134-2.495,1.915-3.079,3.138c-4.142,8.675,2.555,18.239,11.141,17.932c1.073-0.039,2.149-0.006,3.224-0.006
		C77.103,67.278,76.739,68.049,76.073,68.773z"/>
	<path fill-rule="evenodd" clip-rule="evenodd" fill="#B1B1B1" d="M104.43,64.729c0.443-0.239,0.639-0.625,0.791-1.1
		c1.969-6.137,2.172-12.324,0.336-18.504c-0.6-2.021-0.952-4.193-2.396-5.892c0.761-0.825,1.855-0.884,2.825-1.229
		c1.033,3.166,2.345,6.235,2.898,9.562c1.105,6.652,0.585,13.11-1.953,19.381c-0.1,0.246-0.138,0.516-0.205,0.775
		C104.536,67.137,104.013,66.456,104.43,64.729z"/>
	<path fill-rule="evenodd" clip-rule="evenodd" fill="#B6B6B7" d="M80.087,80.103c0.101,1.551-1.172,1.505-2.07,1.581
		c-9.629,0.813-18.272-1.374-25.04-8.712c-4.453-4.827-7.032-10.486-7.297-17.171c-0.161-4.052,0.109-7.984,1.612-11.783
		c0.222-0.561,0.337-1.163,0.863-1.547c0.556,0.065,1.181-0.165,1.625,0.377c0,0-0.031,0.052-0.031,0.052
		c-1.561,1.917-1.944,4.272-2.262,6.586c-2.221,16.165,8.167,28.213,22.04,30.489c2.693,0.441,5.49,0.249,8.24-0.014
		C78.534,79.887,79.354,79.458,80.087,80.103z"/>
	<path fill-rule="evenodd" clip-rule="evenodd" fill="#C8C8C8" d="M86.987,53.819c-1.352,1.072-2.704,2.143-4.056,3.215
		c-0.032-2.991,0.515-6.113-1.714-8.648c-1.389-1.579-2.579-3.561-5.201-3.104c2.543-0.521,5.121-0.711,7.708-0.825
		C86.4,46.514,88.058,51.27,86.987,53.819z"/>
	<path fill-rule="evenodd" clip-rule="evenodd" fill="#BCBCBC" d="M78.561,76.032c-3.746,0.66-7.499,0.749-11.16-0.366
		c-8.56-2.607-13.938-8.308-15.989-17.021c-0.907-3.855-0.612-7.741,0.417-11.555c0.329-1.221,0.627-2.488,1.6-3.423
		c0.261,0.022,0.521,0.044,0.782,0.066c-2.664,5.557-3.305,11.26-1.213,17.149c2.832,7.97,8.498,12.673,16.717,14.347
		c2.685,0.547,5.411,0.999,7.998-0.474C78.487,74.855,78.648,75.361,78.561,76.032z"/>
	<path fill-rule="evenodd" clip-rule="evenodd" fill="#BCBCBC" d="M94.667,51.377c-0.27,0-0.539-0.001-0.809-0.002
		c-0.299-2.386-0.937-4.663-2.113-6.781c-0.281-0.506-0.6-1.055-0.308-1.689c1.154-0.511,2.359-0.811,3.619-0.896
		c2.005,2.16,2.518,4.901,2.904,7.664c0.145,1.037-0.418,1.588-1.554,1.515C95.833,51.152,95.209,50.994,94.667,51.377z"/>
	<path fill-rule="evenodd" clip-rule="evenodd" fill="#B5B5B5" d="M99.914,40.441c1.836,3.32,2.64,6.957,3.232,10.652
		c0.108,0.673,0.1,1.487-0.469,1.871c-0.664,0.449-0.89-0.587-1.445-0.74c-0.317-0.087-0.602-0.291-0.901-0.441
		c-0.521-3.628-1.891-7.026-2.848-10.536C98.201,40.703,99.035,40.504,99.914,40.441z"/>
	<path fill-rule="evenodd" clip-rule="evenodd" fill="#B8B8B8" d="M97.482,41.247c1.811,3.279,3.143,6.688,2.848,10.536
		c-1.84-0.81-3.779-0.226-5.664-0.405c0.046-0.048,0.084-0.125,0.14-0.141c3.087-0.894,3.129-0.906,2.11-4.19
		c-0.529-1.707-1.235-3.359-1.862-5.036C95.79,41.519,96.607,41.292,97.482,41.247z"/>
	<path fill-rule="evenodd" clip-rule="evenodd" fill="#C5C5C5" d="M86.987,53.819c0.345-3.62-1.594-6.443-3.263-9.361
		c0.727-0.603,1.604-0.291,2.413-0.395c0.285-0.085,0.562-0.028,0.721,0.206c1.702,2.51,3.349,5.042,2.549,8.32
		C88.626,53.05,87.967,53.75,86.987,53.819z"/>
	<path fill-rule="evenodd" clip-rule="evenodd" fill="#C2C2C2" d="M89.407,52.588c-0.314-3.139-1.263-6.035-3.27-8.526
		c0.592-0.569,1.343-0.324,2.032-0.395c0.399-0.279,0.778-0.129,1.119,0.095c1.627,1.073,3.203,6.056,2.547,8.018
		C91.025,52.05,90.216,52.319,89.407,52.588z"/>
	<path fill-rule="evenodd" clip-rule="evenodd" fill="#C0BFBF" d="M91.834,51.781c-0.123-2.433-0.987-4.639-2.107-6.756
		c-0.331-0.626-0.647-1.357-1.559-1.357c1.005-0.615,2.205-0.397,3.268-0.762c1.023,2.068,2.169,4.073,2.637,6.387
		c0.156,0.774,0.156,1.418-0.215,2.083C93.183,51.511,92.509,51.646,91.834,51.781z"/>
	<path fill-rule="evenodd" clip-rule="evenodd" fill="#B7B7B7" d="M80.087,80.103c-8.254,1.265-16.145,0.541-22.938-4.839
		c-6.164-4.881-10.03-11.132-10.204-19.231c-0.082-3.816-0.349-7.675,1.193-11.332c0.333-0.79,0.457-1.751,1.61-1.801
		c0.088,1.212-0.736,2.138-1.019,3.24c-2.051,8.01-1.431,15.683,3.554,22.476c6.282,8.559,14.762,12.367,25.439,10.737
		c0.925-0.141,1.845-0.309,2.767-0.464c0.106,0.156,0.084,0.291-0.067,0.404C80.312,79.563,80.2,79.833,80.087,80.103z"/>
	<path fill-rule="evenodd" clip-rule="evenodd" fill="#EFDB15" d="M80.424,79.292c0.022-0.135,0.045-0.27,0.067-0.404
		c0.138-0.14,0.275-0.279,0.413-0.419c0.381-0.224,0.598-0.637,0.986-0.859c0.869-0.396,1.696-0.594,2.259,0.47
		c-0.829,1.716-1.759,3.339-3.708,4.023C80.435,81.167,80.43,80.229,80.424,79.292z"/>
	<path fill-rule="evenodd" clip-rule="evenodd" fill="#F3E00E" d="M84.148,78.081c-0.809-0.508-1.618-0.508-2.427,0
		c-0.813-0.447-0.486-1.012-0.102-1.504c0.62-0.795,1.193-1.634,1.946-2.321c1.904-1.953,4.128-2.509,5.939-1.404
		c0.696,0.425,1.663,0.82,1.117,1.994c-1.214,1.213-2.428,2.427-3.642,3.64c-0.694-0.826-1.518-0.868-2.427-0.405
		C84.418,78.08,84.283,78.08,84.148,78.081z"/>
	<path fill-rule="evenodd" clip-rule="evenodd" fill="#EFDB15" d="M84.553,78.08c2.009-1.571,2.009-1.571,2.427,0.405
		c-0.271,0.402-0.541,0.805-0.812,1.207C86.053,78.73,85.511,78.196,84.553,78.08z"/>
	<path fill-rule="evenodd" clip-rule="evenodd" fill="#C7C7C6" d="M65.134,22.401c-0.555-5.218,5.25-11.397,11.158-11.095
		c6.8,0.348,11.348,4.829,11.362,11.369c0.013,6.193-4.868,11.266-11.328,11.218C70.25,33.848,65.018,29.341,65.134,22.401z"/>
	<path fill-rule="evenodd" clip-rule="evenodd" fill="#747372" d="M90.27,82.541c1.609,1.156,2.463,2.922,3.601,4.46
		C90.846,86.794,89.921,85.65,90.27,82.541z"/>
	<path fill-rule="evenodd" clip-rule="evenodd" fill="#F6AE1C" d="M108.827,120.963c-1.264,0.978-2.662,0.624-4.046,0.405
		c-0.197-1.629-1.468-1.111-2.428-1.215c-0.197-0.215-0.334-0.563-0.149-0.723c1.949-1.687,1.115-3.75,0.902-5.775
		c-0.132-1.259-0.517-2.546-0.267-3.621c-0.789,2.016-1.27,4.414-2.101,6.691c-0.413,1.133,1.069,1.918,0.402,3.023
		c-2.435-0.189-2.705-0.791-2.067-3.021c1.025-3.584,2.657-6.975,3.344-10.665c0.104-0.558,0.27-1.373,0.952-1.385
		c0.681-0.012,0.503,0.797,0.665,1.276c0.772,2.292,0.014,4.651,0.329,6.965c0.099,0.727-0.043,1.486,0.067,2.209
		c0.489,3.218,1.029,3.725,3.737,3.825c0.613,0.023,1.479-0.365,1.758,0.501C110.199,120.303,109.152,120.419,108.827,120.963z"/>
	<path fill-rule="evenodd" clip-rule="evenodd" fill="#F5AC1C" d="M101.14,119.75c-1.755-1.87-0.685-3.764-0.068-5.669
		c0.542-1.676,1.025-3.37,1.731-5.016c0.833,2.73,0.693,5.539,1.422,8.214c0.138,0.506-0.292,0.987-0.773,1.306
		c-0.566,0.375-1.086,0.8-1.099,1.569C101.949,120.019,101.544,119.884,101.14,119.75z"/>
	<path fill-rule="evenodd" clip-rule="evenodd" fill="#F9C015" d="M95.112,127.568c0.324-0.735,0.4-1.929,1.745-1.622
		c2.021,0.459,4.021,1.019,6.012,1.597c0.543,0.157,1.265,0.378,0.984,1.229c-0.264,0.801-0.829,0.338-1.368,0.357
		c-2.029,0.073-3.992-0.472-6.002-0.48C95.799,128.645,95.062,128.706,95.112,127.568z"/>
	<path fill-rule="evenodd" clip-rule="evenodd" fill="#F7B519" d="M91.431,129.864c1.313,0.48,2.682,0.421,4.045,0.404
		c2.023,0,4.045,0,6.068,0c0,0.135,0,0.27,0,0.404c0.082,0.427-0.187,0.632-0.526,0.696c-2.849,0.537-5.699,0.312-8.535-0.088
		C91.808,131.186,91.257,130.726,91.431,129.864L91.431,129.864z"/>
	<path fill-rule="evenodd" clip-rule="evenodd" fill="#F6AE1C" d="M91.43,129.864c0.519,1.442,1.795,0.579,2.63,0.91
		c2.364,0.938,4.7-0.074,7.024,0.23c0.137,0.019,0.306-0.215,0.46-0.332c0.405,0,0.81-0.001,1.214-0.001
		c0.809-0.318,1.618,0.086,2.427,0c2.158-0.03,4.316-0.275,6.474,0.001c0.944-0.128,1.888-0.898,2.832,0.001
		c-0.553,0.672-1.301,0.835-2.12,0.811c-0.577-0.018-1.059,0.097-1.115,0.803c-3.347-0.763-6.708-1.158-10.115-0.395
		c-2.075,1.472-4.251,1.3-6.473,0.4c-0.809-0.137-1.572-0.548-2.428-0.403c-0.805,0.512-1.43,0.135-2.023-0.408
		c-1.166-0.646-2.337-1.28-3.641-1.617c-0.608-1.011-1.974-1.263-2.428-2.427c1.264-0.343,1.892,0.801,2.833,1.212
		C88.464,129.054,89.947,129.459,91.43,129.864z"/>
	<path fill-rule="evenodd" clip-rule="evenodd" fill="#F5AE1C" d="M106.805,110.849c1.365,0.316,2.676,0.786,4.106,0.919
		c4.414,0.413,6.656,3.939,9.231,6.852c1.62,1.832,2.946,3.939,2.764,6.626c-0.033,0.49,0.014,1.11-0.346,1.291
		c-1.947,0.976-2.886,3.353-5.239,3.731c-0.561-0.944,0.242-1.318,0.773-1.76c1.883-1.564,2.131-3.421,0.737-5.508
		c-2.494-3.736-5.762-6.442-10.139-7.691c-0.265-0.075-0.476-0.235-0.676-0.414C106.986,113.734,106.933,112.281,106.805,110.849z"
		/>
	<path fill-rule="evenodd" clip-rule="evenodd" fill="#F6B21B" d="M108.017,114.895c3.601,0.13,6.123,2.391,8.655,4.524
		c0.943,0.794,1.544,1.992,2.315,2.995c1.976,2.569,1.728,4.751-0.814,6.601c-0.464,0.338-0.842,0.646-0.852,1.253
		c-0.944,0.135-1.888,0.27-2.832,0.405c-0.944-0.204-1.888,0.396-2.832-0.001c1.06-1.251,2.687-1.368,4.045-2.022
		c1.626-0.045,2.326-0.589,1.722-2.4c-1.033-3.094-3.032-5.282-5.768-6.904C110.641,117.701,108.67,116.837,108.017,114.895z"/>
	<path fill-rule="evenodd" clip-rule="evenodd" fill="#FAE795" d="M106.753,123.756c-0.785-0.092-1.66,0.414-2.341-0.355
		C105.193,123.511,106.06,123.061,106.753,123.756z"/>
	<path fill-rule="evenodd" clip-rule="evenodd" fill="#F7B519" d="M105.185,130.671c-0.809,0.667-1.618,0.136-2.427,0
		C103.567,130.06,104.376,130.06,105.185,130.671z"/>
	<path fill-rule="evenodd" clip-rule="evenodd" fill="#F7B21B" d="M120.963,139.168c1.976-1.297,4.261-1.928,6.365-2.952
		c1.34-0.651,1.839-1.547,1.202-2.895c-0.913-1.937-1.888-3.846-2.88-5.744c-0.372-0.712-1.028-1.037-1.854-0.949
		c1.105-1.616,2.015-3.323,2.426-5.26c0.291-0.257,0.66-0.302,0.914-0.06c2.996,2.852,5.604,5.934,6.471,10.167
		c0.592,2.892-1.294,4.308-3.19,5.727c-0.799,0.598-1.742,0.999-2.576,1.562c-0.271,0-0.54,0-0.81,0
		c-1.062,0.339-2.234,0.232-3.236,0.809c-0.54,0.136-1.079,0.27-1.618,0.405C121.923,139.482,120.847,140.22,120.963,139.168z"/>
	<path fill-rule="evenodd" clip-rule="evenodd" fill="#F6AF1C" d="M127.841,138.764c1.224-1.022,2.42-2.081,3.68-3.057
		c1.407-1.09,1.983-2.432,1.581-4.188c-0.98-4.276-3.467-7.525-6.879-10.15c0.063-1.415-0.569-2.691-0.81-4.046
		c3.657,1.401,5.143,4.843,7.315,7.671c1.669,2.174,2.611,4.454,2.425,7.225c-0.066,0.998-0.283,1.767-1.006,2.496
		C132.338,136.542,130.418,138.152,127.841,138.764z"/>
	<path fill-rule="evenodd" clip-rule="evenodd" fill="#F6AF1C" d="M120.963,139.168c0.404,0.27,0.81,0.54,1.214,0.81
		c-0.843,0.063-1.822,0.952-2.428-0.405C120.041,139.095,120.519,139.183,120.963,139.168z"/>
	<path fill-rule="evenodd" clip-rule="evenodd" fill="#F6AF1C" d="M123.795,139.573c0.881-1.063,2.102-0.763,3.236-0.809
		C126.031,139.344,124.947,139.595,123.795,139.573z"/>
	<path fill-rule="evenodd" clip-rule="evenodd" fill="#F9C015" d="M94.667,132.292c2.165-0.019,4.34,0.141,6.473-0.4
		c0.515,0.979,1.536,1,2.415,1.188c1.802,0.388,3.36,1.307,4.974,2.11c0.442,0.22,0.778,0.584,0.597,1.132
		c-0.143,0.433-0.589,0.674-0.957,0.574c-3.488-0.938-6.757,1.138-10.229,0.692c-1.626-0.208-3.109-0.576-4.502-1.445
		c-1.008-0.63-0.997-1.2-0.052-1.777C94.19,133.877,94.77,133.312,94.667,132.292z"/>
	<path fill-rule="evenodd" clip-rule="evenodd" fill="#F8BA18" d="M90.217,131.481c0.674,0.136,1.349,0.272,2.023,0.408
		c-0.115,1.062-0.923,1.544-1.701,2.065c-0.545,0.366-1.324,0.745-1.249,1.42c0.088,0.784,0.974,1.028,1.65,1.284
		c1.741,0.656,3.427,1.409,4.94,2.511c-2.89-0.405-5.725-1.008-8.342-2.365c-0.782-0.406-1.615-0.905-1.687-1.843
		c-0.079-1.029,0.999-1.104,1.649-1.505C88.458,132.867,89.551,132.469,90.217,131.481z"/>
	<path fill-rule="evenodd" clip-rule="evenodd" fill="#F4E20B" d="M90.622,74.845c-1.428-2.78-4.61-2.781-6.878-0.002
		c-0.333-0.318-0.37-0.704-0.257-1.125c0.619-1.177,1.721-1.926,2.57-2.9c3.474-2.759,7.307-4.737,11.728-5.485
		c0.712-0.121,1.474-0.181,2.098-0.63c0.387-0.378,0.783-0.76,0.972-1.275c0.273-0.743,0.766-1.587-0.029-2.23
		c-0.842-0.681-1.773-0.448-2.596,0.18c-0.375,0.286-0.638,0.692-0.989,1.006c-0.566,0.505-1.292,0.533-1.488-0.168
		c-0.667-2.391-2.905-3.022-4.529-4.351c-0.818-0.669-2.101-1.101-1.763-2.59c0.805-0.483,1.63-0.593,2.458-0.075
		c3.548,2.221,7.015,1.389,10.463-0.265c1.881,1.83,1.541,4.314,1.898,6.58c0.166,1.053,0.107,2.142,0.151,3.215
		c-0.225,1.758,1.302,2.171,2.297,2.993c0.227,0.782,0.907,1.39,0.871,2.272c-0.712-0.055-1.397,0.022-2.021,0.408
		C99.961,69.76,95.026,71.409,90.622,74.845z"/>
	<path fill-rule="evenodd" clip-rule="evenodd" fill="#CECECD" d="M68.775,53.704c0.03-2.461,2.324-4.724,4.814-4.749
		c2.545-0.026,4.923,2.358,4.892,4.902c-0.032,2.554-2.461,4.891-4.992,4.801C70.638,58.557,68.741,56.563,68.775,53.704z"/>
	<path fill-rule="evenodd" clip-rule="evenodd" fill="#F4E20B" d="M81.336,59.209c2.364-1.593,4.492-3.568,7.265-4.501
		c0.31,0.21,0.537,0.47,0.536,0.872c-0.121,0.493-0.53,0.702-0.916,0.936c-0.562,0.284-1.124,0.572-1.699,0.832
		c-2.702,0.974-4.314,3.307-6.361,5.098c-0.207,0.195-0.438,0.346-0.728,0.386c-0.305-0.057-0.49-0.24-0.568-0.538
		c0.194-0.382,0.389-0.764,0.583-1.146C80.079,60.501,80.707,59.855,81.336,59.209z"/>
	<path fill-rule="evenodd" clip-rule="evenodd" fill="#F5E20C" d="M78.866,62.293c0.143,0.138,0.286,0.276,0.428,0.415
		c0.277,0.474,0.008,0.873-0.172,1.285c-0.276,0.455-0.607,0.879-0.785,1.39c0.221,2.146,0.172,4.281,1.352,6.294
		c0.891,1.521,1.902,2.08,3.535,1.758c0.197,0.008,0.369,0.08,0.52,0.206c0,0.401,0,0.802,0,1.203
		c-0.75,1.032-2.224,1.61-2.022,3.237c-0.21,0.261-0.243,0.894-0.817,0.389c-0.38-0.694-0.956-1.197-1.603-1.629
		c-0.247-0.269-0.493-0.539-0.74-0.808c-0.283-0.425-0.565-0.851-0.848-1.276c-0.175-0.695-0.374-1.38-0.842-1.95
		c-0.156-0.67-0.312-1.339-0.468-2.009c-0.11-0.674-0.22-1.349-0.33-2.023c0.127-0.809,0.255-1.618,0.382-2.426
		C77.001,64.843,77.8,63.488,78.866,62.293z"/>
	<path fill-rule="evenodd" clip-rule="evenodd" fill="#F8E508" d="M89.003,55.425c-0.303-0.144-0.391-0.409-0.402-0.717
		c3.256-1.798,6.799-1.934,10.368-1.651c1.329,0.105,2.589,0.682,3.412,1.878c-0.017,0.642-0.441,0.974-0.974,1.138
		c-3.078,0.953-6.207,1.836-9.191-0.122c-0.955-0.626-1.848-0.501-2.808-0.526C89.273,55.59,89.138,55.59,89.003,55.425z"/>
	<path fill-rule="evenodd" clip-rule="evenodd" fill="#C9C9C9" d="M76.177,31.151c-4.029,0.635-8.745-3.897-8.638-8.698
		c0.103-4.602,4.249-8.879,8.819-8.669c4.952,0.228,8.816,3.981,8.637,8.988C84.818,27.693,81.335,31.152,76.177,31.151z"/>
	<path fill-rule="evenodd" clip-rule="evenodd" fill="#F2E00F" d="M89.003,55.425c0.135,0,0.27,0,0.405,0
		c1.119,1.79,2.968,2.688,4.682,3.712c0.934,0.558,1.624,1.162,1.778,2.26c0.056,0.4,0.042,0.883,0.5,1.011
		c0.514,0.143,0.606-0.382,0.827-0.692c0.392-0.55,0.8-1.185,1.471-1.319c0.969-0.195,2.016-0.4,2.836,0.471
		c0.918,0.975,0.003,1.912-0.143,2.833c-0.083,0.524-0.674,0.969-1.037,1.449c-0.162,0.117-0.335,0.145-0.523,0.071
		c-0.958-0.227-1.874,0.005-2.789,0.258c-3.389,0.649-6.469,1.985-9.229,4.069c-0.629,0.475-1.261,0.981-2.058,1.189
		c-0.217,0.035-0.433,0.036-0.65,0.013c-1.449-0.218-2.876-0.55-4.343-0.668c-1.45-0.117-2.426-0.776-2.233-2.417
		c0.105-0.897-0.56-1.644-0.417-2.531c0.001-0.584,0.271-0.988,0.809-1.214c1.242,0.57,1.573,1.943,2.478,2.824
		c0.818,0.796,1.583,1.189,2.639,0.474c0.555-0.376,1.158-0.596,1.875-0.587c4.124,0.049,4.539-1.544,5.775-4.396
		c0.525-1.213-0.349-1.986-1.207-2.697c-1.064-0.881-2.382-1.604-2.255-3.305C88.463,55.964,88.733,55.694,89.003,55.425z"/>
	<path fill-rule="evenodd" clip-rule="evenodd" fill="#FCF171" d="M85.779,70.427c3.383-2.615,6.923-4.899,11.333-5.331
		c0.933-0.247,1.865-0.25,2.797,0.002c0.138,0.017,0.275,0.034,0.413,0.051c-2.471,0.943-5.176,1.033-7.606,2.172
		c-2.314,1.085-4.451,2.433-6.526,3.9C85.51,71.238,85.495,70.91,85.779,70.427z"/>
	<path fill-rule="evenodd" clip-rule="evenodd" fill="#FBEE5D" d="M85.779,70.427c-0.003,0.337,0.089,0.625,0.411,0.795
		c-0.687,0.936-1.492,1.751-2.445,2.417c-0.128-0.015-0.256-0.025-0.386-0.032c-0.141-1.58,0.961-2.378,2.016-3.207
		C85.509,70.41,85.644,70.418,85.779,70.427z"/>
	<path fill-rule="evenodd" clip-rule="evenodd" fill="#F0DD13" d="M88.194,56.233c0.672,1.246,1.522,2.28,2.76,3.071
		c1.406,0.899,1.745,2.106,0.938,3.799c-1.292,2.712-2.876,4.629-6.238,3.884c-0.173-0.039-0.391,0.055-0.571,0.127
		c-0.905,0.363-1.611,1.576-2.67,1.096c-1.301-0.589-2.078-1.866-2.852-3.051c-0.256-0.393-0.45-0.825-0.672-1.24
		c0.135-0.404,0.27-0.809,0.405-1.213c0.135-0.135,0.27-0.271,0.405-0.406c0.821-0.241,1.381,0.366,2.037,0.642
		c0.682,0.287,1.381,0.503,2.101,0.655c4,0.847,4.514,0.317,3.499-3.464c-0.275-1.023-0.815-1.987-0.761-3.093
		C86.987,56.517,87.552,56.299,88.194,56.233z"/>
	<path fill-rule="evenodd" clip-rule="evenodd" fill="#EDDA16" d="M86.575,57.042c1.432,1.72,1.304,4.032,2.239,5.962
		c0.324,0.669-0.397,1.285-1.327,1.331c-2.817,0.137-5.489-0.212-7.788-2.032c1.514-1.443,3.021-2.894,4.543-4.328
		C84.891,57.363,85.654,56.993,86.575,57.042z"/>
	<path fill-rule="evenodd" clip-rule="evenodd" fill="#F4E20B" d="M85.375,70.401c-0.672,1.069-1.344,2.138-2.016,3.207
		c-1.652,0.74-2.648,0.543-3.856-1.214c-1.477-2.148-1.021-4.6-1.961-6.749c-0.034-0.077,0.35-0.337,0.54-0.511
		c0.591,0.692,0.851,1.535,0.788,2.401c-0.123,1.684,0.824,2.068,2.225,2.052C82.572,69.571,83.989,69.911,85.375,70.401z"/>
	<path fill-rule="evenodd" clip-rule="evenodd" fill="#CBCBCA" d="M76.55,16.182c3.576-0.276,6.144,3.089,6.334,6.254
		c0.208,3.455-3.165,6.7-6.64,6.691c-3.434-0.009-6.262-2.951-6.256-6.509C69.995,18.608,72.482,16.169,76.55,16.182z"/>
	<path fill-rule="evenodd" clip-rule="evenodd" fill="#F4E20B" d="M99.909,65.099c-0.933,0-1.865-0.001-2.797-0.001
		C98.045,64.536,98.977,64.534,99.909,65.099z"/>
	<path fill-rule="evenodd" clip-rule="evenodd" fill="#CDCDCD" d="M72.417,22.582c0.021-2.368,1.585-3.979,3.858-3.972
		c2.14,0.006,4.227,2.022,4.209,4.067c-0.018,2.025-2.198,4.069-4.284,4.016C73.98,26.636,72.396,24.915,72.417,22.582z"/>
</g>
</svg>
