<?xml version="1.0" encoding="utf-8"?>
<!-- Generator: Adobe Illustrator 19.0.0, SVG Export Plug-In . SVG Version: 6.00 Build 0)  -->
<svg version="1.1" id="Capa_1" xmlns="http://www.w3.org/2000/svg" xmlns:xlink="http://www.w3.org/1999/xlink" x="0px" y="0px"
	 viewBox="0 0 79.2 104.6" style="enable-background:new 0 0 79.2 104.6;" xml:space="preserve">
<style type="text/css">
	.st0{fill:#4D4D4D;}
</style>
<path id="XMLID_19_" class="st0" d="M79.1,44.3c-0.2-1.6-0.9-2-0.9-2s-1.5,3.6-2.6,3.2c-1.1-0.4,0.3-3.1-0.9-5.1c-1.3-2-2-3.1-2-3.1
	s-0.7,1.9-1.6,2.4c-1.4,0.7-3.2-0.7-3.2-0.7c0.2,2.6,0.1,7.8-1.8,10.6c-2.3,3.5-3.1,2.7-3.1,2.7s2.9-3.7,2.6-6.9
	c-0.3-3.3-2.3-9.4-2.4-8.5c-0.1,0.7-2.2,1.9-2.7,1.7c-0.4-0.1-1.8-1.9-2.5-1.7c-0.7,0.2-1.5,3.3-2.9,3.2c-0.7,0-0.9,3.6-0.5,7.1
	c0.4,3.5,2.6,6.8,2.6,6.8s-3.6-2.7-5.1-5.5c-1.4-2.8-1.8-3.6-2-4.1c-0.7-1.4-2.4-1.6-2.4-1.6s0.8,2.8-0.1,2.8c-1,0-2.4-2.6-2.4-2.6
	s-0.3,2.5,0.4,4.9c0.3,0.8-2.9-1.1-2.9-1.1s0.3,3.4,2.4,5.9c1.1,1.4,5.7,4,5.7,4s-4.2-1.5-7-2.9C40.2,45.1,38.8,40,38.8,40
	s-1.2-4-0.1-3c1.8,1.6,4.7,1.4,4.7,1.4s-2.8-4.4-1-4.2c3.6,0.5,5.5-0.7,5.5-0.7s-4.7-1.7-3.6-2.8c1.1-1.1-0.1-2.8-0.1-2.8
	s7.9-3.3,12.1-8.5c4.1-5.3,2.1-4.9,1.7-8.3c-0.3-2.5-1.4-2.8-1.9-3.7c-0.5-0.9-0.5-4.2-0.5-4.2s-3.2,0.4-3.6,3.2s-8.1,13.1-8.1,13.1
	s3.7-6.9,4-9.4c0.7-4.4-1.4-8.4-1.4-8.4s-2.5,4.9-2.8,3.7c-0.9-3.2-3-5.6-3-5.6s0.2,4-1,4.9c-1.1,0.9-2.2-2.9-2.2-2.9
	s-2,1.8-1.7,3.8c0.1,0.7,0.2,2,0.5,6.2c0.3,4.2-2.2,10.3-2.2,10.3s0.3-5.6-1.7-9.6c-2-4-4.9-7.8-5.7-7.1c-1.7,1.4-4.8-1.2-5.8-0.8
	c-1,0.4-1.3,3.4-1.8,4c-0.4,0.6-3.8,1.2-4.5,0.5c-0.9-0.8,1.2,7.4,3.1,11.2c2,3.8,8.2,5,8.2,5s-0.4,1.5-5.7-0.1
	c-4.2-1.3-8.1-6.8-9.8-9.7c0,0-1.1,3.1-3.3,3.6c-1.4,0.3-3.7-1.1-3.7-1.1s0,1.8-0.1,5.1c-0.1,3.3,3.6,4.8,2.5,6.2
	c-1.1,1.4-5.4-1.1-5.4-1.1s-0.6,1.1,0.4,3c1,1.9,2.4,4.1,4.6,6.2c1,1,6.6,3,6.6,3c1.4,0.9,3.5-0.5,7.6-1.3s6.4-1,7.9-1
	c1.5,0-1.5,2.5-1.5,2.5s2.6-0.4,4-2c0.6-0.7,2.5-0.3,2.5-0.3l0.7,6.1c0,0,1.4-1.6,1.5-3.2c0.1-1.5,1.3-3.3,1.3-3.3s1.9,4.9,5.4,13.8
	c-1.3-1.3-3-0.2-3-0.2s1.2,2.1,1.3,2.9c0.1,0.8-0.4,1.5,0.3,3.2c1,2.3-0.2,3,4,4.4c0.5,0.2,1.1,0.3,1.6,0.4
	c6.3,15.2,22.4,41.8,22.4,41.8l0.1-1.3l0.1,0.2c0-0.3-0.1-0.6-0.1-1l0-0.9c0,0,0-0.1-0.1-0.2c-0.5-6.4-1.2-13-2.1-17.6
	c-2.3-12-3.6-18.8-3.6-18.8s1.4,0.6,2,1.5c0.6,0.9,2,1.3,2,1.3l-1.9-4.1c0,0,0.9-1.1,1.5-1c1.4,0.3,3-0.6,3-0.6s-2.5-0.1-1.7-0.9
	c0.8-0.7,2.1-1.6,4.7-3.1c2.6-1.4,4.3-1.6,4.7-2.7c0,0,2.3-3.9,2.5-5C79.2,48,79.2,46,79.1,44.3z M65.3,90.8
	c0.3,2.4,0.5,4.8,0.7,7.1c-3-5.6-9.1-16.8-15.4-29.2c-1-2-1.9-3.9-2.8-5.7c3.1,0,5.8-0.8,5.8-0.8s-0.1,1.6,1,1.8
	c1,0.2-0.9,3.4-0.9,3.4s1.5-0.2,3.3-2.1c0.9-1,1,3.1,1,3.1s1.7-1.2,2.1-3.1c0.2-1.1,1.1,1.9,1.1,1.9S63.7,75.7,65.3,90.8z"/>
</svg>
