<?xml version="1.0" encoding="utf-8"?>
<!-- Generator: Adobe Illustrator 19.0.0, SVG Export Plug-In . SVG Version: 6.00 Build 0)  -->
<svg version="1.1" id="Capa_1" xmlns="http://www.w3.org/2000/svg" xmlns:xlink="http://www.w3.org/1999/xlink" x="0px" y="0px"
	 viewBox="0 0 68.6 86.9" style="enable-background:new 0 0 68.6 86.9;" xml:space="preserve">
<style type="text/css">
	.st0{fill:#4D4D4D;}
</style>
<g id="XMLID_15_">
	<g id="XMLID_16_">
		<path id="XMLID_24_" class="st0" d="M65.8,51.5C65.8,51.5,65.8,51.5,65.8,51.5C65.7,51.6,65.7,51.6,65.8,51.5z"/>
		<path id="XMLID_17_" class="st0" d="M68,18.8c0-2.2,1-4.5,0.5-4c-0.5,0.5-2.1,1.5-2.1,1.5V15c0,0,0,0-0.5,0.8
			c-0.5,0.8-3.8,3.4-3.8,3.4s-0.6,0.3-3.8,2.5c-3.2,2.2-6.2,6.9-6.2,6.9s-0.5-0.2-1.9-0.5s-3,1.4-3,1.4s3.5-5.4,4.3-9.1
			c0.8-3.7,0.3-9.1,0.1-11.4C51.4,6.8,52,0,52,0s0,0-1,1.3c-1,1.3-2.7,2-4.4,3.4c-1.8,1.4-3.9,4.8-4.2,5.4c-0.2,0.6-0.6-0.5-0.6-0.5
			s-0.5,1.9-0.6,2.4c-0.1,0.5-0.5-0.2-0.5-0.2s-2.9,7.3-3.7,13.2s1.6,9.5,2.1,10.5s0.1,3.2,0.4,3.6c0.3,0.5-1,1.2-1.6,0.8
			c-0.5-0.5-1.9-2.4-2.2-3.6c-0.2-1.2-0.4-8.2-1.1-13.5c-0.7-5.3-4.2-9.5-7.8-14.6S19.8,1,19.8,1s0.1,2.7-1.1,6.9s0.5,6.8,1.8,10.7
			c1.3,3.8,4,7.6,5,9.5c1,1.8,5.6,4.8,7.4,6.4c1.8,1.6,2.8,3.5,4.2,6.6c1.4,3.2,2,7.4,2.2,8.7c0.2,1.3-0.5,1.2-0.5,1.2l-1.8-2.2
			c0,0-2.8-8.1-4.2-11.2c-1.5-3.1-9.4-9.4-13.1-11.8s-9-2.8-12.5-2.8c-3.5-0.1-5.3,1.5-5.3,1.5s0,0,0.9,0.3c0.9,0.3,2.8,3.5,3.8,4.8
			s4.9,7.3,4.9,7.3s-2.4-0.5-5.9-0.8C2.1,35.5,0,36.5,0,36.5s2.2,3.3,4.6,5.7c2.4,2.4,6.5,5,8.6,5.5c2.2,0.5,6.2,3,6.2,3
			s0.4,0.5,0.7,0.8c0.3,0.3,10,1,10,1s0.4,0.2,1.2,0.3c0.8,0.1,4.8,1.6,6.5,2.6c1.7,1,4.3,3.3,5.3,6.8c1,3.5,5.8,12,5.8,12
			s-0.5,0-2.6-1.3c-2.2-1.3-7.8-6.6-9.9-7.9c-2.2-1.3-14.5-5.1-18.7-5.9c-4.2-0.8-7,0.1-7,0.1s0,0-0.5-0.1c-0.5-0.1-2.7,0.5-2.7,0.5
			s-1.1,0-1.6,0c-0.5,0-0.8,1.2-0.8,1.2s0,0-1.1,0c-1.1,0-3.3,2.2-3.3,2.2s1.6,1.5,4.5,1.5c1,0,0.5,1,0.5,1L9,65.4
			c0,0,0.1-0.2,0.4,0.2c0.3,0.4,2.6,0.8,2.6,0.8L11.6,67l3.5,0.3l-0.3,0.4l3,0.3l-0.5,0.5l3.5,0.4l-0.6,0.4c0,0,1.2,0.4,3.7,0.5
			c2.5,0.2,11.5,0.5,14.8,0.5c3.4,0.1,3.3,0.8,4.8,1.3c1.5,0.5,5.5,3.7,5.5,3.7s3.9,6.6,5.9,8.8c2,2.2,3.6,2.8,3.6,2.8
			c-0.2-1.5-6.7-10.2-7.4-12.3s-3.4-6.5-4.1-8.5c-0.2-0.5-0.3-1-0.4-1.5c-0.1-0.5-0.2-1-0.2-1.5c0-0.5,0-1.1,0-1.7
			c0-0.6,0-1.3,0.1-2.1c0.1-1.1,0.1-1.7,0.1-2.2c0.1-0.5,0.1-0.8,0.3-1.1c0.1-0.3,0.3-0.7,0.6-1.2c0.3-0.5,0.7-1,1.1-1.3
			c0.4-0.3,0.8-0.6,1.3-0.7c0.4-0.2,0.8-0.3,1.1-0.4c0.2-0.1,0.2,0-0.1,0.3c-0.2,0.3-0.6,0.6-1.1,1c-0.3,0.7-0.8,1.4-1.5,2
			c0,1-0.3,1.9-0.6,3c0.1,0.3,0.1,0.6,0.1,1c0,0.3,0,0.6-0.1,0.9c0.3,0.8,0.5,1.4,0.2,2.1c0.8,0.5,1.2,1.1,1.2,2.1
			c0.8,0,1.2,0.5,1.7,1.2c0.3-0.1,0.5,0.1,0.8,0.4c0.2,0,0.5,0.2,0.8,0.3c0.3,0.1,0.6,0.3,0.8,0.4c0.2,0.1,0.4,0.2,0.4,0.3
			c1.2,0,1.8,0.1,1.7,0.5c1.3-0.5,1.9-0.6,3.3-0.6c-0.2-0.4,0.4-0.7,1.5-1.1c-0.3-0.1-0.1-0.2,0.4-0.5c0-0.1,0.2-0.2,0.4-0.3
			c0.3-0.4,0.5-0.7,0.7-0.9c0.2-0.2,0.4-0.2,0.5,0.1c0.4-1.6,0.7-2.3,1.8-3.1c-0.7-0.3-0.6-0.8-0.1-2c-0.5,0.3-0.6-0.1-0.4-1
			c-0.3,0.1-0.4-0.2-0.4-0.7c-0.2-0.1-0.3-0.4-0.4-0.6c-0.2-0.5-0.3-0.8-0.5-0.7c0.1-0.1,0.4-0.1,0.5-0.1c0.6-0.4,1.2-0.7,1.4-0.8
			c0.6-0.7,0.8-1,1.1-1.4c0.3-0.4,0.5-0.9,0.9-2c-0.1,0.2-0.1,0,0.2-0.7c0,0.1,0,0,0-0.1c0,0,0,0,0,0.1c0-0.1,0.1-0.2,0.3-0.5
			c-0.3-0.1-0.4-0.5-0.3-0.8c0-0.2,0.2-0.4,0.5-0.5c-0.5-0.5-0.9-0.8-1-1.2c-0.1-0.4-0.1-0.8,0.2-1.3c-1.3,0.1-1.7-0.3-2.2-1.6
			c-0.6,0.5-1.2,0.3-1.9-0.1c-0.4,0.2-0.9,0.2-1.3,0.2c-0.4,0-0.6,0.1-0.6,0.1s0.5-1.9,1.2-3.2c0.8-1.3,3.7-3.8,3.7-3.8l-1.6,0.8
			c0,0,1.5-1.5,1.9-2.5c0.4-0.9,2.2-3.1,2.2-3.1S65.9,34.3,66,34s1.2-2.9,1.5-5.1c0.3-2.2,0.8-4.2,0.8-4.2l-1.1,0.8
			C67.2,25.5,68,21,68,18.8z M41.1,56.9c0,0-1.6-1.2-4.6-4.4c-3-3.2-2.2-4.2-2.2-4.2s1.4-0.3,1.7,0.5c0.2,0.7,3.5,3.7,4.4,5.5
			C41.2,56.1,41.1,56.9,41.1,56.9z M41.8,53.4c-0.1,0.3-0.2-1-0.4-4.6c-0.2-3.6-0.5-6.5,0-6.9c0.5-0.4,1.1,0.3,1.1,0.3
			c2.3,2,2.4,8.5,2.4,8.5s-0.5,0.2-1.8,1C41.8,52.4,41.8,53.1,41.8,53.4z M44.8,59c-0.5,0.8-0.6-0.4-1.4-1.5
			c-0.8-1.1-0.8-2.5-0.5-4.1c0.3-1.6,1.9-2.4,1.9-2.4s0,0.9,0.8,3.5C46.4,57.2,45.4,58.2,44.8,59z M47.5,47.2
			c-0.8-0.4-0.3-1.9-0.9-1.7c-0.6,0.2-0.7-2.1-0.7-2.1s-0.5,0.2-1.5,0s-0.8-2.6-0.8-2.6s-0.3,0.2-1.2,0c-0.9-0.2-0.5-1.7-0.4-3.1
			c0.2-1.4,0.8-1.2,2.3-2.5c1.6-1.4,0.9-2.8,0.9-2.8c1,1.2,0.8,2.7,0.7,4.2c-0.2,1.5-0.6,0.5-1.5,0.9s0.3,1.7,1.5,2.8
			c1.2,1.1,0.5,2.7,0.5,2.7s0.5,0,1.7,0s1.2,0.5,1.8,2.3C50.4,47.1,48.4,47.6,47.5,47.2z M51,29.5c0,0-0.2,2.2-1.3,2.8
			C48.6,33,48.1,33,48.1,33s-0.5-1.8-1.4-1.8c0,0,1.4-2.1,2.8-2.1C51.1,29.1,51,29.5,51,29.5z"/>
	</g>
</g>
</svg>
