<?xml version="1.0" encoding="utf-8"?>
<!-- Generator: Adobe Illustrator 19.0.0, SVG Export Plug-In . SVG Version: 6.00 Build 0)  -->
<svg version="1.1" id="Capa_1" xmlns="http://www.w3.org/2000/svg" xmlns:xlink="http://www.w3.org/1999/xlink" x="0px" y="0px"
	 viewBox="0 0 55 46.1" style="enable-background:new 0 0 55 46.1;" xml:space="preserve">
<style type="text/css">
	.st0{fill:#727176;}
</style>
<g id="XMLID_44_">
	<path id="XMLID_47_" class="st0" d="M55,32.4c0,1.4-2.7,2.4-3.1,3.7c-0.4,1.3,1.2,3.7,0.4,4.8c-0.8,1.1-3.6,0.3-4.7,1.1
		c-1.1,0.8-1.2,3.7-2.5,4.1c-1.3,0.4-3-1.8-4.4-1.8c-1.4,0-3.2,2.3-4.4,1.8c-1.3-0.4-1.4-3.3-2.5-4.1c-1.1-0.8-3.9,0-4.7-1.1
		c-0.8-1.1,0.8-3.5,0.4-4.8c-0.4-1.3-3.1-2.2-3.1-3.7c0-1.4,2.7-2.4,3.1-3.7c0.4-1.3-1.2-3.7-0.4-4.8c0.8-1.1,3.6-0.3,4.7-1.1
		c1.1-0.8,1.2-3.7,2.5-4.1c1.3-0.4,3,1.8,4.4,1.8c1.4,0,3.2-2.3,4.4-1.8c1.3,0.4,1.4,3.3,2.5,4.1c1.1,0.8,3.9,0,4.7,1.1
		c0.8,1.1-0.8,3.5-0.4,4.8C52.3,30,55,31,55,32.4z"/>
	<path id="XMLID_46_" class="st0" d="M41.9,8.1c0,0.8-2.6,1.1-2.8,1.8c-0.2,0.7,1.7,2.5,1.2,3.1c-0.4,0.6-2.8-0.6-3.4-0.2
		c-0.6,0.4-0.1,3-0.9,3.3c-0.7,0.2-1.8-2.1-2.6-2.1c-0.8,0-1.9,2.4-2.6,2.1c-0.7-0.2-0.3-2.8-0.9-3.3c-0.6-0.4-2.9,0.8-3.4,0.2
		c-0.4-0.6,1.5-2.4,1.2-3.1C27.6,9.2,25,8.8,25,8.1c0-0.8,2.6-1.1,2.8-1.8c0.2-0.7-1.7-2.5-1.2-3.1c0.4-0.6,2.8,0.6,3.4,0.2
		c0.6-0.4,0.1-3,0.9-3.3c0.7-0.2,1.8,2.1,2.6,2.1c0.8,0,1.9-2.4,2.6-2.1c0.7,0.2,0.3,2.8,0.9,3.3c0.6,0.4,2.9-0.8,3.4-0.2
		c0.4,0.6-1.5,2.4-1.2,3.1C39.3,6.9,41.9,7.3,41.9,8.1z"/>
	<path id="XMLID_45_" class="st0" d="M22.4,25.2c0,1.1-2.7,1.7-3,2.7c-0.3,1,1.4,3.1,0.8,3.9c-0.6,0.8-3.1-0.2-4,0.4
		c-0.8,0.6-0.6,3.3-1.6,3.6c-1,0.3-2.4-2-3.5-2c-1.1,0-2.5,2.3-3.5,2c-1-0.3-0.8-3-1.6-3.6c-0.8-0.6-3.4,0.4-4-0.4
		c-0.6-0.8,1.2-2.9,0.8-3.9c-0.3-1-3-1.6-3-2.7c0-1.1,2.7-1.7,3-2.7c0.3-1-1.4-3.1-0.8-3.9c0.6-0.8,3.1,0.2,4-0.4
		c0.8-0.6,0.6-3.3,1.6-3.6c1-0.3,2.4,2,3.5,2c1.1,0,2.5-2.3,3.5-2c1,0.3,0.8,3,1.6,3.6c0.8,0.6,3.4-0.4,4,0.4
		c0.6,0.8-1.2,2.9-0.8,3.9C19.7,23.4,22.4,24.1,22.4,25.2z"/>
</g>
</svg>
