<?xml version="1.0" encoding="utf-8"?>
<!-- Generator: Adobe Illustrator 19.0.0, SVG Export Plug-In . SVG Version: 6.00 Build 0)  -->
<svg version="1.1" id="Capa_1" xmlns="http://www.w3.org/2000/svg" xmlns:xlink="http://www.w3.org/1999/xlink" x="0px" y="0px"
	 viewBox="0 0 47.6 117.3" style="enable-background:new 0 0 47.6 117.3;" xml:space="preserve">
<style type="text/css">
	.st0{fill:#727176;}
</style>
<g id="XMLID_15_">
	<g id="XMLID_16_">
		<path id="XMLID_17_" class="st0" d="M23.1,6.2c0,0,0.2-0.8,0.9-2.1c0.6-1.4,0.4-4,0.4-4S24.1,0.6,23,2.5s-0.9,4.1-0.8,5.2
			c0.1,1.1-0.5,3.3-0.5,3.3l-0.3-2.5c0,0-0.4-0.1-0.8,0.4c-0.4,0.5,0.2,3.9,0.1,5.5c-0.1,1.5-2,4.3-2.5,5c-0.5,0.7-1.4,1.1-1.4,1.1
			s0.4-2.1,0.6-3.1c0.2-1-1-3.1-1-3.1s-0.2,0.6-0.5,1.5c-0.2,0.9,0.3,4.1,0.3,4.8c0,0.8-1.9,3.3-2.9,4.8c-1,1.5-2.1,5.4-2.1,5.4
			s-0.3,0.4-0.5-0.3s-0.8-2.8-1.4-2.8s-2.3-2.7-2.3-2.7s-0.5,0.7,0,2.1c0.4,1.4,1.8,2,2.5,2.8c0.7,0.8,1.3,2.6,1.3,2.6
			s-0.1,1.6-0.4,3.2c-0.3,1.6,0,2-0.5,2.2c-0.5,0.2-1.5-4.2-1.5-4.2S7.9,35,7.8,35.7c-0.1,0.7,0.3,2.5,1.3,3.9
			c1,1.3,0.7,1.3,0.7,1.3l-0.2,2.5c0,0-0.1-1.2-1-1.7s-1.4-4.2-1.4-4.2s-1.1,2.3-0.7,4.2c0.4,1.9,1.4,3.1,2.3,3.6
			c0.9,0.4,1,0.9,1.3,2.4c0.3,1.5,0.6,6.7,0.4,7s-1,0.3-1.2-0.4c-0.2-0.7-2-0.6-2.6-1.4s-2.4-2-3.7-2.3c-1.4-0.4-1.4-2.8-1.4-2.8
			S0.5,48.4,0.1,50c-0.4,2,0.5,3,2.3,4.4s6.4,0.7,7.2,0.6c0.8-0.1,0.8,0.8,1.6,2.4s2.3,6.2,2.3,6.2s-1.7-0.6-2.8-0.5
			c-1,0.1-1.1,1.2-2,3.7c-0.9,2.5,1.9,7,2,7.9c0.1,0.9-2.6,1.2-4.4,2.2s-3.8-0.4-3.8-0.4s1.7,2.7,3.3,3.4s4.4-0.1,5.3-0.5
			c0.8-0.4,1.7,0.1,2.1-0.2c0.4-0.3-1.1-2.1-1.1-2.1s0.9-0.5,1.4-0.5c0.5,0,1.3-1.4,2.4-1.9c1.1-0.5,3,1.7,3.6,2.7
			c0.6,1,2.7,5,2.7,5s-0.2,1.4,0.2,3.6s3.1,3.3,4.1,4.2s4,6.5,4.3,7.3c0.3,0.8-0.5,0.7-0.8,1.6c-0.3,0.9,1.8,2.4,1.8,2.4
			s-2.5,0.2-3.8,0.9c-1.3,0.7-1.5,2.7-1.5,2.7s2,0.4,2.7-0.2c0.8-0.6,1.4-0.7,1.4-0.7s-0.1,1.3,0.2,1.7s1.5-0.8,1.5-0.8
			s0.2,0.8,0.6,1.2c0.4,0.5,2.9,1.4,3.2,1.2c0.3-0.3,0-2.8,0-2.8s0.6,0.6,2.1,2.8c1.5,2.2,7.8,10,7.8,10l1.4-0.7
			c0,0-6.2-7.8-6.8-8.8c-0.7-1-0.8-2-0.8-3.7c0-1.7,1.4-4.4,2.6-6.6c1.2-2.3,0.8-4.1,0-5.8c-0.8-1.7-3.5-2.4-4-2.1
			c-0.5,0.4-1.5,0-3.1-1.2c-1.6-1.2-3.7,1.2-3.3,2.7c0.3,1.5-0.5,4-0.5,4s-1.1-1.4-2.4-3.5c-1.3-2.1-4-7.5-4-7.5s-0.7-1.4-0.3-2.7
			c0.3-1.3,1.2-1.4,2.2-2.1c1-0.7,1-0.2,3.2,0.8c2.2,1,4.7-1.6,5.2-4c0.5-2.4-2.5-2.2-2.4-2.6c0.1-0.4,0.3-2.6,0.3-2.6
			s-0.6,1.6-1.6,2.9c-1,1.3-2.1,1.6-3.1,1.2c-1-0.5,0.2-3.3-0.9-5.5s-2.4-2.3-3.4-1.9c-1,0.4-1.3-1-0.6-1.6c2.9-2.8,0.2-6.2,0.2-6.2
			s-2.5,0.5-4,1.7c-0.9,0.7-1.1-0.9-2.2-2.2c-1.1-1.3-2.2,0.7-2.2,0.7s0.7-2.1,1.2-4.8c0.5-2.7-1.9-4.5-1.9-4.5s0.2,3.3-0.6,5
			S14,60.7,14,60.7s-0.2-0.3-0.9-2.4s-1.1-4.9-1.3-5.6c-0.2-0.7,0.5-1.9,1.4-2.9c0.9-1.1,5.5-2.5,6.5-5c1-2.5-1.4-4.7-1.4-4.7
			s0.2,1.1,0,2.6c-0.2,1.4-1.9,3.3-3.6,4.4s-3.2,3.4-3.2,3.4s-0.6-2-0.6-3.9c0-1.9-0.6-6.6,0.2-9.2c0.8-2.6,2.9-3.4,4.6-5
			c1.8-1.7,0.9-4.1,0.9-4.1s-0.4,1-1,2.1c-0.6,1.1-1.5,1-2.5,2.3c-1,1.3-1.6,2.6-1.6,2.6s-0.1-2.5,0.5-4.4c0.5-1.8,3.3-6.4,3.3-6.4
			s1-0.5,2.6-1.3c1.6-0.8,2.1-2.5,2.1-2.5l-2.7,1c0,0,0,0,0.5-0.9c0.5-0.9,1.7-1.8,1.7-1.8s1.2-0.4,2.6-1.2c1.4-0.8,1.8-2.3,1.8-2.3
			l-3.4,1.8c0,0,0.6-0.9,1.5-2s1.1-2.5,1.1-2.5l-1.5,1.4c0,0,1-2.6,1.9-4.5c0.9-1.9,1.3-6.1,1.3-6.1s0,0-0.3,0.7
			C24.3,5,23.1,6.2,23.1,6.2z M17.9,74.2c0,0-1.6-1-2.5-0.7c0,0,0.8-1.9,0.8-2.6C16.2,70.3,17.9,74.2,17.9,74.2z M37.7,101.5
			c0.5,0,0.2-0.7-0.1-1.7c-0.3-0.9,0.9-3,1.7-4.7c0.8-1.6,0-4.1,0-4.1s0.3,0.5,0.7,1.4c0.4,0.9,0.2,2.7-0.6,4.5s-0.6,3.7-0.4,5.1
			c0.2,1.5,0.7,3.7,0.7,3.7s-0.4,0.2-1.4-1.3c-1-1.5-1.7-2.3-1.9-2.6C36.4,102,37.1,101.5,37.7,101.5z M18.2,68.6
			c0.9-0.4,2.5-1,2.4,0.8c-0.1,1.8-1.7,3.7,0.7,5.9c2.4,2.2,3.9,3,3.9,3l-0.9,3c0,0-0.6-1.7-0.4-2.3c0.2-0.6-1.2,1.4-1.2,1.4l-5-9.7
			C17.7,70.7,17.3,69.1,18.2,68.6z"/>
	</g>
</g>
</svg>
