<?xml version="1.0" encoding="utf-8"?>
<!-- Generator: Adobe Illustrator 19.0.0, SVG Export Plug-In . SVG Version: 6.00 Build 0)  -->
<svg version="1.1" id="Capa_1" xmlns="http://www.w3.org/2000/svg" xmlns:xlink="http://www.w3.org/1999/xlink" x="0px" y="0px"
	 viewBox="0 0 60.4 91.7" style="enable-background:new 0 0 60.4 91.7;" xml:space="preserve">
<style type="text/css">
	.st0{fill:#727176;}
</style>
<g id="XMLID_15_">
	<path id="XMLID_16_" class="st0" d="M53,57.1c3.3-2.3,9.6-7.1,6.5-11.9c-2-3.1-11.7,4.2-8.5-1.9c0,0.1,0,0.1,0,0
		c0.3-0.6,0.1-0.2,0,0c1.8-3.4,7-10.9,3.8-14.7c-3.8-4.4-9.9,2-12.5,5.1c-2,2.4-1.7-3.4-1.6-4.1c0.6-2.8,1.3-5.4,1.6-8.3
		c0.2-2.2-0.8-6.9-3.6-7.3c-3-0.4-4.7,5.6-6,5.1c-2.4-0.9,0-8.4-2.5-10.8c-2.6-2.5-4.9,4.4-6.7-0.3C19.7-2.5,4.8-4.6,7.3,14
		c0.7,5.1-4.4,1.4-4.5,5c0,3.5,7,7,6,9.4c-0.6,1.3-6-1.7-7.8,0.7c-1.7,2.2,0.9,6.3,2.6,7.7c2.3,1.8,4.6,3.1,7,4.7
		c0.6,0.4,4.9,4.2,1.8,4C8.4,45.2-0.4,45,0,50.7c0.4,5,9.4,6.6,13.1,7.7c-0.2-0.1-0.6-0.2,0,0c0.1,0,0.1,0,0,0
		c6.6,2.1-5.4,3.8-4.6,7.4c1.2,5.6,9.1,4.4,13.1,3.8c1-0.2,6.9-0.5,3.1,1.3c-1.8,0.8-3.4,3.5-1.3,5.2c1.6,1.2,11.4-1.3,11.7,0.4
		c0.1,0.8-2.7,4,1.1,6.1c2.2,1.2,4.7,0.9,6.4-0.8c0.6,1.1,1,2.3,1.3,3.8c0.1,0.8,0.6,4.4,1.5,5.6c0,0.1,0,0.1,0,0.2c0,0,0,0,0-0.1
		c0.4,0.5,0.9,0.5,1.5-0.5c0.3-0.6,0-2-0.4-3.4c-0.1-1.4-0.6-2.7-1.1-4c-0.3-1.1-0.3-2.2,0-3.2c3,0.7,5.7-0.8,6.6-3.7
		c1.2-4.2-3.1-4.5-3.6-5.1c-1.1-1.4,7.7-6.6,7.9-8.6c0.3-2.6-2.7-3.4-4.6-2.7C47.8,61.7,52.2,57.7,53,57.1z"/>
</g>
</svg>
