<?xml version="1.0" encoding="utf-8"?>
<!-- Generator: Adobe Illustrator 19.0.0, SVG Export Plug-In . SVG Version: 6.00 Build 0)  -->
<svg version="1.1" id="Capa_1" xmlns="http://www.w3.org/2000/svg" xmlns:xlink="http://www.w3.org/1999/xlink" x="0px" y="0px"
	 viewBox="0 0 56.6 79.8" style="enable-background:new 0 0 56.6 79.8;" xml:space="preserve">
<style type="text/css">
	.st0{fill:#727176;}
</style>
<g id="XMLID_15_">
	<path id="XMLID_16_" class="st0" d="M48.1,79.7c-0.8-2.1-0.9-4.1-1.3-6.3c-0.6-3-1.4-5.8-2.4-8.7c1.3-1.1,3.4-3.1,5.7-6.5
		c3.8-5.4,6.5-11.5,6.5-13.1c0.1-1.6-0.5-2.7-1.6-1.5c-1,1.2-2.5,6.7-5.8,12.3c-1.1,2-2.2,3.6-3.1,4.9c0.9-1.8,1.8-4.1,2.6-6.9
		c2.4-8.1,3.2-16.7,2.7-18.7c-0.5-2.1-1.7-3.2-2.5-1.3c-0.8,1.9-0.4,9.2-2.1,17.4c-0.5,2.5-1.1,4.7-1.7,6.5c0.2-1.6,0.3-3.4,0.3-5.4
		c0.1-9-1.7-17.9-2.9-19.9c-1.2-2-2.7-2.8-2.9-0.7c-0.2,2.1,2.3,9.6,3,18.4c0.4,5.3,0.3,9.4,0.1,11.9c-2.7-8.3-6.2-17.8-10.4-25.9
		c0-0.1-0.1-0.2-0.1-0.2c1-2.2,2.6-6.2,3.7-12.1c1.7-9.4,1.5-19.2,0.6-21.4c-0.9-2.3-2.3-3.4-3-1.2c-0.6,2.2,0.7,10.4-0.2,19.9
		c-0.6,6-1.6,10.5-2.2,13c-0.7-1.3-1.3-2.5-2-3.7c0.3-1.7,0.8-5,0.6-9.7c-0.3-6.9-1.7-11.3-2.6-12.2c-1-1-2.7-0.4-2.4,1.7
		c0.4,3.1,2.3,7,2.7,10.3c0.4,3.4,0.6,6.1,0.6,8C19.9,13.5,13.5,4.3,13.5,4.3s-3.3-4-4.5-3c-1.1,1.1-0.8,2,2.4,6.4
		c1.2,1.6,4.3,6.3,7.9,12c-0.3-0.3-0.5-0.5-0.8-0.8C12.6,13.6,8,11.1,6.6,11c-1.5-0.1-2.3,1.6-0.4,3.1c2.9,2.2,7.5,4,10.5,6.3
		c2.8,2.2,4.9,4.1,6.5,5.5c1.3,2.1,2.6,4.2,3.8,6.2c-2-1.7-5.2-4.1-9.7-6.8c-8.2-4.9-14.2-6.8-15.8-6.5c-1.8,0.3-2.2,2.5,0.4,3.7
		c3.9,1.9,9.7,2.9,13.8,4.9c6.6,3.4,11,6,12.5,7.1c0.2,0.2,0.4,0.2,0.5,0.3c0.7,1.3,1.5,2.5,2.2,3.7c-1.9-0.4-5.3-1.2-9.9-2.6
		c-3.5-1.1-7.3-3.7-10.6-4.8c-2.2-0.7-3.2,0.8-2.4,1.9c0.8,1,5.2,3.3,12.6,5c5.2,1.2,9,1.5,10.8,1.6c2,3.5,3.6,6.6,4.6,8.9
		c1.6,3.8,3.8,9.7,5.9,15.5c-1.6-1-4.8-3.1-8.9-6.7c-5.7-5-9.5-10.2-11.1-11.2c-1.6-1-1.8,0.3-1,2c0.8,1.7,6,7.3,12.2,11.9
		c2.5,1.9,4.7,3.2,6.4,4.1c-1.6-0.4-3.6-1-6-1.9c-5.7-2.1-10-5.1-11.5-5.3c-1.4-0.3-1.2,0.7-0.1,1.8c0.9,0.9,4.9,2.9,9.7,4.6
		c-0.9-0.2-1.9-0.4-2.9-0.6c-8-1.8-14.4-4.8-16.4-4.9c-2-0.1-1.4,1.2,0.2,2.4c1.7,1.2,9.6,3.8,17.8,5c5.2,0.8,8.9,0.6,10.9,0.4
		c0.5,0,0.9,0.1,1.2,0.1c0.7,1.8,1.3,3.6,1.9,5.2c0.2,1,0.5,1.9,0.5,2.9c0.1,1.8,0.4,3.7,1,5.4C46.1,80,48,79.7,48.1,79.7z"/>
</g>
</svg>
